<svg aria-hidden="true" style="position: absolute; width: 0; height: 0; overflow: hidden;" version="1.1" xmlns="http://www.w3.org/2000/svg" xmlns:xlink="http://www.w3.org/1999/xlink">
<defs>
<symbol id="logo" viewBox="0 0 101 32">
<path fill="#d3caea" style="fill: var(--color1, #d3caea)" d="M25.37 15.999c0 7.006-5.679 12.685-12.685 12.685s-12.685-5.679-12.685-12.685c0-7.006 5.679-12.683 12.685-12.683s12.685 5.679 12.685 12.685z"></path>
<path fill="#5d398e" style="fill: var(--color2, #5d398e)" d="M30.472 14.248v-7.87c0-0.338 0.17-0.508 0.508-0.508h7.236c0.338 0 0.508 0.17 0.508 0.508v7.87c0 0.338-0.17 0.508-0.508 0.508h-1.447c-0.338 0-0.508-0.17-0.508-0.508v-5.942c0-0.17-0.084-0.254-0.254-0.254h-2.818c-0.17 0-0.254 0.084-0.254 0.254v5.94c0 0.338-0.17 0.508-0.508 0.508h-1.447c-0.338 0-0.508-0.17-0.508-0.508v0.001z"></path>
<path fill="#5d398e" style="fill: var(--color2, #5d398e)" d="M40.019 14.832c-0.296-0.059-0.431-0.254-0.406-0.583l0.089-1.003c0.009-0.152 0.038-0.268 0.089-0.348s0.11-0.12 0.177-0.12c0.051 0 0.102 0.004 0.152 0.013s0.102 0.013 0.152 0.013c0.177 0 0.313-0.11 0.406-0.329 0.093-0.221 0.158-0.596 0.197-1.129 0.038-0.533 0.057-1.321 0.057-2.361v-0.064c0-0.338 0.17-0.508 0.508-0.508h4.862c0.338 0 0.508 0.17 0.508 0.508v5.332c0 0.338-0.17 0.508-0.508 0.508h-1.219c-0.338 0-0.508-0.17-0.508-0.508v-3.72c0-0.17-0.084-0.254-0.254-0.254h-1.219v0.013c-0.026 1.193-0.12 2.12-0.286 2.781s-0.425 1.128-0.781 1.402c-0.356 0.276-0.846 0.412-1.473 0.412-0.203 0-0.385-0.017-0.546-0.051l0.003-0.003z"></path>
<path fill="#5d398e" style="fill: var(--color2, #5d398e)" d="M52.472 14.305c-0.601-0.385-1.016-0.907-1.244-1.567-0.051-0.144-0.144-0.216-0.279-0.216h-0.267c-0.17 0-0.254 0.084-0.254 0.254v1.473c0 0.338-0.17 0.508-0.508 0.508h-1.231c-0.338 0-0.508-0.17-0.508-0.508v-5.332c0-0.338 0.17-0.508 0.508-0.508h1.231c0.338 0 0.508 0.17 0.508 0.508v1.473c0 0.17 0.084 0.254 0.254 0.254h0.267c0.135 0 0.228-0.071 0.279-0.216 0.237-0.66 0.653-1.183 1.251-1.567 0.596-0.385 1.297-0.578 2.101-0.578 0.694 0 1.313 0.138 1.859 0.412 0.546 0.276 0.971 0.665 1.276 1.168s0.457 1.077 0.457 1.72-0.154 1.216-0.463 1.72c-0.309 0.504-0.736 0.893-1.281 1.168s-1.161 0.412-1.847 0.412c-0.804 0-1.506-0.193-2.107-0.578h-0.001zM53.608 12.617c0.241 0.258 0.565 0.387 0.971 0.387s0.743-0.129 0.984-0.387c0.241-0.258 0.361-0.602 0.361-1.035s-0.12-0.776-0.361-1.035c-0.241-0.258-0.569-0.388-0.984-0.388s-0.73 0.129-0.971 0.388c-0.241 0.258-0.361 0.602-0.361 1.035s0.12 0.776 0.361 1.035z"></path>
<path fill="#5d398e" style="fill: var(--color2, #5d398e)" d="M60.531 14.457c-0.533-0.283-0.943-0.675-1.231-1.174s-0.431-1.067-0.431-1.701 0.157-1.226 0.47-1.727c0.313-0.499 0.745-0.887 1.295-1.161s1.171-0.412 1.866-0.412c0.592 0 1.125 0.106 1.599 0.318s0.859 0.512 1.155 0.901c0.075 0.102 0.115 0.199 0.115 0.292 0 0.152-0.102 0.283-0.305 0.393l-0.99 0.495c-0.084 0.051-0.17 0.075-0.254 0.075-0.144 0-0.287-0.080-0.431-0.241-0.254-0.237-0.563-0.356-0.927-0.356-0.398 0-0.721 0.131-0.971 0.393s-0.374 0.605-0.374 1.029c0 0.424 0.131 0.766 0.393 1.028 0.263 0.263 0.588 0.393 0.977 0.393s0.74-0.135 1.029-0.406c0.152-0.152 0.296-0.228 0.431-0.228 0.093 0 0.181 0.025 0.267 0.075l0.914 0.495c0.212 0.119 0.318 0.254 0.318 0.406 0 0.068-0.025 0.139-0.075 0.216-0.305 0.415-0.715 0.739-1.231 0.971-0.517 0.232-1.096 0.348-1.739 0.348-0.711 0-1.332-0.141-1.866-0.425l-0.004 0.001z"></path>
<path fill="#5d398e" style="fill: var(--color2, #5d398e)" d="M30.396 25.508v-5.332c0-0.338 0.17-0.508 0.508-0.508h1.231c0.338 0 0.508 0.17 0.508 0.508v1.473c0 0.17 0.084 0.254 0.254 0.254h1.524c0.168 0 0.254-0.084 0.254-0.254v-1.473c0-0.338 0.168-0.508 0.508-0.508h1.219c0.338 0 0.508 0.17 0.508 0.508v5.332c0 0.338-0.17 0.508-0.508 0.508h-1.219c-0.338 0-0.508-0.17-0.508-0.508v-1.473c0-0.17-0.084-0.254-0.254-0.254h-1.524c-0.17 0-0.254 0.084-0.254 0.254v1.473c0 0.338-0.17 0.508-0.508 0.508h-1.231c-0.338 0-0.508-0.17-0.508-0.508z"></path>
<path fill="#5d398e" style="fill: var(--color2, #5d398e)" d="M38.455 25.604c-0.398-0.36-0.596-0.852-0.596-1.479s0.235-1.103 0.704-1.454c0.47-0.351 1.115-0.527 1.936-0.527h1.485c0.17 0 0.254-0.059 0.254-0.177 0-0.17-0.11-0.309-0.329-0.419-0.221-0.11-0.508-0.165-0.864-0.165-0.457 0-0.855 0.102-1.193 0.305-0.144 0.084-0.267 0.126-0.369 0.126-0.119 0-0.232-0.055-0.342-0.165l-0.597-0.61c-0.119-0.119-0.177-0.241-0.177-0.369s0.064-0.241 0.19-0.343c0.313-0.237 0.702-0.427 1.168-0.572 0.466-0.144 0.948-0.216 1.447-0.216 1.041 0 1.831 0.222 2.374 0.666 0.541 0.444 0.813 1.052 0.813 1.821v3.479c0 0.338-0.17 0.508-0.508 0.508h-1.118c-0.161 0-0.286-0.028-0.374-0.083s-0.134-0.129-0.134-0.222c0-0.102-0.038-0.152-0.115-0.152-0.051 0-0.097 0.017-0.139 0.051-0.525 0.356-1.146 0.533-1.866 0.533s-1.252-0.18-1.65-0.54v0.004zM40.252 24.36c0.139 0.080 0.344 0.12 0.615 0.12 0.398 0 0.72-0.083 0.965-0.248s0.38-0.387 0.406-0.666l-0.292-0.013h-1.18c-0.482 0-0.724 0.152-0.724 0.457 0 0.152 0.070 0.268 0.209 0.35z"></path>
<path fill="#5d398e" style="fill: var(--color2, #5d398e)" d="M48.014 25.927c-0.075-0.059-0.115-0.139-0.115-0.241 0-0.084 0.026-0.177 0.075-0.279l1.332-2.399c0.033-0.059 0.051-0.119 0.051-0.177s-0.017-0.119-0.051-0.177l-1.321-2.374c-0.051-0.102-0.075-0.194-0.075-0.279 0-0.102 0.041-0.181 0.12-0.241s0.189-0.089 0.324-0.089h1.321c0.271 0 0.47 0.119 0.597 0.356l0.914 1.714c0.068 0.119 0.17 0.178 0.305 0.178h0.292c0.17 0 0.254-0.084 0.254-0.254v-1.485c0-0.338 0.17-0.508 0.508-0.508h1.219c0.338 0 0.508 0.17 0.508 0.508v1.485c0 0.17 0.084 0.254 0.254 0.254h0.305c0.144 0 0.245-0.059 0.305-0.178l0.939-1.714c0.126-0.237 0.325-0.356 0.596-0.356h1.27c0.135 0 0.241 0.030 0.318 0.089 0.075 0.059 0.115 0.139 0.115 0.241 0 0.084-0.025 0.177-0.075 0.279l-1.282 2.284c-0.033 0.059-0.051 0.128-0.051 0.203 0 0.051 0.013 0.102 0.038 0.152l1.345 2.488c0.051 0.102 0.075 0.194 0.075 0.279 0 0.102-0.038 0.183-0.115 0.241-0.075 0.060-0.181 0.089-0.318 0.089h-1.409c-0.271 0-0.47-0.122-0.596-0.369l-0.888-1.701c-0.059-0.119-0.157-0.178-0.292-0.178h-0.279c-0.17 0-0.254 0.084-0.254 0.254v1.485c0 0.338-0.17 0.508-0.508 0.508h-1.219c-0.338 0-0.508-0.17-0.508-0.508v-1.485c0-0.168-0.084-0.254-0.254-0.254h-0.305c-0.135 0-0.237 0.059-0.305 0.178l-0.914 1.714c-0.126 0.237-0.327 0.356-0.596 0.356h-1.332c-0.135 0-0.241-0.029-0.318-0.089z"></path>
<path fill="#5d398e" style="fill: var(--color2, #5d398e)" d="M59.235 25.508v-5.332c0-0.338 0.17-0.508 0.508-0.508h1.206c0.338 0 0.508 0.17 0.508 0.508v2.006c0 0.068 0.013 0.123 0.038 0.165s0.059 0.064 0.102 0.064c0.060 0 0.115-0.042 0.165-0.126l1.688-2.297c0.152-0.212 0.36-0.318 0.623-0.318h1.219c0.338 0 0.508 0.17 0.508 0.508v5.332c0 0.338-0.17 0.508-0.508 0.508h-1.18c-0.338 0-0.508-0.17-0.508-0.508v-2.043c0-0.144-0.042-0.216-0.128-0.216-0.051 0-0.11 0.038-0.177 0.115l-1.714 2.335c-0.152 0.212-0.36 0.318-0.623 0.318h-1.219c-0.338 0-0.508-0.17-0.508-0.508v-0.001z"></path>
<path fill="#5d398e" style="fill: var(--color2, #5d398e)" d="M68.629 25.508v-3.694c0-0.168-0.085-0.254-0.254-0.254h-1.371c-0.338 0-0.508-0.168-0.508-0.508v-0.875c0-0.338 0.17-0.508 0.508-0.508h5.509c0.338 0 0.508 0.17 0.508 0.508v0.875c0 0.338-0.17 0.508-0.508 0.508h-1.383c-0.17 0-0.254 0.084-0.254 0.254v3.694c0 0.338-0.17 0.508-0.508 0.508h-1.231c-0.339 0-0.508-0.17-0.508-0.508z"></path>
<path fill="#5d398e" style="fill: var(--color2, #5d398e)" d="M75.419 25.508v-3.694c0-0.168-0.085-0.254-0.254-0.254h-1.372c-0.338 0-0.508-0.168-0.508-0.508v-0.875c0-0.338 0.17-0.508 0.508-0.508h5.509c0.338 0 0.508 0.17 0.508 0.508v0.875c0 0.338-0.17 0.508-0.508 0.508h-1.383c-0.169 0-0.254 0.084-0.254 0.254v3.694c0 0.338-0.169 0.508-0.507 0.508h-1.231c-0.338 0-0.507-0.17-0.507-0.508z"></path>
<path fill="#5d398e" style="fill: var(--color2, #5d398e)" d="M81.371 23.719c0-0.075-0.042-0.144-0.126-0.203-0.279-0.203-0.494-0.45-0.642-0.743-0.148-0.292-0.222-0.611-0.222-0.958 0-0.66 0.255-1.183 0.768-1.567s1.207-0.578 2.088-0.578h2.92c0.339 0 0.508 0.17 0.508 0.508v5.332c0 0.338-0.169 0.508-0.508 0.508h-1.193c-0.338 0-0.508-0.17-0.508-0.508v-1.142c0-0.17-0.084-0.254-0.254-0.254h-0.355c-0.128 0-0.228 0.055-0.305 0.165l-0.965 1.409c-0.144 0.221-0.347 0.329-0.609 0.329h-1.383c-0.135 0-0.244-0.029-0.323-0.089-0.081-0.059-0.121-0.135-0.121-0.228s0.038-0.194 0.115-0.305l1.067-1.524c0.033-0.042 0.051-0.093 0.051-0.152l-0.001-0.001zM83.441 22.475h0.762c0.17 0 0.254-0.084 0.254-0.254v-0.596c0-0.17-0.084-0.254-0.254-0.254h-0.762c-0.263 0-0.461 0.046-0.596 0.139s-0.203 0.228-0.203 0.406c0 0.373 0.267 0.559 0.799 0.559z"></path>
<path fill="#5d398e" style="fill: var(--color2, #5d398e)" d="M19.758 24.134h-13.925l-1.732-10.208h17.388l-1.732 10.208z"></path>
<path fill="#5d398e" style="fill: var(--color2, #5d398e)" d="M21.81 15.748h-18.295l-0.314-2.398h18.923l-0.314 2.398z"></path>
<path fill="#c9b5d8" style="fill: var(--color3, #c9b5d8)" d="M15.966 18.489c0-0.093-0.074-0.167-0.169-0.167h-1.913c-0.056 0.002-0.109-0.022-0.147-0.058-0.038-0.038-0.060-0.089-0.060-0.145v-1.942c-0.002-0.076-0.064-0.138-0.14-0.138h-1.752c-0.082 0.002-0.147 0.067-0.147 0.149v1.933c0.002 0.054-0.020 0.107-0.058 0.147-0.040 0.038-0.091 0.060-0.147 0.060h-1.926c-0.085 0.002-0.152 0.071-0.152 0.156v1.73c0 0.085 0.071 0.154 0.156 0.154h1.926c0.054 0 0.107 0.020 0.145 0.058 0.040 0.038 0.060 0.091 0.060 0.145v1.944c0.002 0.076 0.064 0.136 0.138 0.136h1.741c0.089 0 0.16-0.074 0.16-0.162v-1.918c-0.002-0.114 0.091-0.207 0.205-0.207h1.917c0.089-0.002 0.163-0.074 0.162-0.165v-1.706l0.002-0.004z"></path>
<path fill="#5d398e" style="fill: var(--color2, #5d398e)" d="M19.965 16.149h-14.571l0.839-6.049c0.152-1.098 1.102-1.926 2.211-1.926h8.474c1.107 0 2.058 0.828 2.211 1.926l0.839 6.049h-0.002zM5.653 15.924h14.054l-0.802-5.794c-0.136-0.987-0.991-1.732-1.987-1.732h-8.474c-0.996 0-1.85 0.744-1.987 1.732l-0.802 5.794z"></path>
<path fill="#5d398e" style="fill: var(--color2, #5d398e)" d="M17.286 7.866h-9.211c-0.265 0-0.479 0.215-0.479 0.479v0.002c0 0.265 0.215 0.479 0.479 0.479h9.211c0.265 0 0.479-0.215 0.479-0.479v-0.002c0-0.265-0.215-0.479-0.479-0.479z"></path>
</symbol>
<symbol id="nav-arrow" viewBox="0 0 32 32">
<path d="M24.171 7.829v15.085h-3.52v-9.051l-11.565 11.565-2.514-2.514 11.565-11.565h-9.051v-3.52h15.085z"></path>
</symbol>
<symbol id="burger-menu" viewBox="0 0 32 32">
<path d="M4 24v-2.667h24v2.667h-24zM4 17.333v-2.667h24v2.667h-24zM4 10.667v-2.667h24v2.667h-24z"></path>
</symbol>
<symbol id="plus" viewBox="0 0 32 32">
<path d="M20.121 0c0.353 0 0.64 0.287 0.64 0.64v9.959c0 0.353 0.287 0.64 0.64 0.64h9.959c0.353 0 0.64 0.287 0.64 0.64v8.243c0 0.353-0.287 0.64-0.64 0.64h-9.959c-0.353 0-0.64 0.287-0.64 0.64v9.959c0 0.353-0.287 0.64-0.64 0.64h-8.243c-0.353 0-0.64-0.287-0.64-0.64v-9.959c0-0.353-0.287-0.64-0.64-0.64h-9.959c-0.353 0-0.64-0.287-0.64-0.64v-8.243c0-0.353 0.287-0.64 0.64-0.64h9.959c0.353 0 0.64-0.287 0.64-0.64v-9.959c0-0.353 0.287-0.64 0.64-0.64h8.243z"></path>
</symbol>
<symbol id="left-hand-mobile" viewBox="0 0 46 32">
<path fill="#876dc7" style="fill: var(--color1, #876dc7)" d="M16.118 18.192c0.048-1.113 0.531-2.017 1.506-2.618 0.445-0.274 1.305-0.486 2.125-0.688 0.637-0.157 1.251-0.308 1.627-0.478 8.026-3.627 2.439-14.637-5.402-14.404-8.218 0.244-15.975 3.074-15.975 3.074l1.448 5.089 0.838 1.071c0 0 7.076-2.677 9.292-2.818 0.217-0.014 0.447-0.031 0.685-0.050 2.188-0.168 5.068-0.388 5.362 1.796 0.204 1.516-1.313 2.192-3.047 2.966-1.037 0.463-2.151 0.96-3.023 1.691-0.723 0.607-2.904 2.517-2.64 6.486 0.247 3.711 0.945 4.665 1.387 5.27l0 0c0.031 0.042 0.060 0.082 0.088 0.121 1.164 1.638 4.527 3.063 7.494 3.187 1.207 0.051 2.362-0.189 3.493-0.576 0.58-0.198 1.157-0.402 1.735-0.607l0-0c0.566-0.2 1.131-0.4 1.699-0.594 1.474-0.506 2.871-0.355 4.209 0.469 1.236 0.76 3.803 3.222 5.377 4.037s4.425 1.6 5.917 1.164c1.492-0.435 3.004-2.116 3.004-2.116 0.915-1.102 2.992-4.613 2.701-4.94-0.483-0.545-2.412 1.944-2.412 1.944s2.039-2.872 1.527-3.39c-0.385-0.39-1.702 1.373-2.335 2.263-0.188 0.264-0.315 0.451-0.34 0.482 0 0 1.639-2.508 1.169-2.942s-2.546 2.889-2.546 2.889c0 0 1.679-2.695 1.118-3.132s-2.562 3.185-2.562 3.185c-0.080 0.102-0.184 0.215-0.307 0.333 0.204-0.619 0.585-1.795-0.027-1.848-0.484-0.042-1.203 3.244-3.415 2.194 0 0-0.938-0.63-1.493-1.135-0.402-0.366-0.798-0.738-1.194-1.11l-0-0c-0.42-0.395-0.84-0.79-1.267-1.177-1.389-1.26-2.955-2.16-4.873-2.319-0.988-0.082-1.969-0.051-2.903 0.308-1.094 0.421-2.185 0.821-3.365 0.94-0.998 0.101-1.981 0.087-2.932-0.254-0.869-0.312-1.487-0.891-1.624-1.836-0.092-0.635-0.148-1.286-0.121-1.926z"></path>
</symbol>
<symbol id="left-hand-desk" viewBox="0 0 50 32">
<path fill="#876dc7" style="fill: var(--color1, #876dc7)" d="M16.849 18.566c0-2.872 1.815-3.209 3.239-3.829 8.72-2.903 4.937-13.944-3.228-14.537-8.558-0.622-16.841 0.801-16.841 0.801l0.887 6.109 0.756 1.199c0 0 5.083-1.449 7.563-1.765s8.272-1.438 8.272 1.765c0 1.795-3.169 2.575-5.168 3.929-0.816 0.552-3.293 1.772-3.442 5.911-0.139 3.871 1.427 5.768 2.489 6.735s2.593 2.591 6.69 2.953c5.627 0 7.053-2.953 9.611-3.41 1.585-0.367 3.018-0.062 4.32 0.934 1.202 0.919 3.605 3.742 5.153 4.754s4.424 2.129 6.019 1.836c1.596-0.292 3.345-1.872 3.345-1.872 1.067-1.044 3.598-4.461 3.332-4.831-0.443-0.616-2.712 1.757-2.712 1.757s2.424-2.759 1.947-3.35c-0.358-0.445-1.913 1.242-2.665 2.096-0.143 0.163-0.258 0.295-0.329 0.377-0.039 0.045-0.066 0.075-0.076 0.086 0 0 1.969-2.424 1.527-2.923s-2.951 2.722-2.951 2.722 2.031-2.613 1.495-3.126c-0.536-0.513-2.999 3.027-2.999 3.027-0.094 0.097-0.214 0.203-0.354 0.312 0.278-0.62 0.799-1.797 0.169-1.917-0.498-0.095-1.595 3.233-3.78 1.91 0 0-0.907-0.753-1.429-1.335-0.378-0.422-0.749-0.85-1.121-1.277l-0-0c-0.394-0.454-0.788-0.908-1.19-1.355-1.308-1.454-2.838-2.553-4.812-2.921-1.017-0.19-1.958-0.266-3.838 0s-4.953 2.056-6.82 2.056-3.060-0.752-3.060-2.822z"></path>
</symbol>
<symbol id="right-hand-mobile" viewBox="0 0 58 32">
<path fill="#5d398e" style="fill: var(--color1, #5d398e)" d="M12.171 22.219c-2.336 0.291-3.456 0.758-5.186 2.005 0 0-2.841 2.201-3.261 1.37s1.819-2.167 1.819-2.167-3.386 1.712-3.698 0.938c-0.312-0.775 2.699-2.489 2.699-2.489s-4.212 2.035-4.527 1.136c-0.315-0.898 3.862-2.874 3.862-2.874s-3.271 1.337-3.537 0.424c-0.266-0.913 5.716-3.355 5.716-3.355-0.294-0.159-2.955-0.707-2.431-1.6s6.073-0.283 6.073-0.283z"></path>
<path fill="#5d398e" style="fill: var(--color1, #5d398e)" d="M43.168 25.327c-1.329 2.692-3.464 4.469-6.235 5.558-2.309 0.907-4.688 1.279-7.149 0.987-2.35-0.28-4.429-1.174-6.183-2.814-1.517-1.419-3.077-2.796-4.662-4.139-1.178-0.999-2.481-1.827-3.951-2.355-0.977-0.351-1.919-0.474-2.817-0.344-2.336 0.291-3.456 0.758-5.186 2.005 0 0-2.841 2.201-3.261 1.37s1.819-2.167 1.819-2.167-3.386 1.712-3.698 0.938c-0.312-0.775 2.699-2.489 2.699-2.489s-4.212 2.035-4.527 1.136c-0.315-0.898 3.862-2.874 3.862-2.874s-3.271 1.337-3.537 0.424c-0.266-0.913 5.716-3.355 5.716-3.355-0.294-0.159-2.955-0.707-2.431-1.6s6.073-0.283 6.073-0.283c3.832 0 7.357 0.825 10.509 3.024 0.542 0.378 1.042 0.815 1.542 1.252l0 0c0.223 0.195 0.447 0.39 0.674 0.58 1.392 1.165 2.884 2.165 4.625 2.742 2.115 0.701 4.203 0.6 6.245-0.273 1.362-0.582 1.943-1.664 1.606-3.173-0.179-0.8-0.407-1.589-0.635-2.379l-0-0v-0c-0.089-0.318-0.194-0.654-0.304-1.008-0.977-3.13-2.371-7.598 2.971-12.924 3.515-3.504 12.576-3.828 19.367-2.284 0.854 0.194 1.529 0.308 2.057 0.358l-0.761 7.915c-0.452-0.078-0.893-0.156-1.324-0.231-7.975-1.398-12.197-2.138-13.493 3.318-0.381 1.606 0.22 2.815 0.84 4.064 0.511 1.029 1.035 2.084 1.035 3.409 0 2.655-0.501 3.651-1.244 5.128l-0.001 0.001c-0.078 0.155-0.159 0.316-0.242 0.485z"></path>
</symbol>
<symbol id="right-hand-desk" viewBox="0 0 63 32">
<path fill="#5d398e" style="fill: var(--color2, #5d398e)" d="M12.345 21.654c-2.37 0.239-3.515 0.685-5.295 1.903 0 0-2.927 2.156-3.332 1.307s1.891-2.146 1.891-2.146-3.466 1.649-3.764 0.86c-0.297-0.79 2.789-2.45 2.789-2.45s-4.309 1.956-4.608 1.041c-0.298-0.914 3.975-2.812 3.975-2.812s-3.341 1.274-3.589 0.345c-0.248-0.929 5.863-3.254 5.863-3.254-0.293-0.167-2.973-0.783-2.422-1.672s6.152-0.143 6.152-0.143z"></path>
<path fill="#5d398e" style="fill: var(--color2, #5d398e)" d="M43.638 25.518c-1.408 2.687-3.61 4.431-6.44 5.467-2.358 0.862-4.774 1.182-7.257 0.829-2.371-0.337-4.454-1.289-6.19-2.986-1.502-1.468-3.048-2.895-4.62-4.289-1.169-1.037-2.468-1.903-3.943-2.471-0.981-0.378-1.93-0.523-2.842-0.414-2.37 0.239-3.515 0.685-5.295 1.903 0 0-2.927 2.156-3.332 1.307s1.891-2.146 1.891-2.146-3.466 1.649-3.764 0.86c-0.297-0.79 2.789-2.45 2.789-2.45s-4.309 1.956-4.608 1.041c-0.298-0.914 3.975-2.812 3.975-2.812s-3.341 1.274-3.589 0.345c-0.248-0.929 5.863-3.254 5.863-3.254-0.293-0.167-2.973-0.783-2.422-1.672s6.152-0.143 6.152-0.143c3.878 0.090 7.425 1.005 10.563 3.299 0.539 0.394 1.035 0.847 1.531 1.3l0 0c0.221 0.202 0.443 0.404 0.668 0.601 1.382 1.209 2.867 2.254 4.615 2.877 2.124 0.758 4.239 0.704 6.326-0.13 1.392-0.556 2.006-1.635 1.7-3.166-0.162-0.812-0.375-1.614-0.587-2.417l-0-0-0-0c-0.083-0.324-0.181-0.665-0.284-1.025-0.915-3.184-2.221-7.727 3.31-12.98 3.639-3.456 12.815-3.57 19.65-1.853 0.859 0.216 4.452 0.673 4.985 0.736l-0.567 8.083c-0.456-0.090-4.201-0.614-4.635-0.7-8.037-1.598-12.292-2.445-13.731 3.034-0.424 1.612 0.156 2.848 0.755 4.124 0.493 1.051 0.999 2.129 0.968 3.467-0.062 2.681-0.592 3.675-1.379 5.149l-0.001 0.001c-0.083 0.155-0.168 0.315-0.256 0.484z"></path>
</symbol>
<symbol id="combat-medic-backpacks" viewBox="0 0 50 32">
<path fill="none" stroke="#fff" style="stroke: var(--color1, #fff)" stroke-linejoin="miter" stroke-linecap="butt" stroke-miterlimit="4" stroke-width="0.7529" d="M34.712 6.357l0.535-0.226c2.896-0.423 5.122 4.879 2.43 6.571l-0.237 0.103"></path>
<path fill="#fff" style="fill: var(--color1, #fff)" d="M40.989 18.633c-0.257-0.342-0.543-0.632-0.86-0.918-0.243-0.202-0.453-0.402-0.715-0.583l-0.358-0.186c-0.196-0.080-0.387-0.16-0.593-0.21 0.153-0.879 0.154-1.334 0.030-2.098l0.367 0.090 0.309 0.269 0.292 0.208c0.443 0.305 0.899 0.696 1.091 1.215 0.090 0.243 0.136 0.52 0.183 0.774l0.256 1.438z"></path>
<path fill="#fff" style="fill: var(--color1, #fff)" d="M39.951 21.438c0.373-0.444 0.795-1.192 0.738-1.79-0.012-0.13-0.020-0.345-0.073-0.46-0.057-0.125-0.201-0.251-0.297-0.351-0.24-0.25-0.485-0.512-0.757-0.726-0.382-0.301-0.762-0.558-1.195-0.776-0.111 0.713-0.435 1.369-0.825 1.968-0.664 1.020-1.5 1.865-2.481 2.582-0.879 0.642-1.856 1.24-2.85 1.685l-1.145 0.504c-0.216 0.092-0.471 0.167-0.67 0.289-0.315 0.192-0.61 0.47-0.884 0.716l-1.394 1.306c-0.351 0.336-0.722 0.652-1.046 1.016-0.302 0.339-0.602 0.719-0.838 1.108-0.087 0.143-0.18 0.293-0.207 0.461-0.030 0.19 0.005 0.312 0.118 0.462 0.116 0.153 0.309 0.266 0.5 0.289 0.439 0.053 0.91-0.142 1.297-0.336 0.531-0.265 1.013-0.637 1.504-0.969l1.549-0.967 2.637-1.449 1.794-0.964c0.999-0.579 1.92-1.29 2.845-1.977 0.213-0.129 0.411-0.319 0.596-0.484 0.387-0.347 0.781-0.714 1.087-1.137z"></path>
<path fill="#fff" style="fill: var(--color1, #fff)" d="M31.144 5.392c-2.914 0.016-2.499 0.051-6.22 1.305l-13.723 5.428c-1.806 0.736-1.896 1.562-1.429 3.315l1.628 7.658c0.004 0.020 0.011 0.040 0.020 0.059 0.912 1.863 0.967 3.145 2.47 3.862l2.012 1.832c0.070 0.064 0.171 0.082 0.259 0.048l15.404-6.070c4.625-2.15 6.824-4.939 5.935-8.977-0.003-0.012-0.006-0.024-0.011-0.035l-2.179-5.677c-0.002-0.005-0.003-0.008-0.005-0.013-0.065-0.139-1.326-2.75-4.163-2.734z"></path>
<path fill="none" stroke="#aa97d7" style="stroke: var(--color2, #aa97d7)" stroke-linejoin="miter" stroke-linecap="butt" stroke-miterlimit="4" stroke-width="0.7529" d="M26.586 12.628l2.2-0.805"></path>
<path fill="none" stroke="#aa97d7" style="stroke: var(--color2, #aa97d7)" stroke-linejoin="miter" stroke-linecap="butt" stroke-miterlimit="4" stroke-width="0.7529" d="M27.326 11.203l0.65 2.125"></path>
<path fill="none" stroke="#aa97d7" style="stroke: var(--color2, #aa97d7)" stroke-linejoin="miter" stroke-linecap="butt" stroke-miterlimit="4" stroke-width="0.7529" d="M13.641 26.903c11.694-3.739 22.829-6.884 23.907-14.141"></path>
<path fill="none" stroke="#aa97d7" style="stroke: var(--color2, #aa97d7)" stroke-linejoin="miter" stroke-linecap="butt" stroke-miterlimit="4" stroke-width="1.6941" d="M24.21 25.877l-1.445-1.994c-2.494-5.706-3.465-8.931-4.614-14.721"></path>
<path fill="none" stroke="#aa97d7" style="stroke: var(--color2, #aa97d7)" stroke-linejoin="miter" stroke-linecap="butt" stroke-miterlimit="4" stroke-width="1.6941" d="M20.239 27.762l-1.494-2.272c-2.494-5.706-3.465-8.932-4.614-14.721"></path>
</symbol>
<symbol id="compression-bandage" viewBox="0 0 50 32">
<path fill="none" stroke="#fff" style="stroke: var(--color1, #fff)" stroke-linejoin="miter" stroke-linecap="butt" stroke-miterlimit="4" stroke-width="0.7529" d="M45.394 12.842l-0.167-0.624c-0.009-0.032-0.028-0.061-0.054-0.081l-5.587-4.305c-0.029-0.022-0.063-0.033-0.1-0.031-0.293 0.016-1.671 0.096-1.923 0.2-0.283 0.116-0.698 0.369-1.197 0.381s-1.694-0.219-3.060-0.014c-1.364 0.206-3.984 3.034-3.992 3.043-0 0-0 0-0.001 0l-0.205 0.225c-0.058 0.064-0.052 0.163 0.015 0.219l0.514 0.429c0.067 0.056 0.073 0.158 0.013 0.221l-1.678 1.763c-0.017 0.018-0.040 0.032-0.064 0.040l-6.413 2.053c-0.012 0.004-0.025 0.006-0.039 0.007l-1.221 0.062c-0.020 0.001-0.040-0.002-0.059-0.009l-0.93-0.337c-0.019-0.007-0.039-0.010-0.059-0.009-5.283 0.249-7.909 1.534-12.148 5.215-0.013 0.011-0.027 0.020-0.043 0.026l-3.055 1.233c-0.082 0.033-0.118 0.129-0.079 0.208l2.893 5.85c0.037 0.075 0.129 0.106 0.204 0.069l5.327-2.657c0.013-0.006 0.024-0.014 0.034-0.024l1.66-1.512c0.011-0.010 0.023-0.018 0.037-0.025l5.203-2.491c1.774-0.995 2.739-1.149 4.37-0.55 0.016 0.006 0.034 0.009 0.051 0.010 1.728 0.028 2.558-0.228 3.83-1.012 0.018-0.011 0.038-0.018 0.059-0.021l2.814-0.393c0.714-0.068 1.312-0.127 1.826-0.233M45.394 12.842l-2.326 0.345c-0.010 0.001-0.020 0.002-0.030 0.001-3.164-0.158-4.703 0.718-7.188 3.316l-1.595 1.975c-0.548 0.775-1.187 1.104-2.084 1.289M45.394 12.842l0.528 0.307c0.079 0.046 0.1 0.151 0.044 0.223l-0.729 0.956c-0.027 0.036-0.069 0.058-0.114 0.060l-1.030 0.043c-0.010 0-0.020 0.002-0.029 0.004l-1.998 0.486c-0.028 0.007-0.057 0.005-0.085-0.004-1.842-0.607-2.805-0.261-4.389 1.43l-2.916 3.394c-0.009 0.010-0.020 0.020-0.031 0.027-0.866 0.571-1.44 0.402-2.475 0"></path>
<path fill="#fff" style="fill: var(--color1, #fff)" d="M37.563 8c0.253-0.104 1.63-0.184 1.923-0.2 0.036-0.002 0.071 0.009 0.1 0.031l4.581 3.53c0.106 0.082 0.062 0.25-0.070 0.27l-4.765 0.731c-1.462 0.276-2.148 0.693-3.181 1.808l-2.18 2.486c-0.059 0.068-0.164 0.069-0.225 0.003l-3.986-4.274-0.638-0.533c-0.066-0.055-0.073-0.155-0.015-0.219l0.205-0.225c0.008-0.009 2.627-2.837 3.992-3.043 1.366-0.206 2.561 0.025 3.060 0.014s0.914-0.264 1.197-0.381z"></path>
<path fill="#fff" style="fill: var(--color1, #fff)" d="M27.499 20.399l2.845-0.397c0.676-0.064 1.249-0.12 1.743-0.216 0.051-0.010 0.093-0.046 0.111-0.095l0.235-0.625c0.021-0.055 0.008-0.117-0.033-0.159l-0.777-0.806c-1.557-1.337-2.433-2.107-3.614-3.717-0.039-0.053-0.107-0.076-0.17-0.056l-5.275 1.689c-0.107 0.034-0.141 0.168-0.064 0.249l4.312 4.526c0.219-0.113 0.444-0.244 0.686-0.394z"></path>
<path fill="#fff" style="fill: var(--color1, #fff)" d="M19.22 21.968c1.582-0.887 2.521-1.106 3.862-0.718 0.149 0.043 0.275-0.137 0.177-0.257l-3.992-4.861c-0.030-0.037-0.077-0.058-0.125-0.055-4.039 0.196-6.523 1.003-9.377 3.034-0.062 0.044-0.082 0.13-0.045 0.197 1.262 2.292 2.081 3.544 3.518 5.619 0.052 0.075 0.159 0.088 0.227 0.026l0.516-0.47c0.011-0.010 0.023-0.018 0.037-0.025l5.203-2.491z"></path>
</symbol>
<symbol id="draggers-for-evacuation" viewBox="0 0 50 32">
<path fill="#fff" style="fill: var(--color1, #fff)" d="M5.532 16.28c-1.635 0.425-2.38 0.782-3.292 1.497-0.098 0.077-0.098 0.224-0.001 0.302l5.229 4.239c0.004 0.003 0.007 0.005 0.010 0.009 0.080 0.073 1.194 1.063 2.748 1.114 1.488 0.049 2.32-0.215 2.441-0.256 0.011-0.004 0.021-0.007 0.032-0.009l4.416-0.83 25.308-6.067c0.001-0 0.001-0 0.002-0.001 0.040-0.011 2.672-0.701 3.571-1.448 0.716-0.596 1.043-1.449 1.149-1.78 0.026-0.082-0.010-0.169-0.085-0.213l-9.034-5.323c-0.058-0.034-0.127-0.038-0.187-0.006-0.781 0.409-6.24 3.256-7.617 3.711-1.484 0.489-14.334 3.049-14.344 3.051l-0.001 0-10.345 2.008z"></path>
<path fill="#aa97d7" style="fill: var(--color2, #aa97d7)" d="M17.228 20.393l-8.012-5.034c-0.152-0.095-0.106-0.328 0.071-0.359l1.096-0.188c0.048-0.008 0.097 0.002 0.137 0.027l7.937 4.999c0.008 0.005 0.016 0.011 0.024 0.018 0.829 0.721 0.857 1.262 0.774 1.847-0.011 0.077-0.068 0.139-0.143 0.159l-0.96 0.251c-0.125 0.033-0.247-0.063-0.25-0.192-0.019-0.793-0.202-1.133-0.675-1.527z"></path>
<path fill="#aa97d7" style="fill: var(--color2, #aa97d7)" d="M27.142 18.314l-7.759-4.838c-0.152-0.095-0.107-0.328 0.070-0.359l1.094-0.188c0.047-0.008 0.096 0.001 0.137 0.027l7.686 4.804c0.009 0.005 0.017 0.011 0.024 0.018 0.829 0.72 0.856 1.261 0.774 1.847-0.011 0.077-0.068 0.139-0.143 0.159l-0.96 0.25c-0.125 0.033-0.247-0.063-0.25-0.192-0.019-0.793-0.202-1.133-0.675-1.527z"></path>
<path fill="#aa97d7" style="fill: var(--color2, #aa97d7)" d="M35.657 16.088l-7.672-4.195c-0.155-0.085-0.127-0.315 0.043-0.361l1.081-0.289c0.049-0.013 0.102-0.007 0.146 0.018l7.643 4.28c0.011 0.006 0.023 0.014 0.033 0.023 0.825 0.719 0.853 1.259 0.77 1.843-0.011 0.077-0.068 0.139-0.143 0.159l-0.96 0.25c-0.125 0.033-0.247-0.063-0.25-0.192-0.019-0.785-0.198-1.126-0.66-1.515-0.010-0.008-0.020-0.015-0.032-0.022z"></path>
<path fill="none" stroke="#fff" style="stroke: var(--color1, #fff)" stroke-linejoin="miter" stroke-linecap="butt" stroke-miterlimit="4" stroke-width="0.7529" d="M10.338 21.536c-3.552 0-6.564 3.616-6.564 3.616M5.074 17.888c-2.487 1.191-3.375 2.521-4.523 3.876"></path>
<path fill="none" stroke="#aa97d7" style="stroke: var(--color2, #aa97d7)" stroke-linejoin="miter" stroke-linecap="butt" stroke-miterlimit="4" stroke-width="0.7529" d="M11.587 16.291c-2.070 0.421-4.027 0.406-6.514 1.596-0.696 0.333-1.511 0.629-1.808 0.983M46.974 12.164l-0.668 1.133c-0.011 0.018-0.023 0.033-0.039 0.047-0.208 0.18-1.795 1.529-3.228 2.076-1.531 0.583-19.44 4.319-19.574 4.347-0.004 0.001 0.002-0.001-0.002 0.001-0.131 0.037-8.21 2.274-9.618 2.277-1.42 0.002-1.891-0.552-3.507-0.507-0.591 0.016-2.305 0.047-2.964 0.769"></path>
</symbol>
<symbol id="hemostatic-applicator" viewBox="0 0 50 32">
<path fill="none" stroke="#fff" style="stroke: var(--color1, #fff)" stroke-linejoin="miter" stroke-linecap="butt" stroke-miterlimit="4" stroke-width="0.6765" d="M42.621 8.925l-1.934 1.592 0.705 2.131 2.22 0.285 0.665 2.448c0.299 0.312 0.403 0.238 0.565 0.010-0.126-3.977-0.579-6.042-2.598-9.207-0.266-0.106-0.35-0.069-0.374 0.188l0.751 2.555z"></path>
<path fill="none" stroke="#fff" style="stroke: var(--color1, #fff)" stroke-linejoin="miter" stroke-linecap="butt" stroke-miterlimit="4" stroke-width="2.0295" d="M27.007 15.986l13.755-4.398"></path>
<path fill="none" stroke="#fff" style="stroke: var(--color1, #fff)" stroke-linejoin="round" stroke-linecap="butt" stroke-miterlimit="4" stroke-width="2.0295" d="M25.065 11.573c1.776 3.201 2.421 5.265 3.036 9.356"></path>
<path fill="#fff" style="fill: var(--color1, #fff)" d="M5.814 19.482l20.274-6.32 2.012 6.249-20.377 6.248c-1.67 0.512-3.444-0.394-4.008-2.047-0.587-1.722 0.361-3.589 2.098-4.13z"></path>
<path fill="none" stroke="#aa97d7" style="stroke: var(--color2, #aa97d7)" stroke-linejoin="miter" stroke-linecap="butt" stroke-miterlimit="4" stroke-width="0.9412" d="M6.481 19.023l2.118 6.496"></path>
</symbol>
<symbol id="hemostatic-bandage" viewBox="0 0 49 32">
<path fill="#fff" style="fill: var(--color1, #fff)" d="M10.105 30.144l-4.954-9.947c-0.164-0.329 0.030-0.724 0.39-0.796l3.812-0.762-1.508-2.986c-0.21-0.416 0.153-0.892 0.61-0.798l10.586 2.164 6.988-10.701c0.202-0.31 0.644-0.341 0.888-0.062l3.091 3.542 3.658-5.524c0.172-0.26 0.524-0.328 0.781-0.152l10.445 7.154c0.259 0.177 0.321 0.533 0.137 0.787l-8.837 12.232-4.746-4.187-6.272 7.613-14.466 2.724c-0.245 0.046-0.492-0.076-0.603-0.3z"></path>
<path fill="none" stroke="#aa97d7" style="stroke: var(--color2, #aa97d7)" stroke-linejoin="round" stroke-linecap="butt" stroke-miterlimit="4" stroke-width="0.7442" d="M25.174 27.72l-14.466 2.724c-0.245 0.046-0.492-0.076-0.603-0.3l-4.954-9.947c-0.164-0.329 0.030-0.724 0.39-0.796l3.812-0.762M25.174 27.72l-11.952-1.931c-0.176-0.028-0.329-0.14-0.409-0.299l-3.46-6.851M25.174 27.72l-6.133-10.702M25.174 27.72l6.272-7.613M19.041 17.018l-10.586-2.164c-0.457-0.093-0.82 0.382-0.61 0.798l1.508 2.986M19.041 17.018l6.988-10.701c0.202-0.31 0.644-0.341 0.888-0.062l3.091 3.542M35.117 15.651l1.075 8.643M35.117 15.651l-3.671 4.456M35.117 15.651l-5.109-5.854M36.192 24.294l-4.746-4.187M36.192 24.294l8.837-12.232c0.184-0.254 0.122-0.61-0.137-0.787l-10.445-7.154c-0.257-0.176-0.609-0.108-0.781 0.152l-3.658 5.524"></path>
</symbol>
<symbol id="intraosseous-access" viewBox="0 0 50 32">
<path fill="#fff" style="fill: var(--color1, #fff)" d="M39.849 8.633l-11.931 2.278c-0.163 0.025-0.25 0.205-0.169 0.349 1.535 2.724 2.168 4.407 2.447 7.069 0.029 0.275 0.317 0.445 0.569 0.333l10.819-4.812c0.162-0.072 0.258-0.242 0.234-0.417-0.248-1.849-0.577-2.954-1.551-4.612-0.085-0.145-0.253-0.219-0.417-0.188z"></path>
<path fill="none" stroke="#fff" style="stroke: var(--color1, #fff)" stroke-linejoin="miter" stroke-linecap="butt" stroke-miterlimit="4" stroke-width="0.7529" d="M8.402 23.775l1.151 0.013c0.26 0.003 0.444-0.252 0.361-0.498l-1.405-4.122c-0.083-0.244-0.381-0.334-0.586-0.177l-0.898 0.689c-0.027 0.021-0.057 0.038-0.089 0.051l-1.45 0.581c-0.115 0.046-0.2 0.145-0.224 0.266-0.297 1.501 0.062 2.632 1.228 3.604 0.095 0.079 0.224 0.101 0.341 0.065l1.453-0.454c0.038-0.012 0.077-0.017 0.117-0.017z"></path>
<path fill="#fff" style="fill: var(--color1, #fff)" d="M29.578 24.638l-0.295 0.127c-0.108 0.047-0.232 0.043-0.337-0.009l-0.007-0.003c-0.126-0.063-0.21-0.187-0.223-0.328-0.196-2.061-0.752-3.006-2.504-4.052-0.070-0.042-0.128-0.104-0.162-0.178l-0.006-0.013c-0.035-0.076-0.096-0.138-0.171-0.175-0.087-0.043-0.187-0.050-0.278-0.020l-0.827 0.27c-0.407-0.528-0.659-0.724-1.218-0.604l-12.244 4.049-1.579 0.405c-0.152 0.039-0.314-0.015-0.412-0.138-1.395-1.769-1.877-2.922-1.843-4.973 0.003-0.158 0.101-0.299 0.248-0.358l1.563-0.635 12.615-4.226c0.024-0.008 0.047-0.018 0.069-0.031 0.457-0.264 0.536-0.455 0.608-0.805l0.921-0.32c0.028-0.010 0.051-0.030 0.064-0.056l0.087-0.175c0.011-0.023 0.015-0.049 0.009-0.074l-0.041-0.19c-0.005-0.022-0.003-0.046 0.006-0.067 0.822-1.995 0.679-3.095-0.508-4.964-0.021-0.033-0.024-0.076-0.006-0.111l0.136-0.273c0.015-0.029 0.041-0.051 0.073-0.059l0.727-0.176c0.147-0.036 0.301 0.014 0.399 0.129 1.211 1.426 2.2 2.734 2.993 3.997l0.581-0.174c0.214-0.064 0.44 0.059 0.501 0.274l2.33 8.172c0.059 0.206-0.055 0.423-0.259 0.491l-0.465 0.155c0.028 1.453-0.083 3.029-0.305 4.803-0.018 0.141-0.109 0.261-0.239 0.317z"></path>
<path fill="none" stroke="#fff" style="stroke: var(--color1, #fff)" stroke-linejoin="miter" stroke-linecap="butt" stroke-miterlimit="4" stroke-width="0.6765" d="M41.801 9.052l-1.853 1.525 0.676 2.041 2.127 0.273 0.637 2.345c0.286 0.299 0.386 0.228 0.541 0.009-0.12-3.81-0.555-5.789-2.489-8.821-0.255-0.101-0.336-0.066-0.358 0.18l0.72 2.448z"></path>
<path fill="none" stroke="#aa97d7" style="stroke: var(--color2, #aa97d7)" stroke-linejoin="miter" stroke-linecap="butt" stroke-miterlimit="4" stroke-width="0.9412" d="M28.692 10.307c1.668 2.935 2.352 4.747 2.536 8.514"></path>
</symbol>
<symbol id="occlusal-sticker" viewBox="0 0 50 32">
<path fill="none" stroke="#fff" style="stroke: var(--color1, #fff)" stroke-linejoin="miter" stroke-linecap="butt" stroke-miterlimit="4" stroke-width="0.686" d="M23.442 10.405l0.003-0.009 0.003-0.009c0.109-0.396 0.292-1.074 0.44-1.703 0.074-0.314 0.14-0.619 0.184-0.873 0.022-0.127 0.039-0.245 0.049-0.347 0.009-0.094 0.014-0.202-0.001-0.295-0.010-0.060-0.005-0.177 0.025-0.351 0.029-0.165 0.075-0.349 0.125-0.524 0.050-0.175 0.102-0.336 0.142-0.454 0.020-0.059 0.037-0.106 0.049-0.139 0.006-0.016 0.011-0.029 0.014-0.037l0.003-0.009 0-0c0.085-0.217 0.149-0.281 0.209-0.313 0.075-0.040 0.22-0.071 0.556-0.043l5.46 1.216c0.325 0.079 0.439 0.146 0.486 0.201 0.030 0.035 0.076 0.119 0.041 0.408l-0.357 1.6 0.014 0.070c0.027 0.141 0.076 0.258 0.154 0.367 0.070 0.098 0.159 0.18 0.238 0.252l0.068 0.062 4.656 1.037c1.588 0.354 2.588 1.927 2.234 3.515l-1.995 8.957c-0.353 1.588-1.927 2.588-3.515 2.234l-9.132-2.034c-1.588-0.354-2.588-1.927-2.234-3.515l1.995-8.957c0.024-0.105 0.052-0.208 0.086-0.307z"></path>
<path fill="#fff" style="fill: var(--color1, #fff)" d="M8.085 17.026c-0.027-0.14-0.046-0.279-0.057-0.418-0.162-1.962 1.179-3.77 3.156-4.148l10.906-2.088c2.117-0.405 4.161 0.982 4.566 3.099l2.048 10.697c0.405 2.117-0.982 4.161-3.099 4.566l-10.906 2.088c-2.117 0.405-4.161-0.982-4.566-3.099l-2.048-10.697z"></path>
<path fill="#fff" style="fill: var(--color1, #fff)" d="M8.028 16.608c-0.162-1.962 1.179-3.77 3.156-4.148l5.453-1.044c-0.249-0.086-0.383-0.141-0.516-0.335l-0.354-1.847c-0.218-0.755-0.545-0.856-1.33-0.721l-6.55 1.254c-0.822 0.271-0.991 0.543-0.97 1.161 0 0 0.078 1.538 0.387 2.021 0.244 0.381 0.588 2.697 0.723 3.659z"></path>
<path fill="#aa97d7" style="fill: var(--color2, #aa97d7)" d="M20.606 20.056c-0.168-0.876-0.357-1.877 0.144-2.615l4.227-6.228c0.19-0.279 0.117-0.659-0.162-0.849s-0.66-0.117-0.849 0.163l-4.487 6.612c-0.393 0.579-1.131 0.788-1.818 0.919-0.643 0.123-1.182 0.481-1.545 0.968-0.516 0.693-1.091 1.477-1.939 1.639l-6.064 1.161c-0.332 0.063-0.549 0.384-0.485 0.715s0.384 0.549 0.715 0.485l6.064-1.161c0.849-0.162 1.672 0.353 2.408 0.807 0.517 0.319 1.15 0.452 1.794 0.329 0.617-0.118 1.301-0.155 1.809 0.214l6.89 5.006c0.273 0.198 0.655 0.138 0.854-0.135s0.138-0.655-0.135-0.854l-6.347-4.611c-0.75-0.545-0.908-1.597-1.063-2.511-0.003-0.018-0.006-0.036-0.010-0.053z"></path>
<path fill="#aa97d7" style="fill: var(--color2, #aa97d7)" d="M14.972 11.869c-0.123-0.644-0.572-1.199-1.246-1.542s-1.52-0.447-2.351-0.288c-0.831 0.159-1.579 0.568-2.079 1.136s-0.712 1.249-0.589 1.893l6.265-1.199z"></path>
</symbol>
<symbol id="thermal-blanket" viewBox="0 0 50 32">
<path fill="#fff" style="fill: var(--color1, #fff)" d="M31.149 9.198c-0.051-0.029-0.113-0.032-0.167-0.009l-25.98 11.134c-0.13 0.056-0.154 0.23-0.044 0.319l4.651 3.757 9.282-2.413c0.078-0.020 0.16 0.011 0.204 0.078l4.173 6.299 21.392-11.174c0.132-0.069 0.135-0.257 0.006-0.331l-13.517-7.661z"></path>
<path fill="#fff" style="fill: var(--color1, #fff)" d="M9.609 24.399l13.659 3.964-4.173-6.299c-0.044-0.067-0.126-0.098-0.204-0.078l-9.282 2.413z"></path>
<path fill="none" stroke="#fff" style="stroke: var(--color1, #fff)" stroke-linejoin="miter" stroke-linecap="butt" stroke-miterlimit="4" stroke-width="1.8824" d="M23.268 28.363l21.392-11.174c0.132-0.069 0.135-0.257 0.006-0.331l-13.517-7.661c-0.051-0.029-0.113-0.032-0.167-0.009l-25.98 11.134c-0.13 0.056-0.154 0.23-0.044 0.319l4.651 3.757M23.268 28.363l-13.659-3.964M23.268 28.363l-4.173-6.299c-0.044-0.067-0.126-0.098-0.204-0.078l-9.282 2.413"></path>
<path fill="#aa97d7" style="fill: var(--color2, #aa97d7)" d="M18.268 21.576l4.863 6.084-12.524-3.396 7.662-2.688z"></path>
</symbol>
<symbol id="turnstile" viewBox="0 0 50 32">
<path fill="#fff" style="fill: var(--color1, #fff)" d="M44.417 7.392c-15.515 6.551-24.929 8.184-42.693 8.318v6.747c-0.017 0.846-0.152 1.329 1.919 2.036 9.963-0.642 15.515-1.294 25.302-3.49 0.279-0.042 0.574 0.274 0.843 0.233 6.335-0.967 10.037-2.111 16.199-4.246 0.139-0.744 0.133-1.233 0-2.21 0 0 1.498-0.204 1.861-0.64s0.014-7.75-0.582-8.143c-0.596-0.393-2.85 1.396-2.85 1.396z"></path>
<path fill="none" stroke="#fff" style="stroke: var(--color1, #fff)" stroke-linejoin="miter" stroke-linecap="butt" stroke-miterlimit="4" stroke-width="0.5817" d="M1.957 15.652c0.272-1.301 0.783-1.789 6.747-2.501 0 0 31.351-5.060 32.165-5.351s2.85-1.629 2.85-1.629c1.089-0.345 1.903-0.464 3.315 0"></path>
<path fill="#aa97d7" style="fill: var(--color2, #aa97d7)" d="M29.637 16.078c0.476-0.209 0.692-0.765 0.482-1.241s-0.765-0.692-1.241-0.482l0.759 1.723zM28.878 14.355l-22.909 10.087 0.759 1.723 22.909-10.087-0.759-1.723z"></path>
<path fill="#fff" style="fill: var(--color1, #fff)" d="M17.798 24.216c-0.001-0.291-0.015-0.59 0.003-0.88v-8.608l-7.363 0.465-0.055 8.831 0.029 0.238 0.025 0.333c0.029 0.166 0.057 0.345 0.155 0.485 0.145 0.265 0.4 0.451 0.673 0.57l0.038 0.018 0.023 0.011c0.277-0.081 0.62-0.086 0.908-0.123l0.728-0.090 3.018-0.252c0.438-0.032 0.92-0.028 1.349-0.111 0.077-0.015 0.139-0.052 0.203-0.095 0.129-0.117 0.21-0.217 0.251-0.389 0.030-0.123 0.013-0.277 0.013-0.404z"></path>
<path fill="#aa97d7" style="fill: var(--color2, #aa97d7)" d="M39.96 13.811l0.095-0.004c0.063 0.067 0.045 0.38 0.050 0.486l-0.319 0.096-0.004 1.914-0.309 0.075c0.005-0.115 0.028-0.265-0.031-0.367l-0.010-0.015c0.078-0.113 0.047-0.34 0.047-0.476l-0.005-1.050-0.426 0.107 0.005-0.499c0.289-0.098 0.609-0.126 0.885-0.258l0.019-0.009z"></path>
<path fill="#aa97d7" style="fill: var(--color2, #aa97d7)" d="M35.727 14.948c0.112-0 0.16-0.010 0.259 0.047 0.104 0.154 0.045 0.597 0.040 0.785-0.067 0.052-0.159 0.054-0.241 0.066l-0.037-0.031-0.007-0.4-0.678 0.157-0.009 1.445 0.728-0.156c-0.007-0.154-0.004-0.3 0.010-0.453 0.064-0.073 0.128-0.081 0.218-0.097l0.005 0.058c0.11 0.159 0.038 0.653 0.007 0.854-0.026 0.019-0.051 0.035-0.080 0.048-0.236 0.109-0.561 0.157-0.818 0.201-0.097 0.016-0.205 0.044-0.299 0.006-0.031-0.012-0.060-0.057-0.070-0.089-0.025-0.078-0.015-0.179-0.015-0.261l0.004-0.567c0.003-0.38-0.021-0.778 0.007-1.155 0.004-0.060 0.022-0.119 0.056-0.169 0.106-0.156 0.731-0.241 0.923-0.288z"></path>
<path fill="#aa97d7" style="fill: var(--color2, #aa97d7)" d="M39.031 15.253c0.061-0.003 0.073-0.012 0.123 0.027l0.005 0.37-0.547 0.113c-0.025-0.001-0.047-0.010-0.071-0.018-0.016-0.132-0.004-0.263 0.004-0.395 0.165-0.028 0.325-0.049 0.486-0.097z"></path>
<path fill="#aa97d7" style="fill: var(--color2, #aa97d7)" d="M37.899 14.305l0.078-0.002c0.066 0.048 0.113 0.304 0.142 0.395l0.502 1.875-0.341 0.077-0.127-0.504-0.515 0.12c-0.017 0.005-0.011 0.002-0.027 0.012-0.095 0.058-0.158 0.449-0.188 0.576l-0.306 0.058 0.557-2.551 0.226-0.056z"></path>
<path fill="#fff" style="fill: var(--color1, #fff)" d="M37.785 14.956c0.13 0.136 0.206 0.529 0.241 0.719-0.058 0.062-0.123 0.055-0.205 0.069-0.057 0.020-0.091 0.024-0.151 0.016-0.004-0.277 0.15-0.518 0.115-0.803z"></path>
<path fill="#aa97d7" style="fill: var(--color2, #aa97d7)" d="M36.792 15.773c0.061-0.003 0.073-0.012 0.123 0.027l0.005 0.37-0.547 0.113c-0.025-0.001-0.047-0.010-0.072-0.017-0.015-0.132-0.004-0.263 0.005-0.395 0.165-0.028 0.325-0.049 0.486-0.097z"></path>
</symbol>
<symbol id="ventilator-bag" viewBox="0 0 50 32">
<path fill="none" stroke="#fff" style="stroke: var(--color1, #fff)" stroke-linejoin="miter" stroke-linecap="butt" stroke-miterlimit="4" stroke-width="0.7529" d="M20.016 22.987c0.479-0.056 0.935 0 0.935 0 1.502 0.148 1.482 1.671 0.795 2.091-0.495 0.841-14.571 4.535-15.031 1.65 0.064-0.787 0.244-1.391 0.589-1.928M20.016 22.987c-0.479 0.056-3.013-1.752-3.013-1.752-0.822-0.485-1.746-0.906-2.899-0.906l-2.706 0.424c-1.882 0.482-1.835 1.898-2.672 2.641-0.642 0.473-1.102 0.911-1.421 1.407M20.016 22.987c-4.751 2.3-7.531 2.639-12.711 1.813"></path>
<path fill="#fff" style="fill: var(--color1, #fff)" d="M44.409 8.465l-1.331 0.156c0.969 2.526 1.105 4.078 0.824 7.024l1.331-0.156c0.436-2.766 0.324-4.306-0.824-7.024z"></path>
<path fill="#fff" style="fill: var(--color1, #fff)" d="M9.964 17.082l0.267-2.272c1.155-0.443 1.826-0.487 3.047-0.357l0.786 2.148c0.345-0.089 0.701-0.055 0.939 0.106l0.194 1.651c-0.565 0.572-0.969 0.617-1.686 0.711l0.069 0.586 0.124 0.675-2.471 0.384-0.159-1.358c-0.719 0.075-1.123 0.125-1.805-0.301l-0.194-1.651c0.195-0.211 0.533-0.327 0.889-0.32z"></path>
<path fill="#fff" style="fill: var(--color1, #fff)" d="M20.416 10.265c-1.287 1.569-1.486 2.064-3.13 2.311-0.416 1.948-0.291 3.070 0.605 5.152 1.657-0.14 1.873-0.030 3.58 1.524s14.444 6.936 20.808-3.035l0.805-0.664c0.234-2.674 0.121-4.174-0.805-6.857l-0.917-0.294c-9.541-9.084-19.659 0.294-20.946 1.864z"></path>
<path fill="#fff" style="fill: var(--color1, #fff)" d="M13.264 14.454l5.595-0.656 0.252 2.148-5.36 0.651-0.487-2.143z"></path>
</symbol>
<symbol id="heart" viewBox="0 0 34 32">
<path fill="#f6f4ee" style="fill: var(--color1, #f6f4ee)" d="M30.886 10.195c-2.352-3.312-6.104-4.245-9.617-2.502-0.578 0.287-1.315 0.001-1.551-0.6-1.424-3.628-4.846-5.44-8.828-4.556-10.462 3.864-3.825 18.351 1.783 24.234 0.181 0.19 0.429 0.285 0.691 0.265 8.1-0.624 22.726-6.978 17.522-16.841z"></path>
<path fill="#876dc7" style="fill: var(--color2, #876dc7)" d="M21.362 18.935l-3.21-1.229-1.229 3.21-2.72-1.042 1.229-3.21-3.21-1.229 1.042-2.72 3.21 1.229 1.229-3.21 2.72 1.042-1.229 3.21 3.21 1.229-1.042 2.72z"></path>
</symbol>
<symbol id="prev-btn" viewBox="0 0 32 32">
<path d="M13.761 16.131l6.869-6.869-2.091-2.091-8.96 8.96 8.96 8.96 2.091-2.091-6.869-6.869z"></path>
</symbol>
<symbol id="next-btn" viewBox="0 0 32 32">
<path d="M18.239 16.131l-6.869-6.869 2.091-2.091 8.96 8.96-8.96 8.96-2.091-2.091 6.869-6.869z"></path>
</symbol>
<symbol id="question-show" viewBox="0 0 31 32">
<path d="M14.080 17.411h-7.68v-2.56h7.68v-7.68h2.56v7.68h7.68v2.56h-7.68v7.68h-2.56v-7.68z"></path>
</symbol>
<symbol id="question-hide" viewBox="0 0 32 32">
<path d="M14.667 17.333h-8v-2.667h18.667v2.667h-10.667z"></path>
</symbol>
<symbol id="next" viewBox="0 0 32 32">
<path d="M18.945 15.869l-5.056 5.056c-0.238 0.238-0.357 0.54-0.357 0.907s0.119 0.67 0.357 0.907c0.238 0.238 0.54 0.357 0.907 0.357s0.67-0.119 0.907-0.357l5.963-5.963c0.13-0.13 0.221-0.27 0.275-0.421s0.081-0.313 0.081-0.486c0-0.173-0.027-0.335-0.081-0.486s-0.146-0.292-0.275-0.421l-5.963-5.963c-0.238-0.238-0.54-0.357-0.907-0.357s-0.67 0.119-0.907 0.357c-0.238 0.238-0.357 0.54-0.357 0.907s0.119 0.67 0.357 0.907l5.056 5.056z"></path>
</symbol>
<symbol id="next-arrow" viewBox="0 0 32 32">
<path d="M22.036 9.964v11.144h-2.6v-6.686l-8.544 8.543-1.857-1.857 8.543-8.543h-6.686v-2.6h11.144z"></path>
</symbol>
<symbol id="support-left-hand-mobile" viewBox="0 0 57 32">
<path fill="#f6f4ee" style="fill: var(--color1, #f6f4ee)" d="M35.124 19.477c2.72-0.062 4.577-0.321 6.422-0.952 3.054-6.137 0.020-5.084-6.422 0.952z"></path>
<path fill="#f6f4ee" style="fill: var(--color1, #f6f4ee)" d="M15.391 6.030l-7.45 9.769c3.090 1.264 5.645 3.2 7.989 5.398 0.382 0.358 0.756 0.724 1.13 1.091l0 0c0.838 0.821 1.677 1.641 2.602 2.369 0.6 0.472 1.174 0.937 1.731 1.39 4.445 3.608 7.907 6.419 16.335 5.617 3.82-0.363 6.289-0.901 8.86-2.023 0 0 10.079-4.383 9.757-5.968s-6.378 0.705-6.378 0.705 7.248-3.819 6.832-5.387c-0.336-1.269-5.16 1.095-7.017 2.006-0.374 0.183-0.627 0.307-0.7 0.332-0.013 0.004-0.019 0.006-0.019 0.006s5.387-3.134 4.956-4.493c-0.433-1.358-6.507 1.709-6.507 1.709s4.142-2.556 3.525-4.026c-0.617-1.471-6.026 2.441-6.026 2.441-1.27 0.676-2.365 1.184-3.464 1.559-1.845 0.631-3.702 0.889-6.422 0.952-1.673 0.068-3.378-0.297-5.108-1.053-2.602-1.137-4.842-2.751-6.823-4.633-2.663-2.531-5.275-5.114-7.802-7.76z"></path>
<path fill="#f6f4ee" style="fill: var(--color1, #f6f4ee)" d="M15.391 6.030c-2.92-3.059-6.572-4.916-10.835-5.781l-4.301 14.276c2.597-0.178 5.163 0.242 7.686 1.274l7.45-9.769z"></path>
</symbol>
<symbol id="support-right-hand-mobile" viewBox="0 0 38 32">
<path fill="#f6f4ee" style="fill: var(--color1, #f6f4ee)" d="M14.263 22.565c-1.77 0.597-3.039 0.865-4.402 0.89-3.671-3.24-1.424-3.272 4.402-0.89z"></path>
<path fill="#f6f4ee" style="fill: var(--color1, #f6f4ee)" d="M23.246 9.281l7.512 4.551c-1.641 1.538-2.75 3.384-3.65 5.348-0.147 0.32-0.286 0.644-0.426 0.967v0c-0.313 0.725-0.625 1.45-1.019 2.136-0.256 0.445-0.496 0.879-0.73 1.301-1.863 3.366-3.314 5.987-8.967 7.443-2.562 0.66-4.303 0.891-6.27 0.77 0 0-8.002-0.7-8.234-1.797s5.211-0.689 5.211-0.689-6.345-0.879-6.513-1.986c-0.136-0.896 3.629-0.502 5.079-0.35 0.292 0.031 0.49 0.051 0.543 0.050 0.009-0 0.014-0 0.014-0s-4.766-0.834-4.865-1.81c-0.098-0.976 6.263 0 6.263 0s-4.55-1.025-4.56-2.116c-0.010-1.093 4.56 0.162 4.56 0.162 1.006 0.138 1.852 0.209 2.665 0.194 1.364-0.026 2.632-0.293 4.402-0.89 1.097-0.348 2.095-0.982 3-1.874 1.361-1.342 2.357-2.906 3.111-4.583 1.014-2.255 1.98-4.53 2.873-6.827z"></path>
<path fill="#f6f4ee" style="fill: var(--color1, #f6f4ee)" d="M28.624 3.019c2.625-1.629 5.546-2.52 8.701-2.814l0.69 10.553c-2.832 0.187-5.264 1.204-7.257 3.073l-7.512-4.551c1.033-2.655 2.871-4.706 5.378-6.262z"></path>
</symbol>
<symbol id="support-left-hand-desk" viewBox="0 0 52 32">
<path fill="#f6f4ee" style="fill: var(--color1, #f6f4ee)" d="M32.155 19.477c2.499-0.062 4.204-0.321 5.898-0.952 2.804-6.137 0.018-5.084-5.898 0.952z"></path>
<path fill="#f6f4ee" style="fill: var(--color1, #f6f4ee)" d="M14.032 6.030l-6.843 9.769c2.838 1.264 5.185 3.2 7.337 5.398 0.351 0.358 0.694 0.724 1.038 1.091l0 0c0.77 0.821 1.54 1.641 2.39 2.369 0.551 0.472 1.078 0.937 1.59 1.39 4.082 3.608 7.262 6.419 15.002 5.617 3.509-0.363 5.776-0.901 8.137-2.023 0 0 9.257-4.383 8.961-5.968s-5.858 0.705-5.858 0.705 6.656-3.819 6.276-5.387c-0.309-1.269-4.739 1.095-6.445 2.006-0.343 0.183-0.576 0.307-0.643 0.332-0.012 0.004-0.018 0.006-0.018 0.006s4.947-3.134 4.551-4.493c-0.397-1.358-5.976 1.709-5.976 1.709s3.804-2.556 3.237-4.026c-0.567-1.471-5.534 2.441-5.534 2.441-1.167 0.676-2.172 1.184-3.181 1.559-1.695 0.631-3.4 0.889-5.898 0.952-1.536 0.068-3.103-0.297-4.692-1.053-2.39-1.137-4.447-2.751-6.266-4.633-2.446-2.531-4.845-5.114-7.165-7.76z"></path>
<path fill="#f6f4ee" style="fill: var(--color1, #f6f4ee)" d="M14.032 6.030c-2.682-3.059-6.036-4.916-9.951-5.781l-3.95 14.276c2.386-0.178 4.742 0.242 7.059 1.274l6.843-9.769z"></path>
</symbol>
<symbol id="support-right-hand-desk" viewBox="0 0 35 32">
<path fill="#f6f4ee" style="fill: var(--color1, #f6f4ee)" d="M13.166 22.565c-1.626 0.597-2.791 0.865-4.043 0.89-3.371-3.24-1.308-3.272 4.043-0.89z"></path>
<path fill="#f6f4ee" style="fill: var(--color1, #f6f4ee)" d="M21.417 9.281l6.899 4.551c-1.507 1.538-2.525 3.384-3.352 5.348-0.135 0.32-0.263 0.644-0.391 0.967l-0 0c-0.287 0.725-0.574 1.45-0.936 2.136-0.235 0.445-0.456 0.879-0.67 1.301-1.711 3.366-3.044 5.987-8.235 7.443-2.353 0.66-3.952 0.891-5.759 0.77 0 0-7.349-0.7-7.562-1.797s4.786-0.689 4.786-0.689-5.827-0.879-5.981-1.986c-0.125-0.896 3.333-0.502 4.664-0.35 0.268 0.031 0.45 0.051 0.499 0.050 0.009-0 0.013-0 0.013-0s-4.377-0.834-4.468-1.81c-0.090-0.976 5.752 0 5.752 0s-4.179-1.025-4.188-2.116c-0.009-1.093 4.188 0.162 4.188 0.162 0.924 0.138 1.701 0.209 2.447 0.194 1.253-0.026 2.418-0.293 4.043-0.89 1.007-0.348 1.924-0.982 2.755-1.874 1.25-1.342 2.164-2.906 2.857-4.583 0.931-2.255 1.819-4.53 2.639-6.827z"></path>
<path fill="#f6f4ee" style="fill: var(--color1, #f6f4ee)" d="M26.356 3.019c2.411-1.629 5.094-2.52 7.992-2.814l0.633 10.554c-2.602 0.187-4.834 1.204-6.665 3.073l-6.899-4.551c0.948-2.655 2.637-4.706 4.939-6.262z"></path>
</symbol>
</defs>
</svg>
