<svg aria-hidden="true" style="position: absolute; width: 0; height: 0; overflow: hidden;" version="1.1" xmlns="http://www.w3.org/2000/svg" xmlns:xlink="http://www.w3.org/1999/xlink">
<defs>
<symbol id="logo" viewBox="0 0 101 32">
<path fill="#d3caea" style="fill: var(--color1, #d3caea)" d="M25.37 15.999c0 7.006-5.679 12.685-12.685 12.685s-12.685-5.679-12.685-12.685c0-7.006 5.679-12.683 12.685-12.683s12.685 5.679 12.685 12.685z"></path>
<path fill="#5d398e" style="fill: var(--color2, #5d398e)" d="M30.472 14.248v-7.87c0-0.338 0.17-0.508 0.508-0.508h7.236c0.338 0 0.508 0.17 0.508 0.508v7.87c0 0.338-0.17 0.508-0.508 0.508h-1.447c-0.338 0-0.508-0.17-0.508-0.508v-5.942c0-0.17-0.084-0.254-0.254-0.254h-2.818c-0.17 0-0.254 0.084-0.254 0.254v5.94c0 0.338-0.17 0.508-0.508 0.508h-1.447c-0.338 0-0.508-0.17-0.508-0.508v0.001z"></path>
<path fill="#5d398e" style="fill: var(--color2, #5d398e)" d="M40.019 14.832c-0.296-0.059-0.431-0.254-0.406-0.583l0.089-1.003c0.009-0.152 0.038-0.268 0.089-0.348s0.11-0.12 0.177-0.12c0.051 0 0.102 0.004 0.152 0.013s0.102 0.013 0.152 0.013c0.177 0 0.313-0.11 0.406-0.329 0.093-0.221 0.158-0.596 0.197-1.129 0.038-0.533 0.057-1.321 0.057-2.361v-0.064c0-0.338 0.17-0.508 0.508-0.508h4.862c0.338 0 0.508 0.17 0.508 0.508v5.332c0 0.338-0.17 0.508-0.508 0.508h-1.219c-0.338 0-0.508-0.17-0.508-0.508v-3.72c0-0.17-0.084-0.254-0.254-0.254h-1.219v0.013c-0.026 1.193-0.12 2.12-0.286 2.781s-0.425 1.128-0.781 1.402c-0.356 0.276-0.846 0.412-1.473 0.412-0.203 0-0.385-0.017-0.546-0.051l0.003-0.003z"></path>
<path fill="#5d398e" style="fill: var(--color2, #5d398e)" d="M52.472 14.305c-0.601-0.385-1.016-0.907-1.244-1.567-0.051-0.144-0.144-0.216-0.279-0.216h-0.267c-0.17 0-0.254 0.084-0.254 0.254v1.473c0 0.338-0.17 0.508-0.508 0.508h-1.231c-0.338 0-0.508-0.17-0.508-0.508v-5.332c0-0.338 0.17-0.508 0.508-0.508h1.231c0.338 0 0.508 0.17 0.508 0.508v1.473c0 0.17 0.084 0.254 0.254 0.254h0.267c0.135 0 0.228-0.071 0.279-0.216 0.237-0.66 0.653-1.183 1.251-1.567 0.596-0.385 1.297-0.578 2.101-0.578 0.694 0 1.313 0.138 1.859 0.412 0.546 0.276 0.971 0.665 1.276 1.168s0.457 1.077 0.457 1.72-0.154 1.216-0.463 1.72c-0.309 0.504-0.736 0.893-1.281 1.168s-1.161 0.412-1.847 0.412c-0.804 0-1.506-0.193-2.107-0.578h-0.001zM53.608 12.617c0.241 0.258 0.565 0.387 0.971 0.387s0.743-0.129 0.984-0.387c0.241-0.258 0.361-0.602 0.361-1.035s-0.12-0.776-0.361-1.035c-0.241-0.258-0.569-0.388-0.984-0.388s-0.73 0.129-0.971 0.388c-0.241 0.258-0.361 0.602-0.361 1.035s0.12 0.776 0.361 1.035z"></path>
<path fill="#5d398e" style="fill: var(--color2, #5d398e)" d="M60.531 14.457c-0.533-0.283-0.943-0.675-1.231-1.174s-0.431-1.067-0.431-1.701 0.157-1.226 0.47-1.727c0.313-0.499 0.745-0.887 1.295-1.161s1.171-0.412 1.866-0.412c0.592 0 1.125 0.106 1.599 0.318s0.859 0.512 1.155 0.901c0.075 0.102 0.115 0.199 0.115 0.292 0 0.152-0.102 0.283-0.305 0.393l-0.99 0.495c-0.084 0.051-0.17 0.075-0.254 0.075-0.144 0-0.287-0.080-0.431-0.241-0.254-0.237-0.563-0.356-0.927-0.356-0.398 0-0.721 0.131-0.971 0.393s-0.374 0.605-0.374 1.029c0 0.424 0.131 0.766 0.393 1.028 0.263 0.263 0.588 0.393 0.977 0.393s0.74-0.135 1.029-0.406c0.152-0.152 0.296-0.228 0.431-0.228 0.093 0 0.181 0.025 0.267 0.075l0.914 0.495c0.212 0.119 0.318 0.254 0.318 0.406 0 0.068-0.025 0.139-0.075 0.216-0.305 0.415-0.715 0.739-1.231 0.971-0.517 0.232-1.096 0.348-1.739 0.348-0.711 0-1.332-0.141-1.866-0.425l-0.004 0.001z"></path>
<path fill="#5d398e" style="fill: var(--color2, #5d398e)" d="M30.396 25.508v-5.332c0-0.338 0.17-0.508 0.508-0.508h1.231c0.338 0 0.508 0.17 0.508 0.508v1.473c0 0.17 0.084 0.254 0.254 0.254h1.524c0.168 0 0.254-0.084 0.254-0.254v-1.473c0-0.338 0.168-0.508 0.508-0.508h1.219c0.338 0 0.508 0.17 0.508 0.508v5.332c0 0.338-0.17 0.508-0.508 0.508h-1.219c-0.338 0-0.508-0.17-0.508-0.508v-1.473c0-0.17-0.084-0.254-0.254-0.254h-1.524c-0.17 0-0.254 0.084-0.254 0.254v1.473c0 0.338-0.17 0.508-0.508 0.508h-1.231c-0.338 0-0.508-0.17-0.508-0.508z"></path>
<path fill="#5d398e" style="fill: var(--color2, #5d398e)" d="M38.455 25.604c-0.398-0.36-0.596-0.852-0.596-1.479s0.235-1.103 0.704-1.454c0.47-0.351 1.115-0.527 1.936-0.527h1.485c0.17 0 0.254-0.059 0.254-0.177 0-0.17-0.11-0.309-0.329-0.419-0.221-0.11-0.508-0.165-0.864-0.165-0.457 0-0.855 0.102-1.193 0.305-0.144 0.084-0.267 0.126-0.369 0.126-0.119 0-0.232-0.055-0.342-0.165l-0.597-0.61c-0.119-0.119-0.177-0.241-0.177-0.369s0.064-0.241 0.19-0.343c0.313-0.237 0.702-0.427 1.168-0.572 0.466-0.144 0.948-0.216 1.447-0.216 1.041 0 1.831 0.222 2.374 0.666 0.541 0.444 0.813 1.052 0.813 1.821v3.479c0 0.338-0.17 0.508-0.508 0.508h-1.118c-0.161 0-0.286-0.028-0.374-0.083s-0.134-0.129-0.134-0.222c0-0.102-0.038-0.152-0.115-0.152-0.051 0-0.097 0.017-0.139 0.051-0.525 0.356-1.146 0.533-1.866 0.533s-1.252-0.18-1.65-0.54v0.004zM40.252 24.36c0.139 0.080 0.344 0.12 0.615 0.12 0.398 0 0.72-0.083 0.965-0.248s0.38-0.387 0.406-0.666l-0.292-0.013h-1.18c-0.482 0-0.724 0.152-0.724 0.457 0 0.152 0.070 0.268 0.209 0.35z"></path>
<path fill="#5d398e" style="fill: var(--color2, #5d398e)" d="M48.014 25.927c-0.075-0.059-0.115-0.139-0.115-0.241 0-0.084 0.026-0.177 0.075-0.279l1.332-2.399c0.033-0.059 0.051-0.119 0.051-0.177s-0.017-0.119-0.051-0.177l-1.321-2.374c-0.051-0.102-0.075-0.194-0.075-0.279 0-0.102 0.041-0.181 0.12-0.241s0.189-0.089 0.324-0.089h1.321c0.271 0 0.47 0.119 0.597 0.356l0.914 1.714c0.068 0.119 0.17 0.178 0.305 0.178h0.292c0.17 0 0.254-0.084 0.254-0.254v-1.485c0-0.338 0.17-0.508 0.508-0.508h1.219c0.338 0 0.508 0.17 0.508 0.508v1.485c0 0.17 0.084 0.254 0.254 0.254h0.305c0.144 0 0.245-0.059 0.305-0.178l0.939-1.714c0.126-0.237 0.325-0.356 0.596-0.356h1.27c0.135 0 0.241 0.030 0.318 0.089 0.075 0.059 0.115 0.139 0.115 0.241 0 0.084-0.025 0.177-0.075 0.279l-1.282 2.284c-0.033 0.059-0.051 0.128-0.051 0.203 0 0.051 0.013 0.102 0.038 0.152l1.345 2.488c0.051 0.102 0.075 0.194 0.075 0.279 0 0.102-0.038 0.183-0.115 0.241-0.075 0.060-0.181 0.089-0.318 0.089h-1.409c-0.271 0-0.47-0.122-0.596-0.369l-0.888-1.701c-0.059-0.119-0.157-0.178-0.292-0.178h-0.279c-0.17 0-0.254 0.084-0.254 0.254v1.485c0 0.338-0.17 0.508-0.508 0.508h-1.219c-0.338 0-0.508-0.17-0.508-0.508v-1.485c0-0.168-0.084-0.254-0.254-0.254h-0.305c-0.135 0-0.237 0.059-0.305 0.178l-0.914 1.714c-0.126 0.237-0.327 0.356-0.596 0.356h-1.332c-0.135 0-0.241-0.029-0.318-0.089z"></path>
<path fill="#5d398e" style="fill: var(--color2, #5d398e)" d="M59.235 25.508v-5.332c0-0.338 0.17-0.508 0.508-0.508h1.206c0.338 0 0.508 0.17 0.508 0.508v2.006c0 0.068 0.013 0.123 0.038 0.165s0.059 0.064 0.102 0.064c0.060 0 0.115-0.042 0.165-0.126l1.688-2.297c0.152-0.212 0.36-0.318 0.623-0.318h1.219c0.338 0 0.508 0.17 0.508 0.508v5.332c0 0.338-0.17 0.508-0.508 0.508h-1.18c-0.338 0-0.508-0.17-0.508-0.508v-2.043c0-0.144-0.042-0.216-0.128-0.216-0.051 0-0.11 0.038-0.177 0.115l-1.714 2.335c-0.152 0.212-0.36 0.318-0.623 0.318h-1.219c-0.338 0-0.508-0.17-0.508-0.508v-0.001z"></path>
<path fill="#5d398e" style="fill: var(--color2, #5d398e)" d="M68.629 25.508v-3.694c0-0.168-0.085-0.254-0.254-0.254h-1.371c-0.338 0-0.508-0.168-0.508-0.508v-0.875c0-0.338 0.17-0.508 0.508-0.508h5.509c0.338 0 0.508 0.17 0.508 0.508v0.875c0 0.338-0.17 0.508-0.508 0.508h-1.383c-0.17 0-0.254 0.084-0.254 0.254v3.694c0 0.338-0.17 0.508-0.508 0.508h-1.231c-0.339 0-0.508-0.17-0.508-0.508z"></path>
<path fill="#5d398e" style="fill: var(--color2, #5d398e)" d="M75.419 25.508v-3.694c0-0.168-0.085-0.254-0.254-0.254h-1.372c-0.338 0-0.508-0.168-0.508-0.508v-0.875c0-0.338 0.17-0.508 0.508-0.508h5.509c0.338 0 0.508 0.17 0.508 0.508v0.875c0 0.338-0.17 0.508-0.508 0.508h-1.383c-0.169 0-0.254 0.084-0.254 0.254v3.694c0 0.338-0.169 0.508-0.507 0.508h-1.231c-0.338 0-0.507-0.17-0.507-0.508z"></path>
<path fill="#5d398e" style="fill: var(--color2, #5d398e)" d="M81.371 23.719c0-0.075-0.042-0.144-0.126-0.203-0.279-0.203-0.494-0.45-0.642-0.743-0.148-0.292-0.222-0.611-0.222-0.958 0-0.66 0.255-1.183 0.768-1.567s1.207-0.578 2.088-0.578h2.92c0.339 0 0.508 0.17 0.508 0.508v5.332c0 0.338-0.169 0.508-0.508 0.508h-1.193c-0.338 0-0.508-0.17-0.508-0.508v-1.142c0-0.17-0.084-0.254-0.254-0.254h-0.355c-0.128 0-0.228 0.055-0.305 0.165l-0.965 1.409c-0.144 0.221-0.347 0.329-0.609 0.329h-1.383c-0.135 0-0.244-0.029-0.323-0.089-0.081-0.059-0.121-0.135-0.121-0.228s0.038-0.194 0.115-0.305l1.067-1.524c0.033-0.042 0.051-0.093 0.051-0.152l-0.001-0.001zM83.441 22.475h0.762c0.17 0 0.254-0.084 0.254-0.254v-0.596c0-0.17-0.084-0.254-0.254-0.254h-0.762c-0.263 0-0.461 0.046-0.596 0.139s-0.203 0.228-0.203 0.406c0 0.373 0.267 0.559 0.799 0.559z"></path>
<path fill="#5d398e" style="fill: var(--color2, #5d398e)" d="M19.758 24.134h-13.925l-1.732-10.208h17.388l-1.732 10.208z"></path>
<path fill="#5d398e" style="fill: var(--color2, #5d398e)" d="M21.81 15.748h-18.295l-0.314-2.398h18.923l-0.314 2.398z"></path>
<path fill="#c9b5d8" style="fill: var(--color3, #c9b5d8)" d="M15.966 18.489c0-0.093-0.074-0.167-0.169-0.167h-1.913c-0.056 0.002-0.109-0.022-0.147-0.058-0.038-0.038-0.060-0.089-0.060-0.145v-1.942c-0.002-0.076-0.064-0.138-0.14-0.138h-1.752c-0.082 0.002-0.147 0.067-0.147 0.149v1.933c0.002 0.054-0.020 0.107-0.058 0.147-0.040 0.038-0.091 0.060-0.147 0.060h-1.926c-0.085 0.002-0.152 0.071-0.152 0.156v1.73c0 0.085 0.071 0.154 0.156 0.154h1.926c0.054 0 0.107 0.020 0.145 0.058 0.040 0.038 0.060 0.091 0.060 0.145v1.944c0.002 0.076 0.064 0.136 0.138 0.136h1.741c0.089 0 0.16-0.074 0.16-0.162v-1.918c-0.002-0.114 0.091-0.207 0.205-0.207h1.917c0.089-0.002 0.163-0.074 0.162-0.165v-1.706l0.002-0.004z"></path>
<path fill="#5d398e" style="fill: var(--color2, #5d398e)" d="M19.965 16.149h-14.571l0.839-6.049c0.152-1.098 1.102-1.926 2.211-1.926h8.474c1.107 0 2.058 0.828 2.211 1.926l0.839 6.049h-0.002zM5.653 15.924h14.054l-0.802-5.794c-0.136-0.987-0.991-1.732-1.987-1.732h-8.474c-0.996 0-1.85 0.744-1.987 1.732l-0.802 5.794z"></path>
<path fill="#5d398e" style="fill: var(--color2, #5d398e)" d="M17.286 7.866h-9.211c-0.265 0-0.479 0.215-0.479 0.479v0.002c0 0.265 0.215 0.479 0.479 0.479h9.211c0.265 0 0.479-0.215 0.479-0.479v-0.002c0-0.265-0.215-0.479-0.479-0.479z"></path>
</symbol>
<symbol id="nav-arrow" viewBox="0 0 32 32">
<path d="M24.171 7.829v15.085h-3.52v-9.051l-11.565 11.565-2.514-2.514 11.565-11.565h-9.051v-3.52h15.085z"></path>
</symbol>
<symbol id="burger-menu" viewBox="0 0 32 32">
<path d="M4 24v-2.667h24v2.667h-24zM4 17.333v-2.667h24v2.667h-24zM4 10.667v-2.667h24v2.667h-24z"></path>
</symbol>
<symbol id="plus" viewBox="0 0 32 32">
<path d="M20.121 0c0.353 0 0.64 0.287 0.64 0.64v9.959c0 0.353 0.287 0.64 0.64 0.64h9.959c0.353 0 0.64 0.287 0.64 0.64v8.243c0 0.353-0.287 0.64-0.64 0.64h-9.959c-0.353 0-0.64 0.287-0.64 0.64v9.959c0 0.353-0.287 0.64-0.64 0.64h-8.243c-0.353 0-0.64-0.287-0.64-0.64v-9.959c0-0.353-0.287-0.64-0.64-0.64h-9.959c-0.353 0-0.64-0.287-0.64-0.64v-8.243c0-0.353 0.287-0.64 0.64-0.64h9.959c0.353 0 0.64-0.287 0.64-0.64v-9.959c0-0.353 0.287-0.64 0.64-0.64h8.243z"></path>
</symbol>
<symbol id="left-hand-mobile" viewBox="0 0 46 32">
<path fill="#876dc7" style="fill: var(--color1, #876dc7)" d="M16.118 18.192c0.048-1.113 0.531-2.017 1.506-2.618 0.445-0.274 1.305-0.486 2.125-0.688 0.637-0.157 1.251-0.308 1.627-0.478 8.026-3.627 2.439-14.637-5.402-14.404-8.218 0.244-15.975 3.074-15.975 3.074l1.448 5.089 0.838 1.071c0 0 7.076-2.677 9.292-2.818 0.217-0.014 0.447-0.031 0.685-0.050 2.188-0.168 5.068-0.388 5.362 1.796 0.204 1.516-1.313 2.192-3.047 2.966-1.037 0.463-2.151 0.96-3.023 1.691-0.723 0.607-2.904 2.517-2.64 6.486 0.247 3.711 0.945 4.665 1.387 5.27l0 0c0.031 0.042 0.060 0.082 0.088 0.121 1.164 1.638 4.527 3.063 7.494 3.187 1.207 0.051 2.362-0.189 3.493-0.576 0.58-0.198 1.157-0.402 1.735-0.607l0-0c0.566-0.2 1.131-0.4 1.699-0.594 1.474-0.506 2.871-0.355 4.209 0.469 1.236 0.76 3.803 3.222 5.377 4.037s4.425 1.6 5.917 1.164c1.492-0.435 3.004-2.116 3.004-2.116 0.915-1.102 2.992-4.613 2.701-4.94-0.483-0.545-2.412 1.944-2.412 1.944s2.039-2.872 1.527-3.39c-0.385-0.39-1.702 1.373-2.335 2.263-0.188 0.264-0.315 0.451-0.34 0.482 0 0 1.639-2.508 1.169-2.942s-2.546 2.889-2.546 2.889c0 0 1.679-2.695 1.118-3.132s-2.562 3.185-2.562 3.185c-0.080 0.102-0.184 0.215-0.307 0.333 0.204-0.619 0.585-1.795-0.027-1.848-0.484-0.042-1.203 3.244-3.415 2.194 0 0-0.938-0.63-1.493-1.135-0.402-0.366-0.798-0.738-1.194-1.11l-0-0c-0.42-0.395-0.84-0.79-1.267-1.177-1.389-1.26-2.955-2.16-4.873-2.319-0.988-0.082-1.969-0.051-2.903 0.308-1.094 0.421-2.185 0.821-3.365 0.94-0.998 0.101-1.981 0.087-2.932-0.254-0.869-0.312-1.487-0.891-1.624-1.836-0.092-0.635-0.148-1.286-0.121-1.926z"></path>
</symbol>
<symbol id="left-hand-desk" viewBox="0 0 50 32">
<path fill="#876dc7" style="fill: var(--color1, #876dc7)" d="M16.849 18.566c0-2.872 1.815-3.209 3.239-3.829 8.72-2.903 4.937-13.944-3.228-14.537-8.558-0.622-16.841 0.801-16.841 0.801l0.887 6.109 0.756 1.199c0 0 5.083-1.449 7.563-1.765s8.272-1.438 8.272 1.765c0 1.795-3.169 2.575-5.168 3.929-0.816 0.552-3.293 1.772-3.442 5.911-0.139 3.871 1.427 5.768 2.489 6.735s2.593 2.591 6.69 2.953c5.627 0 7.053-2.953 9.611-3.41 1.585-0.367 3.018-0.062 4.32 0.934 1.202 0.919 3.605 3.742 5.153 4.754s4.424 2.129 6.019 1.836c1.596-0.292 3.345-1.872 3.345-1.872 1.067-1.044 3.598-4.461 3.332-4.831-0.443-0.616-2.712 1.757-2.712 1.757s2.424-2.759 1.947-3.35c-0.358-0.445-1.913 1.242-2.665 2.096-0.143 0.163-0.258 0.295-0.329 0.377-0.039 0.045-0.066 0.075-0.076 0.086 0 0 1.969-2.424 1.527-2.923s-2.951 2.722-2.951 2.722 2.031-2.613 1.495-3.126c-0.536-0.513-2.999 3.027-2.999 3.027-0.094 0.097-0.214 0.203-0.354 0.312 0.278-0.62 0.799-1.797 0.169-1.917-0.498-0.095-1.595 3.233-3.78 1.91 0 0-0.907-0.753-1.429-1.335-0.378-0.422-0.749-0.85-1.121-1.277l-0-0c-0.394-0.454-0.788-0.908-1.19-1.355-1.308-1.454-2.838-2.553-4.812-2.921-1.017-0.19-1.958-0.266-3.838 0s-4.953 2.056-6.82 2.056-3.060-0.752-3.060-2.822z"></path>
</symbol>
<symbol id="right-hand-mobile" viewBox="0 0 58 32">
<path fill="#5d398e" style="fill: var(--color1, #5d398e)" d="M12.171 22.219c-2.336 0.291-3.456 0.758-5.186 2.005 0 0-2.841 2.201-3.261 1.37s1.819-2.167 1.819-2.167-3.386 1.712-3.698 0.938c-0.312-0.775 2.699-2.489 2.699-2.489s-4.212 2.035-4.527 1.136c-0.315-0.898 3.862-2.874 3.862-2.874s-3.271 1.337-3.537 0.424c-0.266-0.913 5.716-3.355 5.716-3.355-0.294-0.159-2.955-0.707-2.431-1.6s6.073-0.283 6.073-0.283z"></path>
<path fill="#5d398e" style="fill: var(--color1, #5d398e)" d="M43.168 25.327c-1.329 2.692-3.464 4.469-6.235 5.558-2.309 0.907-4.688 1.279-7.149 0.987-2.35-0.28-4.429-1.174-6.183-2.814-1.517-1.419-3.077-2.796-4.662-4.139-1.178-0.999-2.481-1.827-3.951-2.355-0.977-0.351-1.919-0.474-2.817-0.344-2.336 0.291-3.456 0.758-5.186 2.005 0 0-2.841 2.201-3.261 1.37s1.819-2.167 1.819-2.167-3.386 1.712-3.698 0.938c-0.312-0.775 2.699-2.489 2.699-2.489s-4.212 2.035-4.527 1.136c-0.315-0.898 3.862-2.874 3.862-2.874s-3.271 1.337-3.537 0.424c-0.266-0.913 5.716-3.355 5.716-3.355-0.294-0.159-2.955-0.707-2.431-1.6s6.073-0.283 6.073-0.283c3.832 0 7.357 0.825 10.509 3.024 0.542 0.378 1.042 0.815 1.542 1.252l0 0c0.223 0.195 0.447 0.39 0.674 0.58 1.392 1.165 2.884 2.165 4.625 2.742 2.115 0.701 4.203 0.6 6.245-0.273 1.362-0.582 1.943-1.664 1.606-3.173-0.179-0.8-0.407-1.589-0.635-2.379l-0-0v-0c-0.089-0.318-0.194-0.654-0.304-1.008-0.977-3.13-2.371-7.598 2.971-12.924 3.515-3.504 12.576-3.828 19.367-2.284 0.854 0.194 1.529 0.308 2.057 0.358l-0.761 7.915c-0.452-0.078-0.893-0.156-1.324-0.231-7.975-1.398-12.197-2.138-13.493 3.318-0.381 1.606 0.22 2.815 0.84 4.064 0.511 1.029 1.035 2.084 1.035 3.409 0 2.655-0.501 3.651-1.244 5.128l-0.001 0.001c-0.078 0.155-0.159 0.316-0.242 0.485z"></path>
</symbol>
<symbol id="right-hand-desk" viewBox="0 0 63 32">
<path fill="#5d398e" style="fill: var(--color2, #5d398e)" d="M12.345 21.654c-2.37 0.239-3.515 0.685-5.295 1.903 0 0-2.927 2.156-3.332 1.307s1.891-2.146 1.891-2.146-3.466 1.649-3.764 0.86c-0.297-0.79 2.789-2.45 2.789-2.45s-4.309 1.956-4.608 1.041c-0.298-0.914 3.975-2.812 3.975-2.812s-3.341 1.274-3.589 0.345c-0.248-0.929 5.863-3.254 5.863-3.254-0.293-0.167-2.973-0.783-2.422-1.672s6.152-0.143 6.152-0.143z"></path>
<path fill="#5d398e" style="fill: var(--color2, #5d398e)" d="M43.638 25.518c-1.408 2.687-3.61 4.431-6.44 5.467-2.358 0.862-4.774 1.182-7.257 0.829-2.371-0.337-4.454-1.289-6.19-2.986-1.502-1.468-3.048-2.895-4.62-4.289-1.169-1.037-2.468-1.903-3.943-2.471-0.981-0.378-1.93-0.523-2.842-0.414-2.37 0.239-3.515 0.685-5.295 1.903 0 0-2.927 2.156-3.332 1.307s1.891-2.146 1.891-2.146-3.466 1.649-3.764 0.86c-0.297-0.79 2.789-2.45 2.789-2.45s-4.309 1.956-4.608 1.041c-0.298-0.914 3.975-2.812 3.975-2.812s-3.341 1.274-3.589 0.345c-0.248-0.929 5.863-3.254 5.863-3.254-0.293-0.167-2.973-0.783-2.422-1.672s6.152-0.143 6.152-0.143c3.878 0.090 7.425 1.005 10.563 3.299 0.539 0.394 1.035 0.847 1.531 1.3l0 0c0.221 0.202 0.443 0.404 0.668 0.601 1.382 1.209 2.867 2.254 4.615 2.877 2.124 0.758 4.239 0.704 6.326-0.13 1.392-0.556 2.006-1.635 1.7-3.166-0.162-0.812-0.375-1.614-0.587-2.417l-0-0-0-0c-0.083-0.324-0.181-0.665-0.284-1.025-0.915-3.184-2.221-7.727 3.31-12.98 3.639-3.456 12.815-3.57 19.65-1.853 0.859 0.216 4.452 0.673 4.985 0.736l-0.567 8.083c-0.456-0.090-4.201-0.614-4.635-0.7-8.037-1.598-12.292-2.445-13.731 3.034-0.424 1.612 0.156 2.848 0.755 4.124 0.493 1.051 0.999 2.129 0.968 3.467-0.062 2.681-0.592 3.675-1.379 5.149l-0.001 0.001c-0.083 0.155-0.168 0.315-0.256 0.484z"></path>
</symbol>
</defs>
</svg>
