<svg aria-hidden="true" style="position: absolute; width: 0; height: 0; overflow: hidden;" version="1.1" xmlns="http://www.w3.org/2000/svg" xmlns:xlink="http://www.w3.org/1999/xlink">
<defs>
<symbol id="logo" viewBox="0 0 101 32">
<path fill="#d3caea" style="fill: var(--color1, #d3caea)" d="M25.37 15.999c0 7.006-5.679 12.685-12.685 12.685s-12.685-5.679-12.685-12.685c0-7.006 5.679-12.683 12.685-12.683s12.685 5.679 12.685 12.685z"></path>
<path fill="#5d398e" style="fill: var(--color2, #5d398e)" d="M30.472 14.248v-7.87c0-0.338 0.17-0.508 0.508-0.508h7.236c0.338 0 0.508 0.17 0.508 0.508v7.87c0 0.338-0.17 0.508-0.508 0.508h-1.447c-0.338 0-0.508-0.17-0.508-0.508v-5.942c0-0.17-0.084-0.254-0.254-0.254h-2.818c-0.17 0-0.254 0.084-0.254 0.254v5.94c0 0.338-0.17 0.508-0.508 0.508h-1.447c-0.338 0-0.508-0.17-0.508-0.508v0.001z"></path>
<path fill="#5d398e" style="fill: var(--color2, #5d398e)" d="M40.019 14.832c-0.296-0.059-0.431-0.254-0.406-0.583l0.089-1.003c0.009-0.152 0.038-0.268 0.089-0.348s0.11-0.12 0.177-0.12c0.051 0 0.102 0.004 0.152 0.013s0.102 0.013 0.152 0.013c0.177 0 0.313-0.11 0.406-0.329 0.093-0.221 0.158-0.596 0.197-1.129 0.038-0.533 0.057-1.321 0.057-2.361v-0.064c0-0.338 0.17-0.508 0.508-0.508h4.862c0.338 0 0.508 0.17 0.508 0.508v5.332c0 0.338-0.17 0.508-0.508 0.508h-1.219c-0.338 0-0.508-0.17-0.508-0.508v-3.72c0-0.17-0.084-0.254-0.254-0.254h-1.219v0.013c-0.026 1.193-0.12 2.12-0.286 2.781s-0.425 1.128-0.781 1.402c-0.356 0.276-0.846 0.412-1.473 0.412-0.203 0-0.385-0.017-0.546-0.051l0.003-0.003z"></path>
<path fill="#5d398e" style="fill: var(--color2, #5d398e)" d="M52.472 14.305c-0.601-0.385-1.016-0.907-1.244-1.567-0.051-0.144-0.144-0.216-0.279-0.216h-0.267c-0.17 0-0.254 0.084-0.254 0.254v1.473c0 0.338-0.17 0.508-0.508 0.508h-1.231c-0.338 0-0.508-0.17-0.508-0.508v-5.332c0-0.338 0.17-0.508 0.508-0.508h1.231c0.338 0 0.508 0.17 0.508 0.508v1.473c0 0.17 0.084 0.254 0.254 0.254h0.267c0.135 0 0.228-0.071 0.279-0.216 0.237-0.66 0.653-1.183 1.251-1.567 0.596-0.385 1.297-0.578 2.101-0.578 0.694 0 1.313 0.138 1.859 0.412 0.546 0.276 0.971 0.665 1.276 1.168s0.457 1.077 0.457 1.72-0.154 1.216-0.463 1.72c-0.309 0.504-0.736 0.893-1.281 1.168s-1.161 0.412-1.847 0.412c-0.804 0-1.506-0.193-2.107-0.578h-0.001zM53.608 12.617c0.241 0.258 0.565 0.387 0.971 0.387s0.743-0.129 0.984-0.387c0.241-0.258 0.361-0.602 0.361-1.035s-0.12-0.776-0.361-1.035c-0.241-0.258-0.569-0.388-0.984-0.388s-0.73 0.129-0.971 0.388c-0.241 0.258-0.361 0.602-0.361 1.035s0.12 0.776 0.361 1.035z"></path>
<path fill="#5d398e" style="fill: var(--color2, #5d398e)" d="M60.531 14.457c-0.533-0.283-0.943-0.675-1.231-1.174s-0.431-1.067-0.431-1.701 0.157-1.226 0.47-1.727c0.313-0.499 0.745-0.887 1.295-1.161s1.171-0.412 1.866-0.412c0.592 0 1.125 0.106 1.599 0.318s0.859 0.512 1.155 0.901c0.075 0.102 0.115 0.199 0.115 0.292 0 0.152-0.102 0.283-0.305 0.393l-0.99 0.495c-0.084 0.051-0.17 0.075-0.254 0.075-0.144 0-0.287-0.080-0.431-0.241-0.254-0.237-0.563-0.356-0.927-0.356-0.398 0-0.721 0.131-0.971 0.393s-0.374 0.605-0.374 1.029c0 0.424 0.131 0.766 0.393 1.028 0.263 0.263 0.588 0.393 0.977 0.393s0.74-0.135 1.029-0.406c0.152-0.152 0.296-0.228 0.431-0.228 0.093 0 0.181 0.025 0.267 0.075l0.914 0.495c0.212 0.119 0.318 0.254 0.318 0.406 0 0.068-0.025 0.139-0.075 0.216-0.305 0.415-0.715 0.739-1.231 0.971-0.517 0.232-1.096 0.348-1.739 0.348-0.711 0-1.332-0.141-1.866-0.425l-0.004 0.001z"></path>
<path fill="#5d398e" style="fill: var(--color2, #5d398e)" d="M30.396 25.508v-5.332c0-0.338 0.17-0.508 0.508-0.508h1.231c0.338 0 0.508 0.17 0.508 0.508v1.473c0 0.17 0.084 0.254 0.254 0.254h1.524c0.168 0 0.254-0.084 0.254-0.254v-1.473c0-0.338 0.168-0.508 0.508-0.508h1.219c0.338 0 0.508 0.17 0.508 0.508v5.332c0 0.338-0.17 0.508-0.508 0.508h-1.219c-0.338 0-0.508-0.17-0.508-0.508v-1.473c0-0.17-0.084-0.254-0.254-0.254h-1.524c-0.17 0-0.254 0.084-0.254 0.254v1.473c0 0.338-0.17 0.508-0.508 0.508h-1.231c-0.338 0-0.508-0.17-0.508-0.508z"></path>
<path fill="#5d398e" style="fill: var(--color2, #5d398e)" d="M38.455 25.604c-0.398-0.36-0.596-0.852-0.596-1.479s0.235-1.103 0.704-1.454c0.47-0.351 1.115-0.527 1.936-0.527h1.485c0.17 0 0.254-0.059 0.254-0.177 0-0.17-0.11-0.309-0.329-0.419-0.221-0.11-0.508-0.165-0.864-0.165-0.457 0-0.855 0.102-1.193 0.305-0.144 0.084-0.267 0.126-0.369 0.126-0.119 0-0.232-0.055-0.342-0.165l-0.597-0.61c-0.119-0.119-0.177-0.241-0.177-0.369s0.064-0.241 0.19-0.343c0.313-0.237 0.702-0.427 1.168-0.572 0.466-0.144 0.948-0.216 1.447-0.216 1.041 0 1.831 0.222 2.374 0.666 0.541 0.444 0.813 1.052 0.813 1.821v3.479c0 0.338-0.17 0.508-0.508 0.508h-1.118c-0.161 0-0.286-0.028-0.374-0.083s-0.134-0.129-0.134-0.222c0-0.102-0.038-0.152-0.115-0.152-0.051 0-0.097 0.017-0.139 0.051-0.525 0.356-1.146 0.533-1.866 0.533s-1.252-0.18-1.65-0.54v0.004zM40.252 24.36c0.139 0.080 0.344 0.12 0.615 0.12 0.398 0 0.72-0.083 0.965-0.248s0.38-0.387 0.406-0.666l-0.292-0.013h-1.18c-0.482 0-0.724 0.152-0.724 0.457 0 0.152 0.070 0.268 0.209 0.35z"></path>
<path fill="#5d398e" style="fill: var(--color2, #5d398e)" d="M48.014 25.927c-0.075-0.059-0.115-0.139-0.115-0.241 0-0.084 0.026-0.177 0.075-0.279l1.332-2.399c0.033-0.059 0.051-0.119 0.051-0.177s-0.017-0.119-0.051-0.177l-1.321-2.374c-0.051-0.102-0.075-0.194-0.075-0.279 0-0.102 0.041-0.181 0.12-0.241s0.189-0.089 0.324-0.089h1.321c0.271 0 0.47 0.119 0.597 0.356l0.914 1.714c0.068 0.119 0.17 0.178 0.305 0.178h0.292c0.17 0 0.254-0.084 0.254-0.254v-1.485c0-0.338 0.17-0.508 0.508-0.508h1.219c0.338 0 0.508 0.17 0.508 0.508v1.485c0 0.17 0.084 0.254 0.254 0.254h0.305c0.144 0 0.245-0.059 0.305-0.178l0.939-1.714c0.126-0.237 0.325-0.356 0.596-0.356h1.27c0.135 0 0.241 0.030 0.318 0.089 0.075 0.059 0.115 0.139 0.115 0.241 0 0.084-0.025 0.177-0.075 0.279l-1.282 2.284c-0.033 0.059-0.051 0.128-0.051 0.203 0 0.051 0.013 0.102 0.038 0.152l1.345 2.488c0.051 0.102 0.075 0.194 0.075 0.279 0 0.102-0.038 0.183-0.115 0.241-0.075 0.060-0.181 0.089-0.318 0.089h-1.409c-0.271 0-0.47-0.122-0.596-0.369l-0.888-1.701c-0.059-0.119-0.157-0.178-0.292-0.178h-0.279c-0.17 0-0.254 0.084-0.254 0.254v1.485c0 0.338-0.17 0.508-0.508 0.508h-1.219c-0.338 0-0.508-0.17-0.508-0.508v-1.485c0-0.168-0.084-0.254-0.254-0.254h-0.305c-0.135 0-0.237 0.059-0.305 0.178l-0.914 1.714c-0.126 0.237-0.327 0.356-0.596 0.356h-1.332c-0.135 0-0.241-0.029-0.318-0.089z"></path>
<path fill="#5d398e" style="fill: var(--color2, #5d398e)" d="M59.235 25.508v-5.332c0-0.338 0.17-0.508 0.508-0.508h1.206c0.338 0 0.508 0.17 0.508 0.508v2.006c0 0.068 0.013 0.123 0.038 0.165s0.059 0.064 0.102 0.064c0.060 0 0.115-0.042 0.165-0.126l1.688-2.297c0.152-0.212 0.36-0.318 0.623-0.318h1.219c0.338 0 0.508 0.17 0.508 0.508v5.332c0 0.338-0.17 0.508-0.508 0.508h-1.18c-0.338 0-0.508-0.17-0.508-0.508v-2.043c0-0.144-0.042-0.216-0.128-0.216-0.051 0-0.11 0.038-0.177 0.115l-1.714 2.335c-0.152 0.212-0.36 0.318-0.623 0.318h-1.219c-0.338 0-0.508-0.17-0.508-0.508v-0.001z"></path>
<path fill="#5d398e" style="fill: var(--color2, #5d398e)" d="M68.629 25.508v-3.694c0-0.168-0.085-0.254-0.254-0.254h-1.371c-0.338 0-0.508-0.168-0.508-0.508v-0.875c0-0.338 0.17-0.508 0.508-0.508h5.509c0.338 0 0.508 0.17 0.508 0.508v0.875c0 0.338-0.17 0.508-0.508 0.508h-1.383c-0.17 0-0.254 0.084-0.254 0.254v3.694c0 0.338-0.17 0.508-0.508 0.508h-1.231c-0.339 0-0.508-0.17-0.508-0.508z"></path>
<path fill="#5d398e" style="fill: var(--color2, #5d398e)" d="M75.419 25.508v-3.694c0-0.168-0.085-0.254-0.254-0.254h-1.372c-0.338 0-0.508-0.168-0.508-0.508v-0.875c0-0.338 0.17-0.508 0.508-0.508h5.509c0.338 0 0.508 0.17 0.508 0.508v0.875c0 0.338-0.17 0.508-0.508 0.508h-1.383c-0.169 0-0.254 0.084-0.254 0.254v3.694c0 0.338-0.169 0.508-0.507 0.508h-1.231c-0.338 0-0.507-0.17-0.507-0.508z"></path>
<path fill="#5d398e" style="fill: var(--color2, #5d398e)" d="M81.371 23.719c0-0.075-0.042-0.144-0.126-0.203-0.279-0.203-0.494-0.45-0.642-0.743-0.148-0.292-0.222-0.611-0.222-0.958 0-0.66 0.255-1.183 0.768-1.567s1.207-0.578 2.088-0.578h2.92c0.339 0 0.508 0.17 0.508 0.508v5.332c0 0.338-0.169 0.508-0.508 0.508h-1.193c-0.338 0-0.508-0.17-0.508-0.508v-1.142c0-0.17-0.084-0.254-0.254-0.254h-0.355c-0.128 0-0.228 0.055-0.305 0.165l-0.965 1.409c-0.144 0.221-0.347 0.329-0.609 0.329h-1.383c-0.135 0-0.244-0.029-0.323-0.089-0.081-0.059-0.121-0.135-0.121-0.228s0.038-0.194 0.115-0.305l1.067-1.524c0.033-0.042 0.051-0.093 0.051-0.152l-0.001-0.001zM83.441 22.475h0.762c0.17 0 0.254-0.084 0.254-0.254v-0.596c0-0.17-0.084-0.254-0.254-0.254h-0.762c-0.263 0-0.461 0.046-0.596 0.139s-0.203 0.228-0.203 0.406c0 0.373 0.267 0.559 0.799 0.559z"></path>
<path fill="#5d398e" style="fill: var(--color2, #5d398e)" d="M19.758 24.134h-13.925l-1.732-10.208h17.388l-1.732 10.208z"></path>
<path fill="#5d398e" style="fill: var(--color2, #5d398e)" d="M21.81 15.748h-18.295l-0.314-2.398h18.923l-0.314 2.398z"></path>
<path fill="#c9b5d8" style="fill: var(--color3, #c9b5d8)" d="M15.966 18.489c0-0.093-0.074-0.167-0.169-0.167h-1.913c-0.056 0.002-0.109-0.022-0.147-0.058-0.038-0.038-0.060-0.089-0.060-0.145v-1.942c-0.002-0.076-0.064-0.138-0.14-0.138h-1.752c-0.082 0.002-0.147 0.067-0.147 0.149v1.933c0.002 0.054-0.020 0.107-0.058 0.147-0.040 0.038-0.091 0.060-0.147 0.060h-1.926c-0.085 0.002-0.152 0.071-0.152 0.156v1.73c0 0.085 0.071 0.154 0.156 0.154h1.926c0.054 0 0.107 0.020 0.145 0.058 0.040 0.038 0.060 0.091 0.060 0.145v1.944c0.002 0.076 0.064 0.136 0.138 0.136h1.741c0.089 0 0.16-0.074 0.16-0.162v-1.918c-0.002-0.114 0.091-0.207 0.205-0.207h1.917c0.089-0.002 0.163-0.074 0.162-0.165v-1.706l0.002-0.004z"></path>
<path fill="#5d398e" style="fill: var(--color2, #5d398e)" d="M19.965 16.149h-14.571l0.839-6.049c0.152-1.098 1.102-1.926 2.211-1.926h8.474c1.107 0 2.058 0.828 2.211 1.926l0.839 6.049h-0.002zM5.653 15.924h14.054l-0.802-5.794c-0.136-0.987-0.991-1.732-1.987-1.732h-8.474c-0.996 0-1.85 0.744-1.987 1.732l-0.802 5.794z"></path>
<path fill="#5d398e" style="fill: var(--color2, #5d398e)" d="M17.286 7.866h-9.211c-0.265 0-0.479 0.215-0.479 0.479v0.002c0 0.265 0.215 0.479 0.479 0.479h9.211c0.265 0 0.479-0.215 0.479-0.479v-0.002c0-0.265-0.215-0.479-0.479-0.479z"></path>
</symbol>
<symbol id="nav-arrow" viewBox="0 0 32 32">
<path d="M24.171 7.829v15.085h-3.52v-9.051l-11.565 11.565-2.514-2.514 11.565-11.565h-9.051v-3.52h15.085z"></path>
</symbol>
<symbol id="burger-menu" viewBox="0 0 32 32">
<path d="M4 24v-2.667h24v2.667h-24zM4 17.333v-2.667h24v2.667h-24zM4 10.667v-2.667h24v2.667h-24z"></path>
</symbol>
</defs>
</svg>
