<svg aria-hidden="true" style="position: absolute; width: 0; height: 0; overflow: hidden;" version="1.1" xmlns="http://www.w3.org/2000/svg" xmlns:xlink="http://www.w3.org/1999/xlink">
<defs>
<symbol id="logo" viewBox="0 0 101 32">
<path fill="#d3caea" style="fill: var(--color1, #d3caea)" d="M25.37 15.999c0 7.006-5.679 12.685-12.685 12.685s-12.685-5.679-12.685-12.685c0-7.006 5.679-12.683 12.685-12.683s12.685 5.679 12.685 12.685z"></path>
<path fill="#5d398e" style="fill: var(--color2, #5d398e)" d="M30.472 14.248v-7.87c0-0.338 0.17-0.508 0.508-0.508h7.236c0.338 0 0.508 0.17 0.508 0.508v7.87c0 0.338-0.17 0.508-0.508 0.508h-1.447c-0.338 0-0.508-0.17-0.508-0.508v-5.942c0-0.17-0.084-0.254-0.254-0.254h-2.818c-0.17 0-0.254 0.084-0.254 0.254v5.94c0 0.338-0.17 0.508-0.508 0.508h-1.447c-0.338 0-0.508-0.17-0.508-0.508v0.001z"></path>
<path fill="#5d398e" style="fill: var(--color2, #5d398e)" d="M40.019 14.832c-0.296-0.059-0.431-0.254-0.406-0.583l0.089-1.003c0.009-0.152 0.038-0.268 0.089-0.348s0.11-0.12 0.177-0.12c0.051 0 0.102 0.004 0.152 0.013s0.102 0.013 0.152 0.013c0.177 0 0.313-0.11 0.406-0.329 0.093-0.221 0.158-0.596 0.197-1.129 0.038-0.533 0.057-1.321 0.057-2.361v-0.064c0-0.338 0.17-0.508 0.508-0.508h4.862c0.338 0 0.508 0.17 0.508 0.508v5.332c0 0.338-0.17 0.508-0.508 0.508h-1.219c-0.338 0-0.508-0.17-0.508-0.508v-3.72c0-0.17-0.084-0.254-0.254-0.254h-1.219v0.013c-0.026 1.193-0.12 2.12-0.286 2.781s-0.425 1.128-0.781 1.402c-0.356 0.276-0.846 0.412-1.473 0.412-0.203 0-0.385-0.017-0.546-0.051l0.003-0.003z"></path>
<path fill="#5d398e" style="fill: var(--color2, #5d398e)" d="M52.472 14.305c-0.601-0.385-1.016-0.907-1.244-1.567-0.051-0.144-0.144-0.216-0.279-0.216h-0.267c-0.17 0-0.254 0.084-0.254 0.254v1.473c0 0.338-0.17 0.508-0.508 0.508h-1.231c-0.338 0-0.508-0.17-0.508-0.508v-5.332c0-0.338 0.17-0.508 0.508-0.508h1.231c0.338 0 0.508 0.17 0.508 0.508v1.473c0 0.17 0.084 0.254 0.254 0.254h0.267c0.135 0 0.228-0.071 0.279-0.216 0.237-0.66 0.653-1.183 1.251-1.567 0.596-0.385 1.297-0.578 2.101-0.578 0.694 0 1.313 0.138 1.859 0.412 0.546 0.276 0.971 0.665 1.276 1.168s0.457 1.077 0.457 1.72-0.154 1.216-0.463 1.72c-0.309 0.504-0.736 0.893-1.281 1.168s-1.161 0.412-1.847 0.412c-0.804 0-1.506-0.193-2.107-0.578h-0.001zM53.608 12.617c0.241 0.258 0.565 0.387 0.971 0.387s0.743-0.129 0.984-0.387c0.241-0.258 0.361-0.602 0.361-1.035s-0.12-0.776-0.361-1.035c-0.241-0.258-0.569-0.388-0.984-0.388s-0.73 0.129-0.971 0.388c-0.241 0.258-0.361 0.602-0.361 1.035s0.12 0.776 0.361 1.035z"></path>
<path fill="#5d398e" style="fill: var(--color2, #5d398e)" d="M60.531 14.457c-0.533-0.283-0.943-0.675-1.231-1.174s-0.431-1.067-0.431-1.701 0.157-1.226 0.47-1.727c0.313-0.499 0.745-0.887 1.295-1.161s1.171-0.412 1.866-0.412c0.592 0 1.125 0.106 1.599 0.318s0.859 0.512 1.155 0.901c0.075 0.102 0.115 0.199 0.115 0.292 0 0.152-0.102 0.283-0.305 0.393l-0.99 0.495c-0.084 0.051-0.17 0.075-0.254 0.075-0.144 0-0.287-0.080-0.431-0.241-0.254-0.237-0.563-0.356-0.927-0.356-0.398 0-0.721 0.131-0.971 0.393s-0.374 0.605-0.374 1.029c0 0.424 0.131 0.766 0.393 1.028 0.263 0.263 0.588 0.393 0.977 0.393s0.74-0.135 1.029-0.406c0.152-0.152 0.296-0.228 0.431-0.228 0.093 0 0.181 0.025 0.267 0.075l0.914 0.495c0.212 0.119 0.318 0.254 0.318 0.406 0 0.068-0.025 0.139-0.075 0.216-0.305 0.415-0.715 0.739-1.231 0.971-0.517 0.232-1.096 0.348-1.739 0.348-0.711 0-1.332-0.141-1.866-0.425l-0.004 0.001z"></path>
<path fill="#5d398e" style="fill: var(--color2, #5d398e)" d="M30.396 25.508v-5.332c0-0.338 0.17-0.508 0.508-0.508h1.231c0.338 0 0.508 0.17 0.508 0.508v1.473c0 0.17 0.084 0.254 0.254 0.254h1.524c0.168 0 0.254-0.084 0.254-0.254v-1.473c0-0.338 0.168-0.508 0.508-0.508h1.219c0.338 0 0.508 0.17 0.508 0.508v5.332c0 0.338-0.17 0.508-0.508 0.508h-1.219c-0.338 0-0.508-0.17-0.508-0.508v-1.473c0-0.17-0.084-0.254-0.254-0.254h-1.524c-0.17 0-0.254 0.084-0.254 0.254v1.473c0 0.338-0.17 0.508-0.508 0.508h-1.231c-0.338 0-0.508-0.17-0.508-0.508z"></path>
<path fill="#5d398e" style="fill: var(--color2, #5d398e)" d="M38.455 25.604c-0.398-0.36-0.596-0.852-0.596-1.479s0.235-1.103 0.704-1.454c0.47-0.351 1.115-0.527 1.936-0.527h1.485c0.17 0 0.254-0.059 0.254-0.177 0-0.17-0.11-0.309-0.329-0.419-0.221-0.11-0.508-0.165-0.864-0.165-0.457 0-0.855 0.102-1.193 0.305-0.144 0.084-0.267 0.126-0.369 0.126-0.119 0-0.232-0.055-0.342-0.165l-0.597-0.61c-0.119-0.119-0.177-0.241-0.177-0.369s0.064-0.241 0.19-0.343c0.313-0.237 0.702-0.427 1.168-0.572 0.466-0.144 0.948-0.216 1.447-0.216 1.041 0 1.831 0.222 2.374 0.666 0.541 0.444 0.813 1.052 0.813 1.821v3.479c0 0.338-0.17 0.508-0.508 0.508h-1.118c-0.161 0-0.286-0.028-0.374-0.083s-0.134-0.129-0.134-0.222c0-0.102-0.038-0.152-0.115-0.152-0.051 0-0.097 0.017-0.139 0.051-0.525 0.356-1.146 0.533-1.866 0.533s-1.252-0.18-1.65-0.54v0.004zM40.252 24.36c0.139 0.080 0.344 0.12 0.615 0.12 0.398 0 0.72-0.083 0.965-0.248s0.38-0.387 0.406-0.666l-0.292-0.013h-1.18c-0.482 0-0.724 0.152-0.724 0.457 0 0.152 0.070 0.268 0.209 0.35z"></path>
<path fill="#5d398e" style="fill: var(--color2, #5d398e)" d="M48.014 25.927c-0.075-0.059-0.115-0.139-0.115-0.241 0-0.084 0.026-0.177 0.075-0.279l1.332-2.399c0.033-0.059 0.051-0.119 0.051-0.177s-0.017-0.119-0.051-0.177l-1.321-2.374c-0.051-0.102-0.075-0.194-0.075-0.279 0-0.102 0.041-0.181 0.12-0.241s0.189-0.089 0.324-0.089h1.321c0.271 0 0.47 0.119 0.597 0.356l0.914 1.714c0.068 0.119 0.17 0.178 0.305 0.178h0.292c0.17 0 0.254-0.084 0.254-0.254v-1.485c0-0.338 0.17-0.508 0.508-0.508h1.219c0.338 0 0.508 0.17 0.508 0.508v1.485c0 0.17 0.084 0.254 0.254 0.254h0.305c0.144 0 0.245-0.059 0.305-0.178l0.939-1.714c0.126-0.237 0.325-0.356 0.596-0.356h1.27c0.135 0 0.241 0.030 0.318 0.089 0.075 0.059 0.115 0.139 0.115 0.241 0 0.084-0.025 0.177-0.075 0.279l-1.282 2.284c-0.033 0.059-0.051 0.128-0.051 0.203 0 0.051 0.013 0.102 0.038 0.152l1.345 2.488c0.051 0.102 0.075 0.194 0.075 0.279 0 0.102-0.038 0.183-0.115 0.241-0.075 0.060-0.181 0.089-0.318 0.089h-1.409c-0.271 0-0.47-0.122-0.596-0.369l-0.888-1.701c-0.059-0.119-0.157-0.178-0.292-0.178h-0.279c-0.17 0-0.254 0.084-0.254 0.254v1.485c0 0.338-0.17 0.508-0.508 0.508h-1.219c-0.338 0-0.508-0.17-0.508-0.508v-1.485c0-0.168-0.084-0.254-0.254-0.254h-0.305c-0.135 0-0.237 0.059-0.305 0.178l-0.914 1.714c-0.126 0.237-0.327 0.356-0.596 0.356h-1.332c-0.135 0-0.241-0.029-0.318-0.089z"></path>
<path fill="#5d398e" style="fill: var(--color2, #5d398e)" d="M59.235 25.508v-5.332c0-0.338 0.17-0.508 0.508-0.508h1.206c0.338 0 0.508 0.17 0.508 0.508v2.006c0 0.068 0.013 0.123 0.038 0.165s0.059 0.064 0.102 0.064c0.060 0 0.115-0.042 0.165-0.126l1.688-2.297c0.152-0.212 0.36-0.318 0.623-0.318h1.219c0.338 0 0.508 0.17 0.508 0.508v5.332c0 0.338-0.17 0.508-0.508 0.508h-1.18c-0.338 0-0.508-0.17-0.508-0.508v-2.043c0-0.144-0.042-0.216-0.128-0.216-0.051 0-0.11 0.038-0.177 0.115l-1.714 2.335c-0.152 0.212-0.36 0.318-0.623 0.318h-1.219c-0.338 0-0.508-0.17-0.508-0.508v-0.001z"></path>
<path fill="#5d398e" style="fill: var(--color2, #5d398e)" d="M68.629 25.508v-3.694c0-0.168-0.085-0.254-0.254-0.254h-1.371c-0.338 0-0.508-0.168-0.508-0.508v-0.875c0-0.338 0.17-0.508 0.508-0.508h5.509c0.338 0 0.508 0.17 0.508 0.508v0.875c0 0.338-0.17 0.508-0.508 0.508h-1.383c-0.17 0-0.254 0.084-0.254 0.254v3.694c0 0.338-0.17 0.508-0.508 0.508h-1.231c-0.339 0-0.508-0.17-0.508-0.508z"></path>
<path fill="#5d398e" style="fill: var(--color2, #5d398e)" d="M75.419 25.508v-3.694c0-0.168-0.085-0.254-0.254-0.254h-1.372c-0.338 0-0.508-0.168-0.508-0.508v-0.875c0-0.338 0.17-0.508 0.508-0.508h5.509c0.338 0 0.508 0.17 0.508 0.508v0.875c0 0.338-0.17 0.508-0.508 0.508h-1.383c-0.169 0-0.254 0.084-0.254 0.254v3.694c0 0.338-0.169 0.508-0.507 0.508h-1.231c-0.338 0-0.507-0.17-0.507-0.508z"></path>
<path fill="#5d398e" style="fill: var(--color2, #5d398e)" d="M81.371 23.719c0-0.075-0.042-0.144-0.126-0.203-0.279-0.203-0.494-0.45-0.642-0.743-0.148-0.292-0.222-0.611-0.222-0.958 0-0.66 0.255-1.183 0.768-1.567s1.207-0.578 2.088-0.578h2.92c0.339 0 0.508 0.17 0.508 0.508v5.332c0 0.338-0.169 0.508-0.508 0.508h-1.193c-0.338 0-0.508-0.17-0.508-0.508v-1.142c0-0.17-0.084-0.254-0.254-0.254h-0.355c-0.128 0-0.228 0.055-0.305 0.165l-0.965 1.409c-0.144 0.221-0.347 0.329-0.609 0.329h-1.383c-0.135 0-0.244-0.029-0.323-0.089-0.081-0.059-0.121-0.135-0.121-0.228s0.038-0.194 0.115-0.305l1.067-1.524c0.033-0.042 0.051-0.093 0.051-0.152l-0.001-0.001zM83.441 22.475h0.762c0.17 0 0.254-0.084 0.254-0.254v-0.596c0-0.17-0.084-0.254-0.254-0.254h-0.762c-0.263 0-0.461 0.046-0.596 0.139s-0.203 0.228-0.203 0.406c0 0.373 0.267 0.559 0.799 0.559z"></path>
<path fill="#5d398e" style="fill: var(--color2, #5d398e)" d="M19.758 24.134h-13.925l-1.732-10.208h17.388l-1.732 10.208z"></path>
<path fill="#5d398e" style="fill: var(--color2, #5d398e)" d="M21.81 15.748h-18.295l-0.314-2.398h18.923l-0.314 2.398z"></path>
<path fill="#c9b5d8" style="fill: var(--color3, #c9b5d8)" d="M15.966 18.489c0-0.093-0.074-0.167-0.169-0.167h-1.913c-0.056 0.002-0.109-0.022-0.147-0.058-0.038-0.038-0.060-0.089-0.060-0.145v-1.942c-0.002-0.076-0.064-0.138-0.14-0.138h-1.752c-0.082 0.002-0.147 0.067-0.147 0.149v1.933c0.002 0.054-0.020 0.107-0.058 0.147-0.040 0.038-0.091 0.060-0.147 0.060h-1.926c-0.085 0.002-0.152 0.071-0.152 0.156v1.73c0 0.085 0.071 0.154 0.156 0.154h1.926c0.054 0 0.107 0.020 0.145 0.058 0.040 0.038 0.060 0.091 0.060 0.145v1.944c0.002 0.076 0.064 0.136 0.138 0.136h1.741c0.089 0 0.16-0.074 0.16-0.162v-1.918c-0.002-0.114 0.091-0.207 0.205-0.207h1.917c0.089-0.002 0.163-0.074 0.162-0.165v-1.706l0.002-0.004z"></path>
<path fill="#5d398e" style="fill: var(--color2, #5d398e)" d="M19.965 16.149h-14.571l0.839-6.049c0.152-1.098 1.102-1.926 2.211-1.926h8.474c1.107 0 2.058 0.828 2.211 1.926l0.839 6.049h-0.002zM5.653 15.924h14.054l-0.802-5.794c-0.136-0.987-0.991-1.732-1.987-1.732h-8.474c-0.996 0-1.85 0.744-1.987 1.732l-0.802 5.794z"></path>
<path fill="#5d398e" style="fill: var(--color2, #5d398e)" d="M17.286 7.866h-9.211c-0.265 0-0.479 0.215-0.479 0.479v0.002c0 0.265 0.215 0.479 0.479 0.479h9.211c0.265 0 0.479-0.215 0.479-0.479v-0.002c0-0.265-0.215-0.479-0.479-0.479z"></path>
</symbol>
<symbol id="nav-arrow" viewBox="0 0 32 32">
<path d="M24.171 7.829v15.085h-3.52v-9.051l-11.565 11.565-2.514-2.514 11.565-11.565h-9.051v-3.52h15.085z"></path>
</symbol>
<symbol id="burger-menu" viewBox="0 0 32 32">
<path d="M4 24v-2.667h24v2.667h-24zM4 17.333v-2.667h24v2.667h-24zM4 10.667v-2.667h24v2.667h-24z"></path>
</symbol>
<symbol id="plus" viewBox="0 0 32 32">
<path d="M20.121 0c0.353 0 0.64 0.287 0.64 0.64v9.959c0 0.353 0.287 0.64 0.64 0.64h9.959c0.353 0 0.64 0.287 0.64 0.64v8.243c0 0.353-0.287 0.64-0.64 0.64h-9.959c-0.353 0-0.64 0.287-0.64 0.64v9.959c0 0.353-0.287 0.64-0.64 0.64h-8.243c-0.353 0-0.64-0.287-0.64-0.64v-9.959c0-0.353-0.287-0.64-0.64-0.64h-9.959c-0.353 0-0.64-0.287-0.64-0.64v-8.243c0-0.353 0.287-0.64 0.64-0.64h9.959c0.353 0 0.64-0.287 0.64-0.64v-9.959c0-0.353 0.287-0.64 0.64-0.64h8.243z"></path>
</symbol>
<symbol id="left-hand-mobile" viewBox="0 0 46 32">
<path fill="#876dc7" style="fill: var(--color1, #876dc7)" d="M16.118 18.192c0.048-1.113 0.531-2.017 1.506-2.618 0.445-0.274 1.305-0.486 2.125-0.688 0.637-0.157 1.251-0.308 1.627-0.478 8.026-3.627 2.439-14.637-5.402-14.404-8.218 0.244-15.975 3.074-15.975 3.074l1.448 5.089 0.838 1.071c0 0 7.076-2.677 9.292-2.818 0.217-0.014 0.447-0.031 0.685-0.050 2.188-0.168 5.068-0.388 5.362 1.796 0.204 1.516-1.313 2.192-3.047 2.966-1.037 0.463-2.151 0.96-3.023 1.691-0.723 0.607-2.904 2.517-2.64 6.486 0.247 3.711 0.945 4.665 1.387 5.27l0 0c0.031 0.042 0.060 0.082 0.088 0.121 1.164 1.638 4.527 3.063 7.494 3.187 1.207 0.051 2.362-0.189 3.493-0.576 0.58-0.198 1.157-0.402 1.735-0.607l0-0c0.566-0.2 1.131-0.4 1.699-0.594 1.474-0.506 2.871-0.355 4.209 0.469 1.236 0.76 3.803 3.222 5.377 4.037s4.425 1.6 5.917 1.164c1.492-0.435 3.004-2.116 3.004-2.116 0.915-1.102 2.992-4.613 2.701-4.94-0.483-0.545-2.412 1.944-2.412 1.944s2.039-2.872 1.527-3.39c-0.385-0.39-1.702 1.373-2.335 2.263-0.188 0.264-0.315 0.451-0.34 0.482 0 0 1.639-2.508 1.169-2.942s-2.546 2.889-2.546 2.889c0 0 1.679-2.695 1.118-3.132s-2.562 3.185-2.562 3.185c-0.080 0.102-0.184 0.215-0.307 0.333 0.204-0.619 0.585-1.795-0.027-1.848-0.484-0.042-1.203 3.244-3.415 2.194 0 0-0.938-0.63-1.493-1.135-0.402-0.366-0.798-0.738-1.194-1.11l-0-0c-0.42-0.395-0.84-0.79-1.267-1.177-1.389-1.26-2.955-2.16-4.873-2.319-0.988-0.082-1.969-0.051-2.903 0.308-1.094 0.421-2.185 0.821-3.365 0.94-0.998 0.101-1.981 0.087-2.932-0.254-0.869-0.312-1.487-0.891-1.624-1.836-0.092-0.635-0.148-1.286-0.121-1.926z"></path>
</symbol>
<symbol id="left-hand-desk" viewBox="0 0 93 32">
<path fill="#876dc7" style="fill: var(--color1, #876dc7)" d="M47.142 4.709c-0.234-0.202-1.401-1.347-1.819-1.645l-0.020-0.014c-0.829-0.594-1.979-1.418-3.495-2.005-3.11-1.204-7.495-1.767-12.532 0.558-5.043 2.327-7.316 5.795-8.906 9.088-0.35 0.725-0.674 1.455-0.974 2.134l-0 0-0 0-0.082 0.185c-0.332 0.748-0.64 1.436-0.971 2.098-0.656 1.314-1.349 2.421-2.274 3.365-0.772 0.789-1.451 1.028-2.007 1.087-0.617 0.066-1.319-0.069-2.075-0.389-0.753-0.318-1.435-0.767-1.946-1.16-0.249-0.192-0.444-0.359-0.569-0.472-0.063-0.056-0.107-0.098-0.132-0.122-0.011-0.011-0.019-0.018-0.022-0.021h-0l-0.001-0.001-0.002-0.002-5.333-5.333-3.973 3.973 5.331 5.33c0.003 0.003 0.005 0.005 0.008 0.008s0.007 0.007 0.012 0.012c0.004 0.004 0.009 0.009 0.015 0.014 0.020 0.020 0.047 0.046 0.079 0.077 0.064 0.061 0.152 0.143 0.26 0.241 0.217 0.195 0.523 0.458 0.904 0.75 0.75 0.576 1.85 1.317 3.181 1.88 1.327 0.561 3.011 0.999 4.861 0.801 1.912-0.204 3.783-1.066 5.425-2.744 1.489-1.522 2.491-3.195 3.285-4.786 0.394-0.79 0.75-1.586 1.080-2.33 0.020-0.045 0.040-0.090 0.060-0.135l0.012-0.027 0.005-0.012v-0c0.308-0.694 0.595-1.342 0.903-1.98 1.274-2.639 2.776-4.848 6.201-6.429 3.431-1.584 6.211-1.17 8.15-0.419 0.996 0.386 1.786 0.869 2.32 1.252 0.265 0.19 0.526 0.357 0.73 0.495 0.86 0.583 1.642 1.098 2.563 1.871 2.488 2.089 5.661 4.752 11.402 2.923 0 0 2.227-0.586 4.173-0.833 0.173-0.022 0.368-0.049 0.577-0.078l0-0 0-0c2.143-0.299 5.916-0.826 5.916 1.464 0 0.975-1.19 1.568-2.443 2.193-0.559 0.279-1.13 0.564-1.613 0.891-0.053 0.035-0.114 0.074-0.182 0.118-0.765 0.488-2.413 1.539-2.52 4.523-0.109 3.039 1.12 4.527 1.954 5.287 0.049 0.044 0.099 0.090 0.15 0.138 0.831 0.767 2.073 1.912 5.102 2.18 2.81 0 4.286-0.938 5.504-1.713 0.697-0.443 1.31-0.833 2.040-0.963 1.244-0.288 2.369-0.048 3.391 0.733 0.399 0.305 0.965 0.876 1.578 1.494v0l0 0c0.839 0.846 1.764 1.779 2.466 2.238 1.214 0.794 3.473 1.671 4.725 1.441s2.626-1.47 2.626-1.47c0.838-0.82 2.825-3.502 2.615-3.792-0.348-0.483-2.128 1.379-2.128 1.379s1.903-2.165 1.528-2.629c-0.281-0.349-1.502 0.975-2.092 1.645-0.084 0.095-0.156 0.178-0.209 0.24l-0.049 0.056c-0.031 0.036-0.051 0.059-0.060 0.067 0 0 1.545-1.903 1.199-2.295s-2.317 2.137-2.317 2.137 1.594-2.051 1.173-2.454c-0.421-0.403-2.355 2.376-2.355 2.376-0.073 0.076-0.168 0.159-0.278 0.245 0.218-0.486 0.627-1.411 0.132-1.505-0.116-0.022-0.275 0.194-0.485 0.481v0c-0.495 0.677-1.278 1.747-2.482 1.018 0 0-0.712-0.591-1.121-1.048-0.297-0.331-0.589-0.667-0.88-1.003v-0c-0.309-0.356-0.619-0.712-0.934-1.063-1.026-1.141-2.227-2.004-3.778-2.293-0.798-0.149-1.537-0.209-3.013 0-0.657 0.093-1.5 0.423-2.362 0.761h-0c-1.074 0.421-2.179 0.854-2.992 0.854-1.466 0-2.402-0.59-2.402-2.215 0-1.987 1.106-2.428 2.134-2.838 0.138-0.055 0.276-0.11 0.408-0.168 6.845-2.279 3.876-10.946-2.534-11.412-6.718-0.488-10.166 0.888-10.166 0.888-5.067 1.594-7.069-0.494-9.652-3.189z"></path>
</symbol>
<symbol id="right-hand-mobile" viewBox="0 0 58 32">
<path fill="#5d398e" style="fill: var(--color1, #5d398e)" d="M12.171 22.219c-2.336 0.291-3.456 0.758-5.186 2.005 0 0-2.841 2.201-3.261 1.37s1.819-2.167 1.819-2.167-3.386 1.712-3.698 0.938c-0.312-0.775 2.699-2.489 2.699-2.489s-4.212 2.035-4.527 1.136c-0.315-0.898 3.862-2.874 3.862-2.874s-3.271 1.337-3.537 0.424c-0.266-0.913 5.716-3.355 5.716-3.355-0.294-0.159-2.955-0.707-2.431-1.6s6.073-0.283 6.073-0.283z"></path>
<path fill="#5d398e" style="fill: var(--color1, #5d398e)" d="M43.168 25.327c-1.329 2.692-3.464 4.469-6.235 5.558-2.309 0.907-4.688 1.279-7.149 0.987-2.35-0.28-4.429-1.174-6.183-2.814-1.517-1.419-3.077-2.796-4.662-4.139-1.178-0.999-2.481-1.827-3.951-2.355-0.977-0.351-1.919-0.474-2.817-0.344-2.336 0.291-3.456 0.758-5.186 2.005 0 0-2.841 2.201-3.261 1.37s1.819-2.167 1.819-2.167-3.386 1.712-3.698 0.938c-0.312-0.775 2.699-2.489 2.699-2.489s-4.212 2.035-4.527 1.136c-0.315-0.898 3.862-2.874 3.862-2.874s-3.271 1.337-3.537 0.424c-0.266-0.913 5.716-3.355 5.716-3.355-0.294-0.159-2.955-0.707-2.431-1.6s6.073-0.283 6.073-0.283c3.832 0 7.357 0.825 10.509 3.024 0.542 0.378 1.042 0.815 1.542 1.252l0 0c0.223 0.195 0.447 0.39 0.674 0.58 1.392 1.165 2.884 2.165 4.625 2.742 2.115 0.701 4.203 0.6 6.245-0.273 1.362-0.582 1.943-1.664 1.606-3.173-0.179-0.8-0.407-1.589-0.635-2.379l-0-0v-0c-0.089-0.318-0.194-0.654-0.304-1.008-0.977-3.13-2.371-7.598 2.971-12.924 3.515-3.504 12.576-3.828 19.367-2.284 0.854 0.194 1.529 0.308 2.057 0.358l-0.761 7.915c-0.452-0.078-0.893-0.156-1.324-0.231-7.975-1.398-12.197-2.138-13.493 3.318-0.381 1.606 0.22 2.815 0.84 4.064 0.511 1.029 1.035 2.084 1.035 3.409 0 2.655-0.501 3.651-1.244 5.128l-0.001 0.001c-0.078 0.155-0.159 0.316-0.242 0.485z"></path>
</symbol>
<symbol id="right-hand-desk" viewBox="0 0 142 32">
<path fill="#5d398e" style="fill: var(--color1, #5d398e)" d="M116.091 9.060c4.304-1.18 8.694 0.685 12.577 3.695 1.866 1.447 3.412 3.009 4.497 4.222 0.538 0.601 0.952 1.105 1.224 1.448 0.136 0.171 0.236 0.302 0.298 0.384 0.023 0.031 0.041 0.055 0.053 0.071l0.010 0.014 0.004 0.006 0.001 0.001c-0.001-0.001-0.002-0.002 3.526-2.541s3.527-2.54 3.526-2.542l-0.006-0.009-0.006-0.007-0.007-0.010-0.007-0.009-0.010-0.014c-0.004-0.006-0.009-0.013-0.014-0.020l-0.006-0.008c-0.030-0.041-0.071-0.096-0.122-0.164-0.102-0.135-0.246-0.323-0.428-0.553-0.365-0.46-0.89-1.097-1.557-1.843-1.325-1.481-3.255-3.439-5.65-5.296-4.641-3.598-11.921-7.479-20.202-5.208-3.796 1.041-6.593 2.7-8.725 4.876-2.066 2.108-3.287 4.488-4.224 6.473-0.171 0.362-0.335 0.714-0.495 1.056v0c-1.635 3.512-2.782 5.973-6.236 7.989-4.008 2.339-8.458 2.521-12.168 1.986-1.831-0.264-3.403-0.572-4.496-0.931-0.544-0.178-1.012-0.278-1.281-0.386-0.135-0.054-0.261-0.075-0.316-0.099-0.028-0.012-0.042-0.018-0.042-0.018-2.59-0.9-5.087-2.441-5.825-6.379-1.134-6.057-3.654-9.953-11.717-12.535-0.604-0.16-1.354-0.375-2.060-0.577l-0-0c-0.748-0.214-1.445-0.413-1.863-0.518-6.459-1.623-15.129-1.515-18.567 1.751-5.226 4.963-3.992 9.256-3.127 12.264v0c0.097 0.339 0.19 0.662 0.269 0.968l0 0 0 0c0.201 0.758 0.401 1.516 0.555 2.284 0.289 1.447-0.291 2.467-1.606 2.992-1.972 0.788-3.97 0.838-5.978 0.122-1.652-0.589-3.055-1.576-4.361-2.718-0.213-0.186-0.422-0.377-0.631-0.568l-0-0c-0.469-0.428-0.937-0.856-1.447-1.229-2.965-2.168-6.317-3.033-9.981-3.118 0 0-5.292-0.704-5.813 0.135-0.415 0.669 1.109 1.175 1.885 1.433l0 0c0.198 0.066 0.347 0.115 0.404 0.147 0 0-5.774 2.197-5.54 3.074s3.391-0.326 3.391-0.326c0 0-4.037 1.793-3.756 2.657 0.274 0.84 4.125-0.881 4.344-0.979v0l0.002-0.001c0.005-0.002 0.007-0.003 0.007-0.003s-2.917 1.569-2.636 2.315c0.282 0.746 3.557-0.813 3.557-0.813s-2.169 1.226-1.787 2.027c0.382 0.802 3.148-1.235 3.148-1.235 1.682-1.151 2.764-1.572 5.003-1.798 0.862-0.104 1.759 0.034 2.686 0.391 1.394 0.536 2.621 1.355 3.725 2.335 1.485 1.317 2.946 2.665 4.365 4.053 1.641 1.604 3.608 2.503 5.849 2.822 2.347 0.333 4.629 0.031 6.857-0.783 2.674-0.978 4.755-2.626 6.085-5.165 0.083-0.159 0.164-0.311 0.242-0.457l0.001-0.001c0.743-1.393 1.244-2.332 1.303-4.865 0.029-1.265-0.449-2.283-0.914-3.276-0.566-1.206-1.113-2.373-0.713-3.896 1.36-5.177 5.381-4.377 12.974-2.867 0.41 0.082 3.466 0.967 4.632 1.55 1.916 0.78 3.545 2.78 3.843 6.551 0.325 4.114 2.743 8.828 9.692 11.864l0.011 0.005 0.009 0.004 0.009 0.004c0.014 0.006 0.031 0.014 0.051 0.023 0.038 0.017 0.089 0.040 0.151 0.066 0.124 0.053 0.315 0.154 0.526 0.238 0.421 0.168 0.954 0.435 1.688 0.676 1.46 0.479 3.519 1.043 5.953 1.394 4.819 0.695 11.478 0.602 17.79-3.082 5.911-3.449 8.123-8.287 9.723-11.788l0.001-0.001c0.168-0.366 0.328-0.718 0.486-1.052 0.859-1.82 1.576-3.084 2.572-4.1 0.93-0.948 2.319-1.893 4.815-2.577z"></path>
</symbol>
<symbol id="combat-medic-backpacks" viewBox="0 0 49 32">
<path fill="none" stroke="#fff" style="stroke: var(--color1, #fff)" stroke-linejoin="miter" stroke-linecap="butt" stroke-miterlimit="4" stroke-width="0.7442" d="M17.402 3.533l-0.026-0.573c0.601-2.83 6.279-3.076 6.924-0l0.014 0.255"></path>
<path fill="#fff" style="fill: var(--color1, #fff)" d="M30.934 1.922c-0.405 0.121-0.772 0.286-1.146 0.482-0.27 0.155-0.528 0.282-0.785 0.463l-0.295 0.268c-0.142 0.155-0.281 0.304-0.398 0.478-0.763-0.443-1.184-0.6-1.934-0.746l0.209-0.31 0.355-0.194 0.293-0.199c0.435-0.306 0.953-0.595 1.5-0.594 0.256 0 0.529 0.052 0.781 0.096l1.42 0.256z"></path>
<path fill="#fff" style="fill: var(--color1, #fff)" d="M33.178 3.846c-0.284-0.499-0.832-1.146-1.407-1.298-0.125-0.033-0.326-0.1-0.452-0.090-0.136 0.010-0.302 0.101-0.427 0.155-0.314 0.136-0.64 0.274-0.933 0.453-0.41 0.251-0.778 0.515-1.13 0.842 0.623 0.348 1.12 0.873 1.542 1.44 0.718 0.965 1.215 2.030 1.543 3.186 0.294 1.035 0.513 2.145 0.585 3.22l0.075 1.235c0.011 0.231-0.006 0.494 0.038 0.72 0.070 0.358 0.227 0.727 0.361 1.065l0.732 1.74c0.191 0.441 0.357 0.893 0.583 1.318 0.211 0.396 0.46 0.805 0.74 1.157 0.103 0.13 0.209 0.267 0.356 0.35 0.165 0.093 0.291 0.102 0.469 0.048 0.181-0.055 0.353-0.195 0.439-0.364 0.2-0.389 0.18-0.892 0.133-1.317-0.064-0.583-0.244-1.158-0.382-1.726l-0.366-1.767-0.439-2.941-0.279-1.993c-0.194-1.124-0.538-2.222-0.858-3.315-0.047-0.241-0.154-0.49-0.245-0.718-0.189-0.478-0.395-0.969-0.682-1.397z"></path>
<path fill="#fff" style="fill: var(--color1, #fff)" d="M15.284 6.51c-0.984 2.707-0.809 2.334-0.923 6.213l0.329 14.582c0.063 1.926 0.798 2.293 2.584 2.461l7.657 1.116c0.020 0.003 0.041 0.003 0.061 0.001 2.040-0.206 3.247 0.181 4.427-0.966l2.388-1.237c0.083-0.043 0.135-0.13 0.133-0.224l-0.347-16.36c-0.408-5.025-2.24-8.019-6.287-8.579-0.012-0.002-0.024-0.002-0.036-0.002l-6.010 0.074c-0.005 0-0.009 0-0.014 0.001-0.151 0.013-3.004 0.287-3.962 2.922z"></path>
<path fill="none" stroke="#7f759a" style="stroke: var(--color2, #7f759a)" stroke-linejoin="miter" stroke-linecap="butt" stroke-miterlimit="4" stroke-width="0.7442" d="M20.43 13.216l0.008-2.316"></path>
<path fill="none" stroke="#7f759a" style="stroke: var(--color2, #7f759a)" stroke-linejoin="miter" stroke-linecap="butt" stroke-miterlimit="4" stroke-width="0.7442" d="M19.363 12.042l2.193 0.126"></path>
<path fill="none" stroke="#7f759a" style="stroke: var(--color2, #7f759a)" stroke-linejoin="miter" stroke-linecap="butt" stroke-miterlimit="4" stroke-width="0.7442" d="M29.226 30.11c0.543-12.122 1.443-23.523-4.914-27.010"></path>
<path fill="none" stroke="#7f759a" style="stroke: var(--color2, #7f759a)" stroke-linejoin="miter" stroke-linecap="butt" stroke-miterlimit="4" stroke-width="1.6744" d="M31.898 19.96l-2.344 0.657c-6.144 0.356-9.467 0.15-15.228-0.769"></path>
<path fill="none" stroke="#7f759a" style="stroke: var(--color2, #7f759a)" stroke-linejoin="miter" stroke-linecap="butt" stroke-miterlimit="4" stroke-width="1.6744" d="M32.284 24.288l-2.618 0.606c-6.144 0.356-9.467 0.15-15.229-0.769"></path>
</symbol>
<symbol id="compression-bandage" viewBox="0 0 50 32">
<path fill="none" stroke="#fff" style="stroke: var(--color1, #fff)" stroke-linejoin="miter" stroke-linecap="butt" stroke-miterlimit="4" stroke-width="0.7529" d="M45.394 12.842l-0.167-0.624c-0.009-0.032-0.028-0.061-0.054-0.081l-5.587-4.305c-0.029-0.022-0.063-0.033-0.1-0.031-0.293 0.016-1.671 0.096-1.923 0.2-0.283 0.116-0.698 0.369-1.197 0.381s-1.694-0.219-3.060-0.014c-1.364 0.206-3.984 3.034-3.992 3.043-0 0-0 0-0.001 0l-0.205 0.225c-0.058 0.064-0.052 0.163 0.015 0.219l0.514 0.429c0.067 0.056 0.073 0.158 0.013 0.221l-1.678 1.763c-0.017 0.018-0.040 0.032-0.064 0.040l-6.413 2.053c-0.012 0.004-0.025 0.006-0.039 0.007l-1.221 0.062c-0.020 0.001-0.040-0.002-0.059-0.009l-0.93-0.337c-0.019-0.007-0.039-0.010-0.059-0.009-5.283 0.249-7.909 1.534-12.148 5.215-0.013 0.011-0.027 0.020-0.043 0.026l-3.055 1.233c-0.082 0.033-0.118 0.129-0.079 0.208l2.893 5.85c0.037 0.075 0.129 0.106 0.204 0.069l5.327-2.657c0.013-0.006 0.024-0.014 0.034-0.024l1.66-1.512c0.011-0.010 0.023-0.018 0.037-0.025l5.203-2.491c1.774-0.995 2.739-1.149 4.37-0.55 0.016 0.006 0.034 0.009 0.051 0.010 1.728 0.028 2.558-0.228 3.83-1.012 0.018-0.011 0.038-0.018 0.059-0.021l2.814-0.393c0.714-0.068 1.312-0.127 1.826-0.233M45.394 12.842l-2.326 0.345c-0.010 0.001-0.020 0.002-0.030 0.001-3.164-0.158-4.703 0.718-7.188 3.316l-1.595 1.975c-0.548 0.775-1.187 1.104-2.084 1.289M45.394 12.842l0.528 0.307c0.079 0.046 0.1 0.151 0.044 0.223l-0.729 0.956c-0.027 0.036-0.069 0.058-0.114 0.060l-1.030 0.043c-0.010 0-0.020 0.002-0.029 0.004l-1.998 0.486c-0.028 0.007-0.057 0.005-0.085-0.004-1.842-0.607-2.805-0.261-4.389 1.43l-2.916 3.394c-0.009 0.010-0.020 0.020-0.031 0.027-0.866 0.571-1.44 0.402-2.475 0"></path>
<path fill="#fff" style="fill: var(--color1, #fff)" d="M37.563 8c0.253-0.104 1.63-0.184 1.923-0.2 0.036-0.002 0.071 0.009 0.1 0.031l4.581 3.53c0.106 0.082 0.062 0.25-0.070 0.27l-4.765 0.731c-1.462 0.276-2.148 0.693-3.181 1.808l-2.18 2.486c-0.059 0.068-0.164 0.069-0.225 0.003l-3.986-4.274-0.638-0.533c-0.066-0.055-0.073-0.155-0.015-0.219l0.205-0.225c0.008-0.009 2.627-2.837 3.992-3.043 1.366-0.206 2.561 0.025 3.060 0.014s0.914-0.264 1.197-0.381z"></path>
<path fill="#fff" style="fill: var(--color1, #fff)" d="M27.499 20.399l2.845-0.397c0.676-0.064 1.249-0.12 1.743-0.216 0.051-0.010 0.093-0.046 0.111-0.095l0.235-0.625c0.021-0.055 0.008-0.117-0.033-0.159l-0.777-0.806c-1.557-1.337-2.433-2.107-3.614-3.717-0.039-0.053-0.107-0.076-0.17-0.056l-5.275 1.689c-0.107 0.034-0.141 0.168-0.064 0.249l4.312 4.526c0.219-0.113 0.444-0.244 0.686-0.394z"></path>
<path fill="#fff" style="fill: var(--color1, #fff)" d="M19.22 21.968c1.582-0.887 2.521-1.106 3.862-0.718 0.149 0.043 0.275-0.137 0.177-0.257l-3.992-4.861c-0.030-0.037-0.077-0.058-0.125-0.055-4.039 0.196-6.523 1.003-9.377 3.034-0.062 0.044-0.082 0.13-0.045 0.197 1.262 2.292 2.081 3.544 3.518 5.619 0.052 0.075 0.159 0.088 0.227 0.026l0.516-0.47c0.011-0.010 0.023-0.018 0.037-0.025l5.203-2.491z"></path>
</symbol>
<symbol id="draggers-for-evacuation" viewBox="0 0 50 32">
<path fill="#fff" style="fill: var(--color1, #fff)" d="M5.532 16.28c-1.635 0.425-2.38 0.782-3.292 1.497-0.098 0.077-0.098 0.224-0.001 0.302l5.229 4.239c0.004 0.003 0.007 0.005 0.010 0.009 0.080 0.073 1.194 1.063 2.748 1.114 1.488 0.049 2.32-0.215 2.441-0.256 0.011-0.004 0.021-0.007 0.032-0.009l4.416-0.83 25.308-6.067c0.001-0 0.001-0 0.002-0.001 0.040-0.011 2.672-0.701 3.571-1.448 0.716-0.596 1.043-1.449 1.149-1.78 0.026-0.082-0.010-0.169-0.085-0.213l-9.034-5.323c-0.058-0.034-0.127-0.038-0.187-0.006-0.781 0.409-6.24 3.256-7.617 3.711-1.484 0.489-14.334 3.049-14.344 3.051l-0.001 0-10.345 2.008z"></path>
<path fill="#7f759a" style="fill: var(--color2, #7f759a)" d="M17.228 20.393l-8.012-5.034c-0.152-0.095-0.106-0.328 0.071-0.359l1.096-0.188c0.048-0.008 0.097 0.002 0.137 0.027l7.937 4.999c0.008 0.005 0.016 0.011 0.024 0.018 0.829 0.721 0.857 1.262 0.774 1.847-0.011 0.077-0.068 0.139-0.143 0.159l-0.96 0.251c-0.125 0.033-0.247-0.063-0.25-0.192-0.019-0.793-0.202-1.133-0.675-1.527z"></path>
<path fill="#7f759a" style="fill: var(--color2, #7f759a)" d="M27.142 18.314l-7.759-4.838c-0.152-0.095-0.107-0.328 0.070-0.359l1.094-0.188c0.047-0.008 0.096 0.001 0.137 0.027l7.686 4.804c0.009 0.005 0.017 0.011 0.024 0.018 0.829 0.72 0.856 1.261 0.774 1.847-0.011 0.077-0.068 0.139-0.143 0.159l-0.96 0.25c-0.125 0.033-0.247-0.063-0.25-0.192-0.019-0.793-0.202-1.133-0.675-1.527z"></path>
<path fill="#7f759a" style="fill: var(--color2, #7f759a)" d="M35.657 16.088l-7.672-4.195c-0.155-0.085-0.127-0.315 0.043-0.361l1.081-0.289c0.049-0.013 0.102-0.007 0.146 0.018l7.643 4.28c0.011 0.006 0.023 0.014 0.033 0.023 0.825 0.719 0.853 1.259 0.77 1.843-0.011 0.077-0.068 0.139-0.143 0.159l-0.96 0.25c-0.125 0.033-0.247-0.063-0.25-0.192-0.019-0.785-0.198-1.126-0.66-1.515-0.010-0.008-0.020-0.015-0.032-0.022z"></path>
<path fill="none" stroke="#fff" style="stroke: var(--color1, #fff)" stroke-linejoin="miter" stroke-linecap="butt" stroke-miterlimit="4" stroke-width="0.7529" d="M10.338 21.536c-3.552 0-6.564 3.616-6.564 3.616M5.074 17.888c-2.487 1.191-3.375 2.521-4.523 3.876"></path>
<path fill="none" stroke="#7f759a" style="stroke: var(--color2, #7f759a)" stroke-linejoin="miter" stroke-linecap="butt" stroke-miterlimit="4" stroke-width="0.7529" d="M11.587 16.291c-2.070 0.421-4.027 0.406-6.514 1.596-0.696 0.333-1.511 0.629-1.808 0.983M46.974 12.164l-0.668 1.133c-0.011 0.018-0.023 0.033-0.039 0.047-0.208 0.18-1.795 1.529-3.228 2.076-1.531 0.583-19.44 4.319-19.574 4.347-0.004 0.001 0.002-0.001-0.002 0.001-0.131 0.037-8.21 2.274-9.618 2.277-1.42 0.002-1.891-0.552-3.507-0.507-0.591 0.016-2.305 0.047-2.964 0.769"></path>
</symbol>
<symbol id="hemostatic-applicator" viewBox="0 0 50 32">
<path fill="none" stroke="#fff" style="stroke: var(--color1, #fff)" stroke-linejoin="miter" stroke-linecap="butt" stroke-miterlimit="4" stroke-width="0.6765" d="M42.62 8.925l-1.934 1.592 0.705 2.131 2.22 0.285 0.665 2.448c0.299 0.312 0.403 0.238 0.565 0.010-0.126-3.977-0.579-6.042-2.598-9.207-0.266-0.106-0.35-0.069-0.374 0.188l0.751 2.555z"></path>
<path fill="none" stroke="#fff" style="stroke: var(--color1, #fff)" stroke-linejoin="miter" stroke-linecap="butt" stroke-miterlimit="4" stroke-width="2.0295" d="M27.006 15.986l13.755-4.398"></path>
<path fill="none" stroke="#fff" style="stroke: var(--color1, #fff)" stroke-linejoin="round" stroke-linecap="butt" stroke-miterlimit="4" stroke-width="2.0295" d="M25.064 11.573c1.776 3.201 2.421 5.265 3.036 9.356"></path>
<path fill="#fff" style="fill: var(--color1, #fff)" d="M5.814 19.482l20.274-6.32 2.012 6.249-20.377 6.248c-1.67 0.512-3.444-0.394-4.008-2.047-0.587-1.722 0.361-3.589 2.098-4.13z"></path>
<path fill="none" stroke="#7f759a" style="stroke: var(--color2, #7f759a)" stroke-linejoin="miter" stroke-linecap="butt" stroke-miterlimit="4" stroke-width="0.9412" d="M6.481 19.023l2.118 6.496"></path>
</symbol>
<symbol id="hemostatic-bandage" viewBox="0 0 49 32">
<path fill="#fff" style="fill: var(--color1, #fff)" d="M10.105 30.144l-4.954-9.947c-0.164-0.329 0.030-0.724 0.39-0.796l3.812-0.762-1.508-2.986c-0.21-0.416 0.153-0.892 0.61-0.798l10.586 2.164 6.988-10.701c0.202-0.31 0.644-0.341 0.888-0.062l3.091 3.542 3.658-5.524c0.172-0.26 0.524-0.328 0.781-0.152l10.445 7.154c0.259 0.177 0.321 0.533 0.137 0.787l-8.837 12.232-4.746-4.187-6.272 7.613-14.466 2.724c-0.245 0.046-0.492-0.076-0.603-0.3z"></path>
<path fill="none" stroke="#7f759a" style="stroke: var(--color2, #7f759a)" stroke-linejoin="round" stroke-linecap="butt" stroke-miterlimit="4" stroke-width="0.7442" d="M25.174 27.72l-14.466 2.724c-0.245 0.046-0.492-0.076-0.603-0.3l-4.954-9.947c-0.164-0.329 0.030-0.724 0.39-0.796l3.812-0.762M25.174 27.72l-11.952-1.931c-0.176-0.028-0.329-0.14-0.409-0.299l-3.46-6.851M25.174 27.72l-6.133-10.702M25.174 27.72l6.272-7.613M19.041 17.018l-10.586-2.164c-0.457-0.093-0.82 0.382-0.61 0.798l1.508 2.986M19.041 17.018l6.988-10.701c0.202-0.31 0.644-0.341 0.888-0.062l3.091 3.542M35.117 15.651l1.075 8.643M35.117 15.651l-3.671 4.456M35.117 15.651l-5.109-5.854M36.192 24.294l-4.746-4.187M36.192 24.294l8.837-12.232c0.184-0.254 0.122-0.61-0.137-0.787l-10.445-7.154c-0.257-0.176-0.609-0.108-0.781 0.152l-3.658 5.524"></path>
</symbol>
<symbol id="intraosseous-access" viewBox="0 0 50 32">
<path fill="#fff" style="fill: var(--color1, #fff)" d="M39.849 8.633l-11.931 2.278c-0.163 0.025-0.25 0.205-0.169 0.349 1.535 2.724 2.168 4.407 2.447 7.069 0.029 0.275 0.317 0.445 0.569 0.333l10.819-4.812c0.162-0.072 0.258-0.242 0.234-0.417-0.248-1.849-0.577-2.954-1.551-4.612-0.085-0.145-0.253-0.219-0.417-0.188z"></path>
<path fill="none" stroke="#fff" style="stroke: var(--color1, #fff)" stroke-linejoin="miter" stroke-linecap="butt" stroke-miterlimit="4" stroke-width="0.7529" d="M8.402 23.775l1.151 0.013c0.26 0.003 0.444-0.252 0.361-0.498l-1.405-4.122c-0.083-0.244-0.381-0.334-0.586-0.177l-0.898 0.689c-0.027 0.021-0.057 0.038-0.089 0.051l-1.45 0.581c-0.115 0.046-0.2 0.145-0.224 0.266-0.297 1.501 0.062 2.632 1.228 3.604 0.095 0.079 0.224 0.101 0.341 0.065l1.453-0.454c0.038-0.012 0.077-0.017 0.117-0.017z"></path>
<path fill="#fff" style="fill: var(--color1, #fff)" d="M29.578 24.638l-0.295 0.127c-0.108 0.047-0.232 0.043-0.337-0.009l-0.007-0.003c-0.126-0.063-0.21-0.187-0.223-0.328-0.196-2.061-0.752-3.006-2.504-4.052-0.070-0.042-0.128-0.104-0.162-0.178l-0.006-0.013c-0.035-0.076-0.096-0.138-0.171-0.175-0.087-0.043-0.187-0.050-0.278-0.020l-0.827 0.27c-0.407-0.528-0.659-0.724-1.218-0.604l-12.244 4.049-1.579 0.405c-0.152 0.039-0.314-0.015-0.412-0.138-1.395-1.769-1.877-2.922-1.843-4.973 0.003-0.158 0.101-0.299 0.248-0.358l1.563-0.635 12.615-4.226c0.024-0.008 0.047-0.018 0.069-0.031 0.457-0.264 0.536-0.455 0.608-0.805l0.921-0.32c0.028-0.010 0.051-0.030 0.064-0.056l0.087-0.175c0.011-0.023 0.015-0.049 0.009-0.074l-0.041-0.19c-0.005-0.022-0.003-0.046 0.006-0.067 0.822-1.995 0.679-3.095-0.508-4.964-0.021-0.033-0.024-0.076-0.006-0.111l0.136-0.273c0.015-0.029 0.041-0.051 0.073-0.059l0.727-0.176c0.147-0.036 0.301 0.014 0.399 0.129 1.211 1.426 2.2 2.734 2.993 3.997l0.581-0.174c0.214-0.064 0.44 0.059 0.501 0.274l2.33 8.172c0.059 0.206-0.055 0.423-0.259 0.491l-0.465 0.155c0.028 1.453-0.083 3.029-0.305 4.803-0.018 0.141-0.109 0.261-0.239 0.317z"></path>
<path fill="none" stroke="#fff" style="stroke: var(--color1, #fff)" stroke-linejoin="miter" stroke-linecap="butt" stroke-miterlimit="4" stroke-width="0.6765" d="M41.801 9.052l-1.853 1.525 0.676 2.041 2.127 0.273 0.637 2.345c0.286 0.299 0.386 0.228 0.541 0.009-0.12-3.81-0.555-5.789-2.489-8.821-0.255-0.101-0.336-0.066-0.358 0.18l0.72 2.448z"></path>
<path fill="none" stroke="#7f759a" style="stroke: var(--color2, #7f759a)" stroke-linejoin="miter" stroke-linecap="butt" stroke-miterlimit="4" stroke-width="0.9412" d="M28.692 10.307c1.668 2.935 2.352 4.747 2.536 8.514"></path>
</symbol>
<symbol id="occlusal-sticker" viewBox="0 0 50 32">
<path fill="none" stroke="#fff" style="stroke: var(--color1, #fff)" stroke-linejoin="miter" stroke-linecap="butt" stroke-miterlimit="4" stroke-width="0.686" d="M23.442 10.405l0.003-0.009 0.003-0.009c0.109-0.396 0.292-1.074 0.44-1.703 0.074-0.314 0.14-0.619 0.184-0.873 0.022-0.127 0.039-0.245 0.049-0.347 0.009-0.094 0.014-0.202-0.001-0.295-0.010-0.060-0.005-0.177 0.025-0.351 0.029-0.165 0.075-0.349 0.125-0.524 0.050-0.175 0.102-0.336 0.142-0.454 0.020-0.059 0.037-0.106 0.049-0.139 0.006-0.016 0.011-0.029 0.014-0.037l0.003-0.009 0-0c0.085-0.217 0.149-0.281 0.209-0.313 0.075-0.040 0.22-0.071 0.556-0.043l5.46 1.216c0.325 0.079 0.439 0.146 0.486 0.201 0.030 0.035 0.076 0.119 0.041 0.408l-0.357 1.6 0.014 0.070c0.027 0.141 0.076 0.258 0.154 0.367 0.070 0.098 0.159 0.18 0.238 0.252l0.068 0.062 4.656 1.037c1.588 0.354 2.588 1.927 2.234 3.515l-1.995 8.957c-0.353 1.588-1.927 2.588-3.515 2.234l-9.132-2.034c-1.588-0.354-2.588-1.927-2.234-3.515l1.995-8.957c0.024-0.105 0.052-0.208 0.086-0.307z"></path>
<path fill="#fff" style="fill: var(--color1, #fff)" d="M8.085 17.026c-0.027-0.14-0.046-0.279-0.057-0.418-0.162-1.962 1.179-3.77 3.156-4.148l10.906-2.088c2.117-0.405 4.161 0.982 4.566 3.099l2.048 10.697c0.405 2.117-0.982 4.161-3.099 4.566l-10.906 2.088c-2.117 0.405-4.161-0.982-4.566-3.099l-2.048-10.697z"></path>
<path fill="#fff" style="fill: var(--color1, #fff)" d="M8.028 16.608c-0.162-1.962 1.179-3.77 3.156-4.148l5.453-1.044c-0.249-0.086-0.383-0.141-0.516-0.335l-0.354-1.847c-0.218-0.755-0.545-0.856-1.33-0.721l-6.55 1.254c-0.822 0.271-0.991 0.543-0.97 1.161 0 0 0.078 1.538 0.387 2.021 0.244 0.381 0.588 2.697 0.723 3.659z"></path>
<path fill="#7f759a" style="fill: var(--color2, #7f759a)" d="M20.606 20.056c-0.168-0.876-0.357-1.877 0.144-2.615l4.227-6.228c0.19-0.279 0.117-0.659-0.162-0.849s-0.66-0.117-0.849 0.163l-4.487 6.612c-0.393 0.579-1.131 0.788-1.818 0.919-0.643 0.123-1.182 0.481-1.545 0.968-0.516 0.693-1.091 1.477-1.939 1.639l-6.064 1.161c-0.332 0.063-0.549 0.384-0.485 0.715s0.384 0.549 0.715 0.485l6.064-1.161c0.849-0.162 1.672 0.353 2.408 0.807 0.517 0.319 1.15 0.452 1.794 0.329 0.617-0.118 1.301-0.155 1.809 0.214l6.89 5.006c0.273 0.198 0.655 0.138 0.854-0.135s0.138-0.655-0.135-0.854l-6.347-4.611c-0.75-0.545-0.908-1.597-1.063-2.511-0.003-0.018-0.006-0.036-0.010-0.053z"></path>
<path fill="#7f759a" style="fill: var(--color2, #7f759a)" d="M14.972 11.869c-0.123-0.644-0.572-1.199-1.246-1.542s-1.52-0.447-2.351-0.288c-0.831 0.159-1.579 0.568-2.079 1.136s-0.712 1.249-0.589 1.893l6.265-1.199z"></path>
</symbol>
<symbol id="thermal-blanket" viewBox="0 0 50 32">
<path fill="#fff" style="fill: var(--color1, #fff)" d="M31.604 8.379l13.516 7.661c0.779 0.441 0.759 1.569-0.034 1.984l-21.727 11.349-14.203-4.122-4.798-3.875c-0.662-0.535-0.517-1.582 0.265-1.917l25.98-11.134c0.324-0.139 0.695-0.118 1.002 0.056zM23.122 27.66l-4.863-6.084-7.662 2.688 12.524 3.396z"></path>
</symbol>
<symbol id="turnstile" viewBox="0 0 50 32">
<path fill="#fff" style="fill: var(--color1, #fff)" d="M44.417 7.392c-15.515 6.551-24.929 8.184-42.693 8.318v6.747c-0.017 0.846-0.152 1.329 1.919 2.036 9.963-0.642 15.515-1.294 25.302-3.49 0.279-0.042 0.574 0.274 0.843 0.233 6.335-0.967 10.037-2.111 16.199-4.246 0.139-0.744 0.133-1.233 0-2.21 0 0 1.498-0.204 1.861-0.64s0.014-7.75-0.582-8.143c-0.596-0.393-2.85 1.396-2.85 1.396z"></path>
<path fill="none" stroke="#fff" style="stroke: var(--color1, #fff)" stroke-linejoin="miter" stroke-linecap="butt" stroke-miterlimit="4" stroke-width="0.5817" d="M1.957 15.652c0.272-1.301 0.783-1.789 6.747-2.501 0 0 31.351-5.060 32.165-5.351s2.85-1.629 2.85-1.629c1.089-0.345 1.903-0.464 3.315 0"></path>
<path fill="#7f759a" style="fill: var(--color2, #7f759a)" d="M29.637 16.078c0.476-0.209 0.692-0.765 0.482-1.241s-0.765-0.692-1.241-0.482l0.759 1.723zM28.878 14.355l-22.909 10.087 0.759 1.723 22.909-10.087-0.759-1.723z"></path>
<path fill="#fff" style="fill: var(--color1, #fff)" d="M17.798 24.216c-0.001-0.291-0.015-0.59 0.003-0.88v-8.608l-7.363 0.465-0.055 8.831 0.029 0.238 0.025 0.333c0.029 0.166 0.057 0.345 0.155 0.485 0.145 0.265 0.4 0.451 0.673 0.57l0.038 0.018 0.023 0.011c0.277-0.081 0.62-0.086 0.908-0.123l0.728-0.090 3.018-0.252c0.438-0.032 0.92-0.028 1.349-0.111 0.077-0.015 0.139-0.052 0.203-0.095 0.129-0.117 0.21-0.217 0.251-0.389 0.030-0.123 0.013-0.277 0.013-0.404z"></path>
<path fill="#7f759a" style="fill: var(--color2, #7f759a)" d="M39.96 13.811l0.095-0.004c0.063 0.067 0.045 0.38 0.050 0.486l-0.319 0.096-0.004 1.914-0.309 0.075c0.005-0.115 0.028-0.265-0.031-0.367l-0.010-0.015c0.078-0.113 0.047-0.34 0.047-0.476l-0.005-1.050-0.426 0.107 0.005-0.499c0.289-0.098 0.609-0.126 0.885-0.258l0.019-0.009z"></path>
<path fill="#7f759a" style="fill: var(--color2, #7f759a)" d="M35.727 14.948c0.112-0 0.16-0.010 0.259 0.047 0.104 0.154 0.045 0.597 0.040 0.785-0.067 0.052-0.159 0.054-0.241 0.066l-0.037-0.031-0.007-0.4-0.678 0.157-0.009 1.445 0.728-0.156c-0.007-0.154-0.004-0.3 0.010-0.453 0.064-0.073 0.128-0.081 0.218-0.097l0.005 0.058c0.11 0.159 0.038 0.653 0.007 0.854-0.026 0.019-0.051 0.035-0.080 0.048-0.236 0.109-0.561 0.157-0.818 0.201-0.097 0.016-0.205 0.044-0.299 0.006-0.031-0.012-0.060-0.057-0.070-0.089-0.025-0.078-0.015-0.179-0.015-0.261l0.004-0.567c0.003-0.38-0.021-0.778 0.007-1.155 0.004-0.060 0.022-0.119 0.056-0.169 0.106-0.156 0.731-0.241 0.923-0.288z"></path>
<path fill="#7f759a" style="fill: var(--color2, #7f759a)" d="M39.031 15.253c0.061-0.003 0.073-0.012 0.123 0.027l0.005 0.37-0.547 0.113c-0.025-0.001-0.047-0.010-0.071-0.018-0.016-0.132-0.004-0.263 0.004-0.395 0.165-0.028 0.325-0.049 0.486-0.097z"></path>
<path fill="#7f759a" style="fill: var(--color2, #7f759a)" d="M37.899 14.305l0.078-0.002c0.066 0.048 0.113 0.304 0.142 0.395l0.502 1.875-0.341 0.077-0.127-0.504-0.515 0.12c-0.017 0.005-0.011 0.002-0.027 0.012-0.095 0.058-0.158 0.449-0.188 0.576l-0.306 0.058 0.557-2.551 0.226-0.056z"></path>
<path fill="#fff" style="fill: var(--color1, #fff)" d="M37.785 14.956c0.13 0.136 0.206 0.529 0.241 0.719-0.058 0.062-0.123 0.055-0.205 0.069-0.057 0.020-0.091 0.024-0.151 0.016-0.004-0.277 0.15-0.518 0.115-0.803z"></path>
<path fill="#7f759a" style="fill: var(--color2, #7f759a)" d="M36.792 15.773c0.061-0.003 0.073-0.012 0.123 0.027l0.005 0.37-0.547 0.113c-0.025-0.001-0.047-0.010-0.072-0.017-0.015-0.132-0.004-0.263 0.005-0.395 0.165-0.028 0.325-0.049 0.486-0.097z"></path>
</symbol>
<symbol id="ventilator-bag" viewBox="0 0 50 32">
<path fill="none" stroke="#fff" style="stroke: var(--color1, #fff)" stroke-linejoin="miter" stroke-linecap="butt" stroke-miterlimit="4" stroke-width="0.7529" d="M20.016 22.987c0.479-0.056 0.935 0 0.935 0 1.502 0.148 1.482 1.671 0.795 2.091-0.495 0.841-14.571 4.535-15.031 1.65 0.064-0.787 0.244-1.391 0.589-1.928M20.016 22.987c-0.479 0.056-3.013-1.752-3.013-1.752-0.822-0.485-1.746-0.906-2.899-0.906l-2.706 0.424c-1.882 0.482-1.835 1.898-2.672 2.641-0.642 0.473-1.102 0.911-1.421 1.407M20.016 22.987c-4.751 2.3-7.531 2.639-12.711 1.813"></path>
<path fill="#fff" style="fill: var(--color1, #fff)" d="M44.409 8.465l-1.331 0.156c0.969 2.526 1.105 4.078 0.824 7.024l1.331-0.156c0.436-2.766 0.324-4.306-0.824-7.024z"></path>
<path fill="#fff" style="fill: var(--color1, #fff)" d="M9.964 17.082l0.267-2.272c1.155-0.443 1.826-0.487 3.047-0.357l0.786 2.148c0.345-0.089 0.701-0.055 0.939 0.106l0.194 1.651c-0.565 0.572-0.969 0.617-1.686 0.711l0.069 0.586 0.124 0.675-2.471 0.384-0.159-1.358c-0.719 0.075-1.123 0.125-1.805-0.301l-0.194-1.651c0.195-0.211 0.533-0.327 0.889-0.32z"></path>
<path fill="#fff" style="fill: var(--color1, #fff)" d="M20.416 10.265c-1.287 1.569-1.486 2.064-3.13 2.311-0.416 1.948-0.291 3.070 0.605 5.152 1.657-0.14 1.873-0.030 3.58 1.524s14.444 6.936 20.808-3.035l0.805-0.664c0.234-2.674 0.121-4.174-0.805-6.857l-0.917-0.294c-9.541-9.084-19.659 0.294-20.946 1.864z"></path>
<path fill="#fff" style="fill: var(--color1, #fff)" d="M13.264 14.454l5.595-0.656 0.252 2.148-5.36 0.651-0.487-2.143z"></path>
</symbol>
<symbol id="heart" viewBox="0 0 34 32">
<path fill="#f6f4ee" style="fill: var(--color1, #f6f4ee)" d="M30.886 10.195c-2.352-3.312-6.104-4.245-9.617-2.502-0.578 0.287-1.315 0.001-1.551-0.6-1.424-3.628-4.846-5.44-8.828-4.556-10.462 3.864-3.825 18.351 1.783 24.234 0.181 0.19 0.429 0.285 0.691 0.265 8.1-0.624 22.726-6.978 17.522-16.841z"></path>
<path fill="#876dc7" style="fill: var(--color2, #876dc7)" d="M21.362 18.935l-3.21-1.229-1.229 3.21-2.72-1.042 1.229-3.21-3.21-1.229 1.042-2.72 3.21 1.229 1.229-3.21 2.72 1.042-1.229 3.21 3.21 1.229-1.042 2.72z"></path>
</symbol>
<symbol id="prev-btn" viewBox="0 0 32 32">
<path d="M13.761 16.131l6.869-6.869-2.091-2.091-8.96 8.96 8.96 8.96 2.091-2.091-6.869-6.869z"></path>
</symbol>
<symbol id="next-btn" viewBox="0 0 32 32">
<path d="M18.239 16.131l-6.869-6.869 2.091-2.091 8.96 8.96-8.96 8.96-2.091-2.091 6.869-6.869z"></path>
</symbol>
<symbol id="question-show" viewBox="0 0 31 32">
<path d="M14.080 17.411h-7.68v-2.56h7.68v-7.68h2.56v7.68h7.68v2.56h-7.68v7.68h-2.56v-7.68z"></path>
</symbol>
<symbol id="question-hide" viewBox="0 0 32 32">
<path d="M14.667 17.333h-8v-2.667h18.667v2.667h-10.667z"></path>
</symbol>
<symbol id="next" viewBox="0 0 32 32">
<path d="M18.945 15.869l-5.056 5.056c-0.238 0.238-0.357 0.54-0.357 0.907s0.119 0.67 0.357 0.907c0.238 0.238 0.54 0.357 0.907 0.357s0.67-0.119 0.907-0.357l5.963-5.963c0.13-0.13 0.221-0.27 0.275-0.421s0.081-0.313 0.081-0.486c0-0.173-0.027-0.335-0.081-0.486s-0.146-0.292-0.275-0.421l-5.963-5.963c-0.238-0.238-0.54-0.357-0.907-0.357s-0.67 0.119-0.907 0.357c-0.238 0.238-0.357 0.54-0.357 0.907s0.119 0.67 0.357 0.907l5.056 5.056z"></path>
</symbol>
<symbol id="next-arrow" viewBox="0 0 32 32">
<path d="M22.036 9.964v11.144h-2.6v-6.686l-8.544 8.543-1.857-1.857 8.543-8.543h-6.686v-2.6h11.144z"></path>
</symbol>
<symbol id="support-left-hand-mobile" viewBox="0 0 57 32">
<path fill="#f6f4ee" style="fill: var(--color1, #f6f4ee)" d="M35.124 19.477c2.72-0.062 4.577-0.321 6.422-0.952 3.054-6.137 0.020-5.084-6.422 0.952z"></path>
<path fill="#f6f4ee" style="fill: var(--color1, #f6f4ee)" d="M15.391 6.030l-7.45 9.769c3.090 1.264 5.645 3.2 7.989 5.398 0.382 0.358 0.756 0.724 1.13 1.091l0 0c0.838 0.821 1.677 1.641 2.602 2.369 0.6 0.472 1.174 0.937 1.731 1.39 4.445 3.608 7.907 6.419 16.335 5.617 3.82-0.363 6.289-0.901 8.86-2.023 0 0 10.079-4.383 9.757-5.968s-6.378 0.705-6.378 0.705 7.248-3.819 6.832-5.387c-0.336-1.269-5.16 1.095-7.017 2.006-0.374 0.183-0.627 0.307-0.7 0.332-0.013 0.004-0.019 0.006-0.019 0.006s5.387-3.134 4.956-4.493c-0.433-1.358-6.507 1.709-6.507 1.709s4.142-2.556 3.525-4.026c-0.617-1.471-6.026 2.441-6.026 2.441-1.27 0.676-2.365 1.184-3.464 1.559-1.845 0.631-3.702 0.889-6.422 0.952-1.673 0.068-3.378-0.297-5.108-1.053-2.602-1.137-4.842-2.751-6.823-4.633-2.663-2.531-5.275-5.114-7.802-7.76z"></path>
<path fill="#f6f4ee" style="fill: var(--color1, #f6f4ee)" d="M15.391 6.030c-2.92-3.059-6.572-4.916-10.835-5.781l-4.301 14.276c2.597-0.178 5.163 0.242 7.686 1.274l7.45-9.769z"></path>
</symbol>
<symbol id="support-right-hand-mobile" viewBox="0 0 38 32">
<path fill="#f6f4ee" style="fill: var(--color1, #f6f4ee)" d="M14.263 22.565c-1.77 0.597-3.039 0.865-4.402 0.89-3.671-3.24-1.424-3.272 4.402-0.89z"></path>
<path fill="#f6f4ee" style="fill: var(--color1, #f6f4ee)" d="M23.246 9.281l7.512 4.551c-1.641 1.538-2.75 3.384-3.65 5.348-0.147 0.32-0.286 0.644-0.426 0.967v0c-0.313 0.725-0.625 1.45-1.019 2.136-0.256 0.445-0.496 0.879-0.73 1.301-1.863 3.366-3.314 5.987-8.967 7.443-2.562 0.66-4.303 0.891-6.27 0.77 0 0-8.002-0.7-8.234-1.797s5.211-0.689 5.211-0.689-6.345-0.879-6.513-1.986c-0.136-0.896 3.629-0.502 5.079-0.35 0.292 0.031 0.49 0.051 0.543 0.050 0.009-0 0.014-0 0.014-0s-4.766-0.834-4.865-1.81c-0.098-0.976 6.263 0 6.263 0s-4.55-1.025-4.56-2.116c-0.010-1.093 4.56 0.162 4.56 0.162 1.006 0.138 1.852 0.209 2.665 0.194 1.364-0.026 2.632-0.293 4.402-0.89 1.097-0.348 2.095-0.982 3-1.874 1.361-1.342 2.357-2.906 3.111-4.583 1.014-2.255 1.98-4.53 2.873-6.827z"></path>
<path fill="#f6f4ee" style="fill: var(--color1, #f6f4ee)" d="M28.624 3.019c2.625-1.629 5.546-2.52 8.701-2.814l0.69 10.553c-2.832 0.187-5.264 1.204-7.257 3.073l-7.512-4.551c1.033-2.655 2.871-4.706 5.378-6.262z"></path>
</symbol>
<symbol id="support-left-hand-desk" viewBox="0 0 52 32">
<path fill="#f6f4ee" style="fill: var(--color1, #f6f4ee)" d="M32.155 19.477c2.499-0.062 4.204-0.321 5.898-0.952 2.804-6.137 0.018-5.084-5.898 0.952z"></path>
<path fill="#f6f4ee" style="fill: var(--color1, #f6f4ee)" d="M14.032 6.030l-6.843 9.769c2.838 1.264 5.185 3.2 7.337 5.398 0.351 0.358 0.694 0.724 1.038 1.091l0 0c0.77 0.821 1.54 1.641 2.39 2.369 0.551 0.472 1.078 0.937 1.59 1.39 4.082 3.608 7.262 6.419 15.002 5.617 3.509-0.363 5.776-0.901 8.137-2.023 0 0 9.257-4.383 8.961-5.968s-5.858 0.705-5.858 0.705 6.656-3.819 6.276-5.387c-0.309-1.269-4.739 1.095-6.445 2.006-0.343 0.183-0.576 0.307-0.643 0.332-0.012 0.004-0.018 0.006-0.018 0.006s4.947-3.134 4.551-4.493c-0.397-1.358-5.976 1.709-5.976 1.709s3.804-2.556 3.237-4.026c-0.567-1.471-5.534 2.441-5.534 2.441-1.167 0.676-2.172 1.184-3.181 1.559-1.695 0.631-3.4 0.889-5.898 0.952-1.536 0.068-3.103-0.297-4.692-1.053-2.39-1.137-4.447-2.751-6.266-4.633-2.446-2.531-4.845-5.114-7.165-7.76z"></path>
<path fill="#f6f4ee" style="fill: var(--color1, #f6f4ee)" d="M14.032 6.030c-2.682-3.059-6.036-4.916-9.951-5.781l-3.95 14.276c2.386-0.178 4.742 0.242 7.059 1.274l6.843-9.769z"></path>
</symbol>
<symbol id="support-right-hand-desk" viewBox="0 0 35 32">
<path fill="#f6f4ee" style="fill: var(--color1, #f6f4ee)" d="M13.166 22.565c-1.626 0.597-2.791 0.865-4.043 0.89-3.371-3.24-1.308-3.272 4.043-0.89z"></path>
<path fill="#f6f4ee" style="fill: var(--color1, #f6f4ee)" d="M21.417 9.281l6.899 4.551c-1.507 1.538-2.525 3.384-3.352 5.348-0.135 0.32-0.263 0.644-0.391 0.967l-0 0c-0.287 0.725-0.574 1.45-0.936 2.136-0.235 0.445-0.456 0.879-0.67 1.301-1.711 3.366-3.044 5.987-8.235 7.443-2.353 0.66-3.952 0.891-5.759 0.77 0 0-7.349-0.7-7.562-1.797s4.786-0.689 4.786-0.689-5.827-0.879-5.981-1.986c-0.125-0.896 3.333-0.502 4.664-0.35 0.268 0.031 0.45 0.051 0.499 0.050 0.009-0 0.013-0 0.013-0s-4.377-0.834-4.468-1.81c-0.090-0.976 5.752 0 5.752 0s-4.179-1.025-4.188-2.116c-0.009-1.093 4.188 0.162 4.188 0.162 0.924 0.138 1.701 0.209 2.447 0.194 1.253-0.026 2.418-0.293 4.043-0.89 1.007-0.348 1.924-0.982 2.755-1.874 1.25-1.342 2.164-2.906 2.857-4.583 0.931-2.255 1.819-4.53 2.639-6.827z"></path>
<path fill="#f6f4ee" style="fill: var(--color1, #f6f4ee)" d="M26.356 3.019c2.411-1.629 5.094-2.52 7.992-2.814l0.633 10.554c-2.602 0.187-4.834 1.204-6.665 3.073l-6.899-4.551c0.948-2.655 2.637-4.706 4.939-6.262z"></path>
</symbol>
<symbol id="footer-logo" viewBox="0 0 108 32">
<path fill="#d3caea" style="fill: var(--color1, #d3caea)" d="M31.538 16.177c0 8.709-7.060 15.769-15.769 15.769s-15.769-7.060-15.769-15.769c0-8.709 7.060-15.767 15.769-15.767s15.769 7.060 15.769 15.769z"></path>
<path fill="#5d398e" style="fill: var(--color2, #5d398e)" d="M37.88 14v-9.784c0-0.42 0.211-0.631 0.631-0.631h8.995c0.42 0 0.631 0.211 0.631 0.631v9.784c0 0.42-0.211 0.631-0.631 0.631h-1.799c-0.42 0-0.631-0.211-0.631-0.631v-7.386c0-0.211-0.105-0.316-0.316-0.316h-3.504c-0.211 0-0.316 0.105-0.316 0.316v7.384c0 0.42-0.211 0.631-0.631 0.631h-1.799c-0.42 0-0.631-0.211-0.631-0.631v0.002z"></path>
<path fill="#5d398e" style="fill: var(--color2, #5d398e)" d="M49.748 14.726c-0.368-0.074-0.536-0.316-0.505-0.725l0.11-1.247c0.011-0.189 0.047-0.334 0.11-0.433s0.137-0.15 0.22-0.15c0.063 0 0.126 0.005 0.189 0.016s0.126 0.016 0.189 0.016c0.22 0 0.39-0.137 0.505-0.41 0.115-0.274 0.197-0.741 0.245-1.404 0.047-0.662 0.070-1.642 0.070-2.935v-0.079c0-0.42 0.211-0.631 0.631-0.631h6.044c0.42 0 0.631 0.211 0.631 0.631v6.628c0 0.42-0.211 0.631-0.631 0.631h-1.515c-0.42 0-0.631-0.211-0.631-0.631v-4.624c0-0.211-0.105-0.316-0.316-0.316h-1.515v0.016c-0.032 1.483-0.15 2.636-0.355 3.457s-0.529 1.402-0.971 1.743c-0.442 0.343-1.052 0.512-1.831 0.512-0.252 0-0.478-0.022-0.678-0.063l0.004-0.004z"></path>
<path fill="#5d398e" style="fill: var(--color2, #5d398e)" d="M65.228 14.071c-0.747-0.478-1.263-1.128-1.546-1.948-0.063-0.179-0.179-0.269-0.346-0.269h-0.332c-0.211 0-0.316 0.105-0.316 0.316v1.831c0 0.42-0.211 0.631-0.631 0.631h-1.53c-0.42 0-0.631-0.211-0.631-0.631v-6.628c0-0.42 0.211-0.631 0.631-0.631h1.53c0.42 0 0.631 0.211 0.631 0.631v1.831c0 0.211 0.105 0.316 0.316 0.316h0.332c0.168 0 0.283-0.088 0.346-0.269 0.294-0.821 0.812-1.47 1.555-1.948 0.741-0.478 1.613-0.718 2.612-0.718 0.862 0 1.633 0.171 2.311 0.512 0.678 0.343 1.207 0.826 1.585 1.452s0.569 1.339 0.569 2.138-0.191 1.512-0.576 2.138c-0.384 0.626-0.914 1.11-1.593 1.452s-1.443 0.512-2.297 0.512c-0.999 0-1.873-0.24-2.62-0.718h-0.002zM66.64 11.972c0.3 0.321 0.702 0.482 1.207 0.482s0.924-0.161 1.223-0.482c0.3-0.321 0.449-0.749 0.449-1.286s-0.15-0.965-0.449-1.286c-0.299-0.321-0.707-0.482-1.223-0.482s-0.907 0.161-1.207 0.482c-0.299 0.321-0.449 0.749-0.449 1.286s0.15 0.965 0.449 1.286z"></path>
<path fill="#5d398e" style="fill: var(--color2, #5d398e)" d="M75.246 14.26c-0.662-0.352-1.173-0.839-1.53-1.46s-0.535-1.326-0.535-2.114 0.195-1.524 0.585-2.147c0.39-0.621 0.925-1.102 1.609-1.443s1.456-0.512 2.32-0.512c0.737 0 1.399 0.132 1.988 0.395s1.068 0.637 1.436 1.12c0.094 0.126 0.142 0.247 0.142 0.363 0 0.189-0.127 0.352-0.379 0.489l-1.23 0.615c-0.105 0.063-0.211 0.094-0.316 0.094-0.178 0-0.357-0.099-0.535-0.3-0.316-0.294-0.7-0.442-1.153-0.442-0.494 0-0.896 0.162-1.207 0.489s-0.465 0.752-0.465 1.279 0.162 0.953 0.489 1.277c0.326 0.327 0.731 0.489 1.215 0.489s0.919-0.168 1.279-0.505c0.19-0.189 0.368-0.283 0.536-0.283 0.115 0 0.225 0.031 0.332 0.094l1.136 0.615c0.263 0.148 0.395 0.316 0.395 0.505 0 0.085-0.031 0.173-0.094 0.269-0.379 0.516-0.89 0.918-1.53 1.207-0.642 0.289-1.362 0.433-2.161 0.433-0.884 0-1.656-0.175-2.32-0.529l-0.005 0.002z"></path>
<path fill="#5d398e" style="fill: var(--color2, #5d398e)" d="M37.785 27.997v-6.628c0-0.42 0.211-0.631 0.631-0.631h1.53c0.42 0 0.631 0.211 0.631 0.631v1.831c0 0.211 0.105 0.316 0.316 0.316h1.894c0.209 0 0.316-0.105 0.316-0.316v-1.831c0-0.42 0.209-0.631 0.631-0.631h1.515c0.42 0 0.631 0.211 0.631 0.631v6.628c0 0.42-0.211 0.631-0.631 0.631h-1.515c-0.42 0-0.631-0.211-0.631-0.631v-1.831c0-0.211-0.105-0.316-0.316-0.316h-1.894c-0.211 0-0.316 0.105-0.316 0.316v1.831c0 0.42-0.211 0.631-0.631 0.631h-1.53c-0.42 0-0.631-0.211-0.631-0.631z"></path>
<path fill="#5d398e" style="fill: var(--color2, #5d398e)" d="M47.804 28.116c-0.494-0.447-0.741-1.059-0.741-1.838s0.292-1.371 0.875-1.808c0.584-0.437 1.386-0.655 2.407-0.655h1.846c0.211 0 0.316-0.074 0.316-0.22 0-0.211-0.137-0.384-0.41-0.521-0.274-0.137-0.631-0.206-1.073-0.206-0.568 0-1.063 0.126-1.483 0.379-0.179 0.105-0.332 0.157-0.458 0.157-0.148 0-0.289-0.069-0.426-0.206l-0.741-0.758c-0.148-0.148-0.22-0.299-0.22-0.458s0.079-0.299 0.236-0.426c0.39-0.294 0.873-0.53 1.452-0.711 0.579-0.179 1.178-0.269 1.799-0.269 1.294 0 2.277 0.276 2.951 0.828 0.673 0.552 1.010 1.308 1.010 2.264v4.324c0 0.42-0.211 0.631-0.631 0.631h-1.389c-0.2 0-0.355-0.034-0.465-0.103s-0.166-0.161-0.166-0.276c0-0.126-0.047-0.189-0.142-0.189-0.063 0-0.121 0.022-0.173 0.063-0.653 0.442-1.425 0.662-2.32 0.662s-1.557-0.224-2.051-0.671v0.005zM50.038 26.57c0.173 0.099 0.428 0.15 0.765 0.15 0.494 0 0.895-0.103 1.2-0.308s0.473-0.482 0.505-0.828l-0.363-0.016h-1.467c-0.599 0-0.9 0.189-0.9 0.568 0 0.189 0.087 0.334 0.26 0.435z"></path>
<path fill="#5d398e" style="fill: var(--color2, #5d398e)" d="M59.686 28.518c-0.094-0.074-0.143-0.173-0.143-0.299 0-0.105 0.032-0.22 0.094-0.346l1.656-2.982c0.042-0.074 0.063-0.148 0.063-0.22s-0.022-0.148-0.063-0.22l-1.642-2.951c-0.063-0.126-0.094-0.242-0.094-0.346 0-0.126 0.051-0.226 0.15-0.299s0.235-0.11 0.402-0.11h1.642c0.337 0 0.585 0.148 0.741 0.442l1.137 2.131c0.085 0.148 0.211 0.222 0.379 0.222h0.363c0.211 0 0.316-0.105 0.316-0.316v-1.846c0-0.42 0.211-0.631 0.631-0.631h1.515c0.42 0 0.631 0.211 0.631 0.631v1.846c0 0.211 0.105 0.316 0.316 0.316h0.379c0.179 0 0.305-0.074 0.379-0.222l1.167-2.131c0.157-0.294 0.404-0.442 0.741-0.442h1.579c0.168 0 0.299 0.038 0.395 0.11 0.094 0.074 0.142 0.173 0.142 0.299 0 0.105-0.031 0.22-0.094 0.346l-1.593 2.84c-0.042 0.074-0.063 0.159-0.063 0.253 0 0.063 0.016 0.126 0.047 0.189l1.672 3.092c0.063 0.126 0.094 0.242 0.094 0.346 0 0.126-0.047 0.227-0.143 0.299-0.094 0.074-0.225 0.11-0.395 0.11h-1.752c-0.337 0-0.585-0.152-0.741-0.458l-1.104-2.114c-0.074-0.148-0.195-0.222-0.363-0.222h-0.346c-0.211 0-0.316 0.105-0.316 0.316v1.846c0 0.42-0.211 0.631-0.631 0.631h-1.515c-0.42 0-0.631-0.211-0.631-0.631v-1.846c0-0.209-0.105-0.316-0.316-0.316h-0.379c-0.168 0-0.294 0.074-0.379 0.222l-1.137 2.131c-0.157 0.294-0.406 0.442-0.741 0.442h-1.656c-0.168 0-0.3-0.036-0.395-0.11z"></path>
<path fill="#5d398e" style="fill: var(--color2, #5d398e)" d="M73.636 27.997v-6.628c0-0.42 0.211-0.631 0.631-0.631h1.499c0.42 0 0.631 0.211 0.631 0.631v2.493c0 0.085 0.016 0.153 0.047 0.206s0.074 0.079 0.127 0.079c0.074 0 0.142-0.052 0.206-0.157l2.098-2.856c0.19-0.263 0.448-0.395 0.774-0.395h1.515c0.42 0 0.631 0.211 0.631 0.631v6.628c0 0.42-0.211 0.631-0.631 0.631h-1.467c-0.42 0-0.631-0.211-0.631-0.631v-2.54c0-0.179-0.052-0.269-0.159-0.269-0.063 0-0.137 0.047-0.22 0.142l-2.131 2.903c-0.189 0.263-0.447 0.395-0.774 0.395h-1.515c-0.42 0-0.631-0.211-0.631-0.631v-0.002z"></path>
<path fill="#5d398e" style="fill: var(--color2, #5d398e)" d="M85.311 27.997v-4.591c0-0.209-0.105-0.316-0.316-0.316h-1.705c-0.42 0-0.631-0.209-0.631-0.631v-1.088c0-0.42 0.21-0.631 0.631-0.631h6.849c0.42 0 0.631 0.211 0.631 0.631v1.088c0 0.42-0.211 0.631-0.631 0.631h-1.719c-0.211 0-0.316 0.105-0.316 0.316v4.591c0 0.42-0.211 0.631-0.631 0.631h-1.53c-0.42 0-0.631-0.211-0.631-0.631z"></path>
<path fill="#5d398e" style="fill: var(--color2, #5d398e)" d="M93.752 27.997v-4.591c0-0.209-0.105-0.316-0.316-0.316h-1.705c-0.42 0-0.631-0.209-0.631-0.631v-1.088c0-0.42 0.211-0.631 0.631-0.631h6.848c0.42 0 0.631 0.211 0.631 0.631v1.088c0 0.42-0.211 0.631-0.631 0.631h-1.719c-0.21 0-0.316 0.105-0.316 0.316v4.591c0 0.42-0.21 0.631-0.631 0.631h-1.53c-0.42 0-0.631-0.211-0.631-0.631z"></path>
<path fill="#5d398e" style="fill: var(--color2, #5d398e)" d="M101.152 25.773c0-0.094-0.052-0.179-0.157-0.253-0.346-0.253-0.613-0.559-0.797-0.924-0.184-0.363-0.276-0.76-0.276-1.191 0-0.821 0.317-1.47 0.954-1.948s1.501-0.718 2.596-0.718h3.63c0.42 0 0.631 0.211 0.631 0.631v6.628c0 0.42-0.211 0.631-0.631 0.631h-1.483c-0.42 0-0.631-0.211-0.631-0.631v-1.42c0-0.211-0.105-0.316-0.316-0.316h-0.442c-0.159 0-0.283 0.069-0.379 0.206l-1.2 1.752c-0.178 0.274-0.431 0.41-0.757 0.41h-1.719c-0.168 0-0.303-0.036-0.403-0.11-0.101-0.074-0.149-0.168-0.149-0.283s0.047-0.242 0.142-0.379l1.326-1.894c0.041-0.052 0.063-0.116 0.063-0.189l-0.002-0.002zM103.725 24.227h0.947c0.211 0 0.316-0.105 0.316-0.316v-0.741c0-0.211-0.105-0.316-0.316-0.316h-0.947c-0.326 0-0.574 0.058-0.742 0.173s-0.252 0.283-0.252 0.505c0 0.464 0.332 0.695 0.994 0.695z"></path>
<path fill="#5d398e" style="fill: var(--color2, #5d398e)" d="M24.561 26.289h-17.31l-2.152-12.689h21.615l-2.152 12.689z"></path>
<path fill="#5d398e" style="fill: var(--color2, #5d398e)" d="M27.111 15.865h-22.743l-0.39-2.98h23.523l-0.39 2.98z"></path>
<path fill="#c9b5d8" style="fill: var(--color3, #c9b5d8)" d="M19.847 19.271c0-0.115-0.093-0.208-0.21-0.208h-2.378c-0.070 0.002-0.135-0.027-0.183-0.072-0.047-0.047-0.074-0.11-0.074-0.18v-2.414c-0.002-0.095-0.079-0.171-0.174-0.171h-2.177c-0.102 0.002-0.183 0.083-0.183 0.185v2.403c0.002 0.068-0.025 0.133-0.072 0.183-0.050 0.047-0.113 0.074-0.183 0.074h-2.394c-0.106 0.002-0.19 0.088-0.19 0.194v2.15c0 0.106 0.088 0.192 0.194 0.192h2.394c0.068 0 0.133 0.025 0.181 0.072 0.050 0.047 0.074 0.113 0.074 0.18v2.416c0.002 0.095 0.079 0.169 0.171 0.169h2.164c0.111 0 0.199-0.093 0.199-0.201v-2.385c-0.002-0.142 0.113-0.257 0.255-0.257h2.383c0.11-0.002 0.203-0.093 0.201-0.205v-2.121l0.002-0.004z"></path>
<path fill="#5d398e" style="fill: var(--color2, #5d398e)" d="M24.819 16.363h-18.113l1.042-7.52c0.189-1.365 1.37-2.394 2.748-2.394h10.534c1.376 0 2.559 1.029 2.748 2.394l1.042 7.52h-0.002zM7.028 16.084h17.47l-0.997-7.202c-0.169-1.227-1.232-2.152-2.471-2.152h-10.534c-1.239 0-2.299 0.925-2.471 2.152l-0.997 7.202z"></path>
<path fill="#5d398e" style="fill: var(--color2, #5d398e)" d="M21.487 6.066h-11.45c-0.329 0-0.596 0.267-0.596 0.596v0.002c0 0.329 0.267 0.596 0.596 0.596h11.45c0.329 0 0.596-0.267 0.596-0.596v-0.002c0-0.329-0.267-0.596-0.596-0.596z"></path>
</symbol>
<symbol id="instagram" viewBox="0 0 30 32">
<path d="M15.238 3.897c4.039 0 4.59 0 6.242 0 1.469 0 2.203 0.367 2.754 0.551 0.734 0.367 1.285 0.551 1.836 1.102s0.918 1.102 1.102 1.836c0.184 0.551 0.367 1.285 0.551 2.754 0 1.652 0 2.020 0 6.242s0 4.59 0 6.242c0 1.469-0.367 2.203-0.551 2.754-0.367 0.734-0.551 1.285-1.102 1.836s-1.102 0.918-1.836 1.102c-0.551 0.184-1.285 0.367-2.754 0.551-1.652 0-2.020 0-6.242 0s-4.59 0-6.242 0c-1.469 0-2.203-0.367-2.754-0.551-0.734-0.367-1.285-0.551-1.836-1.102s-0.918-1.102-1.102-1.836c-0.184-0.551-0.367-1.285-0.551-2.754 0-1.652 0-2.020 0-6.242s0-4.59 0-6.242c0-1.469 0.367-2.203 0.551-2.754 0.367-0.734 0.551-1.285 1.102-1.836s1.102-0.918 1.836-1.102c0.551-0.184 1.285-0.367 2.754-0.551 1.652 0 2.203 0 6.242 0zM15.238 1.143c-4.223 0-4.59 0-6.242 0s-2.754 0.367-3.672 0.734c-0.918 0.367-1.836 0.918-2.754 1.836s-1.285 1.652-1.836 2.754c-0.367 0.918-0.551 2.019-0.734 3.672 0 1.652 0 2.203 0 6.242 0 4.223 0 4.59 0 6.242s0.367 2.754 0.734 3.672c0.367 0.918 0.918 1.836 1.836 2.754s1.652 1.285 2.754 1.836c0.918 0.367 2.019 0.551 3.672 0.734 1.652 0 2.203 0 6.242 0s4.59 0 6.242 0c1.652 0 2.754-0.367 3.672-0.734s1.836-0.918 2.754-1.836c0.918-0.918 1.285-1.652 1.836-2.754 0.367-0.918 0.551-2.020 0.734-3.672 0-1.652 0-2.203 0-6.242s0-4.59 0-6.242c0-1.652-0.367-2.754-0.734-3.672s-0.918-1.836-1.836-2.754c-0.918-0.918-1.652-1.285-2.754-1.836-0.918-0.367-2.020-0.551-3.672-0.734-1.652 0-2.020 0-6.242 0z"></path>
<path d="M15.238 8.487c-4.406 0-7.894 3.488-7.894 7.894s3.488 7.894 7.894 7.894c4.406 0 7.894-3.488 7.894-7.894s-3.488-7.894-7.894-7.894zM15.238 21.522c-2.754 0-5.141-2.203-5.141-5.141 0-2.754 2.203-5.141 5.141-5.141 2.754 0 5.141 2.203 5.141 5.141 0 2.754-2.387 5.141-5.141 5.141z"></path>
<path d="M23.316 10.139c1.014 0 1.836-0.822 1.836-1.836s-0.822-1.836-1.836-1.836c-1.014 0-1.836 0.822-1.836 1.836s0.822 1.836 1.836 1.836z"></path>
</symbol>
<symbol id="telegram" viewBox="0 0 36 32">
<path d="M34.667 1.515l-5.343 27.893c0 0-0.748 1.934-2.801 1.006l-12.328-9.788-0.057-0.029c1.665-1.548 14.578-13.571 15.142-14.116 0.874-0.844 0.331-1.346-0.683-0.709l-19.073 12.543-7.359-2.564c0 0-1.158-0.427-1.269-1.354-0.113-0.929 1.308-1.431 1.308-1.431l29.998-12.187c0 0 2.466-1.122 2.466 0.735z"></path>
</symbol>
<symbol id="facebook" viewBox="0 0 16 32">
<path d="M10.209 16.82h4.963l0.779-5.072h-5.743v-2.772c0-2.107 0.684-3.976 2.643-3.976h3.148v-4.426c-0.553-0.075-1.723-0.24-3.933-0.24-4.616 0-7.322 2.452-7.322 8.040v3.374h-4.745v5.072h4.745v13.942c0.94 0.142 1.891 0.239 2.869 0.239 0.883 0 1.745-0.081 2.596-0.197v-13.983z"></path>
</symbol>
<symbol id="close" viewBox="0 0 32 32">
<path d="M8.533 25.333l-1.867-1.867 7.467-7.467-7.467-7.467 1.867-1.867 7.467 7.467 7.467-7.467 1.867 1.867-7.467 7.467 7.467 7.467-1.867 1.867-7.467-7.467-7.467 7.467z"></path>
</symbol>
<symbol id="support-big-right-hand-mobile" viewBox="0 0 45 32">
<path fill="#876dc7" style="fill: var(--color1, #876dc7)" d="M29.279 14.038c-0.073 1.096-0.567 1.975-1.539 2.544-0.444 0.26-1.293 0.449-2.102 0.63-0.63 0.14-1.235 0.275-1.609 0.434-7.964 3.39-2.727 14.361 4.978 14.31 8.076-0.053 15.758-2.664 15.758-2.664l-1.306-5.045-0.799-1.074c0 0-7.009 2.475-9.189 2.564-0.214 0.009-0.44 0.021-0.674 0.033-2.153 0.115-4.986 0.267-5.225-1.891-0.166-1.498 1.339-2.129 3.060-2.852 1.029-0.432 2.135-0.896 3.007-1.597 0.724-0.582 2.909-2.413 2.74-6.328-0.158-3.661-0.822-4.617-1.243-5.222l-0-0c-0.029-0.042-0.057-0.082-0.084-0.121-1.106-1.64-4.376-3.12-7.287-3.31-1.185-0.077-2.324 0.132-3.444 0.488-0.574 0.182-1.146 0.37-1.718 0.558l-0.001 0c-0.56 0.184-1.12 0.368-1.682 0.546-1.459 0.465-2.827 0.284-4.123-0.558-1.196-0.777-3.662-3.26-5.189-4.098s-4.31-1.677-5.785-1.282-2.998 2.015-2.998 2.015c-0.923 1.064-3.043 4.476-2.765 4.804 0.462 0.548 3.18-2.784 3.18-2.784s-2.835 3.707-2.344 4.228c0.369 0.393 1.702-1.314 2.344-2.175 0.19-0.256 0.989-1.227 1.014-1.257 0 0-2.335 3.223-1.884 3.661s2.911-3.389 2.911-3.389-2.055 3.218-1.514 3.661c0.541 0.444 2.432-2.914 2.583-3.114s0.432-0.57 0.555-0.683c-0.215 0.605-0.857 2.153-0.256 2.219 0.475 0.052 1.255-3.168 3.404-2.083 0 0 0.907 0.642 1.44 1.152 0.386 0.37 0.767 0.745 1.147 1.121l0 0c0.404 0.399 0.807 0.797 1.218 1.188 1.335 1.273 2.853 2.195 4.733 2.395 0.968 0.103 1.932 0.095 2.858-0.238 1.083-0.39 2.165-0.758 3.326-0.85 0.983-0.077 1.947-0.040 2.873 0.317 0.846 0.327 1.44 0.911 1.554 1.846 0.076 0.628 0.117 1.27 0.075 1.9z"></path>
</symbol>
<symbol id="support-big-left-hand-desk" viewBox="0 0 37 32">
<path fill="#5d398e" style="fill: var(--color1, #5d398e)" d="M23.567 0.562c-0.989 0.469-1.728 1.173-2.148 2.194-0.026 0.064-0.052 0.125-0.077 0.184l-0 0c-0.236 0.56-0.395 0.938-0.328 1.912 0.033 0.486 0.252 0.86 0.465 1.225 0.259 0.443 0.509 0.871 0.409 1.47-0.339 2.033-4.299 1.734-4.866 1.553-0.548-0.175-5.078-1.471-7.72-0.987l-0.002-0.011c-2.143 0.355-4.143 1.138-5.754 2.593-1.621 1.465-2.714 3.493-3.239 6.098l-0.004-0.001c-0.296 1.554-0.437 2.981-0.034 4.447 0.402 1.459 1.282 2.747 2.574 4.182 0.742 0.824 0.887 1.962 0.725 3.146-0.078 0.571-0.22 1.082-0.345 1.453-0.062 0.183-0.117 0.327-0.155 0.42-0.019 0.046-0.033 0.080-0.042 0.099-0.002 0.005-0.004 0.009-0.005 0.012s-0.002 0.004-0.002 0.005c-0 0.001-0.001 0.001-0 0l0-0 0.002-0.004c0-0 0-0.001 1.542 0.721s1.542 0.721 1.542 0.721l0.001-0.001 0.001-0.003c0.001-0.002 0.002-0.004 0.003-0.007s0.003-0.007 0.005-0.011l0.003-0.007c0.006-0.014 0.015-0.033 0.025-0.055 0.020-0.045 0.046-0.106 0.077-0.181 0.062-0.151 0.143-0.362 0.23-0.621 0.173-0.514 0.377-1.24 0.492-2.076 0.223-1.63 0.142-3.987-1.567-5.886-1.16-1.288-1.628-2.104-1.822-2.808-0.19-0.691-0.174-1.48 0.088-2.868 0.407-2.027 1.201-3.355 2.189-4.248 0.892-0.806 2.051-1.352 3.493-1.659l0.636-0.152c2.894-0.699 5.461 0.089 7.039 0.574 0.029 0.009 0.058 0.018 0.086 0.026 0.022 0.007 0.044 0.013 0.066 0.020s0.043 0.013 0.064 0.020c2.074 0.634 5.844 0.053 7.046-1.32 1.827-2.086 1.204-3.69 0.768-4.814-0.049-0.127-0.096-0.247-0.137-0.362v-0c-0.104-0.284-0.207-0.568-0.292-0.857-0.161-0.545 0.025-0.956 0.51-1.204 0.727-0.371 1.491-0.46 2.284-0.256 0.653 0.168 1.225 0.498 1.765 0.89 0.088 0.064 0.175 0.13 0.261 0.196v0l0 0c0.194 0.148 0.389 0.296 0.597 0.421 0.135 0.081 0.264 0.162 0.39 0.24 1.004 0.625 1.785 1.112 3.412 0.661 0.738-0.204 1.203-0.401 1.668-0.726 0 0 1.822-1.272 1.702-1.6s-1.228 0.362-1.228 0.362 1.287-1.057 1.149-1.379c-0.112-0.26-0.975 0.405-1.307 0.662-0.067 0.052-0.112 0.087-0.126 0.094l-0 0c-0.002 0.001-0.003 0.002-0.003 0.002s0.945-0.849 0.812-1.125c-0.134-0.276-1.217 0.581-1.217 0.581s0.722-0.684 0.548-0.978c-0.175-0.294-1.096 0.722-1.096 0.722-0.225 0.187-0.422 0.332-0.624 0.448 0.691-1.375 0.178-0.963-1.228 0.416-0.326 0.070-0.675 0.048-1.042-0.056-0.552-0.157-1.051-0.428-1.508-0.765-0.615-0.453-1.221-0.919-1.813-1.402-0.684-0.558-1.469-0.834-2.338-0.878-0.91-0.046-1.773 0.15-2.597 0.54z"></path>
</symbol>
<symbol id="support-big-left-hand-mobile" viewBox="0 0 54 32">
<path fill="#5d398e" style="fill: var(--color1, #5d398e)" d="M42.931 8.182c1.391-0.271 2.319-0.577 3.207-1.091 1.805-3.603 0.464-2.524-3.207 1.091z"></path>
<path fill="#5d398e" style="fill: var(--color1, #5d398e)" d="M18.644 1.471c-2.584 1.228-4.514 3.074-5.612 5.748-0.069 0.167-0.136 0.327-0.2 0.481l-0.001 0.001c-0.616 1.468-1.031 2.458-0.858 5.009 0.086 1.273 0.657 2.253 1.214 3.208 0.676 1.16 1.33 2.283 1.069 3.851-0.887 5.327-4.98 4.891-12.711 4.069-0.417-0.044-0.845-0.090-1.283-0.136l-0.214 7.655c0.509 0.014 1.163 0.079 1.994 0.209 6.606 1.040 15.266 0.138 18.405-3.459 4.772-5.466 3.145-9.668 2.006-12.612-0.129-0.332-0.251-0.648-0.357-0.948l-0-0-0-0c-0.27-0.744-0.54-1.487-0.764-2.244-0.421-1.428 0.065-2.506 1.333-3.154 1.9-0.972 3.893-1.206 5.966-0.67 1.705 0.441 3.199 1.304 4.609 2.333 0.23 0.168 0.456 0.341 0.683 0.513l0 0c0.508 0.387 1.015 0.775 1.559 1.102 3.163 1.908 5.15 3.689 9.933 2.361 1.927-0.535 3.143-1.051 4.357-1.903 0 0 4.761-3.331 4.446-4.192s-3.208 0.949-3.208 0.949c0 0 3.361-2.77 3-3.612-0.351-0.819-3.531 1.861-3.741 1.98l-0 0c-0.006 0.003-0.009 0.005-0.009 0.005s2.47-2.224 2.121-2.948c-0.35-0.724-3.179 1.522-3.179 1.522s1.886-1.792 1.43-2.563c-0.456-0.771-2.863 1.891-2.863 1.891-0.588 0.489-1.102 0.869-1.631 1.174-0.888 0.514-1.816 0.82-3.207 1.091-0.852 0.183-1.762 0.127-2.721-0.147-1.443-0.411-2.745-1.122-3.939-2.005-1.606-1.188-3.19-2.409-4.736-3.673-1.787-1.462-3.837-2.186-6.106-2.301-2.377-0.12-4.632 0.392-6.785 1.415z"></path>
</symbol>
<symbol id="support-big-right-hand-desk" viewBox="0 0 38 32">
<path fill="#876dc7" style="fill: var(--color1, #876dc7)" d="M15.657 7.486c-0.039 0.584-0.303 1.053-0.823 1.356-0.237 0.139-0.691 0.239-1.124 0.336-0.337 0.075-0.661 0.147-0.86 0.231-4.259 1.807-1.458 7.657 2.662 7.63 2.679-0.018 5.284-0.476 6.843-1.002l1.48-0.532c0.207-0.085 0.43-0.155 0.641-0.221 0.107-0.033 0.211-0.066 0.308-0.099 0.754-0.257 1.384-0.293 1.849-0.173 0.407 0.105 0.817 0.357 1.168 0.999s0.652 1.706 0.695 3.39c-0.362 3.894 0.359 7.086 2.165 9.326 1.856 2.303 4.624 3.311 7.686 3.248l-0.069-3.376c-2.273 0.046-3.933-0.683-4.988-1.991-1.058-1.313-1.73-3.485-1.441-6.785 0-2.251-0.336-4.061-1.084-5.431-0.776-1.422-1.933-2.302-3.29-2.651-1.298-0.334-2.626-0.146-3.779 0.247-0.056 0.019-0.135 0.047-0.233 0.081-1.097 0.384-4.615 1.615-5.564 1.653-0.114 0.005-0.235 0.011-0.36 0.018-1.151 0.061-2.666 0.142-2.794-1.008-0.089-0.798 0.716-1.135 1.636-1.521 0.55-0.23 1.141-0.478 1.608-0.852 0.387-0.31 1.556-1.287 1.465-3.374-0.085-1.952-0.44-2.461-0.665-2.784l-0-0c-0.016-0.022-0.030-0.044-0.045-0.065-0.592-0.874-2.34-1.663-3.896-1.765-0.633-0.041-1.243 0.071-1.841 0.26-0.307 0.097-0.613 0.197-0.918 0.297l-0 0c-0.299 0.098-0.599 0.196-0.899 0.291-0.78 0.248-1.512 0.151-2.205-0.297-0.27-0.175-0.661-0.512-1.085-0.877-0.579-0.499-1.218-1.050-1.69-1.308-0.817-0.447-2.304-0.894-3.093-0.683s-1.603 1.075-1.603 1.075c-0.494 0.568-1.627 2.386-1.479 2.562 0.247 0.292 1.701-1.484 1.701-1.484s-1.516 1.976-1.253 2.254c0.197 0.209 0.91-0.701 1.253-1.16 0.102-0.136 0.529-0.654 0.542-0.67 0 0-1.249 1.718-1.007 1.952s1.556-1.807 1.556-1.807c0 0-1.099 1.716-0.809 1.952 0.243 0.199 0.996-1.034 1.278-1.496l0-0c0.054-0.088 0.090-0.148 0.103-0.165 0.081-0.107 0.231-0.304 0.297-0.364-0.012 0.033-0.026 0.072-0.042 0.114l-0 0c-0.137 0.37-0.383 1.037-0.095 1.069 0.076 0.008 0.166-0.138 0.285-0.333 0.282-0.459 0.728-1.184 1.535-0.778 0 0 0.485 0.342 0.77 0.614 0.207 0.197 0.41 0.397 0.613 0.598l0 0c0.216 0.212 0.432 0.425 0.651 0.634 0.714 0.679 1.525 1.17 2.531 1.277 0.518 0.055 1.033 0.051 1.528-0.127 0.579-0.208 1.158-0.404 1.779-0.453 0.525-0.041 1.041-0.021 1.536 0.169 0.452 0.174 0.77 0.486 0.831 0.984 0.041 0.335 0.062 0.677 0.040 1.013z"></path>
</symbol>
<symbol id="about-birds" viewBox="0 0 37 32">
<path fill="#876dc7" style="fill: var(--color1, #876dc7)" d="M11.365 1.155l16.901 1.749c4.667 0.483 8.059 4.658 7.576 9.325l-1.166 11.267c-0.483 4.667-4.658 8.059-9.325 7.576l-16.901-1.749c-4.667-0.483-8.059-4.658-7.576-9.325l1.166-11.267c0.483-4.667 4.658-8.059 9.325-7.576z"></path>
<path fill="#fff" style="fill: var(--color2, #fff)" d="M17.293 21.266c-3.82-0.395-6.597-3.813-6.201-7.633l-2.415-0.25c-0.533 5.154 3.212 9.765 8.367 10.298s9.765-3.212 10.298-8.366l-2.415-0.25c-0.395 3.82-3.813 6.597-7.633 6.201z"></path>
<path fill="#fff" style="fill: var(--color2, #fff)" d="M19.771 7.598c3.82 0.395 6.597 3.813 6.201 7.633l2.415 0.25c0.534-5.154-3.212-9.765-8.367-10.298s-9.765 3.213-10.298 8.367l2.415 0.25c0.395-3.82 3.813-6.597 7.633-6.202z"></path>
<path fill="#fff" style="fill: var(--color2, #fff)" d="M13.454 24.761l-0.194 1.872-0.524-0.054 0.143-1.381-0.902-0.093-0.143 1.381-0.524-0.054 0.194-1.872 1.95 0.202z"></path>
<path fill="#fff" style="fill: var(--color2, #fff)" d="M14.364 25.35l-0.704-0.073 0.051-0.49 1.943 0.201-0.051 0.49-0.715-0.074-0.143 1.381-0.524-0.054 0.143-1.381z"></path>
<path fill="#fff" style="fill: var(--color2, #fff)" d="M16.672 26.569c0.281 0.029 0.497-0.161 0.53-0.475 0.032-0.311-0.14-0.544-0.421-0.573-0.292-0.030-0.516 0.162-0.548 0.473s0.148 0.545 0.44 0.575zM17.164 27.036l-0.027-0.283c-0.171 0.194-0.409 0.294-0.671 0.267-0.49-0.051-0.817-0.512-0.759-1.077 0.059-0.573 0.47-0.958 0.964-0.907 0.262 0.027 0.474 0.174 0.602 0.399l0.085-0.271 0.464 0.048-0.194 1.872-0.464-0.048z"></path>
<path fill="#fff" style="fill: var(--color2, #fff)" d="M19.904 27.32l-0.614-0.064-0.349-0.577-0.456 0.494-0.621-0.064 0.813-0.873-0.601-0.997 0.618 0.064 0.332 0.553 0.439-0.473 0.618 0.064-0.788 0.853 0.609 1.020z"></path>
<path fill="#fff" style="fill: var(--color2, #fff)" d="M21.6 27.495l0.112-1.082-1.13 0.976-0.442-0.046 0.194-1.872 0.524 0.054-0.111 1.074 1.137-0.968 0.434 0.045-0.194 1.872-0.524-0.054z"></path>
</symbol>
<symbol id="about-silpo" viewBox="0 0 64 32">
<path fill="#5d398e" style="fill: var(--color1, #5d398e)" d="M7.511 6.042l45.564-5.187c4.148-0.472 7.893 2.508 8.366 6.656l1.14 10.014c0.472 4.148-2.508 7.893-6.656 8.366l-45.564 5.187c-4.148 0.472-7.893-2.508-8.366-6.656l-1.14-10.014c-0.472-4.148 2.508-7.893 6.656-8.366z"></path>
<path fill="#fff" style="fill: var(--color2, #fff)" d="M49.997 13.471v-0.003c0.008-0.587-0.193-1.158-0.567-1.613-0.646-0.714-1.732-0.801-2.57-0.779l-0.003 0h-0.003c-1.155 0-13.641 0.433-15.064 0.502l-0.006 0h-0.337v-0.325c-0.073-0.492-0.289-0.952-0.622-1.324-0.32-0.328-0.711-0.58-1.144-0.736-0.435-0.156-0.9-0.211-1.359-0.161l-0.009 0.001-0.009 0c-1.584 0.061-2.692 1.16-3.224 1.84l-0 0.001-0.156 0.202-0.238-0.089c-1.186-0.385-2.455-0.441-3.671-0.161l-0.003 0.001c-1.564 0.342-3.032 1.025-4.296 2-2.267 1.873-3.391 4.076-3.267 6.188 0.036 0.591 0.205 1.166 0.494 1.684s0.691 0.966 1.177 1.31l0.002 0.001 0.002 0.001c0.828 0.608 1.936 0.843 3.003 0.893 1.063 0.050 2.055-0.084 2.625-0.188 1.311-0.243 21.607-4.185 24.267-4.735l0.001-0c1.207-0.248 2.348-0.579 3.237-1.184 0.876-0.596 1.514-1.463 1.711-2.818 0.023-0.158 0.034-0.318 0.032-0.477v-0.033zM20.795 22.966c-1.161 0.212-4.050 0.55-5.823-0.75-0.516-0.366-0.944-0.842-1.251-1.393s-0.487-1.163-0.525-1.792c-0.131-2.219 1.052-4.494 3.361-6.4 1.295-1 2.798-1.7 4.4-2.050 1.262-0.29 2.58-0.231 3.81 0.169l0.070 0.026 0.044-0.056c0.546-0.698 1.715-1.872 3.413-1.937 0.497-0.054 1.001 0.005 1.471 0.174s0.896 0.443 1.243 0.801c0.372 0.414 0.612 0.928 0.69 1.478v0.091h0.078c0.046-0.002 0.105-0.005 0.174-0.008 2.051-0.089 13.779-0.495 14.902-0.495 0.838-0.022 2.038 0.056 2.767 0.867 0.415 0.501 0.637 1.132 0.629 1.781v0.030c0.002 0.173-0.010 0.345-0.035 0.516-0.414 2.856-2.719 3.714-5.146 4.212-2.663 0.55-22.963 4.494-24.272 4.736zM28.351 12.908c-0.201 0.034-0.407 0.017-0.601-0.047s-0.368-0.175-0.508-0.322c-0.082-0.111-0.136-0.239-0.158-0.375s-0.011-0.274 0.032-0.405c0.058-0.268 0.213-0.506 0.437-0.667 0.322-0.228 0.714-0.337 1.108-0.308 0.773 0.030 1.166 0.533 1.135 1.023-0.048 0.732-0.738 1.057-1.445 1.101zM48.499 14.077c0.084-0.085 0.15-0.186 0.193-0.298 0.024 0.062 0.045 0.126 0.061 0.191-0.049 0.178-0.144 0.339-0.276 0.469s-0.296 0.222-0.475 0.268h-0.044v0.043c-0.114 0.303-0.308 0.569-0.563 0.771s-0.559 0.331-0.882 0.373c-0.283 0.048-0.573-0.016-0.809-0.178s-0.398-0.409-0.452-0.689l-0.031-0.117c-0.485 1.109-1.087 1.348-1.523 1.417-0.1 0.028-0.205 0.031-0.306 0.007s-0.194-0.074-0.27-0.144c-0.076-0.070-0.132-0.159-0.164-0.257s-0.037-0.203-0.015-0.304c0.041-0.423 0.118-0.842 0.231-1.252 0.084-0.26 0.137-0.529 0.157-0.802 0.004-0.102-0.032-0.201-0.1-0.277-0.018-0.021-0.041-0.037-0.067-0.046s-0.054-0.013-0.081-0.010c-0.271 0.022-0.502 0.728-0.581 1.101 0 0-0.489 2.145-0.489 2.253l-1.419 0.251 0.41-1.768-0.092 0.065c-0.105 0.071-0.218 0.13-0.336 0.178h-0.044v0.048c-0.209 1.101-0.934 1.746-2.161 1.946-0.956 0.152-1.589-0.156-1.746-0.949l-0.039-0.199-0.061 0.108-0.039 0.074c-0.297 0.537-0.925 1.456-1.829 1.603-0.14 0.034-0.286 0.034-0.427 0.001s-0.271-0.099-0.381-0.192c-0.115-0.119-0.203-0.261-0.258-0.416s-0.076-0.321-0.061-0.485c0.029-0.519 0.138-1.030 0.323-1.517l0.048-0.147c0 0 0.253-0.932 0.301-1.118s-0.091-0.438-0.345-0.325c-0.1 0.055-0.176 0.145-0.214 0.251-0.071 0.214-0.119 0.435-0.144 0.659l-0.003 0.018c-0.123 0.736-0.346 2.072-0.817 2.764-0.17 0.285-0.397 0.532-0.668 0.726s-0.578 0.33-0.904 0.401c-0.275 0.057-0.559 0.056-0.834-0.003s-0.533-0.175-0.76-0.34c-0.691 0.515-1.494 0.862-2.344 1.014-1.436 0.208-1.772-0.689-1.55-1.556-0.002-0.019-0.002-0.038 0-0.056-0.96 1.183-2.291 2.314-3.928 2.652-1.838 0.368-2.881 0.1-3.754-0.654-0.347-0.365-0.597-0.81-0.727-1.295s-0.135-0.995-0.015-1.483c0.786-3.012 3.662-4.411 5.561-4.494 1.235-0.052 1.794 0.186 2.274 0.667 0.154 0.162 0.272 0.354 0.347 0.563s0.106 0.432 0.090 0.654c0.003 0.417-0.153 0.819-0.437 1.127s-0.673 0.498-1.091 0.533c-0.167 0.026-0.338 0.015-0.5-0.032s-0.312-0.129-0.438-0.241c-0.125-0.13-0.221-0.285-0.281-0.455s-0.083-0.35-0.068-0.529c0.024-0.282 0.116-0.555 0.268-0.794s0.359-0.44 0.605-0.584c0.13-0.074 0.265-0.136 0.406-0.186 0.127-0.217-2.021-0.815-3.3 2.006-0.243 0.508-0.407 1.050-0.484 1.608-0.201 1.17 0.135 2.002 0.711 2.34 0.423 0.247 1.078 0.277 1.92 0.048 1.576-0.438 3.082-2.457 3.592-3.93 0.175-0.513 0.344-1.054 0.457-1.413 0.053-0.169 0.093-0.297 0.115-0.364l2.366-0.121c-0.061 0.208-1.131 3.545-1.131 3.545-0.035 0.1-0.266 0.888-0.083 1.127 0.056 0.057 0.125 0.099 0.201 0.123s0.157 0.029 0.236 0.015c0.251-0.051 0.486-0.158 0.69-0.312-0.177-0.27-0.247-0.596-0.196-0.914 0.014-0.16 0.069-0.314 0.158-0.448s0.212-0.243 0.355-0.318c0.143-0.075 0.303-0.113 0.465-0.111s0.321 0.045 0.462 0.124c0.089 0.062 0.165 0.142 0.222 0.234s0.095 0.195 0.111 0.302c0.016 0.107 0.010 0.216-0.018 0.321s-0.077 0.202-0.144 0.288c-0.148 0.243-0.346 0.452-0.581 0.615 0.148 0.071 0.315 0.091 0.476 0.056 0.821-0.121 1.078-0.927 1.213-2.097v-0.035c0.096-0.975 0.279-1.963 1.004-2.635 0.122-0.115 0.272-0.198 0.435-0.242s0.334-0.048 0.498-0.010c0.164 0.037 0.317 0.114 0.444 0.224s0.225 0.249 0.285 0.406l0.148-0.537 1.746-0.061c-0.052 0.195-0.812 3.137-0.812 3.137l-0.022 0.269c-0.001 0.034 0.005 0.067 0.018 0.099s0.032 0.060 0.056 0.083c0.021 0.020 0.047 0.035 0.075 0.044s0.057 0.012 0.087 0.008c0.314-0.039 0.72-0.719 0.951-1.339v-0.030c0.022-0.131 0.055-0.258 0.1-0.435 0.007-0.029 0.015-0.058 0.023-0.090l0.044-0.169c0-0.004 0.297-1.309 0.367-1.608l1.519-0.082c0 0-0.738 3.285-0.738 3.679-0.006 0.071 0.002 0.143 0.025 0.21s0.058 0.13 0.106 0.184c0.025 0.024 0.056 0.041 0.089 0.052s0.068 0.014 0.103 0.009c0.467-0.069 0.808-0.498 0.925-1.3v-0.121l-0.113 0.039c-0.973 0.29-1.052-1.716 0.585-1.876 0.633-0.065 0.812 0.581 0.842 0.771 0.021 0.084 0.036 0.169 0.044 0.256v0.082h0.078c0.21-0.079 0.39-0.222 0.515-0.407l0.388-1.694 1.183-0.091c-0.026 0.091-0.105 0.524-0.105 0.524l0.188-0.221c0.238-0.224 0.546-0.362 0.873-0.39 0.541-0.048 1.043 0.108 0.978 0.94-0.030 0.345-0.088 0.687-0.175 1.023-0.055 0.193-0.093 0.39-0.114 0.589-0.003 0.032 0.002 0.063 0.012 0.093s0.027 0.057 0.049 0.080c0.015 0.015 0.034 0.026 0.054 0.033s0.042 0.009 0.063 0.006c0.222-0.030 0.502-0.62 0.659-1.053-0.002-0.008-0.002-0.018 0-0.026 0.023-0.461 0.208-0.899 0.522-1.239s0.738-0.561 1.198-0.624c1.069-0.087 1.235 0.624 1.235 1.3 0 0.152-0.070 0.646-0.070 0.646h0.087c0.111-0.045 0.212-0.111 0.296-0.196zM29.936 16.423c-0.319-0.009-0.62 0.559-0.293 1.053 0.214-0.154 0.39-0.354 0.515-0.585 0.14-0.308 0.096-0.459-0.223-0.468zM39.2 15.041c0.052-0.025 0.099-0.061 0.138-0.104 0.017-0.069 0.020-0.14 0.009-0.21s-0.037-0.137-0.074-0.197c-0.030-0.018-0.065-0.028-0.101-0.028s-0.070 0.010-0.1 0.028c-0.080 0.046-0.146 0.112-0.191 0.192s-0.068 0.171-0.066 0.263c0.009 0.039 0.052 0.126 0.218 0.1 0.058-0.003 0.115-0.018 0.168-0.043zM47.145 14.031c0.014 0.089 0.059 0.17 0.127 0.229 0.045-0.173 0.069-0.35 0.070-0.529-0.025-0.011-0.054-0.013-0.080-0.005s-0.049 0.025-0.064 0.049c-0.048 0.076-0.067 0.167-0.053 0.256zM47.36 13.268v-0.026c0.040-0.189 0.004-0.387-0.101-0.55-0.020-0.025-0.047-0.044-0.076-0.057s-0.062-0.018-0.094-0.017c-0.463 0.030-0.786 1.66-0.786 2.314 0 0.273 0.039 0.351 0.135 0.433 0.031 0.026 0.067 0.045 0.107 0.055s0.080 0.010 0.12 0.002c0.275-0.039 0.406-0.373 0.506-0.676v-0.095c-0.108-0.066-0.196-0.16-0.256-0.271s-0.089-0.236-0.084-0.362c0.039-0.719 0.528-0.75 0.528-0.75z"></path>
</symbol>
<symbol id="how-to-support-card-silpo" viewBox="0 0 57 32">
<path fill="#7a5db6" style="fill: var(--color1, #7a5db6)" d="M7.981 5.28l38.443-4.377c4.264-0.485 8.114 2.578 8.6 6.842l1.172 10.294c0.485 4.264-2.578 8.114-6.842 8.6l-38.443 4.377c-4.264 0.485-8.114-2.578-8.6-6.842l-1.172-10.294c-0.485-4.264 2.578-8.114 6.842-8.6z"></path>
<path fill="#fff" style="fill: var(--color2, #fff)" d="M47.109 13.424v0c0.008-0.589-0.193-1.163-0.569-1.619-0.644-0.711-1.735-0.804-2.597-0.781l-0.004 0h-0.004c-1.185 0-14.020 0.445-15.482 0.516l-0.008 0h-0.405v-0.388c-0.073-0.492-0.29-0.953-0.624-1.325-0.323-0.331-0.717-0.585-1.154-0.741-0.439-0.157-0.908-0.213-1.371-0.162l-0.011 0.001-0.011 0c-1.602 0.061-2.727 1.174-3.271 1.869l-0 0.001-0.187 0.241-0.284-0.106c-1.209-0.392-2.503-0.449-3.742-0.164l-0.003 0.001-0-0c-1.599 0.349-3.1 1.048-4.393 2.045-2.321 1.918-3.463 4.166-3.336 6.313 0.037 0.599 0.208 1.182 0.501 1.707s0.7 0.979 1.193 1.328l0.002 0.002 0.002 0.002c0.838 0.615 1.963 0.856 3.056 0.907 1.087 0.051 2.102-0.086 2.685-0.193 1.349-0.25 22.211-4.302 24.944-4.868l0-0c1.239-0.254 2.403-0.593 3.306-1.208 0.887-0.604 1.534-1.481 1.734-2.857v-0c0.023-0.159 0.034-0.321 0.033-0.482v-0.038zM9.337 19.143c-0.135-2.281 1.081-4.619 3.455-6.579 1.331-1.028 2.876-1.747 4.523-2.107 1.297-0.298 2.652-0.238 3.917 0.174l0.072 0.027 0.045-0.058c0.561-0.717 1.763-1.924 3.509-1.991 0.511-0.056 1.029 0.005 1.513 0.179s0.921 0.455 1.278 0.823c0.383 0.425 0.629 0.954 0.709 1.519v0.094h0.081c0.060-0.003 0.139-0.006 0.236-0.011 2.261-0.096 14.117-0.506 15.262-0.506 0.861-0.022 2.095 0.058 2.845 0.891 0.426 0.515 0.655 1.164 0.646 1.831v0.031c0.002 0.177-0.010 0.355-0.036 0.53-0.426 2.936-2.795 3.818-5.29 4.33-2.737 0.566-23.605 4.619-24.951 4.869-1.194 0.218-4.164 0.566-5.985-0.771-0.531-0.376-0.97-0.866-1.286-1.432s-0.5-1.196-0.54-1.842zM24.915 12.849c-0.207 0.034-0.419 0.018-0.617-0.048s-0.378-0.18-0.522-0.331c-0.084-0.114-0.14-0.246-0.162-0.385s-0.012-0.282 0.032-0.416c0.060-0.276 0.219-0.52 0.449-0.686 0.331-0.234 0.734-0.346 1.14-0.316 0.794 0.031 1.198 0.548 1.167 1.051-0.049 0.753-0.758 1.087-1.485 1.131zM45.627 14.050c0.087-0.087 0.154-0.191 0.198-0.306 0.025 0.064 0.046 0.13 0.063 0.196-0.050 0.183-0.148 0.349-0.283 0.482s-0.304 0.228-0.489 0.276h-0.045v0.045c-0.117 0.311-0.317 0.585-0.579 0.793s-0.575 0.34-0.907 0.384c-0.291 0.050-0.589-0.016-0.832-0.183s-0.409-0.421-0.465-0.708l-0.031-0.12c-0.498 1.14-1.117 1.385-1.566 1.457-0.103 0.029-0.211 0.031-0.315 0.007s-0.199-0.076-0.278-0.148c-0.078-0.072-0.136-0.163-0.168-0.264s-0.038-0.208-0.016-0.312c0.042-0.435 0.121-0.866 0.238-1.287 0.086-0.268 0.14-0.544 0.161-0.824 0.004-0.105-0.033-0.207-0.103-0.285-0.019-0.021-0.042-0.038-0.069-0.048s-0.055-0.014-0.084-0.010c-0.278 0.022-0.516 0.748-0.597 1.131 0 0-0.502 2.205-0.502 2.316l-1.458 0.258 0.422-1.817-0.094 0.067c-0.108 0.073-0.224 0.134-0.346 0.183h-0.045v0.049c-0.215 1.131-0.96 1.795-2.221 2-0.983 0.156-1.633-0.16-1.795-0.976l-0.040-0.205-0.063 0.111-0.041 0.076c-0.305 0.552-0.951 1.497-1.88 1.648-0.144 0.035-0.294 0.035-0.439 0.001s-0.278-0.102-0.391-0.197c-0.118-0.122-0.209-0.268-0.265-0.428s-0.078-0.33-0.063-0.499c0.030-0.533 0.142-1.059 0.332-1.559l0.049-0.151c0 0 0.26-0.958 0.31-1.149s-0.094-0.45-0.354-0.334c-0.102 0.057-0.18 0.149-0.22 0.258-0.073 0.22-0.122 0.447-0.148 0.677l-0.003 0.019c-0.126 0.757-0.355 2.13-0.84 2.841-0.175 0.293-0.409 0.547-0.686 0.746s-0.594 0.34-0.929 0.412c-0.283 0.059-0.574 0.058-0.857-0.003s-0.548-0.18-0.781-0.349c-0.71 0.529-1.535 0.886-2.409 1.042-1.476 0.214-1.822-0.708-1.593-1.599-0.002-0.019-0.002-0.039 0-0.058-0.987 1.216-2.356 2.379-4.038 2.726-1.889 0.379-2.961 0.102-3.859-0.673-0.357-0.375-0.614-0.833-0.747-1.331s-0.139-1.023-0.016-1.524c0.808-3.096 3.764-4.535 5.716-4.619 1.27-0.053 1.844 0.192 2.338 0.686 0.158 0.166 0.279 0.364 0.357 0.579s0.109 0.444 0.092 0.673c0.003 0.428-0.158 0.842-0.449 1.158s-0.692 0.512-1.122 0.548c-0.172 0.027-0.347 0.015-0.514-0.033s-0.321-0.133-0.451-0.247c-0.129-0.134-0.227-0.293-0.289-0.467s-0.086-0.36-0.070-0.544c0.025-0.29 0.119-0.57 0.275-0.817s0.369-0.452 0.622-0.6c0.133-0.076 0.273-0.14 0.417-0.192 0.13-0.223-2.077-0.837-3.392 2.062-0.25 0.522-0.418 1.080-0.498 1.653-0.206 1.203 0.139 2.058 0.731 2.405 0.435 0.254 1.108 0.285 1.974 0.049 1.62-0.45 3.168-2.526 3.693-4.040 0.18-0.527 0.354-1.084 0.469-1.453 0.054-0.173 0.095-0.305 0.118-0.374l2.432-0.125c-0.063 0.214-1.162 3.644-1.162 3.644-0.036 0.102-0.274 0.913-0.085 1.158 0.057 0.058 0.128 0.102 0.206 0.127s0.161 0.030 0.242 0.016c0.258-0.053 0.5-0.162 0.709-0.321-0.182-0.278-0.254-0.613-0.202-0.94 0.015-0.165 0.071-0.323 0.163-0.461s0.218-0.25 0.365-0.327c0.147-0.077 0.312-0.116 0.478-0.114s0.33 0.046 0.475 0.127c0.092 0.064 0.169 0.146 0.228 0.24s0.098 0.2 0.114 0.31 0.010 0.222-0.019 0.33c-0.029 0.108-0.079 0.208-0.148 0.296-0.152 0.25-0.356 0.465-0.597 0.633 0.152 0.073 0.324 0.094 0.489 0.058 0.844-0.125 1.108-0.953 1.247-2.156v-0.036c0.099-1.002 0.287-2.018 1.032-2.708 0.126-0.118 0.279-0.204 0.447-0.249s0.343-0.049 0.512-0.011c0.169 0.038 0.326 0.117 0.457 0.23s0.232 0.256 0.294 0.417l0.153-0.552 1.795-0.062c-0.054 0.2-0.835 3.225-0.835 3.225l-0.022 0.276c-0.001 0.035 0.005 0.069 0.018 0.102s0.033 0.061 0.058 0.086c0.022 0.020 0.048 0.036 0.077 0.045s0.059 0.012 0.089 0.008c0.323-0.040 0.74-0.739 0.978-1.376v-0.031c0.023-0.134 0.056-0.265 0.102-0.447 0.007-0.029 0.015-0.060 0.023-0.092l0.045-0.174c0-0.004 0.305-1.345 0.377-1.653l1.561-0.085c0 0-0.758 3.377-0.758 3.782-0.006 0.073 0.003 0.147 0.026 0.216s0.060 0.134 0.109 0.189c0.026 0.024 0.058 0.042 0.092 0.053s0.070 0.014 0.106 0.009c0.48-0.071 0.83-0.512 0.951-1.336v-0.125l-0.117 0.040c-1.001 0.298-1.081-1.764 0.601-1.929 0.65-0.067 0.835 0.597 0.866 0.793 0.022 0.086 0.037 0.174 0.045 0.263v0.085h0.081c0.216-0.082 0.401-0.228 0.529-0.419l0.399-1.742 1.216-0.094c-0.027 0.094-0.108 0.539-0.108 0.539l0.193-0.227c0.245-0.23 0.561-0.372 0.897-0.401 0.556-0.049 1.072 0.111 1.005 0.967-0.030 0.355-0.091 0.706-0.179 1.051-0.057 0.198-0.096 0.401-0.117 0.606-0.003 0.032 0.001 0.065 0.012 0.096s0.028 0.059 0.051 0.082c0.016 0.015 0.035 0.027 0.056 0.034s0.043 0.009 0.065 0.006c0.229-0.031 0.516-0.637 0.678-1.082-0.003-0.009-0.003-0.018 0-0.027 0.024-0.474 0.213-0.924 0.536-1.274s0.758-0.577 1.232-0.641c1.099-0.089 1.27 0.641 1.27 1.336 0 0.156-0.072 0.664-0.072 0.664h0.090c0.114-0.046 0.218-0.115 0.304-0.202zM26.545 16.462c-0.328-0.009-0.637 0.575-0.301 1.082 0.22-0.158 0.401-0.364 0.529-0.601 0.144-0.316 0.099-0.472-0.229-0.481zM36.068 15.041c0.054-0.026 0.102-0.063 0.142-0.107 0.017-0.071 0.020-0.144 0.009-0.216s-0.037-0.141-0.076-0.203c-0.031-0.019-0.067-0.029-0.103-0.029s-0.072 0.010-0.103 0.029c-0.082 0.047-0.151 0.116-0.197 0.198s-0.070 0.176-0.068 0.27c0.009 0.040 0.054 0.129 0.224 0.102 0.060-0.003 0.118-0.018 0.173-0.044zM44.235 14.003c0.014 0.092 0.060 0.175 0.131 0.235 0.047-0.178 0.071-0.36 0.072-0.543-0.026-0.012-0.055-0.014-0.083-0.006s-0.050 0.026-0.065 0.050c-0.049 0.078-0.069 0.172-0.055 0.263zM44.457 13.219v-0.027c0.041-0.195 0.004-0.398-0.103-0.566-0.021-0.025-0.048-0.046-0.079-0.059s-0.063-0.019-0.096-0.017c-0.476 0.031-0.808 1.706-0.808 2.379 0 0.281 0.041 0.361 0.139 0.445 0.032 0.027 0.069 0.046 0.11 0.056s0.083 0.011 0.124 0.002c0.283-0.040 0.417-0.383 0.521-0.695v-0.098c-0.111-0.068-0.202-0.164-0.263-0.278s-0.091-0.242-0.087-0.372c0.040-0.739 0.543-0.771 0.543-0.771z"></path>
</symbol>
<symbol id="how-to-support-card-plus-for-life" viewBox="0 0 65 32">
<path fill="#5d398e" style="fill: var(--color3, #5d398e)" d="M10.333 0.809l46.333 4.906c4.218 0.447 7.275 4.228 6.829 8.446l-1.078 10.183c-0.447 4.218-4.228 7.275-8.446 6.829l-46.333-4.906c-4.218-0.447-7.275-4.228-6.829-8.446l1.078-10.183c0.447-4.218 4.228-7.275 8.446-6.829z"></path>
<path fill="#fff" style="fill: var(--color2, #fff)" d="M23.46 15.178c-0.327 3.086-3.093 5.322-6.178 4.995s-5.322-3.093-4.995-6.178c0.327-3.086 3.093-5.321 6.178-4.994s5.322 3.093 4.995 6.178z"></path>
<path fill="#fff" style="fill: var(--color2, #fff)" d="M25.788 14.645l0.367-3.466c0.016-0.149 0.099-0.216 0.248-0.2l3.187 0.337c0.149 0.016 0.216 0.098 0.2 0.247l-0.367 3.466c-0.016 0.149-0.098 0.216-0.247 0.2l-0.637-0.067c-0.149-0.016-0.216-0.098-0.2-0.247l0.277-2.617c0.008-0.075-0.025-0.116-0.1-0.124l-1.241-0.131c-0.075-0.008-0.116 0.025-0.124 0.1l-0.277 2.616c-0.016 0.149-0.099 0.216-0.247 0.2l-0.637-0.067c-0.149-0.016-0.216-0.098-0.2-0.247v0.001z"></path>
<path fill="#fff" style="fill: var(--color2, #fff)" d="M29.966 15.347c-0.128-0.040-0.178-0.132-0.152-0.276l0.086-0.438c0.011-0.067 0.029-0.116 0.055-0.149s0.054-0.048 0.084-0.045c0.022 0.002 0.045 0.007 0.067 0.013s0.044 0.011 0.067 0.013c0.078 0.008 0.143-0.034 0.194-0.126s0.097-0.255 0.14-0.488c0.041-0.233 0.087-0.579 0.135-1.037l0.003-0.028c0.016-0.149 0.099-0.216 0.247-0.2l2.141 0.227c0.149 0.016 0.216 0.098 0.2 0.247l-0.249 2.348c-0.016 0.149-0.099 0.216-0.248 0.2l-0.537-0.057c-0.149-0.016-0.216-0.098-0.2-0.247l0.173-1.638c0.008-0.075-0.025-0.116-0.1-0.124l-0.537-0.057-0 0.006c-0.067 0.524-0.152 0.928-0.256 1.211s-0.24 0.477-0.409 0.581c-0.169 0.105-0.392 0.142-0.668 0.113-0.089-0.009-0.168-0.026-0.238-0.048l0.001-0.001z"></path>
<path fill="#fff" style="fill: var(--color2, #fff)" d="M35.474 15.696c-0.247-0.197-0.405-0.447-0.475-0.748-0.016-0.066-0.053-0.102-0.113-0.108l-0.117-0.012c-0.075-0.008-0.116 0.025-0.124 0.1l-0.069 0.649c-0.016 0.149-0.098 0.216-0.247 0.2l-0.542-0.057c-0.149-0.016-0.216-0.098-0.2-0.247l0.249-2.348c0.016-0.149 0.098-0.216 0.247-0.2l0.542 0.057c0.149 0.016 0.216 0.098 0.2 0.247l-0.069 0.649c-0.008 0.075 0.025 0.116 0.1 0.124l0.117 0.012c0.059 0.006 0.104-0.021 0.133-0.082 0.135-0.28 0.343-0.49 0.624-0.632s0.598-0.194 0.952-0.156c0.306 0.032 0.572 0.122 0.8 0.268s0.397 0.338 0.507 0.574c0.111 0.236 0.151 0.496 0.121 0.779s-0.125 0.528-0.284 0.736c-0.16 0.207-0.366 0.359-0.619 0.455s-0.53 0.127-0.833 0.095c-0.354-0.037-0.655-0.155-0.901-0.353l-0.001-0zM36.054 15.006c0.094 0.125 0.23 0.197 0.41 0.216s0.333-0.022 0.451-0.125c0.118-0.103 0.187-0.248 0.207-0.439s-0.017-0.348-0.111-0.473c-0.094-0.125-0.232-0.197-0.415-0.217s-0.328 0.023-0.446 0.125c-0.118 0.103-0.187 0.248-0.207 0.439s0.017 0.348 0.111 0.473z"></path>
<path fill="#fff" style="fill: var(--color2, #fff)" d="M39.017 16.139c-0.221-0.149-0.384-0.341-0.487-0.575s-0.14-0.49-0.111-0.769c0.030-0.279 0.126-0.533 0.288-0.739s0.369-0.356 0.624-0.451c0.255-0.095 0.535-0.127 0.841-0.095 0.261 0.028 0.49 0.099 0.69 0.215s0.355 0.266 0.467 0.451c0.029 0.048 0.041 0.093 0.037 0.134-0.007 0.067-0.058 0.12-0.153 0.159l-0.459 0.172c-0.039 0.018-0.078 0.025-0.115 0.021-0.063-0.007-0.123-0.049-0.179-0.126-0.101-0.116-0.231-0.183-0.392-0.2-0.175-0.019-0.324 0.024-0.446 0.128s-0.193 0.249-0.213 0.436 0.022 0.344 0.125 0.471c0.103 0.128 0.241 0.201 0.412 0.219s0.332-0.025 0.472-0.131c0.074-0.060 0.141-0.087 0.2-0.080 0.041 0.004 0.079 0.019 0.114 0.046l0.38 0.261c0.088 0.062 0.128 0.127 0.121 0.194-0.003 0.030-0.017 0.060-0.043 0.092-0.154 0.169-0.349 0.292-0.587 0.37s-0.499 0.102-0.782 0.072c-0.313-0.033-0.58-0.124-0.802-0.274l-0.002 0z"></path>
<path fill="#fff" style="fill: var(--color2, #fff)" d="M25.229 19.601l0.249-2.348c0.016-0.149 0.098-0.216 0.247-0.2l0.542 0.057c0.149 0.016 0.216 0.098 0.2 0.247l-0.069 0.649c-0.008 0.075 0.025 0.116 0.1 0.124l0.671 0.071c0.074 0.008 0.116-0.025 0.124-0.1l0.069-0.649c0.016-0.149 0.098-0.216 0.247-0.2l0.537 0.057c0.149 0.016 0.216 0.098 0.2 0.247l-0.249 2.348c-0.016 0.149-0.099 0.216-0.248 0.2l-0.537-0.057c-0.149-0.016-0.216-0.098-0.2-0.247l0.069-0.649c0.008-0.075-0.025-0.116-0.1-0.124l-0.671-0.071c-0.075-0.008-0.116 0.025-0.124 0.1l-0.069 0.649c-0.016 0.149-0.098 0.216-0.247 0.2l-0.542-0.057c-0.149-0.016-0.216-0.098-0.2-0.247z"></path>
<path fill="#fff" style="fill: var(--color2, #fff)" d="M28.774 20.019c-0.158-0.177-0.223-0.403-0.194-0.679s0.155-0.475 0.378-0.608c0.224-0.133 0.516-0.18 0.877-0.142l0.654 0.069c0.075 0.008 0.115-0.014 0.12-0.066 0.008-0.075-0.034-0.141-0.125-0.2s-0.216-0.097-0.373-0.113c-0.201-0.021-0.381 0.005-0.539 0.079-0.067 0.030-0.124 0.043-0.168 0.038-0.052-0.006-0.1-0.035-0.143-0.089l-0.234-0.296c-0.047-0.058-0.067-0.114-0.061-0.171s0.039-0.103 0.1-0.142c0.149-0.090 0.329-0.155 0.541-0.197s0.428-0.051 0.647-0.028c0.458 0.049 0.796 0.183 1.015 0.404s0.309 0.501 0.273 0.84l-0.162 1.532c-0.016 0.149-0.099 0.216-0.247 0.2l-0.492-0.052c-0.071-0.008-0.125-0.026-0.161-0.054s-0.053-0.063-0.048-0.104c0.005-0.045-0.009-0.069-0.044-0.072-0.022-0.002-0.044 0.003-0.064 0.016-0.248 0.132-0.53 0.181-0.847 0.148s-0.543-0.138-0.701-0.315l-0 0.002zM29.624 19.555c0.058 0.042 0.146 0.069 0.265 0.082 0.175 0.019 0.321-0.003 0.437-0.064s0.186-0.153 0.21-0.274l-0.128-0.019-0.52-0.055c-0.212-0.022-0.326 0.033-0.34 0.168-0.007 0.067 0.018 0.122 0.076 0.164z"></path>
<path fill="#fff" style="fill: var(--color2, #fff)" d="M32.969 20.607c-0.030-0.030-0.044-0.067-0.039-0.111 0.004-0.037 0.020-0.077 0.046-0.119l0.699-0.994c0.017-0.025 0.028-0.050 0.031-0.076s-0.002-0.053-0.014-0.080l-0.471-1.107c-0.018-0.047-0.024-0.089-0.020-0.126 0.005-0.045 0.026-0.078 0.064-0.101s0.087-0.030 0.147-0.024l0.582 0.062c0.12 0.013 0.201 0.074 0.246 0.184l0.323 0.798c0.025 0.056 0.067 0.087 0.126 0.093l0.129 0.014c0.075 0.008 0.116-0.025 0.124-0.1l0.069-0.654c0.016-0.149 0.099-0.216 0.248-0.2l0.537 0.057c0.149 0.016 0.216 0.098 0.2 0.247l-0.069 0.654c-0.008 0.075 0.025 0.116 0.1 0.124l0.134 0.014c0.063 0.007 0.111-0.015 0.143-0.064l0.493-0.711c0.067-0.098 0.16-0.141 0.279-0.129l0.559 0.059c0.059 0.006 0.105 0.025 0.136 0.054s0.044 0.067 0.039 0.111c-0.004 0.037-0.019 0.077-0.046 0.119l-0.671 0.946c-0.018 0.025-0.028 0.054-0.032 0.087-0.002 0.022 0.001 0.045 0.009 0.069l0.477 1.158c0.018 0.047 0.024 0.089 0.020 0.126-0.005 0.045-0.025 0.079-0.062 0.101s-0.084 0.030-0.144 0.024l-0.621-0.066c-0.12-0.013-0.201-0.076-0.245-0.19l-0.312-0.791c-0.021-0.055-0.061-0.086-0.12-0.092l-0.123-0.013c-0.075-0.008-0.116 0.025-0.124 0.1l-0.069 0.654c-0.016 0.149-0.099 0.216-0.248 0.2l-0.537-0.057c-0.149-0.016-0.216-0.098-0.2-0.247l0.069-0.654c0.008-0.074-0.025-0.116-0.1-0.124l-0.134-0.014c-0.059-0.006-0.107 0.015-0.143 0.064l-0.483 0.712c-0.067 0.098-0.16 0.141-0.279 0.129l-0.587-0.062c-0.059-0.006-0.105-0.024-0.136-0.054z"></path>
<path fill="#fff" style="fill: var(--color2, #fff)" d="M37.931 20.945l0.249-2.348c0.016-0.149 0.099-0.216 0.248-0.2l0.531 0.056c0.149 0.016 0.216 0.098 0.2 0.247l-0.094 0.883c-0.003 0.030 0 0.055 0.009 0.075s0.023 0.031 0.042 0.033c0.026 0.003 0.052-0.013 0.079-0.048l0.85-0.933c0.077-0.086 0.173-0.123 0.289-0.111l0.537 0.057c0.149 0.016 0.216 0.098 0.2 0.247l-0.249 2.348c-0.016 0.149-0.098 0.216-0.247 0.2l-0.52-0.055c-0.149-0.016-0.216-0.098-0.2-0.247l0.095-0.9c0.007-0.063-0.008-0.097-0.046-0.101-0.023-0.002-0.050 0.011-0.083 0.042l-0.864 0.948c-0.077 0.086-0.173 0.123-0.289 0.111l-0.537-0.057c-0.149-0.016-0.216-0.098-0.2-0.247v-0.001z"></path>
<path fill="#fff" style="fill: var(--color2, #fff)" d="M42.067 21.383l0.172-1.627c0.008-0.074-0.025-0.116-0.1-0.124l-0.604-0.064c-0.149-0.016-0.216-0.098-0.2-0.247l0.041-0.385c0.016-0.149 0.099-0.216 0.248-0.2l2.426 0.257c0.149 0.016 0.216 0.098 0.2 0.247l-0.041 0.385c-0.016 0.149-0.099 0.216-0.248 0.2l-0.609-0.064c-0.075-0.008-0.116 0.025-0.124 0.1l-0.172 1.627c-0.016 0.149-0.099 0.216-0.248 0.2l-0.542-0.057c-0.149-0.016-0.216-0.098-0.2-0.247z"></path>
<path fill="#fff" style="fill: var(--color2, #fff)" d="M45.058 21.7l0.172-1.627c0.008-0.074-0.025-0.116-0.1-0.124l-0.604-0.064c-0.149-0.016-0.216-0.098-0.2-0.247l0.041-0.385c0.016-0.149 0.099-0.216 0.248-0.2l2.426 0.257c0.149 0.016 0.216 0.098 0.2 0.247l-0.041 0.385c-0.016 0.149-0.098 0.216-0.247 0.2l-0.609-0.064c-0.075-0.008-0.116 0.025-0.124 0.1l-0.172 1.627c-0.016 0.149-0.099 0.216-0.248 0.2l-0.542-0.057c-0.149-0.016-0.216-0.098-0.2-0.247z"></path>
<path fill="#fff" style="fill: var(--color2, #fff)" d="M47.763 21.189c0.003-0.033-0.012-0.065-0.046-0.095-0.113-0.102-0.196-0.221-0.248-0.357s-0.069-0.279-0.053-0.432c0.031-0.291 0.168-0.509 0.411-0.654s0.559-0.198 0.947-0.157l1.286 0.136c0.149 0.016 0.216 0.098 0.2 0.247l-0.249 2.348c-0.016 0.149-0.099 0.216-0.248 0.2l-0.525-0.056c-0.149-0.016-0.216-0.098-0.2-0.247l0.053-0.503c0.008-0.075-0.025-0.116-0.1-0.124l-0.157-0.017c-0.056-0.006-0.103 0.014-0.142 0.059l-0.491 0.576c-0.074 0.090-0.168 0.129-0.284 0.117l-0.609-0.064c-0.059-0.006-0.106-0.024-0.139-0.054s-0.047-0.065-0.042-0.106 0.026-0.084 0.065-0.129l0.541-0.621c0.017-0.017 0.027-0.039 0.029-0.065l-0.001-0.001zM48.733 20.738l0.335 0.036c0.075 0.008 0.116-0.025 0.124-0.1l0.028-0.263c0.008-0.075-0.025-0.116-0.1-0.124l-0.336-0.036c-0.116-0.012-0.206-0.001-0.269 0.034s-0.1 0.091-0.108 0.169c-0.017 0.164 0.091 0.259 0.326 0.283z"></path>
<path fill="#5d398e" style="fill: var(--color3, #5d398e)" d="M20.608 18.499l-6.133-0.649-0.287-4.576 7.658 0.811-1.239 4.415z"></path>
<path fill="#5d398e" style="fill: var(--color3, #5d398e)" d="M21.903 14.902l-8.058-0.853-0.026-1.071 8.334 0.882-0.25 1.041z"></path>
<path fill="#fff" style="fill: var(--color2, #fff)" d="M19.202 15.836c0.004-0.041-0.025-0.077-0.067-0.081l-0.843-0.089c-0.025-0.002-0.047-0.015-0.062-0.032s-0.022-0.042-0.020-0.067l0.091-0.855c0.003-0.034-0.022-0.064-0.055-0.067l-0.771-0.082c-0.036-0.003-0.068 0.023-0.072 0.059l-0.090 0.851c-0.002 0.024-0.014 0.046-0.032 0.062s-0.043 0.022-0.068 0.020l-0.848-0.090c-0.038-0.003-0.070 0.024-0.074 0.062l-0.081 0.762c-0.004 0.038 0.024 0.071 0.062 0.075l0.848 0.090c0.024 0.003 0.046 0.014 0.061 0.032s0.022 0.043 0.020 0.067l-0.091 0.856c-0.003 0.034 0.022 0.063 0.054 0.066l0.767 0.081c0.039 0.004 0.074-0.025 0.078-0.064l0.089-0.845c0.005-0.050 0.050-0.087 0.1-0.082l0.844 0.089c0.039 0.003 0.075-0.025 0.079-0.065l0.080-0.751 0.001-0.002z"></path>
<path fill="#5d398e" style="fill: var(--color3, #5d398e)" d="M21.072 14.992l-6.417-0.679 0.651-2.625c0.118-0.477 0.575-0.797 1.063-0.745l3.732 0.395c0.488 0.052 0.868 0.46 0.884 0.951l0.087 2.703-0.001-0zM14.78 14.226l6.19 0.655-0.083-2.589c-0.014-0.441-0.356-0.809-0.795-0.855l-3.732-0.395c-0.439-0.046-0.849 0.242-0.956 0.67l-0.623 2.514z"></path>
<path fill="#5d398e" style="fill: var(--color3, #5d398e)" d="M20.278 11.219l-4.057-0.43c-0.117-0.012-0.221 0.072-0.233 0.189l-0 0.001c-0.012 0.117 0.072 0.221 0.189 0.233l4.057 0.43c0.117 0.012 0.221-0.072 0.233-0.189l0-0.001c0.012-0.117-0.072-0.221-0.189-0.233z"></path>
</symbol>
<symbol id="card-nav-arrow" viewBox="0 0 32 32">
<path d="M24.535 16l-7.88 7.88-1.839-1.839 4.728-4.728h-12.082v-2.627h12.082l-4.728-4.728 1.839-1.839 7.88 7.88z"></path>
</symbol>
<symbol id="mail" viewBox="0 0 32 32">
<path d="M4.517 24.995v-18.424h23.030v18.424h-23.030zM16.032 16.935l-9.212-5.758v11.515h18.424v-11.515l-9.212 5.758zM16.032 14.632l9.212-5.758h-18.424l9.212 5.758zM6.82 11.177v0z"></path>
</symbol>
<symbol id="silpo-bank" viewBox="0 0 32 32">
<path fill="#fff" style="fill: var(--color1, #fff)" d="M15.813 0.356c8.716 0 15.782 7.066 15.782 15.782s-7.066 15.782-15.782 15.782c-8.716 0-15.782-7.066-15.782-15.782s7.066-15.782 15.782-15.782z"></path>
<path fill="#876dc7" style="fill: var(--color2, #876dc7)" d="M24.199 11.604c-2.093-2.41-5.556-2.756-7.736-0.773l-4.883 4.442c-2.18 1.983-2.25 5.544-0.157 7.954s5.556 2.756 7.736 0.773l4.883-4.442c2.18-1.983 2.25-5.544 0.157-7.954z"></path>
<path fill="#876dc7" style="fill: var(--color2, #876dc7)" d="M11.397 21.118c3.14 0 5.861-2.541 5.861-5.783s-2.458-5.87-5.598-5.87c-3.14 0-5.686 2.628-5.686 5.87s2.283 5.783 5.423 5.783z"></path>
<path fill="#6b289b" style="fill: var(--color3, #6b289b)" d="M17.258 15.336c0 3.242-2.72 5.783-5.861 5.783-0.426 0-0.836-0.047-1.227-0.136-0.634-2.043-0.157-4.284 1.41-5.71l4.253-3.869c0.889 1.041 1.424 2.419 1.424 3.931z"></path>
<path fill="#06f" style="fill: var(--color4, #06f)" d="M16.005 9.108c0 0-5.104 0.538-5.015-4.84 5.284-0.090 5.015 4.84 5.015 4.84z"></path>
<path fill="#876dc7" style="fill: var(--color2, #876dc7)" d="M16.004 9.108c0 0-5.104 0.538-5.015-4.84 5.284-0.090 5.015 4.84 5.015 4.84z"></path>
</symbol>
</defs>
</svg>
