<svg width="39" height="40" viewBox="0 0 39 40" fill="none" xmlns="http://www.w3.org/2000/svg">
<path d="M38.0555 19.9987C38.0555 30.5076 29.5367 39.0264 19.0278 39.0264C8.5188 39.0264 0 30.5076 0 19.9987C0 9.48971 8.5188 0.973633 19.0278 0.973633C29.5367 0.973633 38.0555 9.49243 38.0555 20.0014" fill="#D3CAEA"/>
<path d="M29.6366 32.2012H8.74939L6.1521 16.8896H32.2339L29.6366 32.2012Z" fill="#5D398E"/>
<path d="M32.7144 19.6223H5.27129L4.80029 16.0259H33.1854L32.7144 19.6223Z" fill="#5D398E"/>
<path d="M23.9489 23.7328C23.9489 23.5939 23.8373 23.4823 23.6957 23.4823H20.8262C20.7418 23.485 20.6628 23.4496 20.6056 23.3952C20.5485 23.338 20.5158 23.2618 20.5158 23.1774V20.2643C20.5131 20.1499 20.4205 20.0574 20.3062 20.0574H17.6789C17.5564 20.0601 17.4584 20.1581 17.4584 20.2806V23.1801C17.4611 23.2618 17.4284 23.3407 17.3713 23.4006C17.3114 23.4578 17.2351 23.4905 17.1507 23.4905H14.2621C14.1342 23.4932 14.0334 23.5967 14.0334 23.7246V26.3192C14.0334 26.4472 14.1396 26.5506 14.2676 26.5506H17.1562C17.2379 26.5506 17.3168 26.5806 17.374 26.6377C17.4339 26.6949 17.4638 26.7739 17.4638 26.8555V29.7714C17.4666 29.8857 17.5591 29.9755 17.6707 29.9755H20.2817C20.4151 29.9755 20.5212 29.8639 20.5212 29.7332V26.8555C20.5185 26.684 20.6574 26.5452 20.8289 26.5452H23.7039C23.8373 26.5424 23.9489 26.4335 23.9462 26.2974V23.7382L23.9489 23.7328Z" fill="#C9B5D8"/>
<path d="M29.9473 20.224H8.09082L9.34863 11.1498C9.57732 9.50271 11.0012 8.26123 12.6647 8.26123H25.3762C27.0369 8.26123 28.4635 9.50271 28.6922 11.1498L29.95 20.224H29.9473ZM8.48014 19.8864H29.5607L28.3573 11.1961C28.1531 9.71506 26.8708 8.59882 25.3762 8.59882H12.6647C11.17 8.59882 9.89041 9.71506 9.6835 11.1961L8.48014 19.8864Z" fill="#5D398E"/>
<path d="M25.9284 7.79858H12.1116C11.7146 7.79858 11.3928 8.12038 11.3928 8.51733V8.52005C11.3928 8.91701 11.7146 9.2388 12.1116 9.2388H25.9284C26.3254 9.2388 26.6472 8.91701 26.6472 8.52005V8.51733C26.6472 8.12038 26.3254 7.79858 25.9284 7.79858Z" fill="#5D398E"/>
</svg>
