<svg width="89" height="32" viewBox="0 0 89 32" fill="none" xmlns="http://www.w3.org/2000/svg">
<g clip-path="url(#clip0_1954_2631)">
<path d="M8.95104 0.685303H22.2305C27.0722 0.685303 31.0004 4.61349 31.0004 9.4552V22.7346C31.0004 27.5763 27.0722 31.5045 22.2305 31.5045H8.95104C4.11764 31.4962 0.189453 27.568 0.189453 22.7263V9.44689C0.189453 4.61349 4.11764 0.685303 8.95104 0.685303Z" fill="white"/>
<path d="M21.3914 17.0956C20.1457 14.463 17.9864 12.4532 15.5946 11.4151C13.6679 10.5764 11.5834 10.377 9.70649 10.9916C5.50424 12.3785 3.91802 17.3531 6.16033 22.1034C8.0123 26.0316 11.9073 28.5812 15.5697 28.5729C15.5697 28.5729 15.5863 28.5729 15.5946 28.5729C15.5946 28.5729 15.6112 28.5729 15.6195 28.5729C16.3753 28.5729 17.131 28.4483 17.8452 28.2158C22.0475 26.8289 23.6337 21.8543 21.3914 17.0956Z" fill="#E52C83"/>
<path d="M21.4824 10.9916C19.6055 10.377 17.521 10.5764 15.5942 11.4151C13.2025 12.4532 11.0432 14.463 9.79747 17.0956C7.54686 21.8543 9.13309 26.8289 13.3436 28.2158C14.0662 28.4483 14.8136 28.5646 15.5693 28.5729C15.5693 28.5729 15.5859 28.5729 15.5942 28.5729C15.5942 28.5729 15.6109 28.5729 15.6192 28.5729C19.2816 28.5729 23.1682 26.0316 25.0285 22.1034C27.2791 17.3448 25.6846 12.3702 21.4824 10.9916Z" fill="#029EDA"/>
<path d="M21.391 17.0957C20.1453 14.463 17.986 12.4533 15.5942 11.4152C13.2025 12.4533 11.0432 14.463 9.79747 17.0957C7.54686 21.8543 9.13309 26.8289 13.3436 28.2158C14.0662 28.4484 14.8136 28.5646 15.5693 28.5729C15.5693 28.5729 15.5859 28.5729 15.5942 28.5729C15.5942 28.5729 15.6109 28.5729 15.6192 28.5729C16.3749 28.5729 17.1306 28.4484 17.8448 28.2158C22.0471 26.8289 23.6333 21.8543 21.391 17.0957Z" fill="#674593"/>
<path d="M13.6679 6.2993C15.1711 7.75264 15.2624 10.0863 15.2624 10.0863C15.2624 10.0863 12.9204 10.0697 11.4256 8.61635C9.92241 7.163 9.83105 4.82935 9.83105 4.82935C9.83105 4.82935 12.173 4.84596 13.6679 6.2993Z" fill="#E52C83"/>
<path d="M20.5199 8.27595C22.3636 6.49042 22.4798 3.60864 22.4798 3.60864C22.4798 3.60864 19.598 3.62525 17.7461 5.41909C15.9024 7.20463 15.7861 10.0864 15.7861 10.0864C15.7861 10.0864 18.6679 10.0698 20.5199 8.27595Z" fill="#029EDA"/>
<path d="M86.8259 6.19964H88.6447V15.2021H86.8259V9.23921L84.1767 15.2021H82.3496V6.19964H84.1767V12.1708L86.8259 6.19964ZM87.6564 3.82446C87.6564 4.37258 87.4571 4.81274 87.0668 5.15324C86.6764 5.49373 86.1532 5.65983 85.5137 5.65983C84.8743 5.65983 84.3428 5.49373 83.9524 5.15324C83.5621 4.81274 83.3628 4.37258 83.3628 3.82446H84.6417C84.6417 4.08191 84.7165 4.28123 84.8743 4.42241C85.0321 4.56359 85.2397 4.63834 85.5137 4.63834C85.7878 4.63834 85.9954 4.56359 86.1449 4.42241C86.2944 4.28123 86.3774 4.08191 86.3774 3.82446H87.6647H87.6564Z" fill="white"/>
<path d="M37.312 15.2021V6.19971H40.0941C41.0326 6.19971 41.7468 6.40733 42.2368 6.83087C42.7268 7.24612 42.9676 7.86067 42.9676 8.67455C42.9676 9.13131 42.8679 9.52994 42.6686 9.85383C42.4693 10.186 42.187 10.4269 41.8381 10.5764C42.2451 10.6926 42.5524 10.9252 42.7683 11.274C42.9842 11.6228 43.0922 12.0546 43.0922 12.5612C43.0922 13.4332 42.8513 14.0976 42.3697 14.5378C41.888 14.9862 41.1904 15.2021 40.2851 15.2021H37.3037H37.312ZM39.1308 9.96179H40.0775C40.7917 9.96179 41.1488 9.59638 41.1488 8.85725C41.1488 8.45031 41.0658 8.15965 40.8997 7.97694C40.7336 7.80254 40.4679 7.71119 40.0941 7.71119H39.1308V9.96179ZM39.1308 11.2906V13.699H40.2935C40.6173 13.699 40.8665 13.5993 41.0326 13.4C41.1987 13.2007 41.29 12.91 41.29 12.5363C41.29 11.7307 40.9994 11.3155 40.4097 11.2906H39.1308Z" fill="white"/>
<path d="M50.7323 6.19972V15.2021H48.9052V7.71119H47.2359L47.1114 10.9002C47.0615 11.955 46.9453 12.7854 46.7543 13.4C46.5632 14.0146 46.2892 14.4713 45.9321 14.7537C45.575 15.0444 45.085 15.1855 44.4787 15.1938H44.0303V13.6824L44.2379 13.6658C44.6199 13.6242 44.894 13.3751 45.0601 12.9183C45.2262 12.4699 45.3341 11.6643 45.3757 10.5182L45.4919 6.18311H50.7323V6.19972Z" fill="white"/>
<path d="M56.6122 13.3585H54.1291L53.6474 15.2021H51.7207L54.536 6.19971H56.197L59.0289 15.2021H57.0856L56.6039 13.3585H56.6122ZM54.5277 11.847H56.2136L55.3748 8.64133L54.536 11.847H54.5277Z" fill="white"/>
<path d="M65.8473 12.204C65.8058 13.2338 65.5151 14.0062 64.9836 14.5377C64.4521 15.0692 63.7046 15.3266 62.733 15.3266C61.7115 15.3266 60.9308 14.9945 60.391 14.3218C59.8512 13.6491 59.5771 12.694 59.5771 11.4566V9.94512C59.5771 8.7077 59.8595 7.75264 60.4159 7.08826C60.9807 6.41557 61.753 6.08337 62.7496 6.08337C63.7462 6.08337 64.477 6.35743 64.9836 6.90555C65.4902 7.45367 65.7809 8.24263 65.8556 9.26412H64.0285C64.0119 8.63296 63.9123 8.1928 63.7379 7.95196C63.5635 7.71112 63.2313 7.58655 62.7496 7.58655C62.2679 7.58655 61.9191 7.75264 61.7198 8.09314C61.5205 8.43364 61.4125 8.99006 61.3959 9.77072V11.4732C61.3959 12.3701 61.4956 12.9847 61.6949 13.3169C61.8942 13.6491 62.2347 13.8152 62.7247 13.8152C63.2147 13.8152 63.5302 13.6989 63.7129 13.4664C63.8957 13.2338 63.9953 12.8103 64.0202 12.204H65.839H65.8473Z" fill="white"/>
<path d="M73.2804 15.2021H71.47V11.3487H68.7875V15.2021H66.9688V6.19971H68.7875V9.84553H71.47V6.19971H73.2804V15.2021Z" fill="white"/>
<path d="M79.1521 6.19971H80.9708V15.2021H79.1521V9.23927L76.5028 15.2021H74.6758V6.19971H76.5028V12.1709L79.1521 6.19971Z" fill="white"/>
<path d="M39.1303 22.8094V25.9735H37.3115V16.9711H40.376C41.2646 16.9711 41.9788 17.2451 42.5103 17.8016C43.0419 18.358 43.3076 19.0722 43.3076 19.9525C43.3076 20.8328 43.0419 21.5304 42.5186 22.0453C41.9954 22.5602 41.2729 22.8094 40.3428 22.8094H39.1303ZM39.1303 21.2979H40.376C40.7248 21.2979 40.9906 21.1816 41.1816 20.9574C41.3726 20.7332 41.4639 20.401 41.4639 19.9691C41.4639 19.5373 41.3643 19.1635 41.1733 18.8978C40.9823 18.632 40.7165 18.4992 40.3926 18.4909H39.122V21.2979H39.1303Z" fill="white"/>
<path d="M47.7177 24.1298H45.2346L44.7529 25.9735H42.8262L45.6415 16.9711H47.3025L50.1344 25.9735H48.1911L47.7094 24.1298H47.7177ZM45.6332 22.6184H47.3191L46.4803 19.4127L45.6415 22.6184H45.6332Z" fill="white"/>
<path d="M53.7966 20.0605L55.0091 16.9711H57.0936L54.9758 21.4391L57.1434 25.9818H55.034L53.7966 22.8343L52.5674 25.9818H50.458L52.6256 21.4391L50.5078 16.9711H52.5923L53.8049 20.0605H53.7966Z" fill="white"/>
<path d="M60.9142 20.974L62.1267 16.9711H64.0783L61.6118 24.2046C61.3294 24.9188 61.0305 25.4171 60.7066 25.6828C60.3827 25.9486 59.9924 26.0898 59.5439 26.1064H59.3446L58.9127 26.0815L58.8795 24.57C58.8795 24.57 59.0539 24.5949 59.2782 24.5949C59.5024 24.5949 59.6851 24.5451 59.8014 24.4371C59.9176 24.3374 60.0173 24.1049 60.1086 23.7478L60.1917 23.4239L57.6172 16.9711H59.5688L60.9142 20.974Z" fill="white"/>
<path d="M71.3537 25.9735H69.5432V22.1201H66.8608V25.9735H65.042V16.9711H66.8608V20.6169H69.5432V16.9711H71.3537V25.9735Z" fill="white"/>
<path d="M79.1516 22.2861C79.1516 23.4903 78.8692 24.4287 78.2962 25.1014C77.7232 25.7658 76.9342 26.1063 75.921 26.1063C74.9078 26.1063 74.1189 25.7741 73.5375 25.1097C72.9562 24.4453 72.6655 23.5235 72.6572 22.3276V20.7912C72.6572 19.5538 72.9396 18.5904 73.5126 17.8928C74.0857 17.1952 74.8829 16.8547 75.8961 16.8547C76.9093 16.8547 77.69 17.1952 78.263 17.8762C78.8443 18.5572 79.135 19.5123 79.1433 20.7497V22.2861H79.1516ZM77.3328 20.7746C77.3328 19.9607 77.2166 19.3545 76.984 18.9642C76.7515 18.5655 76.3944 18.3745 75.9044 18.3745C75.4144 18.3745 75.0656 18.5655 74.8331 18.9476C74.6006 19.3296 74.4843 19.9109 74.476 20.6916V22.2944C74.476 23.0834 74.5923 23.6647 74.8248 24.0384C75.0573 24.4121 75.4227 24.5948 75.9127 24.5948C76.4027 24.5948 76.7432 24.4121 76.9674 24.0467C77.2 23.6813 77.3162 23.1166 77.3162 22.3525V20.7912L77.3328 20.7746Z" fill="white"/>
<path d="M83.0794 22.3028H82.2904V25.9735H80.4717V16.9711H82.2904V20.5671H82.905L84.4663 16.9711H86.6837L84.4829 21.165L86.9328 25.9735H84.7653L83.0794 22.3028Z" fill="white"/>
</g>
<defs>
<clipPath id="clip0_1954_2631">
<rect width="88.4547" height="30.8109" fill="white" transform="translate(0.189453 0.685303)"/>
</clipPath>
</defs>
</svg>
