<svg width="110" height="34" viewBox="0 0 110 34" fill="none" xmlns="http://www.w3.org/2000/svg">
<g clip-path="url(#clip0_1954_2658)">
<path d="M93.0561 0.685303H17.3576C8.26693 0.685303 0.897461 8.05477 0.897461 17.1455C0.897461 26.2362 8.26693 33.6056 17.3576 33.6056H93.0561C102.147 33.6056 109.516 26.2362 109.516 17.1455C109.516 8.05477 102.147 0.685303 93.0561 0.685303Z" fill="white"/>
<path d="M29.6652 17.0706C29.6652 23.2577 24.6491 28.2739 18.462 28.2739C12.2749 28.2739 7.25879 23.2577 7.25879 17.0706C7.25879 10.8835 12.2749 5.86743 18.462 5.86743C24.6491 5.86743 29.6652 10.8835 29.6652 17.0706Z" fill="#C8B4D7"/>
<path d="M36.3169 15.2022V6.44888C36.3169 6.07517 36.5079 5.88416 36.8816 5.88416H44.9207C45.2944 5.88416 45.4854 6.07517 45.4854 6.44888V15.1939C45.4854 15.5676 45.2944 15.7586 44.9207 15.7586H43.3096C42.9358 15.7586 42.7448 15.5676 42.7448 15.1939V8.59153C42.7448 8.40052 42.6535 8.30916 42.4625 8.30916H39.3315C39.1405 8.30916 39.0492 8.40052 39.0492 8.59153V15.1939C39.0492 15.5676 38.8582 15.7586 38.4845 15.7586H36.8733C36.4996 15.7586 36.3086 15.5676 36.3086 15.1939L36.3169 15.2022Z" fill="#5D388D"/>
<path d="M46.9217 15.8499C46.5895 15.7835 46.4401 15.5675 46.4733 15.2021L46.5729 14.0893C46.5812 13.9232 46.6145 13.7903 46.6726 13.699C46.7307 13.6076 46.7972 13.5661 46.8719 13.5661C46.93 13.5661 46.9882 13.5661 47.038 13.5827C47.0961 13.591 47.1543 13.5993 47.2041 13.5993C47.4034 13.5993 47.5529 13.4747 47.6526 13.2339C47.7522 12.993 47.827 12.5695 47.8685 11.9799C47.91 11.3902 47.9349 10.5099 47.9349 9.35553V9.28909C47.9349 8.91538 48.1259 8.72437 48.4997 8.72437H53.9061C54.2798 8.72437 54.4708 8.91538 54.4708 9.28909V15.2104C54.4708 15.5842 54.2798 15.7752 53.9061 15.7752H52.5524C52.1787 15.7752 51.9877 15.5842 51.9877 15.2104V11.0746C51.9877 10.8836 51.8963 10.7923 51.7053 10.7923H50.3516V10.8089C50.3267 12.1376 50.2188 13.1674 50.036 13.8983C49.8533 14.6291 49.5627 15.1523 49.1723 15.4596C48.7737 15.7669 48.2339 15.9163 47.5363 15.9163C47.3121 15.9163 47.1044 15.8997 46.93 15.8582L46.9217 15.8499Z" fill="#5D388D"/>
<path d="M60.7582 15.2602C60.0938 14.8284 59.6287 14.2553 59.3796 13.5162C59.3214 13.3584 59.2218 13.2754 59.0723 13.2754H58.7733C58.5823 13.2754 58.491 13.3667 58.491 13.5577V15.1938C58.491 15.5675 58.3 15.7585 57.9262 15.7585H56.5559C56.1822 15.7585 55.9912 15.5675 55.9912 15.1938V9.27244C55.9912 8.89872 56.1822 8.70771 56.5559 8.70771H57.9262C58.3 8.70771 58.491 8.89872 58.491 9.27244V10.9085C58.491 11.0995 58.5823 11.1909 58.7733 11.1909H59.0723C59.2218 11.1909 59.3298 11.1078 59.3796 10.95C59.6453 10.2192 60.1021 9.63785 60.7665 9.206C61.4309 8.77415 62.2115 8.56653 63.1001 8.56653C63.8725 8.56653 64.5618 8.71602 65.168 9.02329C65.7743 9.33057 66.2477 9.76242 66.5882 10.3188C66.9287 10.8753 67.0948 11.5147 67.0948 12.229C67.0948 12.9432 66.9204 13.5826 66.5799 14.1391C66.2394 14.6955 65.7577 15.1273 65.1514 15.4346C64.5452 15.7419 63.8642 15.8914 63.1001 15.8914C62.2032 15.8914 61.4226 15.6755 60.7582 15.2519V15.2602ZM62.0205 13.3833C62.2863 13.674 62.6517 13.8152 63.1001 13.8152C63.5486 13.8152 63.9223 13.674 64.1964 13.3833C64.4621 13.0927 64.595 12.7106 64.595 12.2373C64.595 11.7639 64.4621 11.3736 64.1964 11.0912C63.9306 10.8005 63.5652 10.6593 63.1001 10.6593C62.6351 10.6593 62.2863 10.8005 62.0205 11.0912C61.7548 11.3819 61.6219 11.7639 61.6219 12.2373C61.6219 12.7106 61.7548 13.101 62.0205 13.3833Z" fill="#5D388D"/>
<path d="M69.7192 15.4346C69.1295 15.119 68.6728 14.6872 68.3489 14.1308C68.025 13.5743 67.8672 12.9432 67.8672 12.2373C67.8672 11.5313 68.0416 10.8753 68.3904 10.3188C68.7392 9.76242 69.2209 9.33057 69.8271 9.03159C70.4417 8.72432 71.131 8.57483 71.9033 8.57483C72.5594 8.57483 73.1574 8.6911 73.6806 8.92363C74.2038 9.15617 74.6356 9.49666 74.9678 9.92852C75.0509 10.0448 75.0924 10.1527 75.0924 10.2524C75.0924 10.4185 74.9761 10.568 74.7519 10.6926L73.6473 11.2407C73.556 11.2988 73.4563 11.3237 73.365 11.3237C73.2072 11.3237 73.0411 11.2324 72.8833 11.058C72.6009 10.7922 72.2604 10.6593 71.8535 10.6593C71.4134 10.6593 71.0479 10.8088 70.7739 11.0995C70.4998 11.3902 70.3586 11.7722 70.3586 12.2456C70.3586 12.7189 70.5081 13.0927 70.7988 13.3916C71.0895 13.6823 71.4549 13.8318 71.8867 13.8318C72.3186 13.8318 72.7089 13.6823 73.0328 13.3833C73.1989 13.2172 73.365 13.1259 73.5145 13.1259C73.6141 13.1259 73.7138 13.1508 73.8134 13.2089L74.8266 13.757C75.0592 13.8899 75.1754 14.0394 75.1754 14.2055C75.1754 14.2802 75.1505 14.3633 75.0924 14.4463C74.7519 14.9031 74.2951 15.2685 73.7221 15.526C73.1491 15.7834 72.5013 15.9163 71.7871 15.9163C70.9981 15.9163 70.3088 15.7585 69.7109 15.4429L69.7192 15.4346Z" fill="#5D388D"/>
<path d="M36.2256 27.7092V21.7879C36.2256 21.4142 36.4166 21.2231 36.7903 21.2231H38.1606C38.5343 21.2231 38.7253 21.4142 38.7253 21.7879V23.4239C38.7253 23.6149 38.8167 23.7063 39.0077 23.7063H40.7019C40.8929 23.7063 40.9843 23.6149 40.9843 23.4239V21.7879C40.9843 21.4142 41.1753 21.2231 41.549 21.2231H42.9027C43.2764 21.2231 43.4674 21.4142 43.4674 21.7879V27.7092C43.4674 28.0829 43.2764 28.2739 42.9027 28.2739H41.549C41.1753 28.2739 40.9843 28.0829 40.9843 27.7092V26.0732C40.9843 25.8822 40.8929 25.7908 40.7019 25.7908H39.0077C38.8167 25.7908 38.7253 25.8822 38.7253 26.0732V27.7092C38.7253 28.0829 38.5343 28.2739 38.1606 28.2739H36.7903C36.4166 28.2739 36.2256 28.0829 36.2256 27.7092Z" fill="#5D388D"/>
<path d="M45.1868 27.8172C44.7467 27.4186 44.5225 26.8705 44.5225 26.1729C44.5225 25.4753 44.7799 24.9438 45.3031 24.5534C45.8263 24.1631 46.5405 23.9721 47.4541 23.9721H49.1067C49.2977 23.9721 49.3891 23.9057 49.3891 23.7728C49.3891 23.5818 49.2645 23.4323 49.0237 23.3077C48.7828 23.1832 48.459 23.125 48.0603 23.125C47.5537 23.125 47.1136 23.2413 46.7315 23.4655C46.5738 23.5569 46.4326 23.6067 46.3246 23.6067C46.1917 23.6067 46.0672 23.5486 45.9426 23.424L45.2782 22.743C45.1453 22.6101 45.0789 22.4772 45.0789 22.3361C45.0789 22.1949 45.1453 22.0703 45.2865 21.954C45.6353 21.6883 46.0672 21.4807 46.5821 21.3229C47.097 21.1651 47.6368 21.082 48.1932 21.082C49.3476 21.082 50.2279 21.3312 50.8341 21.8212C51.4321 22.3111 51.7394 22.9921 51.7394 23.8475V27.7093C51.7394 28.083 51.5483 28.274 51.1746 28.274H49.9372C49.7545 28.274 49.6216 28.2408 49.522 28.1827C49.4223 28.1245 49.3725 28.0415 49.3725 27.9335C49.3725 27.8172 49.331 27.7674 49.2479 27.7674C49.1898 27.7674 49.1399 27.784 49.0901 27.8256C48.5088 28.2242 47.8195 28.4152 47.0139 28.4152C46.2083 28.4152 45.6187 28.2159 45.1785 27.8172H45.1868ZM47.18 26.4386C47.3378 26.53 47.562 26.5715 47.861 26.5715C48.3012 26.5715 48.6583 26.4802 48.9323 26.2975C49.2064 26.1148 49.3559 25.8656 49.3808 25.5583L49.0569 25.5417H47.7447C47.2049 25.5417 46.9392 25.7078 46.9392 26.0483C46.9392 26.2144 47.0139 26.3473 47.1717 26.4386H47.18Z" fill="#5D388D"/>
<path d="M55.8091 28.1743C55.7261 28.1078 55.6846 28.0165 55.6846 27.9085C55.6846 27.8172 55.7095 27.7092 55.7676 27.6013L57.2459 24.9354C57.2874 24.869 57.304 24.8025 57.304 24.7361C57.304 24.6696 57.2874 24.6032 57.2459 24.5368L55.7759 21.8958C55.7178 21.7796 55.6929 21.6799 55.6929 21.5886C55.6929 21.4723 55.7344 21.3892 55.8258 21.3228C55.9171 21.2564 56.0334 21.2231 56.1829 21.2231H57.6528C57.9518 21.2231 58.176 21.356 58.3172 21.6218L59.3304 23.5236C59.4051 23.6565 59.5214 23.7229 59.6709 23.7229H59.9948C60.1858 23.7229 60.2771 23.6315 60.2771 23.4405V21.7879C60.2771 21.4142 60.4681 21.2231 60.8419 21.2231H62.1956C62.5693 21.2231 62.7603 21.4142 62.7603 21.7879V23.4405C62.7603 23.6315 62.8516 23.7229 63.0426 23.7229H63.3831C63.5409 23.7229 63.6572 23.6565 63.7236 23.5236L64.7701 21.6218C64.9112 21.356 65.1355 21.2231 65.4344 21.2231H66.8463C66.9957 21.2231 67.112 21.2564 67.1951 21.3228C67.2781 21.3892 67.3196 21.4806 67.3196 21.5886C67.3196 21.6799 67.2947 21.7879 67.2366 21.8958L65.8082 24.4371C65.7666 24.5036 65.75 24.5783 65.75 24.6613C65.75 24.7195 65.7666 24.7776 65.7915 24.8274L67.2864 27.5929C67.3445 27.7092 67.3695 27.8089 67.3695 27.9002C67.3695 28.0165 67.3279 28.0995 67.2449 28.166C67.1618 28.2324 67.0456 28.2656 66.8961 28.2656H65.3265C65.0275 28.2656 64.8033 28.1328 64.6621 27.8587L63.6738 25.9652C63.6074 25.8323 63.4994 25.7659 63.3499 25.7659H63.0426C62.8516 25.7659 62.7603 25.8572 62.7603 26.0482V27.7009C62.7603 28.0746 62.5693 28.2656 62.1956 28.2656H60.8419C60.4681 28.2656 60.2771 28.0746 60.2771 27.7009V26.0482C60.2771 25.8572 60.1858 25.7659 59.9948 25.7659H59.6543C59.5048 25.7659 59.3885 25.8323 59.3138 25.9652L58.3006 27.867C58.1594 28.1328 57.9352 28.2656 57.6362 28.2656H56.1579C56.0085 28.2656 55.8922 28.2324 55.8091 28.166V28.1743Z" fill="#5D388D"/>
<path d="M68.2822 27.7092V21.7879C68.2822 21.4142 68.4732 21.2231 68.847 21.2231H70.184C70.5577 21.2231 70.7488 21.4142 70.7488 21.7879V24.0136C70.7488 24.0883 70.7654 24.1464 70.7903 24.1963C70.8152 24.2461 70.8567 24.2627 70.9066 24.2627C70.973 24.2627 71.0311 24.2129 71.0893 24.1215L72.9661 21.5719C73.1322 21.3394 73.3648 21.2231 73.6554 21.2231H75.0091C75.3829 21.2231 75.5739 21.4142 75.5739 21.7879V27.7092C75.5739 28.0829 75.3829 28.2739 75.0091 28.2739H73.697C73.3233 28.2739 73.1322 28.0829 73.1322 27.7092V25.442C73.1322 25.2842 73.0824 25.2012 72.9911 25.2012C72.9329 25.2012 72.8665 25.2427 72.7917 25.3257L70.8899 27.9251C70.7238 28.1577 70.4913 28.2739 70.2006 28.2739H68.847C68.4732 28.2739 68.2822 28.0829 68.2822 27.7092Z" fill="#5D388D"/>
<path d="M78.7214 27.7092V23.6066C78.7214 23.4156 78.63 23.3243 78.439 23.3243H76.9192C76.5455 23.3243 76.3545 23.1333 76.3545 22.7595V21.7879C76.3545 21.4142 76.5455 21.2231 76.9192 21.2231H83.0399C83.4136 21.2231 83.6046 21.4142 83.6046 21.7879V22.7595C83.6046 23.1333 83.4136 23.3243 83.0399 23.3243H81.5035C81.3125 23.3243 81.2211 23.4156 81.2211 23.6066V27.7092C81.2211 28.0829 81.0301 28.2739 80.6564 28.2739H79.2861C78.9124 28.2739 78.7214 28.0829 78.7214 27.7092Z" fill="#5D388D"/>
<path d="M86.2624 27.7092V23.6066C86.2624 23.4156 86.171 23.3243 85.98 23.3243H84.4602C84.0865 23.3243 83.8955 23.1333 83.8955 22.7595V21.7879C83.8955 21.4142 84.0865 21.2231 84.4602 21.2231H90.5809C90.9546 21.2231 91.1456 21.4142 91.1456 21.7879V22.7595C91.1456 23.1333 90.9546 23.3243 90.5809 23.3243H89.0445C88.8535 23.3243 88.7621 23.4156 88.7621 23.6066V27.7092C88.7621 28.0829 88.5711 28.2739 88.1974 28.2739H86.8271C86.4534 28.2739 86.2624 28.0829 86.2624 27.7092Z" fill="#5D388D"/>
<path d="M92.8815 25.7245C92.8815 25.6414 92.8317 25.5667 92.7403 25.5002C92.4331 25.276 92.1922 25.002 92.0261 24.6781C91.86 24.3542 91.777 23.9971 91.777 23.6151C91.777 22.8842 92.0594 22.3029 92.6324 21.871C93.2054 21.4392 93.9778 21.2316 94.9494 21.2316H98.1966C98.5703 21.2316 98.7613 21.4226 98.7613 21.7963V27.7176C98.7613 28.0914 98.5703 28.2824 98.1966 28.2824H96.8678C96.4941 28.2824 96.3031 28.0914 96.3031 27.7176V26.447C96.3031 26.256 96.2118 26.1646 96.0208 26.1646H95.6221C95.4809 26.1646 95.3647 26.2228 95.2816 26.3473L94.2103 27.917C94.0525 28.1578 93.8283 28.2824 93.5293 28.2824H91.9929C91.8434 28.2824 91.7189 28.2491 91.6358 28.1827C91.5445 28.1163 91.5029 28.0332 91.5029 27.9253C91.5029 27.8173 91.5445 27.7093 91.6275 27.5848L92.8151 25.8906C92.8566 25.8407 92.8732 25.7909 92.8732 25.7245H92.8815ZM95.182 24.3376H96.0291C96.2201 24.3376 96.3114 24.2462 96.3114 24.0552V23.3908C96.3114 23.1998 96.2201 23.1085 96.0291 23.1085H95.182C94.8913 23.1085 94.6671 23.1583 94.5176 23.2663C94.3681 23.3659 94.2934 23.5237 94.2934 23.7147C94.2934 24.13 94.5923 24.3376 95.182 24.3376Z" fill="#5D388D"/>
<path d="M24.6489 24.3042H12.2747L10.7383 15.2354H26.1853L24.6489 24.3042Z" fill="#5D388D"/>
<path d="M26.5925 16.8548H10.3317L10.0576 14.7288H26.8666L26.5925 16.8548Z" fill="#5D388D"/>
<path d="M24.9316 17.2118H11.9844L12.7318 11.8386C12.8647 10.8669 13.7118 10.1278 14.7001 10.1278H22.2325C23.2208 10.1278 24.0596 10.8669 24.2008 11.8386L24.9482 17.2118H24.9316ZM12.2086 17.0125H24.6991L23.9848 11.8635C23.8603 10.9832 23.1045 10.3271 22.2159 10.3271H14.6834C13.7948 10.3271 13.0391 10.9915 12.9145 11.8635L12.2003 17.0125H12.2086Z" fill="#5D388D"/>
<path d="M22.5477 9.85388H14.3591C14.1252 9.85388 13.9355 10.0435 13.9355 10.2774V10.2857C13.9355 10.5197 14.1252 10.7093 14.3591 10.7093H22.5477C22.7816 10.7093 22.9712 10.5197 22.9712 10.2857V10.2774C22.9712 10.0435 22.7816 9.85388 22.5477 9.85388Z" fill="#5D388D"/>
<path d="M21.3935 19.2881C21.3935 19.205 21.327 19.1386 21.244 19.1386H19.5415C19.4917 19.1386 19.4419 19.122 19.4086 19.0887C19.3754 19.0555 19.3588 19.0057 19.3588 18.9559V17.2285C19.3588 17.162 19.3007 17.1039 19.2342 17.1039H17.6812C17.6065 17.1039 17.5484 17.162 17.5484 17.2368V18.9559C17.5484 19.0057 17.5317 19.0472 17.4985 19.0887C17.4653 19.122 17.4155 19.1386 17.3656 19.1386H16.7013H16.5933H15.6465C15.5718 19.1386 15.5137 19.1967 15.5137 19.2714V20.7995V20.8078C15.5137 20.8826 15.5718 20.949 15.6549 20.949H17.3656C17.4155 20.949 17.457 20.9656 17.4985 20.9988C17.5317 21.0321 17.5484 21.0819 17.5484 21.1317V22.0203V22.1283V22.2363V22.8674C17.5484 22.9339 17.6065 22.992 17.6729 22.992H19.2176C19.2924 22.992 19.3588 22.9256 19.3588 22.8508V21.1483C19.3588 21.0487 19.4419 20.9656 19.5415 20.9656H21.244C21.327 20.9656 21.3852 20.8992 21.3852 20.8161V19.2964L21.3935 19.2881Z" fill="#C8B4D7"/>
</g>
<defs>
<clipPath id="clip0_1954_2658">
<rect width="108.619" height="32.9203" fill="white" transform="translate(0.897461 0.685303)"/>
</clipPath>
</defs>
</svg>
