<svg width="129" height="33" viewBox="0 0 129 33" fill="none" xmlns="http://www.w3.org/2000/svg">
<g clip-path="url(#clip0_1954_2682)">
<path d="M40.7236 14.6955L44.3611 6.7478H45.557L49.1946 14.6955H47.7163L46.7446 12.4615L47.3592 12.8518H42.5507L43.1653 12.4615L42.2102 14.6955H40.7319H40.7236ZM44.9342 8.31741L43.3397 12.0712L43.0407 11.7141H46.8443L46.5619 12.0712L44.9591 8.31741H44.9342Z" fill="white"/>
<path d="M49.9922 14.6956V9.18115H51.4123V11.3238H52.2179L53.8373 9.18115H55.3654L53.3224 11.9467L53.0151 11.4982C53.2228 11.5231 53.4055 11.5812 53.5633 11.6643C53.7294 11.7556 53.8788 11.8802 54.02 12.038C54.1612 12.2041 54.3024 12.4034 54.4353 12.6443L55.6062 14.6956H54.0782L53.148 13.0678C53.0484 12.8934 52.9487 12.7605 52.8574 12.6692C52.7577 12.5778 52.658 12.5114 52.5418 12.4699C52.4255 12.4283 52.2843 12.4117 52.1182 12.4117H51.4123V14.6873H49.9922V14.6956Z" fill="white"/>
<path d="M61.2035 16.1655V14.7039H56.3618V9.18945H57.7819V13.5993H60.0741V9.18945H61.4942V13.5993H62.4077V16.1738H61.2035V16.1655Z" fill="white"/>
<path d="M63.3789 8.00189V6.62329H64.9734V8.00189H63.3789ZM63.4703 14.6956V9.18118H64.8904V14.6956H63.4703Z" fill="white"/>
<path d="M66.0454 14.6956L66.8759 13.2754C67.0171 13.018 67.1998 12.8187 67.424 12.6609C67.6399 12.5031 67.8725 12.4283 68.105 12.4283H68.3292V12.5529C67.8974 12.5529 67.532 12.4865 67.2247 12.3619C66.9174 12.2373 66.6932 12.0463 66.5354 11.7972C66.3776 11.548 66.3029 11.2491 66.3029 10.8919C66.3029 10.3604 66.4856 9.93689 66.851 9.63792C67.2164 9.33064 67.7479 9.18115 68.4538 9.18115H71.2941V14.6956H69.9736V12.7938H69.384C69.1597 12.7938 68.9604 12.8519 68.7943 12.9765C68.6282 13.0927 68.4953 13.2505 68.3874 13.4249L67.6565 14.6956H66.0537H66.0454ZM68.7528 11.8719H69.9736V10.1113H68.7528C68.3791 10.1113 68.105 10.186 67.9223 10.3438C67.7396 10.5016 67.6482 10.7092 67.6482 10.9833C67.6482 11.2574 67.7396 11.4816 67.9223 11.6394C68.105 11.7972 68.3791 11.8802 68.7528 11.8802V11.8719Z" fill="white"/>
<path d="M75.4795 16.1655V13.591H76.119C76.2685 13.3585 76.393 13.1093 76.4761 12.8436C76.5591 12.5778 76.6256 12.2705 76.6671 11.9301C76.7086 11.5896 76.7335 11.1992 76.7335 10.7508V9.18115H81.0686V13.591H81.9822V16.1655H80.778V14.7039H76.692V16.1655H75.4878H75.4795ZM77.3979 13.591H79.7316V10.2608H77.946V11.0747C77.946 11.548 77.8962 12.0048 77.8048 12.4533C77.7135 12.9017 77.5723 13.2754 77.3979 13.591Z" fill="white"/>
<path d="M82.9453 8.00189V6.62329H84.5398V8.00189H82.9453ZM83.0367 14.6956V9.18118H84.4568V14.6956H83.0367Z" fill="white"/>
<path d="M88.7588 14.8118C88.1608 14.8118 87.6376 14.6955 87.1892 14.4546C86.7407 14.2221 86.4002 13.8816 86.1594 13.4498C85.9185 13.0179 85.7939 12.503 85.7939 11.9134C85.7939 11.3237 85.9185 10.8254 86.1594 10.3936C86.4002 9.97004 86.749 9.64615 87.2058 9.41362C87.6625 9.18108 88.2023 9.07312 88.8252 9.07312C89.2155 9.07312 89.6059 9.13125 89.9879 9.24752C90.3699 9.36379 90.6606 9.52988 90.8765 9.73751L90.4696 10.6427C90.2453 10.4517 89.9796 10.3105 89.6972 10.2192C89.4149 10.1278 89.1325 10.078 88.8667 10.078C88.5013 10.078 88.2023 10.1444 87.9532 10.2773C87.7124 10.4102 87.5214 10.5929 87.3802 10.8254C87.2473 11.058 87.1559 11.332 87.1144 11.6393L86.9898 11.4151H89.772V12.4283H86.9898L87.1144 12.1376C87.1476 12.4947 87.2307 12.802 87.3802 13.0594C87.5214 13.3086 87.7207 13.4996 87.9698 13.6325C88.219 13.757 88.5179 13.8235 88.8584 13.8235C89.1242 13.8235 89.4065 13.7737 89.6972 13.674C89.9879 13.5743 90.2453 13.4415 90.4696 13.2588L90.8765 14.1474C90.727 14.2885 90.536 14.4131 90.3035 14.5128C90.0709 14.6124 89.8301 14.6955 89.5643 14.7453C89.2986 14.7951 89.0245 14.8284 88.7588 14.8284V14.8118Z" fill="white"/>
<path d="M96.1835 14.6956V10.2857H94.2817V9.18115H99.5221V10.2857H97.612V14.6956H96.1919H96.1835Z" fill="white"/>
<path d="M100.319 8.00189V6.62329H101.913V8.00189H100.319ZM100.41 14.6956V9.18118H101.83V14.6956H100.41Z" fill="white"/>
<path d="M103.317 14.8616L102.869 13.7488C103.109 13.6657 103.317 13.5578 103.475 13.4166C103.641 13.2754 103.766 13.101 103.865 12.8768C103.965 12.6526 104.04 12.3868 104.081 12.0629C104.123 11.739 104.148 11.3487 104.148 10.9002V9.19775H108.632V14.7122H107.212V10.3023H105.46V10.9418C105.46 11.5397 105.418 12.0546 105.335 12.5114C105.252 12.9598 105.128 13.3419 104.953 13.6574C104.779 13.973 104.563 14.2305 104.289 14.4298C104.015 14.6291 103.691 14.7703 103.309 14.8616H103.317Z" fill="white"/>
<path d="M110.26 14.6956V9.18115H111.68V11.0082H113.15C113.889 11.0082 114.446 11.166 114.82 11.4733C115.193 11.7806 115.384 12.229 115.384 12.827C115.384 13.2007 115.293 13.5329 115.11 13.8152C114.928 14.0976 114.67 14.3135 114.338 14.4713C114.006 14.6291 113.615 14.7039 113.15 14.7039H110.26V14.6956ZM111.689 13.7737H112.943C113.3 13.7737 113.574 13.699 113.773 13.5412C113.973 13.3834 114.072 13.1509 114.072 12.8353C114.072 12.5197 113.973 12.2955 113.773 12.1543C113.574 12.0048 113.3 11.9384 112.943 11.9384H111.689V13.7737Z" fill="white"/>
<path d="M116.563 14.6956V9.18115H117.984V11.3238H118.789L120.409 9.18115H121.937L119.902 11.9467L119.595 11.4982C119.802 11.5231 119.985 11.5812 120.143 11.6643C120.309 11.7556 120.458 11.8802 120.6 12.038C120.741 12.2041 120.882 12.4034 121.015 12.6443L122.186 14.6956H120.658L119.719 13.0678C119.62 12.8934 119.52 12.7605 119.429 12.6692C119.337 12.5778 119.229 12.5114 119.113 12.4699C118.997 12.4283 118.856 12.4117 118.69 12.4117H117.984V14.6873H116.563V14.6956Z" fill="white"/>
<path d="M122.925 14.6956V9.18115H124.212V13.2505H123.913L127.002 9.18115H128.19V14.6956H126.903V10.6096H127.21L124.112 14.6956H122.925Z" fill="white"/>
<path d="M41.438 19.3878V18.0092H43.0325V19.3878H41.438ZM41.5293 26.0898V20.5753H42.9495V26.0898H41.5293Z" fill="white"/>
<path d="M46.6453 26.206C46.147 26.206 45.6736 26.1479 45.2252 26.0316C44.785 25.9154 44.4113 25.7493 44.1123 25.5416L44.486 24.6198C44.7518 24.8108 45.0757 24.952 45.4577 25.0517C45.8397 25.1513 46.2217 25.2012 46.6121 25.2012C47.0854 25.2012 47.4259 25.143 47.6336 25.0351C47.8495 24.9188 47.9491 24.7444 47.9491 24.5035C47.9491 24.2876 47.8744 24.1215 47.7249 24.0053C47.5754 23.889 47.3429 23.8309 47.0273 23.8309H45.549V22.8177H46.8944C47.1685 22.8177 47.3761 22.7595 47.5256 22.6516C47.6751 22.5353 47.7498 22.3775 47.7498 22.1782C47.7498 21.9623 47.6585 21.7962 47.4675 21.6799C47.2847 21.5636 46.9609 21.5055 46.5124 21.5055C46.1304 21.5055 45.7816 21.547 45.466 21.6384C45.1504 21.7297 44.8431 21.8543 44.5691 22.0204L44.1954 21.1152C44.5026 20.9076 44.8847 20.7581 45.3165 20.6501C45.7567 20.5421 46.23 20.484 46.7615 20.484C47.509 20.484 48.0737 20.6169 48.464 20.8993C48.8544 21.1733 49.0537 21.5553 49.0537 22.0453C49.0537 22.3941 48.9374 22.6848 48.6966 22.9173C48.464 23.1582 48.1485 23.2993 47.7498 23.3492V23.1914C48.0654 23.208 48.3395 23.2744 48.5637 23.3907C48.7879 23.507 48.9623 23.6648 49.0786 23.8641C49.1949 24.0634 49.253 24.2959 49.253 24.57C49.253 25.0766 49.0288 25.4752 48.5803 25.7742C48.1318 26.0732 47.4841 26.2226 46.6453 26.2226V26.206Z" fill="white"/>
<path d="M55.6306 26.206C55.1323 26.206 54.659 26.1479 54.2105 26.0316C53.7703 25.9154 53.3966 25.7493 53.0977 25.5416L53.4714 24.6198C53.7371 24.8108 54.061 24.952 54.443 25.0517C54.8251 25.1513 55.2071 25.2012 55.5974 25.2012C56.0708 25.2012 56.4113 25.143 56.6189 25.0351C56.8348 24.9188 56.9345 24.7444 56.9345 24.5035C56.9345 24.2876 56.8597 24.1215 56.7103 24.0053C56.5608 23.889 56.3282 23.8309 56.0126 23.8309H54.5344V22.8177H55.8798C56.1538 22.8177 56.3615 22.7595 56.5109 22.6516C56.6604 22.5353 56.7352 22.3775 56.7352 22.1782C56.7352 21.9623 56.6438 21.7962 56.4528 21.6799C56.2701 21.5636 55.9462 21.5055 55.4978 21.5055C55.1157 21.5055 54.7669 21.547 54.4513 21.6384C54.1358 21.7297 53.8285 21.8543 53.5544 22.0204L53.1807 21.1152C53.488 20.9076 53.87 20.7581 54.3019 20.6501C54.742 20.5421 55.2154 20.484 55.7469 20.484C56.4943 20.484 57.0591 20.6169 57.4494 20.8993C57.8397 21.1733 58.039 21.5553 58.039 22.0453C58.039 22.3941 57.9228 22.6848 57.6819 22.9173C57.4494 23.1582 57.1338 23.2993 56.7352 23.3492V23.1914C57.0508 23.208 57.3248 23.2744 57.549 23.3907C57.7733 23.507 57.9477 23.6648 58.0639 23.8641C58.1802 24.0634 58.2383 24.2959 58.2383 24.57C58.2383 25.0766 58.0141 25.4752 57.5657 25.7742C57.1172 26.0732 56.4694 26.2226 55.6306 26.2226V26.206Z" fill="white"/>
<path d="M61.3277 26.206C60.929 26.206 60.5636 26.1313 60.248 25.9735C59.9325 25.824 59.6833 25.6081 59.5089 25.3506C59.3262 25.0849 59.2432 24.7942 59.2432 24.462C59.2432 24.0551 59.3511 23.7395 59.5587 23.4987C59.7747 23.2661 60.1152 23.0917 60.5968 22.9838C61.0785 22.8758 61.718 22.826 62.5236 22.826H63.0966V23.6399H62.5402C62.1831 23.6399 61.8841 23.6565 61.6433 23.6814C61.4024 23.7063 61.2031 23.7478 61.0536 23.806C60.9041 23.8641 60.7962 23.9388 60.738 24.0385C60.6799 24.1381 60.6384 24.2544 60.6384 24.3956C60.6384 24.6447 60.7214 24.8441 60.9041 25.0018C61.0785 25.1596 61.3194 25.2344 61.635 25.2344C61.8841 25.2344 62.1083 25.1762 62.2993 25.06C62.4903 24.9437 62.6481 24.7859 62.7561 24.5783C62.8724 24.379 62.9305 24.1464 62.9305 23.8807V22.5851C62.9305 22.2114 62.8475 21.9374 62.6814 21.7713C62.5153 21.6052 62.2329 21.5221 61.8343 21.5221C61.527 21.5221 61.2031 21.572 60.8792 21.6633C60.5553 21.7547 60.2231 21.9041 59.8909 22.0952L59.484 21.1401C59.6833 21.0072 59.9159 20.8827 60.1816 20.783C60.4557 20.6833 60.738 20.6003 61.037 20.5422C61.336 20.484 61.6183 20.4591 61.8841 20.4591C62.4322 20.4591 62.8807 20.5422 63.2378 20.7083C63.5949 20.8743 63.8523 21.1235 64.0267 21.4557C64.2011 21.7879 64.2925 22.2197 64.2925 22.7512V26.0898H62.9637V24.9188H63.0551C63.0052 25.1846 62.8973 25.4088 62.7395 25.5998C62.5817 25.7908 62.3907 25.9403 62.1499 26.0483C61.9173 26.1562 61.6433 26.206 61.3443 26.206H61.3277Z" fill="white"/>
<path d="M68.4619 26.206C67.8805 26.206 67.3656 26.0898 66.9338 25.8489C66.5019 25.6164 66.1697 25.2759 65.9289 24.8441C65.6963 24.4039 65.5718 23.8973 65.5718 23.3077C65.5718 22.718 65.688 22.2197 65.9289 21.7879C66.1614 21.3643 66.5019 21.0404 66.9338 20.8079C67.3656 20.5754 67.8722 20.4674 68.4619 20.4674C68.819 20.4674 69.1761 20.5255 69.5249 20.6335C69.8737 20.7415 70.1643 20.9076 70.3886 21.1069L69.965 22.0868C69.7657 21.9124 69.5415 21.7796 69.3006 21.6882C69.0515 21.5969 68.819 21.5553 68.5864 21.5553C68.0964 21.5553 67.7144 21.7048 67.4404 22.0121C67.1746 22.3194 67.0334 22.7512 67.0334 23.316C67.0334 23.8807 67.1663 24.3125 67.4404 24.6281C67.7144 24.9437 68.0881 25.1098 68.5864 25.1098C68.8024 25.1098 69.0432 25.0683 69.2923 24.9769C69.5415 24.8856 69.7657 24.7527 69.965 24.57L70.3886 25.5583C70.1643 25.7576 69.8737 25.9071 69.5166 26.0233C69.1595 26.1396 68.8107 26.1977 68.4619 26.1977V26.206Z" fill="white"/>
<path d="M72.581 26.0898V21.68H70.6792V20.5754H75.9195V21.68H74.0094V26.0898H72.5893H72.581Z" fill="white"/>
<path d="M79.3495 26.206C78.7765 26.206 78.2699 26.0898 77.8464 25.8572C77.4228 25.6247 77.0906 25.2925 76.8581 24.8607C76.6255 24.4288 76.501 23.9222 76.501 23.3326C76.501 22.7429 76.6172 22.2363 76.8581 21.8128C77.0906 21.3809 77.4228 21.057 77.8464 20.8245C78.2699 20.592 78.7765 20.4757 79.3495 20.4757C79.9226 20.4757 80.4292 20.592 80.8527 20.8245C81.2762 21.057 81.6084 21.3892 81.841 21.8128C82.0735 22.2446 82.1898 22.7512 82.1898 23.3326C82.1898 23.9139 82.0735 24.4288 81.841 24.8607C81.6084 25.2925 81.2762 25.6247 80.8527 25.8572C80.4292 26.0898 79.9226 26.206 79.3495 26.206ZM79.3495 25.1347C79.7731 25.1347 80.1136 24.9852 80.3793 24.6779C80.6368 24.3707 80.7697 23.9222 80.7697 23.3326C80.7697 22.7429 80.6368 22.2862 80.3793 21.9872C80.1219 21.6882 79.7814 21.5387 79.3495 21.5387C78.9177 21.5387 78.5855 21.6882 78.328 21.9872C78.0706 22.2862 77.9377 22.7346 77.9377 23.3326C77.9377 23.9305 78.0623 24.379 78.328 24.6779C78.5855 24.9852 78.926 25.1347 79.3495 25.1347Z" fill="white"/>
<path d="M86.1015 26.206C85.5202 26.206 85.0053 26.0898 84.5734 25.8489C84.1416 25.6164 83.8094 25.2759 83.5685 24.8441C83.336 24.4039 83.2114 23.8973 83.2114 23.3077C83.2114 22.718 83.3277 22.2197 83.5685 21.7879C83.8011 21.3643 84.1416 21.0404 84.5734 20.8079C85.0053 20.5754 85.5119 20.4674 86.1015 20.4674C86.4586 20.4674 86.8157 20.5255 87.1562 20.6335C87.505 20.7498 87.7957 20.9076 88.0199 21.1069L87.5964 22.0868C87.3971 21.9124 87.1728 21.7796 86.932 21.6882C86.6828 21.5969 86.4503 21.5553 86.2178 21.5553C85.7278 21.5553 85.3458 21.7048 85.0717 22.0121C84.7977 22.3194 84.6648 22.7512 84.6648 23.316C84.6648 23.8807 84.7977 24.3125 85.0717 24.6281C85.3375 24.9437 85.7195 25.1098 86.2178 25.1098C86.4337 25.1098 86.6745 25.0683 86.9237 24.9769C87.1728 24.8856 87.3971 24.7527 87.5964 24.57L88.0199 25.5583C87.7957 25.7576 87.505 25.9071 87.1479 26.0233C86.7908 26.1396 86.442 26.1977 86.0932 26.1977L86.1015 26.206Z" fill="white"/>
<path d="M89.5641 28.1162L90.7268 25.5749V26.1646L88.2769 20.5754H89.7883L91.5157 24.8524H91.1752L92.9442 20.5754H94.3809L91.0341 28.1162H89.5641Z" fill="white"/>
<path d="M95.2036 26.0898V20.5754H96.6237V22.7098H99.082V20.5754H100.502V26.0898H99.082V23.8143H96.6237V26.0898H95.2036Z" fill="white"/>
<path d="M102.129 26.0898V20.5754H103.55V22.7181H104.355L105.975 20.5754H107.503L105.46 23.3409L105.152 22.8925C105.36 22.9174 105.543 22.9755 105.7 23.0586C105.867 23.1499 106.016 23.2745 106.157 23.4323C106.298 23.5984 106.44 23.7977 106.572 24.0386L107.743 26.0898H106.215L105.285 24.4621C105.186 24.2877 105.086 24.1548 104.995 24.0635C104.895 23.9721 104.795 23.9057 104.679 23.8641C104.563 23.8226 104.422 23.806 104.255 23.806H103.55V26.0815H102.129V26.0898Z" fill="white"/>
<path d="M111.049 26.206C110.468 26.206 109.97 26.0898 109.546 25.8572C109.123 25.6247 108.79 25.2925 108.558 24.8607C108.325 24.4288 108.201 23.9222 108.201 23.3326C108.201 22.7429 108.317 22.2363 108.558 21.8128C108.79 21.3809 109.123 21.057 109.546 20.8245C109.97 20.592 110.468 20.4757 111.049 20.4757C111.631 20.4757 112.129 20.592 112.552 20.8245C112.976 21.057 113.308 21.3892 113.541 21.8128C113.773 22.2446 113.898 22.7512 113.898 23.3326C113.898 23.9139 113.782 24.4288 113.541 24.8607C113.308 25.2925 112.976 25.6247 112.552 25.8572C112.129 26.0898 111.622 26.206 111.049 26.206ZM111.049 25.1347C111.473 25.1347 111.813 24.9852 112.071 24.6779C112.328 24.3707 112.461 23.9222 112.461 23.3326C112.461 22.7429 112.336 22.2862 112.071 21.9872C111.813 21.6882 111.473 21.5387 111.049 21.5387C110.626 21.5387 110.285 21.6882 110.028 21.9872C109.77 22.2862 109.637 22.7346 109.637 23.3326C109.637 23.9305 109.77 24.379 110.028 24.6779C110.285 24.9852 110.626 25.1347 111.049 25.1347Z" fill="white"/>
<path d="M115.218 26.0898V20.5754H116.389L118.316 23.8309L120.243 20.5754H121.405V26.0898H120.151V22.2032H120.425L118.648 25.1929H117.975L116.198 22.2032H116.472V26.0898H115.218Z" fill="white"/>
<path d="M26.1491 0.685303H7.12272C3.61395 0.685303 0.769531 3.52972 0.769531 7.03849V26.0648C0.769531 29.5736 3.61395 32.418 7.12272 32.418H26.1491C29.6579 32.418 32.5023 29.5736 32.5023 26.0648V7.03849C32.5023 3.52972 29.6579 0.685303 26.1491 0.685303Z" fill="#FF8200"/>
<mask id="mask0_1954_2682" style="mask-type:luminance" maskUnits="userSpaceOnUse" x="6" y="6" width="21" height="21">
<path d="M25.9165 10.0864C24.7622 8.21778 22.7773 7.0551 20.3274 6.81426C15.1036 6.29936 9.174 10.1943 7.13101 15.5011C6.0763 18.2251 6.20918 20.9657 7.48812 23.0336C8.64249 24.9022 10.6273 26.0648 13.0773 26.3057C13.1686 26.314 13.2683 26.3223 13.3596 26.3306C18.5169 26.6794 24.2639 22.826 26.2736 17.6188C27.3283 14.8949 27.1955 12.146 25.9165 10.0864ZM25.5013 17.0458C24.6957 18.9642 20.6762 21.0986 19.0152 21.5636C17.4456 21.9872 16.2248 21.9373 15.4358 21.4723C14.3645 20.8328 13.7333 19.2881 14.1071 17.0956C14.3728 15.5426 14.622 14.9696 15.0206 14.081C17.4041 8.80742 21.3987 9.92857 21.1662 10.3272C20.7675 10.4601 20.4104 10.676 20.4104 10.676C19.7793 11.0248 18.7744 12.0297 18.7578 13.2588C18.7495 14.0478 18.9737 14.6872 19.4055 15.0942C19.8374 15.5011 20.452 15.6838 21.1579 15.6091C22.7192 15.443 23.9732 14.2471 24.0064 12.5031C24.0313 11.5563 23.749 10.7923 23.1842 10.2275C22.2873 9.33062 21.2492 8.88216 18.9488 8.98182C15.4109 9.13131 10.046 11.7556 8.58436 17.3863C8.09437 19.2881 8.81689 21.5636 9.97126 22.5851C11.5741 24.0052 13.5423 24.5035 16.9639 23.8059C19.7543 23.2329 22.6444 21.4806 24.43 19.4874C24.5047 19.4044 24.621 19.4625 24.5545 19.5622C22.0631 23.2578 17.1965 25.7825 13.1603 25.3839C11.0011 25.1762 9.26535 24.163 8.26047 22.5353C7.13932 20.7165 7.03135 18.2666 7.9781 15.8084C9.84669 10.9501 15.1867 7.35407 19.9703 7.67796C20.0616 7.67796 20.1447 7.69457 20.236 7.70288C22.3953 7.9105 24.131 8.92369 25.1359 10.5514C26.2238 12.3121 26.3484 14.6623 25.5013 17.0375" fill="white"/>
</mask>
<g mask="url(#mask0_1954_2682)">
<path d="M27.2779 6.45703H6.11719V26.6461H27.2779V6.45703Z" fill="white"/>
</g>
</g>
<defs>
<clipPath id="clip0_1954_2682">
<rect width="127.421" height="31.7327" fill="white" transform="translate(0.769531 0.685303)"/>
</clipPath>
</defs>
</svg>
