<svg width="254" height="211" viewBox="0 0 254 211" fill="none" xmlns="http://www.w3.org/2000/svg">
<path fill-rule="evenodd" clip-rule="evenodd" d="M201.083 154.804C214.842 142.593 228.235 128.19 238.031 112.297L241.509 106.3C251.891 87.24 256.777 66.2522 250.947 44.4684C245.463 23.9786 226.431 5.00654 203.468 4.37408C146.298 2.7966 127.069 61.4263 127.069 61.4263C127.069 61.4263 118.826 2.00348 70.6908 0.891942C45.6236 0.312072 20.7775 13.4811 8.6065 33.6144C-6.36988 58.3896 1.65187 88.965 15.5595 113.588L19.0376 119.437C20.4642 121.717 21.9305 123.934 23.427 126.075C25.0524 128.403 26.762 130.681 28.548 132.899C38.9569 145.833 51.8244 156.899 64.6141 167.884C78.7492 180.026 92.8842 192.169 107.018 204.311C110.583 207.374 114.682 210.634 119.562 210.535C122.924 210.466 125.965 208.783 128.804 207.126C154.728 191.973 178.983 174.415 201.083 154.804Z" fill="#7AC76B"/>
<path d="M200.045 95.9443V95.9512L200.045 96.0715L200.045 96.0761C200.051 96.7352 200.006 97.3938 199.912 98.0462C199.11 103.568 196.494 107.131 192.908 109.571C189.298 112.028 184.685 113.359 179.882 114.345L179.882 114.345C169.319 116.528 88.7549 132.178 83.5606 133.141C81.2779 133.558 77.3004 134.098 73.0306 133.896C68.7508 133.694 64.2407 132.749 60.8391 130.254L60.8392 130.254L60.8325 130.249C58.844 128.839 57.1982 127.007 56.0148 124.885C54.8315 122.763 54.1405 120.406 53.9921 117.986C53.4852 109.392 58.0631 100.506 67.1436 93.0055C72.2218 89.0862 78.1169 86.3405 84.3994 84.9685L84.3994 84.9685L84.4047 84.9673C89.3211 83.8377 94.455 84.0645 99.2507 85.623L99.5181 85.7225L99.8626 85.8507L100.088 85.5601L100.26 85.3383C100.26 85.3382 100.26 85.338 100.26 85.3378C102.398 82.6038 106.919 78.0917 113.431 77.8424L113.449 77.8417L113.466 77.8398C115.365 77.6324 117.287 77.86 119.083 78.5052C120.877 79.1492 122.497 80.1922 123.821 81.5538C125.221 83.1126 126.126 85.0462 126.424 87.1123V87.1128V87.1133V87.1138V87.1143V87.1148V87.1153V87.1158V87.1163V87.1168V87.1173V87.1178V87.1183V87.1188V87.1194V87.1199V87.1204V87.121V87.1215V87.122V87.1226V87.1231V87.1237V87.1242V87.1248V87.1253V87.1259V87.1264V87.127V87.1276V87.1281V87.1287V87.1293V87.1298V87.1304V87.131V87.1316V87.1322V87.1328V87.1334V87.1339V87.1345V87.1351V87.1357V87.1364V87.137V87.1376V87.1382V87.1388V87.1394V87.14V87.1407V87.1413V87.1419V87.1426V87.1432V87.1438V87.1445V87.1451V87.1458V87.1464V87.1471V87.1477V87.1484V87.149V87.1497V87.1503V87.151V87.1517V87.1523V87.153V87.1537V87.1544V87.1551V87.1557V87.1564V87.1571V87.1578V87.1585V87.1592V87.1599V87.1606V87.1613V87.162V87.1627V87.1634V87.1641V87.1648V87.1655V87.1663V87.167V87.1677V87.1684V87.1692V87.1699V87.1706V87.1714V87.1721V87.1728V87.1736V87.1743V87.1751V87.1758V87.1766V87.1773V87.1781V87.1788V87.1796V87.1804V87.1811V87.1819V87.1827V87.1834V87.1842V87.185V87.1858V87.1865V87.1873V87.1881V87.1889V87.1897V87.1905V87.1913V87.1921V87.1929V87.1937V87.1945V87.1953V87.1961V87.1969V87.1977V87.1985V87.1993V87.2001V87.2009V87.2018V87.2026V87.2034V87.2042V87.2051V87.2059V87.2067V87.2076V87.2084V87.2092V87.2101V87.2109V87.2118V87.2126V87.2135V87.2143V87.2152V87.216V87.2169V87.2177V87.2186V87.2194V87.2203V87.2212V87.222V87.2229V87.2238V87.2246V87.2255V87.2264V87.2273V87.2282V87.229V87.2299V87.2308V87.2317V87.2326V87.2335V87.2344V87.2353V87.2362V87.237V87.2379V87.2388V87.2398V87.2407V87.2416V87.2425V87.2434V87.2443V87.2452V87.2461V87.247V87.248V87.2489V87.2498V87.2507V87.2516V87.2526V87.2535V87.2544V87.2554V87.2563V87.2572V87.2582V87.2591V87.26V87.261V87.2619V87.2629V87.2638V87.2648V87.2657V87.2667V87.2676V87.2686V87.2695V87.2705V87.2714V87.2724V87.2733V87.2743V87.2753V87.2762V87.2772V87.2782V87.2791V87.2801V87.2811V87.2821V87.283V87.284V87.285V87.286V87.2869V87.2879V87.2889V87.2899V87.2909V87.2919V87.2929V87.2939V87.2948V87.2958V87.2968V87.2978V87.2988V87.2998V87.3008V87.3018V87.3028V87.3038V87.3048V87.3058V87.3068V87.3079V87.3089V87.3099V87.3109V87.3119V87.3129V87.3139V87.3149V87.316V87.317V87.318V87.319V87.32V87.3211V87.3221V87.3231V87.3242V87.3252V87.3262V87.3272V87.3283V87.3293V87.3303V87.3314V87.3324V87.3334V87.3345V87.3355V87.3366V87.3376V87.3386V87.3397V87.3407V87.3418V87.3428V87.3439V87.3449V87.346V87.347V87.3481V87.3491V87.3502V87.3512V87.3523V87.3533V87.3544V87.3555V87.3565V87.3576V87.3586V87.3597V87.3608V87.3618V87.3629V87.364V87.365V87.3661V87.3672V87.3682V87.3693V87.3704V87.3714V87.3725V87.3736V87.3747V87.3757V87.3768V87.3779V87.379V87.38V87.3811V87.3822V87.3833V87.3844V87.3854V87.3865V87.3876V87.3887V87.3898V87.3909V87.3919V87.393V87.3941V87.3952V87.3963V87.3974V87.3985V87.3996V87.4006V87.4017V87.4028V87.4039V87.405V87.4061V87.4072V87.4083V87.4094V87.4105V87.4116V87.4127V87.4138V87.4149V87.416V87.4171V87.4182V87.4193V87.4204V87.4215V87.4226V87.4237V87.4248V87.4259V87.427V87.4281V87.4292V87.4303V87.4314V87.4325V87.4336V87.4347V87.4358V87.437V87.4381V87.9381H126.924H127.235H127.248L127.26 87.9375C132.907 87.6623 182.473 85.9431 187.068 85.9432L187.081 85.9429C190.407 85.8569 194.944 86.1854 197.672 89.2093C199.238 91.1067 200.078 93.4921 200.045 95.9443Z" stroke="white"/>
<path d="M113.636 93.7152C116.442 93.5433 119.179 92.2534 119.369 89.3469C119.491 87.4035 117.932 85.4085 114.866 85.2881C113.3 85.1726 111.744 85.6046 110.466 86.5092C109.581 87.1513 108.964 88.0939 108.733 89.1577C108.564 89.6763 108.521 90.2275 108.609 90.7657C108.696 91.3039 108.911 91.8139 109.236 92.2534C109.792 92.8363 110.485 93.2746 111.252 93.5295C112.019 93.7844 112.838 93.8482 113.636 93.7152Z" fill="white"/>
<path d="M194.363 97.1733C194.193 97.6149 193.933 98.017 193.599 98.3543C193.265 98.6917 192.865 98.957 192.423 99.1339H192.077C192.077 99.1339 192.354 97.1733 192.354 96.5713C192.354 93.8884 191.696 91.0679 187.452 91.4119C185.625 91.6621 183.943 92.5379 182.697 93.8881C181.45 95.2383 180.718 96.9781 180.627 98.8071C180.617 98.8408 180.617 98.8766 180.627 98.9103C180.003 100.63 178.894 102.969 178.011 103.089C177.926 103.1 177.84 103.091 177.759 103.065C177.678 103.038 177.605 102.993 177.543 102.935C177.456 102.843 177.39 102.735 177.348 102.616C177.306 102.498 177.29 102.372 177.301 102.247C177.381 101.455 177.532 100.673 177.751 99.9078C178.094 98.5761 178.326 97.2185 178.444 95.849C178.704 92.547 176.712 91.9278 174.564 92.117C173.266 92.2298 172.045 92.7753 171.099 93.6649L170.354 94.542C170.354 94.542 170.666 92.8221 170.77 92.461L166.076 92.8221L164.534 99.5466C164.038 100.283 163.324 100.848 162.49 101.163H162.178V100.836C162.147 100.494 162.089 100.155 162.005 99.8218C161.884 99.0651 161.173 96.5026 158.662 96.7605C152.166 97.3969 152.477 105.36 156.34 104.207L156.791 104.053V104.534C156.323 107.716 154.972 109.418 153.118 109.694C152.981 109.712 152.842 109.7 152.71 109.658C152.578 109.616 152.457 109.546 152.356 109.453C152.168 109.24 152.024 108.992 151.935 108.723C151.846 108.454 151.812 108.17 151.836 107.888C151.836 106.323 154.764 93.2865 154.764 93.2865L148.736 93.6133C148.459 94.7999 147.281 99.9766 147.281 99.9938L147.107 100.665C146.882 101.559 146.726 102.144 146.622 102.745V102.866C145.704 105.325 144.093 108.025 142.846 108.18C142.73 108.194 142.613 108.183 142.502 108.147C142.392 108.112 142.29 108.053 142.205 107.974C142.108 107.88 142.032 107.768 141.981 107.643C141.93 107.519 141.906 107.386 141.911 107.251L141.997 106.185C141.997 106.185 145.011 94.5076 145.219 93.7336L138.29 93.9744L137.701 96.107C137.463 95.486 137.073 94.933 136.568 94.497C136.063 94.061 135.457 93.7555 134.804 93.6076C134.151 93.4596 133.472 93.4737 132.826 93.6487C132.18 93.8237 131.588 94.1541 131.101 94.6108C128.226 97.2765 127.498 101.198 127.117 105.067V105.205C126.58 109.848 125.558 113.047 122.301 113.529C121.665 113.668 120.999 113.589 120.413 113.305C121.344 112.659 122.128 111.827 122.717 110.863C122.984 110.525 123.179 110.137 123.289 109.722C123.4 109.307 123.425 108.874 123.361 108.449C123.298 108.024 123.148 107.617 122.922 107.251C122.695 106.886 122.395 106.57 122.041 106.323C121.481 106.01 120.851 105.841 120.208 105.833C119.566 105.824 118.931 105.975 118.362 106.273C117.794 106.571 117.309 107.005 116.953 107.536C116.597 108.068 116.381 108.679 116.325 109.315C116.123 110.579 116.4 111.872 117.105 112.944C116.298 113.556 115.362 113.979 114.368 114.182C114.056 114.238 113.734 114.217 113.432 114.121C113.13 114.025 112.857 113.857 112.635 113.632C111.908 112.686 112.826 109.556 112.964 109.16C112.964 109.16 117.208 95.9178 117.451 95.0923L108.062 95.5738C107.785 96.3994 106.815 99.6326 105.793 102.625C103.766 108.472 97.7898 116.487 91.5364 118.224C88.1931 119.135 85.5947 119.015 83.9144 118.035C81.6278 116.693 80.294 113.391 81.0908 108.748C81.3989 106.536 82.0474 104.384 83.0136 102.367C88.0891 91.1711 96.6119 93.5445 96.1095 94.4044C95.5518 94.6037 95.0127 94.8512 94.4985 95.1439C93.5229 95.7143 92.6992 96.5086 92.0964 97.4601C91.4936 98.4117 91.1293 99.4928 91.034 100.613C90.9734 101.324 91.0656 102.04 91.3045 102.713C91.5434 103.386 91.9235 104.001 92.4198 104.517C92.9219 104.959 93.5162 105.285 94.16 105.472C94.8038 105.659 95.4813 105.703 96.1442 105.6C97.8044 105.462 99.3509 104.707 100.475 103.486C101.599 102.265 102.217 100.668 102.207 99.0135C102.271 98.1328 102.15 97.2486 101.852 96.4167C101.553 95.5848 101.085 94.8235 100.475 94.1808C98.5694 92.2718 96.352 91.3259 91.4497 91.5323C83.9144 91.859 72.4988 97.4141 69.3807 109.367C68.9059 111.302 68.9267 113.325 69.441 115.251C69.9554 117.176 70.9471 118.943 72.3256 120.391C75.7901 123.383 79.9302 124.45 87.223 122.988C93.719 121.646 99.0024 117.158 102.813 112.462C102.805 112.537 102.805 112.612 102.813 112.686C101.93 116.126 103.264 119.686 108.963 118.86C112.337 118.256 115.522 116.878 118.265 114.836C119.164 115.491 120.191 115.95 121.281 116.184C122.37 116.418 123.497 116.422 124.588 116.194C125.881 115.914 127.101 115.372 128.174 114.602C129.247 113.833 130.149 112.853 130.824 111.723C132.712 108.954 133.596 103.588 134.081 100.682C134.18 99.7932 134.372 98.9172 134.652 98.0676C134.804 97.644 135.106 97.2896 135.501 97.0701C136.506 96.6229 137.06 97.6204 136.87 98.36C136.679 99.0995 135.674 102.797 135.674 102.797L135.484 103.382C134.75 105.312 134.318 107.342 134.202 109.401C134.143 110.053 134.225 110.709 134.443 111.326C134.662 111.943 135.01 112.507 135.467 112.978C135.902 113.347 136.42 113.608 136.977 113.74C137.534 113.871 138.115 113.87 138.671 113.735C142.257 113.15 144.751 109.504 145.929 107.372L146.085 107.079L146.328 106.649L146.484 107.441C147.107 110.588 149.619 111.809 153.413 111.207C158.28 110.416 161.156 107.853 161.987 103.485V103.296H162.161C162.629 103.108 163.076 102.872 163.495 102.591L163.858 102.333L162.23 109.35L167.86 108.352C167.86 107.922 169.8 99.409 169.8 99.409C170.112 97.93 171.03 95.1267 172.104 95.0407C172.213 95.0276 172.324 95.0411 172.426 95.0801C172.529 95.1191 172.62 95.1823 172.693 95.2643C172.962 95.5672 173.105 95.961 173.091 96.365C173.009 97.446 172.8 98.5139 172.468 99.5466C172.019 101.174 171.711 102.837 171.55 104.517C171.465 104.917 171.486 105.332 171.611 105.722C171.735 106.112 171.959 106.463 172.261 106.741C172.562 107.02 172.931 107.216 173.331 107.312C173.732 107.407 174.15 107.398 174.546 107.286C176.279 107.011 178.669 106.065 180.592 101.662L180.713 102.126C180.928 103.236 181.573 104.218 182.509 104.861C183.445 105.504 184.598 105.757 185.72 105.566C187 105.397 188.21 104.885 189.221 104.085C190.231 103.285 191.002 102.228 191.453 101.026V100.854H191.627C192.339 100.67 192.989 100.303 193.512 99.7897C194.036 99.2763 194.413 98.6348 194.606 97.93C194.541 97.6731 194.46 97.4204 194.363 97.1733ZM118.768 111.843C117.468 109.883 118.664 107.63 119.928 107.664C121.193 107.699 121.366 108.3 120.812 109.522C120.316 110.439 119.617 111.233 118.768 111.843ZM157.241 101.765C157.089 101.938 156.903 102.079 156.694 102.179C156.486 102.28 156.26 102.338 156.028 102.35C155.37 102.453 155.197 102.109 155.162 101.954C155.154 101.59 155.244 101.23 155.424 100.912C155.604 100.595 155.866 100.331 156.184 100.149C156.304 100.076 156.442 100.037 156.583 100.037C156.723 100.037 156.861 100.076 156.981 100.149C157.131 100.387 157.23 100.653 157.275 100.931C157.32 101.208 157.308 101.492 157.241 101.765ZM188.734 99.0823C188.461 98.849 188.281 98.5266 188.227 98.1733C188.173 97.82 188.248 97.4592 188.439 97.1561C188.497 97.063 188.587 96.9942 188.692 96.9625C188.797 96.9308 188.911 96.9385 189.011 96.9841C189.006 97.6922 188.913 98.3969 188.734 99.0823ZM189.08 95.0407V95.1439C189.08 95.1439 187.14 95.2643 186.984 98.1192C186.967 98.6188 187.082 99.1141 187.32 99.555C187.557 99.996 187.907 100.367 188.335 100.63V101.008C187.937 102.212 187.417 103.537 186.326 103.691C186.168 103.726 186.005 103.724 185.849 103.685C185.693 103.646 185.547 103.572 185.425 103.468C185.044 103.141 184.888 102.831 184.888 101.748C184.888 99.1511 186.17 92.6846 188.006 92.5642C188.134 92.5567 188.262 92.5793 188.379 92.6301C188.497 92.6809 188.6 92.7585 188.682 92.8565C189.095 93.5057 189.238 94.2889 189.08 95.0407Z" fill="white"/>
</svg>
