<svg width="556" height="328" viewBox="0 0 556 328" fill="none" xmlns="http://www.w3.org/2000/svg">
<path d="M440.041 83.8682C454.294 81.0914 463.814 77.9531 472.912 72.6894C491.409 35.7579 477.672 46.821 440.041 83.8682Z" fill="#5D398E"/>
<path fill-rule="evenodd" clip-rule="evenodd" d="M191.103 15.0747C164.616 27.6604 144.832 46.5865 133.58 73.9918C132.875 75.7073 132.188 77.3444 131.525 78.927L131.52 78.9378C125.209 93.9874 120.956 104.13 122.727 130.279C123.61 143.332 129.463 153.376 135.167 163.166C142.094 175.054 148.802 186.566 146.127 202.635C137.039 257.238 95.0851 252.772 15.8409 244.338C11.565 243.883 7.18053 243.416 2.68681 242.947L0.496394 321.408C5.71525 321.549 12.4215 322.215 20.9351 323.555C88.6515 334.214 177.408 324.97 209.591 288.105C258.503 232.077 241.832 189.012 230.149 158.834C228.831 155.429 227.577 152.189 226.487 149.113L226.486 149.11L226.485 149.106C223.716 141.484 220.948 133.864 218.659 126.103C214.345 111.468 219.329 100.421 232.319 93.7764C251.796 83.8095 272.227 81.415 293.468 86.9074C310.949 91.4226 326.26 100.274 340.711 110.816C343.066 112.534 345.389 114.306 347.712 116.078L347.713 116.079L347.713 116.079C352.917 120.049 358.121 124.019 363.691 127.378C396.116 146.93 416.477 165.192 465.507 151.575C485.255 146.09 497.727 140.804 510.169 132.073C510.169 132.073 558.966 97.9269 555.742 89.1084C552.518 80.2898 522.865 98.8307 522.865 98.8307C522.865 98.8307 557.311 70.4416 553.615 61.8062C550.022 53.4091 517.418 80.8846 515.265 82.0987L515.264 82.0991C515.202 82.1344 515.169 82.1524 515.169 82.1524C515.169 82.1524 540.485 59.3548 536.905 51.9331C533.318 44.5144 504.319 67.5353 504.319 67.5353C504.319 67.5353 523.646 49.1643 518.98 41.2681C514.31 33.3644 489.631 60.6514 489.631 60.6514C483.601 65.6662 478.331 69.5547 472.912 72.6894C463.814 77.9531 454.294 81.0914 440.041 83.8682C431.306 85.7445 421.979 85.1673 412.147 82.3612C397.36 78.1437 384.016 70.8596 371.777 61.8062C355.32 49.6314 339.084 37.1164 323.238 24.1546C304.919 9.17236 283.913 1.75292 260.648 0.572668C236.284 -0.661437 213.172 4.59252 191.103 15.0747Z" fill="#5D398E"/>
</svg>
