<svg width="595" height="425" viewBox="0 0 595 425" fill="none" xmlns="http://www.w3.org/2000/svg">
<path d="M388.867 186.439C387.903 200.99 381.333 212.666 368.428 220.225C362.535 223.68 351.26 226.191 340.504 228.587C332.142 230.449 324.095 232.241 319.133 234.353C213.356 279.371 282.911 425.084 385.247 424.411C492.505 423.707 594.527 389.036 594.527 389.036L577.184 322.028L566.572 307.761C566.572 307.761 473.479 340.636 444.529 341.808C441.691 341.923 438.69 342.084 435.582 342.25C406.993 343.781 369.368 345.795 366.192 317.13C363.988 297.24 383.976 288.849 406.831 279.253C420.494 273.517 435.181 267.351 446.766 258.041C456.38 250.315 485.406 225.99 483.154 173.999C481.049 125.376 472.234 112.686 466.649 104.645L466.648 104.644C466.261 104.088 465.89 103.553 465.538 103.031C450.845 81.2477 407.416 61.5946 368.763 59.0743C353.031 58.0464 337.893 60.833 323.028 65.5533C315.408 67.9732 307.812 70.4678 300.216 72.9625L300.209 72.9648C292.772 75.4072 285.335 77.8496 277.874 80.2221C258.492 86.393 240.326 83.9899 223.113 72.8172C207.224 62.5002 174.479 29.5244 154.195 18.3857C133.91 7.24705 96.9591 -3.88202 77.3683 1.3627C57.7774 6.60745 37.5471 28.1304 37.5471 28.1304C25.2819 42.2677 -2.86271 87.5728 0.822024 91.9394C6.95815 99.2113 43.0607 54.9645 43.0607 54.9645C43.0607 54.9645 5.40274 104.194 11.9277 111.123C16.8303 116.336 34.5371 93.6716 43.0607 82.2314C45.5897 78.8369 56.195 65.9342 56.5329 65.5376C56.5329 65.5376 25.5209 108.343 31.515 114.159C37.5092 119.976 70.1708 69.1426 70.1708 69.1426C70.1708 69.1426 42.8793 111.877 50.066 117.771C57.2528 123.665 82.3617 79.0751 84.3745 76.4088C86.3873 73.7425 90.11 68.8446 91.7422 67.3435C88.8901 75.3797 80.3639 95.9344 88.3402 96.8097C94.6445 97.5015 105.007 54.7341 133.546 69.1426C133.546 69.1426 145.594 77.6725 152.67 84.4441C157.799 89.3535 162.852 94.3423 167.905 99.3313L167.908 99.335C173.269 104.628 178.63 109.921 184.082 115.119C201.818 132.025 221.971 144.274 246.945 146.923C259.805 148.29 272.605 148.188 284.897 143.766C299.287 138.589 313.649 133.694 329.075 132.483C342.126 131.461 354.939 131.948 367.235 136.696C378.474 141.042 386.365 148.8 387.869 161.21C388.879 169.545 389.418 178.079 388.867 186.439Z" fill="#876DC7"/>
</svg>
