<svg width="955" height="538" viewBox="0 0 955 538" fill="none" xmlns="http://www.w3.org/2000/svg">
<path d="M763.434 137.435C786.889 132.878 802.557 127.729 817.531 119.092C847.971 58.4917 825.364 76.6449 763.434 137.435Z" fill="#5D398E"/>
<path fill-rule="evenodd" clip-rule="evenodd" d="M353.756 24.553C310.167 45.2046 277.607 76.2601 259.089 121.229C257.93 124.044 256.8 126.73 255.708 129.327L255.701 129.345C245.314 154.039 238.315 170.682 241.229 213.589C242.683 235.008 252.315 251.489 261.702 267.553C273.102 287.059 284.141 305.95 279.74 332.316C264.783 421.913 195.739 414.586 65.3267 400.746C58.2899 399.999 11.0742 392.233 3.67885 391.463L0.0740262 520.208C8.66269 520.439 59.6993 528.533 73.7102 530.732C185.151 548.221 331.218 533.053 384.182 472.562C464.677 380.627 437.24 309.962 418.014 260.444C415.845 254.858 413.781 249.541 411.988 244.494L411.986 244.488L411.984 244.483C407.427 231.976 402.872 219.472 399.105 206.737C392.006 182.722 400.208 164.596 421.585 153.693C453.639 137.338 487.261 133.409 522.219 142.422C550.987 149.831 576.185 164.354 599.967 181.653C603.843 184.472 607.665 187.379 611.488 190.287L611.489 190.288L611.49 190.289C620.053 196.803 628.618 203.318 637.784 208.83C691.147 240.911 724.654 270.878 805.343 248.533C837.843 239.533 858.369 230.859 878.843 216.533C878.843 216.533 959.149 160.503 953.843 146.033C948.537 131.563 899.738 161.986 899.738 161.986C899.738 161.986 956.426 115.403 950.344 101.234C944.43 87.4551 890.774 132.539 887.23 134.531L887.229 134.532C887.126 134.59 887.073 134.619 887.073 134.619C887.073 134.619 928.735 97.2112 922.844 85.0332C916.94 72.8601 869.217 110.635 869.217 110.635C869.217 110.635 901.024 80.49 893.344 67.5332C885.659 54.5642 845.045 99.3389 845.045 99.3389C835.12 107.568 826.448 113.948 817.531 119.092C802.557 127.729 786.889 132.878 763.434 137.435C749.058 140.514 733.71 139.566 717.529 134.962C693.193 128.041 671.233 116.089 651.091 101.234C624.009 81.2564 597.289 60.7208 571.21 39.4521C541.064 14.8681 506.493 2.6937 468.207 0.757036C428.111 -1.26794 390.075 7.35312 353.756 24.553Z" fill="#5D398E"/>
</svg>
