<svg width="978" height="697" viewBox="0 0 978 697" fill="none" xmlns="http://www.w3.org/2000/svg">
<path d="M639.479 306.205C637.893 330.082 627.08 349.241 605.843 361.644C596.145 367.313 577.589 371.434 559.888 375.364C546.127 378.42 532.883 381.361 524.719 384.826C350.641 458.695 465.107 697.792 633.522 696.689C810.037 695.532 977.935 638.642 977.935 638.642L949.393 528.69L931.93 505.28C931.93 505.28 778.725 559.224 731.083 561.147C726.412 561.336 721.473 561.599 716.359 561.872C669.309 564.384 607.39 567.689 602.163 520.654C598.536 488.016 631.43 474.247 669.044 458.502C691.528 449.09 715.699 438.972 734.764 423.696C750.586 411.018 798.354 371.104 794.649 285.793C791.183 206.008 776.677 185.186 767.485 171.992L767.484 171.99C766.848 171.077 766.237 170.2 765.657 169.343C741.478 133.599 670.005 101.351 606.395 97.2154C580.505 95.5287 555.592 100.101 531.129 107.847C518.588 111.817 506.087 115.911 493.586 120.004L493.575 120.008C481.336 124.016 469.097 128.023 456.819 131.916C424.92 142.042 395.026 138.099 366.698 119.766C340.549 102.837 286.66 48.7277 253.279 30.4505C219.897 12.1732 159.086 -6.08821 126.845 2.51777C94.6045 11.1237 61.3114 46.4403 61.3114 46.4403C41.1265 69.6379 -5.19114 143.978 0.872795 151.143C10.971 163.075 70.3851 90.4717 70.3851 90.4717C70.3851 90.4717 8.41131 171.25 19.1494 182.621C27.2177 191.175 56.3579 153.985 70.3851 135.213C74.5471 129.643 92.0004 108.472 92.5563 107.821C92.5563 107.821 41.5197 178.059 51.3844 187.603C61.249 197.147 115 113.736 115 113.736C115 113.736 70.0865 183.858 81.9138 193.529C93.7411 203.201 135.063 130.034 138.375 125.659C141.688 121.284 147.814 113.247 150.5 110.784C145.807 123.97 131.775 157.698 144.902 159.135C155.277 160.27 172.331 90.0936 219.297 113.736C219.297 113.736 239.124 127.733 250.77 138.844C259.211 146.9 267.526 155.086 275.841 163.272L275.847 163.278C284.669 171.963 293.491 180.648 302.464 189.178C331.652 216.919 364.818 237.017 405.917 241.364C427.082 243.607 448.147 243.44 468.376 236.185C492.057 227.689 515.693 219.658 541.079 217.671C562.557 215.993 583.644 216.791 603.881 224.584C622.376 231.714 635.363 244.444 637.837 264.808C639.499 278.485 640.386 292.488 639.479 306.205Z" fill="#876DC7"/>
</svg>
