<?xml version="1.0" encoding="utf-8"?>
<!-- Generator: Adobe Illustrator 28.1.0, SVG Export Plug-In . SVG Version: 6.00 Build 0)  -->
<svg version="1.1" id="_лой_1" xmlns="http://www.w3.org/2000/svg" xmlns:xlink="http://www.w3.org/1999/xlink" x="0px" y="0px"
	 viewBox="0 0 40 40" style="enable-background:new 0 0 40 40;" xml:space="preserve">
<style type="text/css">
	.st0{fill:#C8B4D7;}
	.st1{fill:#5D388D;}
	.st2{fill:none;stroke:#5D388D;stroke-width:0.6628;stroke-miterlimit:10;}
</style>
<path class="st0" d="M20,0L20,0c11,0,20,8.9,20,20l0,0c0,11-9,20-20,20l0,0C8.9,40,0,31,0,20l0,0C0,8.9,8.9,0,20,0z"/>
<g>
	<polygon class="st1" points="31.2,32.8 9.2,32.8 6.5,16.7 33.9,16.7 	"/>
	<polygon class="st1" points="34.4,19.6 5.5,19.6 5,15.8 34.9,15.8 	"/>
	<path class="st0" d="M25.2,23.9c0-0.1-0.1-0.3-0.3-0.3l-3,0c-0.1,0-0.2,0-0.2-0.1c-0.1-0.1-0.1-0.1-0.1-0.2l0-3.1
		c0-0.1-0.1-0.2-0.2-0.2l-2.8,0c-0.1,0-0.2,0.1-0.2,0.2l0,3c0,0.1,0,0.2-0.1,0.2c-0.1,0.1-0.1,0.1-0.2,0.1l-1.2,0l-0.2,0h-0.2
		l-1.5,0h0c-0.1,0-0.2,0.1-0.2,0.2l0,2.7v0c0,0.1,0.1,0.2,0.2,0.2h0l3,0h0c0.1,0,0.2,0,0.2,0.1c0.1,0.1,0.1,0.1,0.1,0.2l0,1.6V29
		l0,0.2l0,1.1c0,0.1,0.1,0.2,0.2,0.2l2.7,0c0.1,0,0.3-0.1,0.3-0.3l0-3c0-0.2,0.1-0.3,0.3-0.3l3,0c0.1,0,0.3-0.1,0.3-0.3L25.2,23.9z"
		/>
	<path class="st2" d="M31.3,20.1H8.7l1.3-9.3c0.2-1.7,1.6-2.9,3.3-2.9h13.4c1.7,0,3.1,1.2,3.3,2.9L31.3,20.1z"/>
	<path class="st1" d="M27.9,8.7H12.1C12,8.7,12,8.6,12,8.5V7.3c0-0.1,0.1-0.1,0.1-0.1h15.7c0.1,0,0.1,0.1,0.1,0.1v1.2
		C28,8.6,27.9,8.7,27.9,8.7z"/>
</g>
</svg>
