<svg width="200" height="121" viewBox="0 0 200 121" fill="none" xmlns="http://www.w3.org/2000/svg">
<rect x="8.38379" y="21.1849" width="192.687" height="79.6228" rx="23.8868" transform="rotate(6.0442 8.38379 21.1849)" fill="#5D398E"/>
<path d="M72.9653 68.3935C71.9492 77.9904 63.346 84.9461 53.7491 83.9299C44.1522 82.9138 37.1965 74.3106 38.2126 64.7137C39.2288 55.1168 47.8317 48.1635 57.4286 49.1797C67.0255 50.1959 73.9812 58.799 72.9651 68.3959" fill="white"/>
<path d="M80.2072 66.735L81.3487 55.9541C81.3977 55.4909 81.655 55.283 82.1182 55.332L92.0303 56.3815C92.4935 56.4306 92.7015 56.6878 92.6524 57.151L91.5109 67.9319C91.4619 68.3951 91.2046 68.6031 90.7414 68.554L88.7594 68.3442C88.2962 68.2951 88.0882 68.0379 88.1373 67.5747L88.999 59.4358C89.0237 59.2032 88.9206 59.0757 88.688 59.0511L84.8273 58.6423C84.5947 58.6177 84.4672 58.7208 84.4426 58.9534L83.581 67.0902C83.532 67.5534 83.2747 67.7614 82.8115 67.7124L80.8295 67.5025C80.3663 67.4534 80.1583 67.1962 80.2074 66.733L80.2072 66.735Z" fill="white"/>
<path d="M93.2001 68.9191C92.8032 68.7946 92.6465 68.5087 92.7281 68.061L92.9948 66.7001C93.0288 66.4926 93.0854 66.3378 93.1666 66.2358C93.2478 66.1339 93.3352 66.0868 93.4266 66.0965C93.4962 66.1039 93.5651 66.1172 93.6335 66.1365C93.7018 66.1558 93.7707 66.1691 93.8403 66.1765C94.0828 66.2022 94.2857 66.0709 94.4447 65.7842C94.6039 65.4955 94.7479 64.99 94.8789 64.2661C95.0078 63.542 95.1479 62.4653 95.2989 61.0399L95.3081 60.9524C95.3572 60.4892 95.6144 60.2812 96.0776 60.3303L102.737 61.0354C103.201 61.0845 103.409 61.3417 103.36 61.8049L102.586 69.1088C102.537 69.572 102.28 69.78 101.817 69.7309L100.147 69.5541C99.6835 69.5051 99.4756 69.2478 99.5246 68.7846L100.064 63.6894C100.089 63.4568 99.9857 63.3293 99.7531 63.3047L98.0832 63.1279L98.0813 63.1458C97.8724 64.7761 97.6087 66.0327 97.2863 66.9133C96.9639 67.7938 96.5403 68.3963 96.0134 68.7204C95.4864 69.0466 94.7946 69.1623 93.9358 69.0714C93.6575 69.0419 93.4115 68.9917 93.1957 68.9226L93.2001 68.9191Z" fill="white"/>
<path d="M110.335 70.0033C109.568 69.3893 109.075 68.6134 108.859 67.6759C108.81 67.4717 108.693 67.3588 108.508 67.3392L108.142 67.3005C107.91 67.2759 107.782 67.379 107.758 67.6116L107.544 69.6294C107.495 70.0926 107.238 70.3006 106.775 70.2515L105.089 70.073C104.626 70.024 104.418 69.7667 104.467 69.3035L105.24 61.9996C105.289 61.5364 105.546 61.3285 106.01 61.3775L107.695 61.556C108.159 61.6051 108.367 61.8623 108.317 62.3255L108.104 64.3433C108.079 64.5759 108.182 64.7034 108.415 64.728L108.781 64.7668C108.966 64.7864 109.103 64.7024 109.194 64.511C109.614 63.6408 110.26 62.9855 111.135 62.5454C112.008 62.1051 112.996 61.9424 114.097 62.059C115.047 62.1596 115.876 62.4383 116.584 62.8932C117.291 63.3501 117.817 63.9445 118.162 64.6786C118.506 65.4126 118.632 66.22 118.539 67.1007C118.445 67.9813 118.152 68.7443 117.655 69.3893C117.159 70.0343 116.518 70.5052 115.73 70.8037C114.943 71.1023 114.08 71.1999 113.14 71.1004C112.038 70.9838 111.104 70.6175 110.337 70.0035L110.335 70.0033ZM112.136 67.8561C112.429 68.2449 112.854 68.4688 113.41 68.5277C113.967 68.5866 114.447 68.4585 114.814 68.1396C115.182 67.8207 115.397 67.367 115.459 66.7746C115.522 66.1822 115.407 65.6935 115.114 65.3047C114.822 64.9159 114.391 64.6914 113.823 64.6312C113.254 64.571 112.804 64.7023 112.437 65.0212C112.069 65.3401 111.854 65.7938 111.791 66.3862C111.729 66.9786 111.844 67.4673 112.136 67.8561Z" fill="white"/>
<path d="M121.353 71.381C120.664 70.9161 120.158 70.3198 119.837 69.5942C119.516 68.8687 119.402 68.0705 119.493 67.2018C119.585 66.333 119.886 65.5446 120.388 64.9042C120.89 64.2658 121.537 63.7976 122.33 63.5016C123.123 63.2057 123.994 63.1069 124.946 63.2077C125.757 63.2936 126.471 63.516 127.091 63.8751C127.71 64.2341 128.193 64.7014 128.543 65.2772C128.631 65.4273 128.671 65.5661 128.657 65.6934C128.635 65.9021 128.477 66.0663 128.183 66.1879L126.755 66.7223C126.632 66.7796 126.512 66.801 126.396 66.7888C126.199 66.768 126.014 66.6378 125.841 66.3963C125.527 66.0354 125.121 65.8275 124.622 65.7747C124.077 65.717 123.615 65.849 123.235 66.1726C122.855 66.4963 122.634 66.9473 122.573 67.5278C122.511 68.1083 122.641 68.5964 122.963 68.9924C123.284 69.3903 123.711 69.6164 124.243 69.6728C124.776 69.7292 125.277 69.5952 125.712 69.2654C125.943 69.0787 126.151 68.9962 126.335 69.0158C126.463 69.0293 126.58 69.0759 126.69 69.1579L127.871 69.9684C128.144 70.1622 128.269 70.3624 128.247 70.5711C128.237 70.6646 128.193 70.7584 128.113 70.8564C127.635 71.3808 127.025 71.7645 126.286 72.0079C125.545 72.251 124.734 72.3261 123.854 72.2328C122.88 72.1297 122.049 71.8467 121.359 71.3796L121.353 71.381Z" fill="white"/>
<path d="M78.4689 82.1478L79.2422 74.8439C79.2913 74.3807 79.5485 74.1727 80.0117 74.2218L81.6975 74.4003C82.1607 74.4493 82.3687 74.7066 82.3197 75.1698L82.106 77.1876C82.0814 77.4202 82.1845 77.5477 82.4171 77.5723L84.5045 77.7933C84.7351 77.8177 84.8646 77.7149 84.8892 77.4823L85.1028 75.4644C85.1519 75.0012 85.4071 74.7931 85.8723 74.8423L87.5422 75.0191C88.0054 75.0682 88.2134 75.3254 88.1644 75.7886L87.391 83.0925C87.3419 83.5557 87.0847 83.7637 86.6215 83.7146L84.9516 83.5378C84.4884 83.4888 84.2804 83.2315 84.3295 82.7683L84.5431 80.7505C84.5678 80.5179 84.4647 80.3904 84.2321 80.3658L82.1447 80.1448C81.9121 80.1201 81.7846 80.2232 81.7599 80.4558L81.5463 82.4736C81.4972 82.9368 81.24 83.1448 80.7768 83.0958L79.091 82.9173C78.6278 82.8682 78.4198 82.611 78.4689 82.1478Z" fill="white"/>
<path d="M89.4955 83.4477C89.003 82.897 88.802 82.1943 88.8929 81.3354C88.9839 80.4766 89.375 79.8587 90.068 79.4456C90.7631 79.0327 91.6712 78.8856 92.7964 79.0047L94.8301 79.2201C95.0627 79.2447 95.1867 79.1754 95.2037 79.0144C95.2284 78.7818 95.0975 78.5749 94.8133 78.3921C94.5271 78.209 94.1415 78.0918 93.6544 78.0402C93.0282 77.9739 92.4688 78.0554 91.9761 78.2846C91.7671 78.3791 91.592 78.4189 91.4528 78.4041C91.2898 78.3869 91.1427 78.2949 91.0076 78.1278L90.279 77.2063C90.1332 77.0261 90.0714 76.8506 90.0899 76.6757C90.1084 76.5008 90.2123 76.355 90.4 76.2341C90.8637 75.9555 91.4241 75.7515 92.0833 75.6203C92.7423 75.4911 93.4128 75.4615 94.0967 75.534C95.5221 75.6849 96.5733 76.1038 97.2524 76.7908C97.9295 77.4777 98.2131 78.35 98.1015 79.4036L97.597 84.1688C97.5479 84.632 97.2907 84.84 96.8275 84.791L95.2967 84.6289C95.0761 84.6055 94.9091 84.5496 94.7958 84.4613C94.6826 84.3729 94.6317 84.265 94.6452 84.1377C94.6599 83.9986 94.6156 83.9235 94.5102 83.9124C94.4406 83.905 94.3745 83.9221 94.312 83.9617C93.5408 84.3726 92.6642 84.525 91.6782 84.4206C90.6921 84.3162 89.9886 83.9925 89.4961 83.4418L89.4955 83.4477ZM92.137 82.0046C92.3163 82.1342 92.5907 82.2195 92.9625 82.2589C93.5072 82.3165 93.9605 82.25 94.3205 82.0589C94.6805 81.8678 94.8975 81.5833 94.9737 81.2053L94.5761 81.1451L92.9598 80.974C92.2998 80.9041 91.9457 81.0777 91.9015 81.4952C91.8794 81.7039 91.958 81.8731 92.137 82.0046Z" fill="white"/>
<path d="M102.542 85.2764C102.448 85.184 102.405 85.0689 102.42 84.9298C102.432 84.8145 102.482 84.691 102.564 84.559L104.737 81.4661C104.791 81.3894 104.824 81.3105 104.832 81.2309C104.841 81.1514 104.826 81.0654 104.788 80.981L103.324 77.5371C103.269 77.3906 103.248 77.2598 103.261 77.1445C103.275 77.0053 103.343 76.9019 103.461 76.8319C103.579 76.762 103.732 76.738 103.917 76.7576L105.726 76.9492C106.098 76.9885 106.353 77.1804 106.491 77.5227L107.495 80.0032C107.571 80.1761 107.702 80.2723 107.887 80.2919L108.286 80.3342C108.519 80.3588 108.646 80.2558 108.671 80.0232L108.886 77.9894C108.935 77.5262 109.193 77.3183 109.656 77.3673L111.326 77.5441C111.789 77.5932 111.997 77.8504 111.948 78.3136L111.733 80.3473C111.708 80.5799 111.811 80.7074 112.044 80.7321L112.461 80.7763C112.658 80.7971 112.806 80.7303 112.904 80.5759L114.439 78.3643C114.647 78.0586 114.936 77.9244 115.308 77.9638L117.047 78.148C117.232 78.1675 117.373 78.2246 117.47 78.3153C117.565 78.4078 117.607 78.5228 117.592 78.662C117.58 78.7773 117.533 78.9009 117.448 79.0327L115.362 81.9759C115.307 82.0526 115.273 82.1435 115.262 82.2469C115.255 82.3165 115.266 82.3879 115.292 82.4611L116.774 86.0637C116.829 86.2102 116.849 86.341 116.837 86.4563C116.822 86.5955 116.759 86.7013 116.645 86.7697C116.533 86.8402 116.384 86.8646 116.197 86.8448L114.267 86.6405C113.895 86.6011 113.64 86.4053 113.503 86.049L112.533 83.5902C112.469 83.4186 112.344 83.323 112.159 83.3034L111.778 83.263C111.545 83.2384 111.418 83.3415 111.393 83.574L111.178 85.6078C111.129 86.071 110.871 86.2789 110.408 86.2299L108.738 86.0531C108.275 86.004 108.067 85.7468 108.116 85.2836L108.331 83.2499C108.356 83.0193 108.253 82.8898 108.02 82.8651L107.603 82.8209C107.418 82.8014 107.27 82.8681 107.159 83.0213L105.658 85.2365C105.451 85.5422 105.16 85.6762 104.79 85.637L102.965 85.4438C102.78 85.4242 102.639 85.3691 102.542 85.2764Z" fill="white"/>
<path d="M117.974 86.3307L118.748 79.0268C118.797 78.5636 119.054 78.3557 119.517 78.4047L121.169 78.5796C121.632 78.6287 121.84 78.8859 121.791 79.3491L121.5 82.0965C121.49 82.1899 121.5 82.2674 121.528 82.3286C121.556 82.3898 121.6 82.4247 121.658 82.4308C121.739 82.4394 121.821 82.3898 121.903 82.2819L124.548 79.3797C124.788 79.1115 125.087 78.9965 125.447 79.0346L127.117 79.2114C127.58 79.2605 127.788 79.5177 127.739 79.9809L126.966 87.2848C126.917 87.748 126.659 87.9559 126.196 87.9069L124.58 87.7358C124.117 87.6867 123.909 87.4295 123.958 86.9663L124.254 84.1672C124.275 83.9704 124.228 83.8649 124.111 83.8525C124.041 83.8451 123.954 83.8882 123.852 83.9838L121.165 86.9339C120.926 87.2021 120.626 87.3171 120.266 87.279L118.596 87.1022C118.133 87.0531 117.925 86.7959 117.974 86.3327L117.974 86.3307Z" fill="white"/>
<path d="M130.84 87.6926L131.376 82.6332C131.4 82.4026 131.297 82.2731 131.065 82.2484L129.186 82.0495C128.723 82.0005 128.515 81.7452 128.564 81.2801L128.691 80.0813C128.74 79.6181 128.997 79.4101 129.46 79.4592L137.007 80.2582C137.47 80.3073 137.678 80.5645 137.629 81.0277L137.502 82.2265C137.453 82.6897 137.196 82.8976 136.733 82.8486L134.838 82.648C134.605 82.6233 134.478 82.7264 134.453 82.959L133.918 88.0185C133.869 88.4817 133.611 88.6896 133.148 88.6406L131.462 88.4621C130.999 88.4131 130.791 88.1558 130.84 87.6926Z" fill="white"/>
<path d="M140.142 88.6775L140.678 83.6181C140.703 83.3875 140.6 83.258 140.367 83.2333L138.488 83.0344C138.025 82.9854 137.817 82.7301 137.866 82.2649L137.993 81.0662C138.042 80.603 138.299 80.395 138.763 80.4441L146.309 81.2431C146.772 81.2922 146.98 81.5494 146.931 82.0126L146.804 83.2113C146.755 83.6745 146.498 83.8825 146.035 83.8335L144.14 83.6329C143.908 83.6082 143.78 83.7113 143.756 83.9439L143.22 89.0034C143.171 89.4666 142.914 89.6745 142.45 89.6255L140.765 89.447C140.301 89.3979 140.093 89.1407 140.142 88.6775Z" fill="white"/>
<path d="M148.556 87.0897C148.567 86.9863 148.519 86.8868 148.413 86.7931C148.06 86.4743 147.802 86.1052 147.642 85.6822C147.481 85.2611 147.426 84.813 147.476 84.3379C147.572 83.4334 147.998 82.7547 148.755 82.3022C149.513 81.8497 150.493 81.6861 151.7 81.8139L155.7 82.2374C156.163 82.2865 156.371 82.5437 156.322 83.0069L155.548 90.3108C155.499 90.774 155.242 90.9819 154.779 90.9329L153.145 90.7599C152.682 90.7108 152.474 90.4536 152.523 89.9904L152.688 88.4259C152.713 88.1933 152.61 88.0657 152.377 88.0411L151.89 87.9895C151.715 87.971 151.57 88.032 151.449 88.172L149.922 89.9623C149.694 90.2437 149.4 90.3633 149.04 90.3252L147.145 90.1246C146.96 90.105 146.815 90.0495 146.715 89.9564C146.612 89.8631 146.569 89.754 146.583 89.6268C146.596 89.4996 146.663 89.3659 146.784 89.2259L148.466 87.2933C148.518 87.2405 148.549 87.1734 148.558 87.0919L148.556 87.0897ZM151.571 85.6862L152.615 85.7967C152.848 85.8213 152.975 85.7182 153 85.4856L153.086 84.6685C153.111 84.4359 153.008 84.3084 152.775 84.2838L151.732 84.1733C151.372 84.1352 151.093 84.17 150.894 84.2776C150.696 84.3853 150.583 84.5603 150.557 84.8048C150.503 85.3157 150.842 85.6089 151.571 85.6862Z" fill="white"/>
<path d="M64.0981 78.7228L45.0237 76.7031L44.1323 62.4693L67.9505 64.9913L64.0981 78.7228Z" fill="#5D398E"/>
<path d="M68.1251 67.5333L43.0638 64.8797L42.9814 61.5498L68.903 64.2945L68.1251 67.5333Z" fill="#5D398E"/>
<path d="M59.7229 70.4394C59.7364 70.3126 59.6452 70.1998 59.5159 70.1861L56.8954 69.9087C56.8181 69.903 56.7494 69.863 56.7025 69.8078C56.6558 69.7501 56.6333 69.6773 56.6415 69.6002L56.9232 66.9399C56.9317 66.8352 56.8562 66.7418 56.7517 66.7307L54.3525 66.4767C54.2404 66.4673 54.1414 66.5473 54.1295 66.6592L53.8492 69.3071C53.8438 69.3819 53.8063 69.4509 53.7483 69.5C53.6881 69.5464 53.6153 69.5689 53.5382 69.5607L50.9003 69.2814C50.7832 69.2715 50.6812 69.3563 50.6688 69.4731L50.418 71.8425C50.4056 71.9594 50.4925 72.0641 50.6094 72.0765L53.2473 72.3558C53.3219 72.3637 53.3911 72.3987 53.4378 72.4564C53.4869 72.5144 53.5067 72.5894 53.4988 72.664L53.2168 75.3268C53.2082 75.4315 53.2841 75.5225 53.386 75.5333L55.7703 75.7857C55.8922 75.7986 55.9999 75.7069 56.0126 75.5876L56.2908 72.9596C56.3049 72.8028 56.4451 72.6894 56.6018 72.706L59.2272 72.984C59.3493 72.9944 59.4618 72.9057 59.4725 72.7811L59.7199 70.4441L59.7229 70.4394Z" fill="white"/>
<path d="M65.5406 67.8153L45.5811 65.7019L47.6071 57.5369C47.9752 56.0548 49.3956 55.0588 50.9147 55.2196L62.523 56.4487C64.0396 56.6093 65.2223 57.881 65.2719 59.4073L65.5431 67.8156L65.5406 67.8153ZM45.9692 65.4312L65.2202 67.4696L64.9616 59.4172C64.9183 58.0449 63.8553 56.9016 62.4903 56.757L50.882 55.5279C49.5171 55.3834 48.2406 56.279 47.9085 57.6115L45.9692 65.4312Z" fill="#5D398E"/>
<path d="M63.0709 56.0795L50.4532 54.7435C50.0907 54.7051 49.7658 54.9679 49.7274 55.3304L49.7271 55.3329C49.6887 55.6954 49.9515 56.0204 50.314 56.0587L62.9317 57.3948C63.2942 57.4331 63.6192 57.1704 63.6575 56.8079L63.6578 56.8054C63.6962 56.4429 63.4334 56.1179 63.0709 56.0795Z" fill="#5D398E"/>
<g clip-path="url(#clip0_1645_1006)">
<g clip-path="url(#clip1_1645_1006)">
<path d="M159.701 7.59658C175.586 5.78952 190.045 17.1634 191.869 33.1929C193.676 49.0779 182.157 63.5533 166.272 65.3603C150.243 67.1838 135.912 55.649 134.105 39.764C132.281 23.7346 143.672 9.42007 159.701 7.59658Z" fill="#C8B4D7"/>
<path d="M181.263 53.123L149.493 56.7371L142.949 33.9308L182.517 29.4295L181.263 53.123Z" fill="#5D388D"/>
<path d="M183.716 33.5352L141.982 38.2829L140.635 32.8775L183.814 27.9655L183.716 33.5352Z" fill="#5D388D"/>
<path d="M171.136 41.2562C171.119 41.1118 170.942 40.8394 170.653 40.8722L166.321 41.3651C166.177 41.3815 166.032 41.3979 166.016 41.2535C165.855 41.1255 165.855 41.1255 165.839 40.9811L165.329 36.5044C165.313 36.36 165.152 36.232 165.008 36.2485L160.964 36.7085C160.82 36.7249 160.692 36.8857 160.708 37.0301L161.201 41.3624C161.217 41.5068 161.234 41.6512 161.089 41.6677C160.961 41.8285 160.961 41.8285 160.817 41.8449L159.084 42.0421L158.795 42.0749L158.506 42.1078L156.34 42.3542C156.196 42.3706 156.068 42.5314 156.084 42.6759L156.528 46.5749C156.544 46.7193 156.705 46.8473 156.85 46.8309L161.182 46.338C161.326 46.3216 161.471 46.3052 161.487 46.4496C161.648 46.5776 161.648 46.5776 161.664 46.722L161.927 49.0325L162.009 49.7546L162.042 50.0434L162.223 51.6319C162.239 51.7763 162.4 51.9043 162.545 51.8879L166.444 51.4443C166.588 51.4279 166.86 51.2506 166.828 50.9618L166.335 46.6295C166.302 46.3407 166.43 46.1799 166.719 46.147L171.051 45.6542C171.195 45.6377 171.468 45.4605 171.435 45.1717L171.136 41.2562Z" fill="#C8B4D7"/>
<path d="M179.32 34.7666L146.684 38.4793L147.033 24.8356C147.043 22.3478 148.868 20.3849 151.323 20.1057L170.673 17.9043C173.128 17.6251 175.347 19.128 175.915 21.5501L179.32 34.7666Z" stroke="#5D388D" stroke-width="0.727033" stroke-miterlimit="10"/>
<path d="M172.539 18.8624L149.722 21.458C149.578 21.4745 149.562 21.3301 149.545 21.1857L149.348 19.4527C149.332 19.3083 149.476 19.2919 149.476 19.2919L172.148 16.7127C172.293 16.6963 172.309 16.8407 172.309 16.8407L172.506 18.5736C172.667 18.7016 172.539 18.8624 172.539 18.8624Z" fill="#5D388D"/>
</g>
</g>
<defs>
<clipPath id="clip0_1645_1006">
<rect x="125.971" y="7.93556" width="67.098" height="65.0931" rx="19.5279" transform="rotate(-6.49477 125.971 7.93556)" fill="white"/>
</clipPath>
<clipPath id="clip1_1645_1006">
<rect width="58.1363" height="58.1363" fill="white" transform="translate(130.819 10.8821) rotate(-6.49)"/>
</clipPath>
</defs>
</svg>
