<svg width="304" height="164" viewBox="0 0 304 164" fill="none" xmlns="http://www.w3.org/2000/svg">
<path d="M-13 59.5253C3.68979 43.7139 25.8997 32.0505 47.8889 25.5253C70.7143 18.7519 94.7843 14.9458 118.611 15.6364C130.341 15.9764 153.109 16.941 156.111 31.6364C162.679 63.7827 148.414 91.5673 126 113.359C117.513 121.609 106.483 129.945 94.1111 130.081C82.3469 130.21 67.9862 125.313 60.4444 115.748C56.1472 110.297 62.9921 101.698 66.1111 97.5809C71.8697 89.9795 78.3181 84.6516 87.5556 81.9697C113.184 74.5291 140.452 81.4669 163.667 92.4697C183.642 101.937 202.351 113.11 221.222 124.525C233.109 131.716 244.297 142.175 257.556 146.692C279.114 154.036 292.788 142.737 307 128.525" stroke="white" stroke-opacity="0.06" stroke-width="30" stroke-linecap="round"/>
</svg>
