<svg width="350" height="164" viewBox="0 0 350 164" fill="none" xmlns="http://www.w3.org/2000/svg">
<path d="M15 59.5253C31.6898 43.7139 53.8997 32.0505 75.8889 25.5253C98.7143 18.7519 122.784 14.9458 146.611 15.6364C158.341 15.9764 181.109 16.941 184.111 31.6364C190.679 63.7827 176.414 91.5673 154 113.359C145.513 121.609 134.483 129.945 122.111 130.081C110.347 130.21 95.9862 125.313 88.4444 115.748C84.1472 110.297 90.9921 101.698 94.1111 97.5809C99.8697 89.9795 106.318 84.6516 115.556 81.9697C141.184 74.5291 168.452 81.4669 191.667 92.4697C211.642 101.937 230.351 113.11 249.222 124.525C261.109 131.716 272.297 142.175 285.556 146.692C307.114 154.036 320.788 142.737 335 128.525" stroke="white" stroke-opacity="0.06" stroke-width="30" stroke-linecap="round"/>
</svg>
