<svg width="252" height="152" viewBox="0 0 252 152" fill="none" xmlns="http://www.w3.org/2000/svg">
<rect x="10.5293" y="26.7236" width="242" height="100" rx="30" transform="rotate(6.0442 10.5293 26.7236)" fill="#5D398E"/>
<path d="M91.6388 86.0139C90.3626 98.0668 79.5576 106.803 67.5047 105.526C55.4517 104.25 46.7159 93.4453 47.9921 81.3924C49.2683 69.3394 60.0729 60.6067 72.1258 61.8829C84.1788 63.1591 92.9147 73.964 91.6385 86.017" fill="white"/>
<path d="M100.735 83.931L102.168 70.3911C102.23 69.8093 102.553 69.5481 103.135 69.6097L115.584 70.9279C116.165 70.9895 116.427 71.3125 116.365 71.8943L114.931 85.4342C114.87 86.016 114.547 86.2772 113.965 86.2156L111.476 85.952C110.894 85.8904 110.633 85.5673 110.694 84.9856L111.777 74.7638C111.808 74.4717 111.678 74.3116 111.386 74.2806L106.537 73.7672C106.245 73.7363 106.085 73.8658 106.054 74.1579L104.972 84.3772C104.91 84.9589 104.587 85.2201 104.006 85.1585L101.516 84.8949C100.935 84.8333 100.673 84.5103 100.735 83.9285L100.735 83.931Z" fill="white"/>
<path d="M117.053 86.6741C116.555 86.5178 116.358 86.1587 116.461 85.5964L116.796 83.8873C116.838 83.6267 116.909 83.4322 117.011 83.3042C117.113 83.1761 117.223 83.117 117.338 83.1292C117.425 83.1384 117.512 83.1552 117.598 83.1794C117.684 83.2037 117.77 83.2204 117.858 83.2296C118.162 83.2619 118.417 83.097 118.617 82.7369C118.817 82.3743 118.997 81.7396 119.162 80.8304C119.324 79.9209 119.5 78.5686 119.689 76.7785L119.701 76.6686C119.763 76.0868 120.086 75.8257 120.667 75.8873L129.032 76.7729C129.613 76.8345 129.874 77.1575 129.813 77.7393L128.842 86.9124C128.78 87.4941 128.457 87.7553 127.875 87.6937L125.778 87.4717C125.196 87.4101 124.935 87.087 124.997 86.5053L125.674 80.1061C125.705 79.8139 125.576 79.6538 125.283 79.6229L123.186 79.4008L123.184 79.4233C122.922 81.4708 122.59 83.0491 122.185 84.155C121.781 85.2609 121.248 86.0175 120.587 86.4246C119.925 86.8342 119.056 86.9796 117.977 86.8654C117.628 86.8284 117.319 86.7654 117.048 86.6786L117.053 86.6741Z" fill="white"/>
<path d="M138.572 88.0357C137.609 87.2647 136.99 86.2902 136.718 85.1127C136.657 84.8562 136.51 84.7145 136.278 84.6899L135.819 84.6413C135.527 84.6103 135.367 84.7398 135.336 85.0319L135.067 87.5661C135.006 88.1479 134.683 88.4091 134.101 88.3475L131.984 88.1233C131.402 88.0617 131.141 87.7386 131.202 87.1569L132.174 77.9838C132.235 77.402 132.558 77.1408 133.14 77.2024L135.257 77.4266C135.839 77.4882 136.1 77.8113 136.039 78.393L135.77 80.9272C135.739 81.2194 135.869 81.3795 136.161 81.4104L136.62 81.4591C136.852 81.4837 137.025 81.3783 137.139 81.1378C137.666 80.0449 138.478 79.2219 139.577 78.6692C140.673 78.1162 141.914 77.9118 143.297 78.0583C144.491 78.1847 145.532 78.5347 146.421 79.106C147.309 79.6798 147.97 80.4264 148.402 81.3483C148.835 82.2702 148.993 83.2842 148.876 84.3903C148.759 85.4963 148.389 86.4545 147.766 87.2646C147.142 88.0747 146.337 88.6661 145.348 89.041C144.359 89.416 143.276 89.5386 142.095 89.4136C140.712 89.2671 139.538 88.8071 138.575 88.036L138.572 88.0357ZM140.835 85.339C141.202 85.8273 141.735 86.1085 142.435 86.1825C143.134 86.2565 143.736 86.0957 144.198 85.6951C144.659 85.2946 144.929 84.7248 145.008 83.9807C145.087 83.2367 144.942 82.623 144.575 82.1347C144.208 81.6464 143.667 81.3645 142.953 81.2888C142.239 81.2132 141.673 81.3781 141.212 81.7786C140.75 82.1792 140.48 82.749 140.402 83.493C140.323 84.237 140.467 84.8507 140.835 85.339Z" fill="white"/>
<path d="M152.409 89.766C151.545 89.1821 150.909 88.4331 150.506 87.5219C150.103 86.6107 149.959 85.6083 150.074 84.5172C150.19 83.4261 150.567 82.436 151.198 81.6317C151.828 80.8299 152.64 80.2418 153.637 79.8701C154.633 79.4984 155.726 79.3744 156.922 79.501C157.941 79.6088 158.838 79.8881 159.616 80.3391C160.394 80.7901 161.001 81.377 161.439 82.1C161.551 82.2886 161.6 82.463 161.583 82.6228C161.556 82.8849 161.357 83.0911 160.987 83.2439L159.194 83.915C159.04 83.987 158.889 84.0139 158.744 83.9985C158.497 83.9724 158.264 83.8089 158.046 83.5056C157.652 83.0523 157.142 82.7913 156.515 82.7249C155.831 82.6525 155.251 82.8182 154.773 83.2247C154.296 83.6311 154.019 84.1976 153.942 84.9267C153.865 85.6557 154.027 86.2688 154.431 86.766C154.835 87.2658 155.371 87.5497 156.04 87.6206C156.709 87.6914 157.338 87.5232 157.884 87.1089C158.174 86.8745 158.435 86.7709 158.667 86.7955C158.827 86.8124 158.975 86.8709 159.113 86.9739L160.596 87.9919C160.939 88.2352 161.096 88.4867 161.068 88.7489C161.056 88.8662 161.001 88.9841 160.899 89.1071C160.299 89.7657 159.534 90.2477 158.605 90.5533C157.674 90.8587 156.657 90.9529 155.551 90.8358C154.327 90.7063 153.284 90.3509 152.417 89.7643L152.409 89.766Z" fill="white"/>
<path d="M98.5512 103.288L99.5225 94.1153C99.5841 93.5335 99.9071 93.2723 100.489 93.3339L102.606 93.5581C103.188 93.6197 103.449 93.9428 103.387 94.5245L103.119 97.0587C103.088 97.3508 103.218 97.511 103.51 97.5419L106.131 97.8195C106.421 97.8502 106.584 97.721 106.615 97.4288L106.883 94.8946C106.945 94.3129 107.265 94.0514 107.849 94.1133L109.947 94.3353C110.528 94.3969 110.79 94.72 110.728 95.3017L109.757 104.475C109.695 105.057 109.372 105.318 108.79 105.256L106.693 105.034C106.111 104.973 105.85 104.649 105.912 104.068L106.18 101.534C106.211 101.241 106.081 101.081 105.789 101.05L103.168 100.773C102.876 100.742 102.715 100.871 102.684 101.163L102.416 103.698C102.355 104.279 102.032 104.541 101.45 104.479L99.3325 104.255C98.7508 104.193 98.4896 103.87 98.5512 103.288Z" fill="white"/>
<path d="M112.4 104.921C111.782 104.229 111.529 103.347 111.643 102.268C111.758 101.19 112.249 100.413 113.119 99.8946C113.992 99.376 115.133 99.1913 116.546 99.3409L119.1 99.6114C119.392 99.6423 119.548 99.5553 119.569 99.353C119.6 99.0609 119.436 98.8011 119.079 98.5715C118.719 98.3415 118.235 98.1943 117.623 98.1295C116.837 98.0463 116.134 98.1486 115.516 98.4365C115.253 98.5552 115.033 98.6051 114.858 98.5866C114.654 98.5649 114.469 98.4494 114.299 98.2396L113.384 97.0823C113.201 96.8559 113.123 96.6356 113.147 96.4159C113.17 96.1961 113.3 96.013 113.536 95.8613C114.119 95.5114 114.822 95.2552 115.65 95.0904C116.478 94.928 117.32 94.891 118.179 94.9819C119.969 95.1715 121.289 95.6975 122.142 96.5604C122.993 97.423 123.349 98.5186 123.209 99.8419L122.575 105.827C122.513 106.408 122.19 106.67 121.609 106.608L119.686 106.404C119.409 106.375 119.199 106.305 119.057 106.194C118.915 106.083 118.851 105.947 118.868 105.788C118.886 105.613 118.831 105.519 118.698 105.505C118.611 105.495 118.528 105.517 118.449 105.567C117.481 106.083 116.38 106.274 115.141 106.143C113.903 106.012 113.019 105.605 112.401 104.914L112.4 104.921ZM115.718 103.109C115.943 103.271 116.287 103.378 116.754 103.428C117.438 103.5 118.008 103.417 118.46 103.177C118.912 102.937 119.185 102.579 119.28 102.105L118.781 102.029L116.751 101.814C115.922 101.726 115.477 101.944 115.422 102.469C115.394 102.731 115.493 102.943 115.718 103.109Z" fill="white"/>
<path d="M128.786 107.218C128.667 107.102 128.614 106.957 128.632 106.782C128.648 106.638 128.709 106.483 128.813 106.317L131.542 102.432C131.61 102.336 131.651 102.237 131.662 102.137C131.672 102.037 131.653 101.929 131.606 101.823L129.767 97.4979C129.698 97.3138 129.672 97.1495 129.688 97.0047C129.706 96.83 129.791 96.7 129.939 96.6122C130.087 96.5244 130.28 96.4943 130.512 96.5189L132.784 96.7594C133.251 96.8089 133.571 97.0498 133.745 97.4798L135.006 100.595C135.102 100.812 135.266 100.933 135.498 100.958L136 101.011C136.292 101.042 136.452 100.912 136.483 100.62L136.753 98.0659C136.815 97.4842 137.138 97.223 137.72 97.2846L139.817 97.5067C140.399 97.5683 140.66 97.8913 140.598 98.4731L140.328 101.027C140.297 101.319 140.426 101.48 140.719 101.51L141.243 101.566C141.49 101.592 141.676 101.508 141.8 101.314L143.727 98.5367C143.988 98.1528 144.351 97.9843 144.818 98.0337L147.003 98.265C147.235 98.2896 147.412 98.3613 147.534 98.4752C147.653 98.5913 147.705 98.7358 147.687 98.9106C147.672 99.0554 147.612 99.2107 147.506 99.3762L144.886 103.073C144.817 103.169 144.775 103.283 144.761 103.413C144.752 103.5 144.765 103.59 144.798 103.682L146.66 108.207C146.729 108.391 146.754 108.555 146.739 108.7C146.72 108.874 146.641 109.007 146.498 109.093C146.357 109.182 146.169 109.212 145.935 109.188L143.51 108.931C143.043 108.881 142.724 108.636 142.551 108.188L141.333 105.1C141.252 104.885 141.096 104.764 140.864 104.74L140.384 104.689C140.092 104.658 139.932 104.788 139.901 105.08L139.631 107.634C139.569 108.216 139.246 108.477 138.664 108.415L136.567 108.193C135.985 108.132 135.724 107.809 135.786 107.227L136.056 104.673C136.087 104.383 135.958 104.22 135.666 104.189L135.141 104.134C134.909 104.109 134.723 104.193 134.584 104.386L132.699 107.168C132.439 107.552 132.073 107.72 131.608 107.671L129.316 107.428C129.084 107.403 128.907 107.334 128.786 107.218Z" fill="white"/>
<path d="M148.167 108.542L149.138 99.3688C149.2 98.7871 149.523 98.5259 150.105 98.5875L152.179 98.8072C152.761 98.8688 153.022 99.1918 152.961 99.7735L152.595 103.224C152.583 103.341 152.595 103.439 152.63 103.516C152.665 103.592 152.721 103.636 152.793 103.644C152.896 103.655 152.998 103.592 153.101 103.457L156.423 99.8119C156.724 99.4752 157.1 99.3307 157.552 99.3786L159.649 99.6006C160.231 99.6622 160.492 99.9853 160.431 100.567L159.459 109.74C159.398 110.322 159.075 110.583 158.493 110.521L156.463 110.307C155.881 110.245 155.62 109.922 155.682 109.34L156.054 105.825C156.08 105.578 156.021 105.445 155.874 105.429C155.786 105.42 155.677 105.474 155.548 105.594L152.174 109.3C151.874 109.636 151.497 109.781 151.045 109.733L148.948 109.511C148.366 109.449 148.105 109.126 148.167 108.544L148.167 108.542Z" fill="white"/>
<path d="M164.326 110.252L164.999 103.898C165.029 103.608 164.9 103.446 164.608 103.415L162.248 103.165C161.667 103.103 161.405 102.783 161.467 102.199L161.626 100.693C161.688 100.111 162.011 99.8501 162.593 99.9117L172.071 100.915C172.652 100.977 172.914 101.3 172.852 101.882L172.693 103.387C172.631 103.969 172.308 104.23 171.726 104.169L169.347 103.917C169.055 103.886 168.894 104.015 168.863 104.307L168.191 110.662C168.129 111.243 167.806 111.505 167.224 111.443L165.107 111.219C164.525 111.157 164.264 110.834 164.326 110.252Z" fill="white"/>
<path d="M176.008 111.489L176.68 105.135C176.711 104.845 176.582 104.683 176.29 104.652L173.93 104.402C173.349 104.34 173.087 104.02 173.149 103.436L173.308 101.93C173.37 101.348 173.693 101.087 174.275 101.149L183.752 102.152C184.334 102.214 184.595 102.537 184.534 103.119L184.374 104.624C184.313 105.206 183.99 105.467 183.408 105.406L181.029 105.154C180.736 105.123 180.576 105.252 180.545 105.544L179.873 111.899C179.811 112.48 179.488 112.741 178.906 112.68L176.789 112.456C176.207 112.394 175.946 112.071 176.008 111.489Z" fill="white"/>
<path d="M186.575 109.495C186.588 109.365 186.529 109.24 186.395 109.123C185.952 108.722 185.628 108.259 185.426 107.727C185.225 107.199 185.156 106.636 185.219 106.039C185.339 104.903 185.874 104.051 186.825 103.482C187.777 102.914 189.008 102.709 190.523 102.869L195.547 103.401C196.128 103.463 196.39 103.786 196.328 104.367L195.357 113.541C195.295 114.122 194.972 114.383 194.39 114.322L192.338 114.105C191.756 114.043 191.495 113.72 191.557 113.138L191.765 111.173C191.796 110.881 191.666 110.721 191.374 110.69L190.762 110.625C190.543 110.602 190.36 110.679 190.208 110.854L188.291 113.103C188.003 113.456 187.634 113.606 187.182 113.559L184.803 113.307C184.571 113.282 184.389 113.212 184.262 113.095C184.133 112.978 184.079 112.841 184.096 112.681C184.113 112.522 184.197 112.354 184.349 112.178L186.462 109.751C186.527 109.684 186.566 109.6 186.577 109.498L186.575 109.495ZM190.362 107.732L191.672 107.871C191.965 107.902 192.125 107.773 192.156 107.48L192.264 106.454C192.295 106.162 192.166 106.002 191.874 105.971L190.563 105.832C190.111 105.784 189.76 105.828 189.511 105.963C189.262 106.099 189.12 106.318 189.088 106.625C189.02 107.267 189.445 107.635 190.362 107.732Z" fill="white"/>
<path d="M80.5018 98.9868L56.5457 96.4502L55.4263 78.5737L85.3401 81.7411L80.5018 98.9868Z" fill="#5D398E"/>
<path d="M85.5597 84.9336L54.0846 81.6009L53.9812 77.4188L86.5367 80.8659L85.5597 84.9336Z" fill="#5D398E"/>
<path d="M75.0062 88.5834C75.0231 88.4242 74.9086 88.2826 74.7463 88.2654L71.4551 87.9169C71.358 87.9098 71.2717 87.8596 71.2128 87.7902C71.1541 87.7177 71.1259 87.6263 71.1362 87.5295L71.4899 84.1884C71.5007 84.0569 71.4058 83.9395 71.2746 83.9256L68.2614 83.6066C68.1205 83.5948 67.9962 83.6953 67.9814 83.8359L67.6292 87.1613C67.6224 87.2554 67.5754 87.3419 67.5025 87.4037C67.4269 87.462 67.3355 87.4902 67.2387 87.48L63.9257 87.1292C63.7786 87.1167 63.6505 87.2232 63.635 87.3699L63.3199 90.3457C63.3043 90.4925 63.4136 90.624 63.5603 90.6395L66.8733 90.9903C66.967 91.0003 67.0539 91.0442 67.1125 91.1167C67.1743 91.1896 67.1991 91.2837 67.1891 91.3774L66.835 94.7217C66.8243 94.8531 66.9195 94.9674 67.0475 94.981L70.0421 95.298C70.1951 95.3142 70.3304 95.1991 70.3463 95.0492L70.6957 91.7487C70.7134 91.5517 70.8896 91.4093 71.0863 91.4301L74.3837 91.7793C74.537 91.7923 74.6782 91.681 74.6917 91.5245L75.0024 88.5894L75.0062 88.5834Z" fill="white"/>
<path d="M82.3134 85.2877L57.2457 82.6335L59.7903 72.3788C60.2526 70.5175 62.0365 69.2665 63.9443 69.4685L78.5234 71.0122C80.4282 71.2139 81.9136 72.811 81.9759 74.7279L82.3165 85.2881L82.3134 85.2877ZM57.7332 82.2936L81.911 84.8536L81.5862 74.7404C81.5318 73.0169 80.1967 71.5809 78.4824 71.3994L63.9033 69.8557C62.1891 69.6742 60.5859 70.7991 60.1687 72.4726L57.7332 82.2936Z" fill="#5D398E"/>
<path d="M79.2117 70.5485L63.3649 68.8706C62.9096 68.8224 62.5014 69.1524 62.4532 69.6077L62.4529 69.6108C62.4047 70.0661 62.7347 70.4742 63.19 70.5224L79.0368 72.2004C79.4921 72.2486 79.9002 71.9186 79.9484 71.4633L79.9488 71.4602C79.997 71.0049 79.667 70.5967 79.2117 70.5485Z" fill="#5D398E"/>
<g clip-path="url(#clip0_1548_797)">
<g clip-path="url(#clip1_1548_797)">
<path d="M200.569 9.6577C220.52 7.38817 238.679 21.6729 240.969 41.8047C243.239 61.755 228.772 79.9349 208.822 82.2045C188.69 84.4946 170.692 70.0079 168.422 50.0575C166.132 29.9258 180.438 11.9479 200.569 9.6577Z" fill="#C8B4D7"/>
<path d="M227.65 66.8353L187.75 71.3743L179.531 42.7313L229.226 37.0781L227.65 66.8353Z" fill="#5D388D"/>
<path d="M230.731 42.2346L178.316 48.1973L176.625 41.4085L230.854 35.2395L230.731 42.2346Z" fill="#5D388D"/>
<path d="M214.931 51.9315C214.911 51.7502 214.688 51.4081 214.325 51.4493L208.884 52.0683C208.703 52.0889 208.522 52.1096 208.501 51.9282C208.299 51.7675 208.299 51.7675 208.278 51.5861L207.639 45.9637C207.618 45.7824 207.416 45.6216 207.235 45.6423L202.157 46.2199C201.975 46.2406 201.814 46.4426 201.835 46.6239L202.454 52.065C202.475 52.2463 202.495 52.4277 202.314 52.4483C202.153 52.6503 202.153 52.6503 201.972 52.6709L199.795 52.9185L199.433 52.9598L199.07 53.0011L196.35 53.3105C196.168 53.3312 196.007 53.5332 196.028 53.7145L196.585 58.6114C196.606 58.7928 196.808 58.9536 196.989 58.9329L202.43 58.314C202.611 58.2933 202.793 58.2727 202.813 58.4541C203.015 58.6148 203.015 58.6148 203.036 58.7962L203.366 61.698L203.469 62.6049L203.511 62.9676L203.738 64.9626C203.758 65.144 203.96 65.3047 204.142 65.2841L209.038 64.727C209.22 64.7064 209.562 64.4838 209.521 64.121L208.902 58.68C208.86 58.3173 209.021 58.1153 209.384 58.074L214.825 57.4551C215.006 57.4344 215.348 57.2118 215.307 56.8491L214.931 51.9315Z" fill="#C8B4D7"/>
<path d="M225.211 43.7811L184.222 48.4439L184.661 31.3086C184.673 28.1841 186.965 25.7188 190.048 25.3681L214.351 22.6034C217.434 22.2526 220.221 24.1402 220.935 27.1821L225.211 43.7811Z" stroke="#5D388D" stroke-width="0.913097" stroke-miterlimit="10"/>
<path d="M216.693 23.8067L188.037 27.0666C187.856 27.0872 187.835 26.9058 187.815 26.7245L187.567 24.5481C187.546 24.3667 187.728 24.3461 187.728 24.3461L216.202 21.1068C216.384 21.0862 216.404 21.2676 216.404 21.2676L216.652 23.444C216.854 23.6047 216.693 23.8067 216.693 23.8067Z" fill="#5D388D"/>
</g>
</g>
<defs>
<clipPath id="clip0_1548_797">
<rect x="158.208" y="10.0834" width="84.2698" height="81.7519" rx="24.5256" transform="rotate(-6.49477 158.208 10.0834)" fill="white"/>
</clipPath>
<clipPath id="clip1_1548_797">
<rect width="73.0147" height="73.0147" fill="white" transform="translate(164.296 13.7841) rotate(-6.49)"/>
</clipPath>
</defs>
</svg>
