<svg width="240" height="274" viewBox="0 0 240 274" fill="none" xmlns="http://www.w3.org/2000/svg">
<path d="M149.717 80.0548L97.1036 74.7344C93.0146 74.3203 88.936 75.5894 85.7932 78.2291L66.8954 94.1875C63.7576 96.84 61.8256 100.651 61.5467 104.745L57.9149 157.508C57.6433 161.437 58.9096 165.324 61.4497 168.329L127.514 246.635C132.919 253.048 142.492 253.849 148.892 248.449L224.027 185.066C230.44 179.661 231.241 170.088 225.841 163.688L159.79 85.3762C157.25 82.3709 153.64 80.4615 149.722 80.0675L149.717 80.0548ZM97.0403 110.744C93.4263 113.795 87.9855 113.332 84.9344 109.718C81.8833 106.104 82.3462 100.663 85.9602 97.612C89.5742 94.5608 95.015 95.0237 98.0661 98.6377C101.117 102.252 100.654 107.693 97.0403 110.744Z" fill="#7A5DB6"/>
<path d="M137.012 101.558L90.178 77.0009C86.5384 75.0918 82.2807 74.7484 78.3802 76.0257L54.8944 83.7856C50.9939 85.0767 47.7801 87.8922 45.9946 91.5868L22.9484 139.19C21.2316 142.733 20.9569 146.813 22.193 150.548L54.2901 247.842C56.9134 255.808 65.4974 260.121 73.4495 257.498L166.802 226.705C174.768 224.082 179.08 215.498 176.457 207.546L144.374 110.252C143.138 106.516 140.501 103.398 137.012 101.572V101.558ZM76.6909 110.389C72.1997 111.872 67.324 109.414 65.8407 104.923C64.3574 100.432 66.8159 95.556 71.307 94.0727C75.7981 92.5894 80.6738 95.0478 82.1571 99.5389C83.6404 104.03 81.182 108.906 76.6909 110.389Z" fill="#5D398E"/>
<path d="M73.9995 1.76318C61.6277 29.7475 59.3125 49.1336 73.9995 98.7632" stroke="white" stroke-width="2" stroke-linecap="round"/>
<mask id="mask0_3006_678" style="mask-type:luminance" maskUnits="userSpaceOnUse" x="41" y="124" width="113" height="113">
<path d="M126.669 124.931L41.3857 151.531L67.986 236.814L153.269 210.214L126.669 124.931Z" fill="white"/>
</mask>
<g mask="url(#mask0_3006_678)">
<path d="M84.0273 138.231C107.48 130.916 132.587 143.906 139.969 167.573C147.284 191.025 134.08 216.199 110.628 223.514C86.9615 230.896 62.0009 217.626 54.6859 194.173C47.3043 170.507 60.3612 145.613 84.0273 138.231Z" fill="#E4D3F1"/>
<path d="M70.798 201.418L67.2378 202.529L66.5979 200.477L76.1319 197.503L76.7718 199.555L73.1915 200.672L75.6884 208.677L73.2949 209.424L70.798 201.418ZM83.3577 206.506C82.258 206.849 81.3007 206.846 80.4856 206.497C79.6797 206.13 79.1304 205.477 78.8376 204.539C78.5365 203.573 78.6757 202.699 79.2551 201.915C79.8345 201.131 80.7812 200.534 82.0954 200.124L85.0522 199.202L84.8891 198.679C84.7218 198.142 84.3687 197.789 83.8301 197.618C83.2913 197.448 82.6332 197.484 81.8554 197.727C81.2386 197.919 80.7177 198.207 80.2927 198.589C79.8808 198.968 79.597 199.402 79.4409 199.892L77.4919 199.022C77.737 198.298 78.2053 197.629 78.897 197.016C79.602 196.399 80.424 195.944 81.3625 195.651C82.8108 195.2 84.0418 195.183 85.0553 195.603C86.0825 196.018 86.778 196.809 87.1418 197.976L89.1682 204.473L86.8952 205.182L86.4749 203.834C86.2141 204.46 85.8169 205.003 85.2838 205.464C84.7505 205.924 84.1086 206.272 83.3577 206.506ZM81.172 203.744C81.2933 204.133 81.5418 204.387 81.917 204.505C82.2883 204.61 82.7555 204.575 83.3185 204.399C84.1366 204.144 84.7493 203.703 85.1569 203.075C85.5644 202.448 85.7002 201.751 85.564 200.984L82.7481 201.862C81.4339 202.272 80.9086 202.9 81.172 203.744ZM88.4786 193.652L90.872 192.906L92.1205 196.909L93.9106 196.35L95.5385 191.45L98.113 190.647L96.1314 196.607L101.371 200.667L98.5747 201.539L94.5305 198.408L92.7604 198.96L94.0089 202.963L91.6154 203.709L88.4786 193.652ZM99.6961 190.154L102.633 189.238L106.907 192.893L108.325 187.462L111.201 186.565L114.338 196.622L111.985 197.356L109.77 190.256L108.46 195.255L106.891 195.745L102.984 192.417L105.186 199.477L102.833 200.211L99.6961 190.154ZM121.738 194.557C120.651 194.896 119.632 194.978 118.681 194.804C117.742 194.626 116.931 194.217 116.245 193.577C115.556 192.924 115.053 192.088 114.735 191.069C114.413 190.037 114.354 189.047 114.559 188.1C114.777 187.149 115.227 186.325 115.907 185.627C116.582 184.916 117.443 184.398 118.489 184.071C119.535 183.745 120.507 183.677 121.405 183.868C122.313 184.041 123.096 184.452 123.754 185.1C124.425 185.744 124.922 186.582 125.244 187.615C125.382 188.057 125.467 188.376 125.499 188.572L117.413 191.094C117.786 191.817 118.298 192.304 118.951 192.557C119.613 192.792 120.359 192.78 121.191 192.521C122.398 192.144 123.249 191.43 123.745 190.378L125.761 191.183C125.467 191.937 124.965 192.616 124.256 193.22C123.556 193.806 122.716 194.252 121.738 194.557ZM122.513 187.561C122.163 186.817 121.693 186.324 121.102 186.081C120.521 185.821 119.821 185.819 119.003 186.074C118.239 186.312 117.667 186.719 117.287 187.294C116.916 187.85 116.774 188.527 116.861 189.324L122.513 187.561ZM126.795 190.508L128.042 190.119C128.002 189.19 127.872 188.207 127.653 187.172C127.446 186.133 127.13 184.93 126.703 183.562L126.182 181.892L134.53 179.289L137.033 187.314L138.441 186.875L139.878 191.481L137.544 192.209L136.741 189.634L129.762 191.811L130.565 194.386L128.232 195.114L126.795 190.508ZM134.678 188.115L132.784 182.041L129.123 183.182C129.815 185.497 130.233 187.589 130.374 189.458L134.678 188.115Z" fill="#552E87"/>
<path d="M68.7424 185.352C67.6563 185.691 66.6372 185.773 65.6855 185.599C64.747 185.421 63.9864 185.011 63.4036 184.369L65.0083 182.72C65.3961 183.115 65.8664 183.372 66.4194 183.494C66.9723 183.616 67.564 183.579 68.1942 183.382C68.8513 183.177 69.3143 182.893 69.5835 182.529C69.8485 182.152 69.9078 181.729 69.7615 181.26C69.6318 180.844 69.3818 180.562 69.0115 180.412C68.6505 180.245 68.2085 180.244 67.6855 180.407C67.3235 180.52 67.0292 180.685 66.8029 180.903L65.4623 179.93L67.445 176.663L62.336 178.257L61.7149 176.266L69.6398 173.794L70.2169 175.644L68.5022 178.497C69.3847 178.354 70.1576 178.473 70.8211 178.855C71.4979 179.232 71.9556 179.803 72.194 180.567C72.403 181.238 72.3994 181.887 72.1829 182.513C71.9663 183.14 71.56 183.701 70.964 184.196C70.3813 184.686 69.6408 185.072 68.7424 185.352ZM79.6184 181.937C78.5992 182.255 77.636 182.328 76.7285 182.155C75.8169 181.968 75.0208 181.562 74.3398 180.936C73.6724 180.305 73.1839 179.493 72.8744 178.501L72.1717 176.248C71.6824 174.68 71.6302 173.357 72.0155 172.28C72.4141 171.2 73.2899 170.257 74.6427 169.452L76.706 168.213C76.9668 168.058 77.134 167.91 77.2078 167.77C77.2908 167.611 77.3031 167.438 77.2445 167.25L77.1755 167.029L79.5489 166.289L79.7246 166.852C79.9296 167.509 79.894 168.079 79.6181 168.563C79.3513 169.029 78.8134 169.498 78.0046 169.971L75.719 171.346C75.1213 171.694 74.6795 172.023 74.3935 172.333C74.1076 172.643 73.9365 172.991 73.8802 173.376C73.8331 173.744 73.8818 174.207 74.0264 174.765L74.0829 174.946C74.3699 174.356 74.782 173.838 75.3194 173.391C75.8701 172.939 76.5142 172.599 77.2517 172.369C78.177 172.08 79.0576 172.026 79.8939 172.207C80.7258 172.374 81.4471 172.752 82.0577 173.342C82.6773 173.913 83.1274 174.648 83.4076 175.547C83.6963 176.472 83.7322 177.366 83.5156 178.228C83.2946 179.077 82.8448 179.828 82.1656 180.481C81.4999 181.13 80.6509 181.615 79.6184 181.937ZM75.3017 178.075C75.5569 178.893 76.0253 179.475 76.7072 179.822C77.385 180.155 78.1463 180.189 78.991 179.926C79.8223 179.667 80.4221 179.208 80.7903 178.548C81.1544 177.876 81.2088 177.13 80.9536 176.312C80.6985 175.494 80.2322 174.919 79.5544 174.586C78.8725 174.239 78.1159 174.196 77.2846 174.455C76.4399 174.719 75.8354 175.187 75.4713 175.859C75.103 176.519 75.0466 177.257 75.3017 178.075ZM83.718 169.403L86.1117 168.656L89.2485 178.713L86.8548 179.46L83.718 169.403ZM82.3271 166.217C82.1933 165.788 82.2233 165.389 82.4169 165.019C82.62 164.632 82.9495 164.368 83.4053 164.225C83.8614 164.083 84.276 164.116 84.6496 164.323C85.0326 164.512 85.2907 164.822 85.4245 165.251C85.5626 165.693 85.5303 166.108 85.3272 166.495C85.1334 166.865 84.8087 167.12 84.3526 167.263C83.8968 167.405 83.4774 167.381 83.0945 167.191C82.7211 166.984 82.4651 166.659 82.3271 166.217ZM88.7137 167.845L91.0468 167.117L91.4358 168.364C91.7228 167.774 92.1147 167.262 92.6119 166.827C93.1224 166.388 93.7129 166.065 94.3835 165.855C95.3354 165.559 96.2426 165.518 97.1046 165.735C97.9801 165.947 98.7425 166.387 99.3915 167.052C100.054 167.714 100.544 168.554 100.862 169.573C101.176 170.579 101.248 171.542 101.079 172.463C100.91 173.384 100.528 174.187 99.9328 174.873C99.3334 175.546 98.5642 176.028 97.6255 176.321C96.9551 176.53 96.296 176.611 95.6484 176.563C95.0139 176.51 94.4222 176.334 93.8726 176.035L95.3532 180.782L92.9797 181.522L88.7137 167.845ZM92.5549 172.164C92.8519 173.116 93.3605 173.804 94.081 174.226C94.8014 174.649 95.5973 174.724 96.4691 174.453C97.3539 174.177 97.9727 173.66 98.3251 172.902C98.6773 172.145 98.7051 171.291 98.4081 170.338C98.1111 169.387 97.6024 168.699 96.8822 168.276C96.1617 167.854 95.3589 167.78 94.474 168.056C93.6022 168.328 92.9905 168.843 92.638 169.6C92.2856 170.357 92.2579 171.212 92.5549 172.164ZM105.027 162.756L107.421 162.01L108.669 166.012L113.276 164.576L112.027 160.573L114.421 159.826L117.557 169.883L115.164 170.63L113.915 166.627L109.309 168.064L110.558 172.067L108.164 172.813L105.027 162.756ZM123.008 168.404C121.908 168.747 120.951 168.744 120.136 168.395C119.33 168.028 118.781 167.376 118.488 166.437C118.187 165.472 118.326 164.597 118.905 163.813C119.485 163.029 120.432 162.432 121.746 162.022L124.702 161.1L124.539 160.577C124.372 160.041 124.019 159.687 123.48 159.517C122.941 159.346 122.283 159.382 121.506 159.625C120.889 159.817 120.368 160.105 119.943 160.488C119.531 160.866 119.247 161.301 119.091 161.791L117.142 160.92C117.387 160.196 117.856 159.528 118.547 158.915C119.252 158.297 120.074 157.842 121.013 157.55C122.461 157.098 123.692 157.082 124.706 157.501C125.733 157.917 126.428 158.708 126.792 159.874L128.818 166.371L126.546 167.08L126.125 165.732C125.864 166.358 125.467 166.901 124.934 167.362C124.401 167.822 123.759 168.17 123.008 168.404ZM120.822 165.643C120.944 166.032 121.192 166.285 121.567 166.404C121.938 166.508 122.406 166.473 122.969 166.297C123.787 166.042 124.4 165.601 124.807 164.974C125.215 164.346 125.35 163.649 125.214 162.882L122.398 163.761C121.084 164.171 120.559 164.798 120.822 165.643Z" fill="#552E87"/>
</g>
</svg>
