<svg width="211" height="239" viewBox="0 0 211 239" fill="none" xmlns="http://www.w3.org/2000/svg">
<path d="M131.437 69.7678L85.5154 65.1241C81.9465 64.7627 78.3867 65.8704 75.6436 68.1744L59.1494 82.103C56.4107 84.4181 54.7244 87.7443 54.481 91.3175L51.3111 137.37C51.0741 140.799 52.1794 144.191 54.3963 146.815L112.058 215.161C116.775 220.758 125.131 221.457 130.717 216.744L196.296 161.422C201.893 156.705 202.592 148.35 197.879 142.763L140.228 74.4124C138.011 71.7893 134.861 70.1228 131.441 69.7789L131.437 69.7678ZM85.4602 96.5534C82.3059 99.2164 77.5571 98.8124 74.8941 95.658C72.231 92.5037 72.635 87.7549 75.7894 85.0919C78.9437 82.4288 83.6925 82.8328 86.3555 85.9872C89.0186 89.1415 88.6146 93.8903 85.4602 96.5534Z" fill="#7A5DB6"/>
<path d="M120.348 88.536L79.471 67.1024C76.2943 65.4362 72.5782 65.1365 69.1737 66.2513L48.6752 73.0242C45.2707 74.151 42.4657 76.6085 40.9073 79.8331L20.7923 121.382C19.2939 124.474 19.0541 128.035 20.133 131.295L48.1477 216.215C50.4373 223.167 57.9295 226.931 64.8702 224.642L146.349 197.766C153.302 195.476 157.066 187.984 154.776 181.043L126.774 96.1241C125.695 92.8635 123.393 90.1423 120.348 88.548V88.536ZM67.6993 96.244C63.7794 97.5386 59.5238 95.3928 58.2292 91.4729C56.9345 87.553 59.0803 83.2975 63.0002 82.0028C66.9201 80.7082 71.1756 82.8539 72.4703 86.7739C73.7649 90.6938 71.6192 94.9493 67.6993 96.244Z" fill="#5D398E"/>
<path d="M65.3501 1.43408C54.5519 25.859 52.5312 42.7794 65.3501 86.0966" stroke="white" stroke-width="1.74562" stroke-linecap="round"/>
<mask id="mask0_3004_666" style="mask-type:luminance" maskUnits="userSpaceOnUse" x="36" y="108" width="99" height="99">
<path d="M111.32 108.936L36.8843 132.153L60.1012 206.589L134.537 183.372L111.32 108.936Z" fill="white"/>
</mask>
<g mask="url(#mask0_3004_666)">
<path d="M74.1023 120.545C94.5721 114.16 116.486 125.498 122.929 146.154C129.313 166.624 117.789 188.596 97.3192 194.981C76.6632 201.423 54.8774 189.841 48.4928 169.371C42.0501 148.715 53.4463 126.987 74.1023 120.545Z" fill="#E4D3F1"/>
<path d="M62.5556 175.695L59.4482 176.664L58.8897 174.874L67.2111 172.278L67.7696 174.069L64.6447 175.044L66.824 182.031L64.7349 182.682L62.5556 175.695ZM73.5178 180.135C72.558 180.435 71.7225 180.432 71.011 180.128C70.3077 179.808 69.8282 179.238 69.5726 178.419C69.3098 177.576 69.4313 176.813 69.937 176.128C70.4427 175.444 71.269 174.923 72.4161 174.565L74.9968 173.76L74.8544 173.304C74.7084 172.836 74.4002 172.527 73.9302 172.379C73.4599 172.23 72.8855 172.261 72.2066 172.473C71.6683 172.641 71.2136 172.892 70.8427 173.226C70.4832 173.556 70.2355 173.936 70.0993 174.363L68.3981 173.603C68.6121 172.971 69.0208 172.388 69.6245 171.853C70.2399 171.314 70.9573 170.917 71.7764 170.662C73.0405 170.267 74.1149 170.253 74.9996 170.62C75.8961 170.982 76.5031 171.672 76.8206 172.691L78.5893 178.361L76.6054 178.98L76.2385 177.804C76.0109 178.35 75.6643 178.824 75.1989 179.226C74.7335 179.628 74.1732 179.931 73.5178 180.135ZM71.6102 177.725C71.716 178.065 71.9329 178.286 72.2604 178.39C72.5844 178.481 72.9922 178.45 73.4837 178.297C74.1977 178.074 74.7324 177.689 75.0882 177.141C75.4438 176.594 75.5624 175.985 75.4435 175.316L72.9858 176.083C71.8387 176.441 71.3802 176.988 71.6102 177.725ZM77.9874 168.917L80.0764 168.265L81.1661 171.759L82.7285 171.272L84.1494 166.995L86.3964 166.294L84.6669 171.495L89.2396 175.039L86.7994 175.8L83.2695 173.068L81.7246 173.55L82.8143 177.043L80.7253 177.695L77.9874 168.917ZM87.7781 165.863L90.3413 165.064L94.0717 168.254L95.3096 163.514L97.8199 162.731L100.558 171.509L98.5039 172.15L96.571 165.952L95.4276 170.316L94.0583 170.743L90.6481 167.838L92.5701 174L90.516 174.641L87.7781 165.863ZM107.016 169.707C106.068 170.002 105.179 170.074 104.348 169.922C103.529 169.767 102.821 169.41 102.222 168.851C101.621 168.282 101.181 167.552 100.904 166.662C100.623 165.761 100.572 164.897 100.751 164.071C100.941 163.241 101.333 162.522 101.927 161.913C102.517 161.292 103.268 160.839 104.181 160.555C105.094 160.27 105.942 160.211 106.726 160.377C107.518 160.528 108.201 160.887 108.776 161.452C109.362 162.014 109.796 162.746 110.077 163.647C110.197 164.033 110.271 164.312 110.299 164.483L103.242 166.684C103.567 167.315 104.014 167.74 104.584 167.961C105.162 168.166 105.813 168.155 106.539 167.929C107.592 167.601 108.335 166.977 108.768 166.059L110.528 166.762C110.271 167.42 109.833 168.012 109.214 168.539C108.603 169.051 107.871 169.44 107.016 169.707ZM107.693 163.601C107.388 162.951 106.977 162.521 106.462 162.309C105.954 162.082 105.344 162.08 104.63 162.302C103.963 162.51 103.463 162.865 103.132 163.367C102.808 163.853 102.684 164.444 102.76 165.139L107.693 163.601ZM111.43 166.172L112.519 165.833C112.484 165.022 112.371 164.164 112.179 163.261C111.999 162.354 111.723 161.304 111.35 160.11L110.896 158.653L118.181 156.38L120.366 163.385L121.595 163.002L122.849 167.022L120.812 167.657L120.112 165.41L114.02 167.31L114.721 169.557L112.684 170.192L111.43 166.172ZM118.311 164.084L116.657 158.782L113.462 159.779C114.067 161.799 114.431 163.625 114.554 165.256L118.311 164.084Z" fill="#552E87"/>
<path d="M60.7618 161.672C59.8138 161.968 58.9244 162.039 58.0937 161.888C57.2746 161.732 56.6108 161.374 56.102 160.814L57.5026 159.375C57.8411 159.719 58.2516 159.944 58.7343 160.051C59.2169 160.157 59.7333 160.124 60.2833 159.953C60.8568 159.774 61.261 159.526 61.4959 159.208C61.7272 158.879 61.779 158.51 61.6513 158.101C61.5381 157.738 61.3199 157.491 60.9967 157.361C60.6816 157.215 60.2958 157.213 59.8394 157.356C59.5234 157.454 59.2665 157.599 59.069 157.789L57.8989 156.94L59.6294 154.089L55.1703 155.479L54.6281 153.741L61.5451 151.584L62.0488 153.199L60.5522 155.689C61.3224 155.564 61.997 155.668 62.5761 156.001C63.1668 156.331 63.5663 156.829 63.7744 157.496C63.9569 158.081 63.9537 158.647 63.7647 159.194C63.5757 159.741 63.2211 160.231 62.7009 160.663C62.1923 161.091 61.546 161.427 60.7618 161.672ZM70.2545 158.692C69.365 158.969 68.5242 159.033 67.7322 158.881C66.9365 158.719 66.2417 158.364 65.6473 157.817C65.0648 157.267 64.6384 156.559 64.3682 155.693L63.755 153.726C63.3279 152.357 63.2823 151.203 63.6186 150.263C63.9665 149.32 64.7309 148.497 65.9116 147.795L67.7125 146.713C67.9401 146.578 68.0861 146.449 68.1505 146.326C68.223 146.188 68.2337 146.037 68.1825 145.873L68.1223 145.68L70.1938 145.034L70.3472 145.525C70.5261 146.099 70.495 146.596 70.2542 147.018C70.0214 147.425 69.5519 147.834 68.846 148.247L66.851 149.447C66.3294 149.751 65.9438 150.039 65.6941 150.309C65.4446 150.58 65.2952 150.883 65.2462 151.219C65.205 151.541 65.2476 151.945 65.3738 152.432L65.423 152.59C65.6735 152.075 66.0333 151.622 66.5023 151.232C66.983 150.838 67.5451 150.541 68.1888 150.34C68.9964 150.088 69.765 150.041 70.495 150.199C71.2211 150.345 71.8506 150.675 72.3836 151.189C72.9243 151.688 73.3172 152.33 73.5618 153.114C73.8137 153.922 73.845 154.702 73.656 155.454C73.4631 156.195 73.0705 156.85 72.4777 157.42C71.8967 157.987 71.1557 158.411 70.2545 158.692ZM66.4868 155.321C66.7095 156.035 67.1184 156.543 67.7136 156.845C68.3051 157.136 68.9696 157.166 69.7069 156.936C70.4325 156.71 70.956 156.309 71.2774 155.734C71.5951 155.147 71.6426 154.496 71.4199 153.782C71.1972 153.068 70.7902 152.566 70.1987 152.275C69.6035 151.973 68.9431 151.935 68.2175 152.161C67.4802 152.391 66.9526 152.8 66.6349 153.387C66.3134 153.962 66.2642 154.607 66.4868 155.321ZM73.8327 147.751L75.9219 147.1L78.6597 155.878L76.5705 156.529L73.8327 147.751ZM72.6186 144.971C72.5019 144.596 72.5281 144.248 72.6971 143.925C72.8743 143.588 73.1619 143.357 73.5597 143.233C73.9578 143.108 74.3197 143.137 74.6458 143.317C74.98 143.483 75.2054 143.753 75.3222 144.127C75.4426 144.514 75.4145 144.876 75.2372 145.214C75.0681 145.536 74.7846 145.759 74.3866 145.883C73.9887 146.007 73.6227 145.987 73.2885 145.821C72.9626 145.641 72.7391 145.357 72.6186 144.971ZM78.1929 146.391L80.2293 145.756L80.5688 146.845C80.8193 146.33 81.1613 145.883 81.5954 145.503C82.0409 145.121 82.5563 144.838 83.1416 144.655C83.9725 144.396 84.7642 144.361 85.5166 144.55C86.2808 144.736 86.9462 145.119 87.5127 145.7C88.0909 146.277 88.5187 147.011 88.7962 147.9C89.07 148.778 89.1331 149.619 88.9857 150.422C88.8381 151.226 88.5047 151.927 87.9851 152.526C87.4619 153.113 86.7906 153.534 85.9712 153.79C85.3862 153.972 84.8109 154.043 84.2456 154.001C83.6919 153.955 83.1754 153.801 82.6957 153.54L83.988 157.683L81.9164 158.329L78.1929 146.391ZM81.5456 150.162C81.8048 150.993 82.2488 151.593 82.8776 151.961C83.5064 152.33 84.201 152.396 84.9619 152.159C85.7342 151.918 86.2743 151.467 86.5819 150.806C86.8893 150.145 86.9135 149.399 86.6543 148.568C86.3951 147.737 85.9511 147.137 85.3225 146.768C84.6937 146.399 83.9929 146.335 83.2206 146.576C82.4597 146.814 81.9258 147.263 81.6182 147.924C81.3106 148.585 81.2864 149.331 81.5456 150.162ZM92.4318 141.95L94.5208 141.299L95.6105 144.792L99.6308 143.538L98.5411 140.045L100.63 139.393L103.368 148.171L101.279 148.823L100.189 145.329L96.169 146.583L97.2587 150.076L95.1696 150.728L92.4318 141.95ZM108.125 146.88C107.166 147.179 106.33 147.176 105.619 146.872C104.915 146.552 104.436 145.982 104.18 145.163C103.917 144.32 104.039 143.557 104.545 142.873C105.05 142.188 105.877 141.667 107.024 141.309L109.604 140.505L109.462 140.048C109.316 139.58 109.008 139.271 108.538 139.123C108.067 138.974 107.493 139.006 106.814 139.217C106.276 139.385 105.821 139.636 105.45 139.97C105.091 140.301 104.843 140.68 104.707 141.107L103.006 140.347C103.219 139.716 103.628 139.132 104.232 138.597C104.847 138.059 105.565 137.661 106.384 137.406C107.648 137.012 108.722 136.998 109.607 137.364C110.503 137.726 111.111 138.417 111.428 139.435L113.197 145.105L111.213 145.724L110.846 144.548C110.618 145.094 110.272 145.568 109.807 145.97C109.341 146.372 108.781 146.675 108.125 146.88ZM106.218 144.47C106.324 144.809 106.54 145.03 106.868 145.134C107.192 145.225 107.6 145.194 108.091 145.041C108.805 144.818 109.34 144.433 109.696 143.886C110.051 143.338 110.17 142.73 110.051 142.06L107.593 142.827C106.446 143.185 105.988 143.732 106.218 144.47Z" fill="#552E87"/>
</g>
</svg>
