<svg width="211" height="214" viewBox="0 0 211 214" fill="none" xmlns="http://www.w3.org/2000/svg">
<path d="M131.437 44.7678L85.5157 40.1241C81.9468 39.7627 78.3869 40.8704 75.6438 43.1744L59.1496 57.103C56.411 59.4181 54.7247 62.7443 54.4812 66.3175L51.3114 112.37C51.0744 115.799 52.1796 119.191 54.3966 121.815L112.058 190.161C116.775 195.758 125.131 196.457 130.717 191.744L196.296 136.422C201.893 131.705 202.592 123.35 197.879 117.763L140.229 49.4124C138.012 46.7893 134.861 45.1228 131.442 44.7789L131.437 44.7678ZM85.4605 71.5534C82.3061 74.2164 77.5573 73.8124 74.8943 70.658C72.2312 67.5037 72.6353 62.7549 75.7896 60.0919C78.944 57.4288 83.6927 57.8328 86.3558 60.9872C89.0188 64.1415 88.6148 68.8903 85.4605 71.5534Z" fill="#7A5DB6"/>
<path d="M120.348 63.5359L79.471 42.1023C76.2943 40.4361 72.5782 40.1364 69.1737 41.2512L48.6752 48.0241C45.2707 49.151 42.4657 51.6084 40.9073 54.833L20.7923 96.3816C19.2939 99.4744 19.0541 103.035 20.133 106.295L48.1477 191.214C50.4373 198.167 57.9295 201.931 64.8702 199.642L146.349 172.766C153.302 170.476 157.066 162.984 154.776 156.043L126.774 71.124C125.695 67.8634 123.393 65.1423 120.348 63.5479V63.5359ZM67.6993 71.2439C63.7794 72.5385 59.5238 70.3928 58.2292 66.4729C56.9345 62.553 59.0803 58.2974 63.0002 57.0028C66.9201 55.7081 71.1756 57.8539 72.4703 61.7738C73.7649 65.6937 71.6192 69.9492 67.6993 71.2439Z" fill="#5D398E"/>
<path d="M65.3504 -23.5659C54.5522 0.859087 52.5314 17.7795 65.3504 61.0967" stroke="white" stroke-width="1.74562" stroke-linecap="round"/>
</svg>
