<svg width="455" height="208" viewBox="0 0 455 208" fill="none" xmlns="http://www.w3.org/2000/svg">
<path d="M15 73.8228C37.1661 52.8233 66.6637 37.3329 95.8681 28.6665C126.183 19.6706 158.151 14.6156 189.796 15.5329C205.374 15.9844 235.613 17.2655 239.601 36.7829C248.323 79.4771 229.378 116.379 199.609 145.32C188.338 156.278 173.688 167.349 157.257 167.529C141.633 167.701 118.5 164.263 112.543 148.493C106.836 141.254 107.5 115.577 140.5 101.263C173.5 86.9494 218.803 102.964 249.635 117.577C276.165 130.151 301.013 144.989 326.076 160.151C341.864 169.701 356.723 183.593 374.332 189.591C402.964 199.345 421.125 184.339 440 165.463" stroke="white" stroke-opacity="0.06" stroke-width="30" stroke-linecap="round"/>
</svg>
