<svg width="265" height="160" viewBox="0 0 265 160" fill="none" xmlns="http://www.w3.org/2000/svg">
<rect x="11.0742" y="28.3311" width="254.524" height="105.175" rx="31.5526" transform="rotate(6.0442 11.0742 28.3311)" fill="#5D398E"/>
<path d="M96.3819 90.6898C95.0396 103.367 83.6755 112.555 70.9987 111.212C58.322 109.87 49.134 98.5059 50.4763 85.8291C51.8185 73.1524 63.1823 63.9677 75.859 65.31C88.5358 66.6522 97.7238 78.0164 96.3815 90.6931" fill="white"/>
<path d="M105.948 88.4991L107.455 74.2584C107.52 73.6466 107.86 73.3719 108.472 73.4367L121.565 74.823C122.177 74.8878 122.452 75.2276 122.387 75.8394L120.879 90.0801C120.814 90.692 120.474 90.9667 119.862 90.9019L117.244 90.6247C116.633 90.5599 116.358 90.2201 116.423 89.6083L117.561 78.8575C117.593 78.5503 117.457 78.3818 117.15 78.3493L112.05 77.8093C111.743 77.7768 111.575 77.913 111.542 78.2202L110.404 88.9684C110.339 89.5802 110 89.8549 109.388 89.7901L106.77 89.5129C106.158 89.4481 105.883 89.1084 105.948 88.4965L105.948 88.4991Z" fill="white"/>
<path d="M123.11 91.3841C122.586 91.2197 122.379 90.842 122.487 90.2506L122.839 88.453C122.884 88.179 122.959 87.9745 123.066 87.8398C123.173 87.7051 123.289 87.6429 123.41 87.6557C123.502 87.6655 123.593 87.6831 123.683 87.7086C123.773 87.734 123.864 87.7516 123.956 87.7614C124.276 87.7953 124.544 87.6219 124.754 87.2431C124.965 86.8618 125.155 86.1942 125.328 85.2379C125.498 84.2814 125.683 82.8591 125.883 80.9763L125.895 80.8608C125.96 80.2489 126.3 79.9742 126.911 80.039L135.708 80.9705C136.32 81.0352 136.595 81.375 136.53 81.9869L135.509 91.6347C135.444 92.2466 135.104 92.5213 134.492 92.4565L132.286 92.2229C131.675 92.1582 131.4 91.8184 131.465 91.2065L132.177 84.4761C132.21 84.1689 132.074 84.0005 131.766 83.9679L129.561 83.7344L129.558 83.758C129.282 85.9116 128.934 87.5715 128.508 88.7346C128.082 89.8977 127.523 90.6935 126.827 91.1217C126.13 91.5525 125.217 91.7054 124.082 91.5853C123.715 91.5463 123.39 91.4801 123.105 91.3888L123.11 91.3841Z" fill="white"/>
<path d="M145.744 92.8163C144.73 92.0053 144.079 90.9804 143.794 89.7419C143.729 89.4722 143.575 89.3231 143.331 89.2973L142.848 89.2461C142.54 89.2136 142.372 89.3498 142.339 89.657L142.057 92.3224C141.992 92.9342 141.653 93.2089 141.041 93.1441L138.814 92.9084C138.202 92.8436 137.927 92.5038 137.992 91.8919L139.014 82.2441C139.079 81.6322 139.418 81.3575 140.03 81.4223L142.257 81.6581C142.869 81.7229 143.144 82.0627 143.079 82.6745L142.797 85.3399C142.764 85.6471 142.9 85.8156 143.207 85.8481L143.691 85.8992C143.935 85.9251 144.117 85.8142 144.236 85.5614C144.791 84.4119 145.645 83.5463 146.8 82.965C147.953 82.3834 149.258 82.1684 150.713 82.3225C151.968 82.4554 153.063 82.8236 153.998 83.4244C154.933 84.0279 155.628 84.8131 156.083 85.7827C156.538 86.7523 156.703 87.8188 156.58 88.9821C156.457 90.1454 156.069 91.1532 155.413 92.0052C154.757 92.8572 153.911 93.4792 152.87 93.8736C151.83 94.268 150.691 94.3969 149.449 94.2654C147.994 94.1114 146.76 93.6276 145.746 92.8166L145.744 92.8163ZM148.123 89.98C148.51 90.4936 149.071 90.7893 149.806 90.8671C150.541 90.945 151.175 90.7758 151.66 90.3545C152.146 89.9332 152.43 89.334 152.513 88.5514C152.595 87.7689 152.443 87.1234 152.057 86.6099C151.671 86.0963 151.102 85.7997 150.351 85.7202C149.6 85.6407 149.005 85.8141 148.52 86.2353C148.034 86.6566 147.751 87.2559 147.668 88.0384C147.585 88.821 147.737 89.4664 148.123 89.98Z" fill="white"/>
<path d="M160.297 94.6361C159.388 94.022 158.719 93.2343 158.295 92.2759C157.871 91.3175 157.72 90.2632 157.841 89.1157C157.963 87.9681 158.36 86.9267 159.023 86.0808C159.686 85.2376 160.54 84.619 161.588 84.2281C162.635 83.8372 163.786 83.7067 165.044 83.8399C166.115 83.9533 167.058 84.2471 167.877 84.7214C168.695 85.1957 169.333 85.813 169.794 86.5734C169.911 86.7717 169.964 86.9552 169.946 87.1232C169.917 87.399 169.708 87.6158 169.319 87.7765L167.433 88.4823C167.271 88.5581 167.111 88.5863 166.959 88.5702C166.699 88.5427 166.455 88.3707 166.225 88.0517C165.811 87.575 165.275 87.3005 164.616 87.2307C163.896 87.1545 163.285 87.3288 162.783 87.7563C162.281 88.1838 161.99 88.7796 161.909 89.5464C161.828 90.3132 161.998 90.9579 162.424 91.4809C162.849 92.0065 163.412 92.3052 164.115 92.3797C164.819 92.4542 165.481 92.2773 166.055 91.8416C166.36 91.595 166.634 91.486 166.879 91.5119C167.047 91.5296 167.202 91.5913 167.347 91.6996L168.907 92.7702C169.268 93.0261 169.433 93.2906 169.404 93.5664C169.391 93.6898 169.333 93.8137 169.226 93.9432C168.595 94.6358 167.79 95.1427 166.813 95.4642C165.834 95.7853 164.764 95.8845 163.601 95.7613C162.314 95.6251 161.217 95.2513 160.305 94.6343L160.297 94.6361Z" fill="white"/>
<path d="M103.651 108.858L104.673 99.2103C104.738 98.5985 105.078 98.3238 105.689 98.3886L107.916 98.6244C108.528 98.6891 108.803 99.0289 108.738 99.6408L108.456 102.306C108.423 102.613 108.559 102.782 108.867 102.814L111.624 103.106C111.929 103.139 112.1 103.003 112.132 102.695L112.414 100.03C112.479 99.4182 112.816 99.1432 113.431 99.2083L115.637 99.4418C116.248 99.5066 116.523 99.8464 116.458 100.458L115.437 110.106C115.372 110.718 115.032 110.993 114.42 110.928L112.215 110.694C111.603 110.63 111.328 110.29 111.393 109.678L111.675 107.013C111.708 106.705 111.571 106.537 111.264 106.504L108.507 106.212C108.2 106.18 108.031 106.316 107.999 106.623L107.716 109.289C107.652 109.9 107.312 110.175 106.7 110.11L104.473 109.875C103.861 109.81 103.587 109.47 103.651 108.858Z" fill="white"/>
<path d="M118.217 110.575C117.566 109.848 117.301 108.92 117.421 107.785C117.541 106.651 118.057 105.834 118.973 105.289C119.891 104.743 121.091 104.549 122.577 104.706L125.263 104.991C125.571 105.023 125.734 104.932 125.757 104.719C125.789 104.412 125.616 104.139 125.241 103.897C124.863 103.655 124.354 103.5 123.71 103.432C122.883 103.345 122.144 103.452 121.493 103.755C121.217 103.88 120.986 103.933 120.802 103.913C120.587 103.89 120.392 103.769 120.214 103.548L119.252 102.331C119.059 102.093 118.977 101.861 119.002 101.63C119.026 101.399 119.164 101.206 119.411 101.047C120.024 100.679 120.764 100.409 121.635 100.236C122.505 100.065 123.391 100.026 124.294 100.122C126.177 100.321 127.566 100.875 128.463 101.782C129.357 102.689 129.732 103.842 129.585 105.233L128.918 111.528C128.853 112.14 128.513 112.414 127.902 112.35L125.88 112.136C125.588 112.105 125.368 112.031 125.218 111.914C125.068 111.797 125.001 111.655 125.019 111.487C125.038 111.303 124.98 111.204 124.841 111.189C124.749 111.179 124.661 111.202 124.579 111.254C123.56 111.797 122.402 111.998 121.1 111.86C119.797 111.723 118.868 111.295 118.217 110.567L118.217 110.575ZM121.706 108.669C121.943 108.84 122.305 108.953 122.796 109.005C123.516 109.081 124.115 108.993 124.59 108.741C125.066 108.488 125.352 108.112 125.453 107.613L124.928 107.534L122.793 107.308C121.921 107.215 121.453 107.445 121.395 107.996C121.366 108.272 121.469 108.495 121.706 108.669Z" fill="white"/>
<path d="M135.45 112.991C135.325 112.869 135.269 112.717 135.289 112.533C135.305 112.381 135.37 112.218 135.479 112.043L138.349 107.958C138.421 107.856 138.464 107.752 138.475 107.647C138.486 107.542 138.466 107.428 138.417 107.317L136.482 102.768C136.41 102.574 136.383 102.402 136.399 102.249C136.418 102.065 136.507 101.929 136.663 101.836C136.819 101.744 137.021 101.712 137.265 101.738L139.655 101.991C140.146 102.043 140.483 102.297 140.666 102.749L141.992 106.025C142.093 106.254 142.265 106.381 142.51 106.407L143.037 106.463C143.345 106.495 143.513 106.359 143.546 106.052L143.83 103.365C143.895 102.753 144.235 102.479 144.846 102.544L147.052 102.777C147.664 102.842 147.939 103.182 147.874 103.794L147.59 106.48C147.557 106.787 147.693 106.956 148 106.988L148.552 107.047C148.812 107.074 149.007 106.986 149.138 106.782L151.165 103.861C151.439 103.457 151.821 103.279 152.312 103.331L154.61 103.575C154.854 103.601 155.04 103.676 155.168 103.796C155.293 103.918 155.349 104.07 155.33 104.254C155.313 104.406 155.251 104.569 155.14 104.743L152.383 108.631C152.311 108.732 152.267 108.853 152.252 108.989C152.243 109.081 152.257 109.175 152.291 109.272L154.249 114.031C154.322 114.224 154.348 114.397 154.332 114.549C154.313 114.733 154.229 114.873 154.079 114.963C153.931 115.057 153.733 115.089 153.487 115.063L150.937 114.793C150.446 114.741 150.109 114.482 149.928 114.011L148.647 110.764C148.562 110.537 148.398 110.411 148.153 110.385L147.649 110.331C147.342 110.299 147.173 110.435 147.141 110.742L146.856 113.429C146.792 114.04 146.452 114.315 145.84 114.25L143.634 114.017C143.022 113.952 142.748 113.612 142.812 113L143.097 110.314C143.129 110.009 142.993 109.838 142.686 109.806L142.135 109.747C141.89 109.722 141.695 109.81 141.549 110.012L139.566 112.938C139.292 113.342 138.907 113.519 138.419 113.467L136.008 113.212C135.764 113.186 135.578 113.113 135.45 112.991Z" fill="white"/>
<path d="M155.834 114.384L156.856 104.736C156.921 104.124 157.261 103.849 157.872 103.914L160.055 104.145C160.667 104.21 160.941 104.549 160.876 105.161L160.492 108.79C160.479 108.914 160.492 109.016 160.529 109.097C160.565 109.178 160.624 109.224 160.7 109.232C160.808 109.243 160.916 109.178 161.024 109.035L164.518 105.202C164.834 104.848 165.23 104.696 165.705 104.746L167.911 104.979C168.523 105.044 168.798 105.384 168.733 105.996L167.712 115.644C167.647 116.256 167.307 116.53 166.695 116.466L164.56 116.239C163.948 116.175 163.674 115.835 163.738 115.223L164.13 111.526C164.157 111.266 164.095 111.126 163.94 111.11C163.848 111.1 163.733 111.157 163.598 111.283L160.049 115.18C159.733 115.534 159.337 115.686 158.862 115.636L156.656 115.403C156.044 115.338 155.769 114.998 155.834 114.386L155.834 114.384Z" fill="white"/>
<path d="M172.829 116.182L173.537 109.499C173.569 109.195 173.433 109.024 173.126 108.991L170.645 108.728C170.033 108.664 169.758 108.326 169.823 107.712L169.991 106.129C170.055 105.517 170.395 105.242 171.007 105.307L180.975 106.362C181.587 106.427 181.862 106.767 181.797 107.379L181.629 108.962C181.565 109.574 181.225 109.849 180.613 109.784L178.11 109.519C177.803 109.486 177.635 109.623 177.602 109.93L176.895 116.613C176.83 117.225 176.49 117.499 175.878 117.435L173.651 117.199C173.039 117.134 172.765 116.794 172.829 116.182Z" fill="white"/>
<path d="M185.117 117.483L185.824 110.8C185.856 110.496 185.721 110.325 185.413 110.292L182.932 110.029C182.32 109.965 182.045 109.627 182.11 109.013L182.278 107.429C182.342 106.818 182.682 106.543 183.294 106.608L193.262 107.663C193.874 107.728 194.149 108.068 194.084 108.68L193.916 110.263C193.852 110.875 193.512 111.15 192.9 111.085L190.397 110.82C190.09 110.787 189.922 110.924 189.889 111.231L189.182 117.914C189.117 118.526 188.777 118.8 188.165 118.736L185.938 118.5C185.327 118.435 185.052 118.095 185.117 117.483Z" fill="white"/>
<path d="M196.23 115.386C196.245 115.25 196.182 115.118 196.041 114.994C195.576 114.573 195.234 114.086 195.023 113.527C194.811 112.971 194.738 112.379 194.804 111.751C194.931 110.556 195.493 109.66 196.494 109.062C197.494 108.464 198.789 108.248 200.383 108.417L205.667 108.977C206.278 109.041 206.553 109.381 206.488 109.993L205.467 119.641C205.402 120.253 205.062 120.527 204.45 120.463L202.292 120.234C201.68 120.169 201.405 119.83 201.47 119.218L201.689 117.151C201.721 116.844 201.585 116.675 201.278 116.643L200.635 116.575C200.404 116.55 200.212 116.631 200.052 116.816L198.035 119.181C197.733 119.552 197.345 119.71 196.869 119.66L194.367 119.395C194.122 119.369 193.931 119.296 193.798 119.173C193.662 119.049 193.606 118.905 193.624 118.737C193.642 118.569 193.729 118.393 193.89 118.208L196.112 115.655C196.18 115.585 196.221 115.497 196.233 115.389L196.23 115.386ZM200.213 113.532L201.592 113.678C201.899 113.711 202.068 113.574 202.1 113.267L202.214 112.188C202.247 111.881 202.111 111.712 201.804 111.68L200.425 111.534C199.95 111.483 199.581 111.529 199.319 111.672C199.057 111.814 198.908 112.045 198.873 112.368C198.802 113.043 199.25 113.43 200.213 113.532Z" fill="white"/>
<path d="M84.6689 104.334L59.473 101.666L58.2957 82.8645L89.7576 86.1958L84.6689 104.334Z" fill="#5D398E"/>
<path d="M89.9882 89.5536L56.8842 86.0484L56.7754 81.6499L91.0158 85.2755L89.9882 89.5536Z" fill="#5D398E"/>
<path d="M78.8891 93.3923C78.9068 93.2248 78.7864 93.0759 78.6156 93.0578L75.1542 92.6913C75.052 92.6838 74.9613 92.631 74.8993 92.558C74.8376 92.4818 74.8079 92.3857 74.8187 92.2838L75.1908 88.7698C75.2021 88.6315 75.1023 88.5081 74.9643 88.4934L71.7952 88.1579C71.647 88.1455 71.5163 88.2512 71.5006 88.399L71.1303 91.8966C71.1231 91.9955 71.0736 92.0866 70.997 92.1515C70.9175 92.2128 70.8213 92.2425 70.7195 92.2317L67.2351 91.8628C67.0804 91.8497 66.9456 91.9616 66.9293 92.116L66.5979 95.2458C66.5816 95.4001 66.6964 95.5385 66.8508 95.5548L70.3352 95.9238C70.4338 95.9342 70.5252 95.9804 70.5869 96.0567C70.6518 96.1333 70.6778 96.2324 70.6674 96.3309L70.295 99.8482C70.2837 99.9865 70.3838 100.107 70.5185 100.121L73.668 100.454C73.8289 100.471 73.9712 100.35 73.9879 100.193L74.3555 96.7214C74.3741 96.5142 74.5593 96.3644 74.7662 96.3863L78.2343 96.7535C78.3956 96.7673 78.5441 96.6502 78.5582 96.4856L78.8851 93.3985L78.8891 93.3923Z" fill="white"/>
<path d="M86.5744 89.9261L60.2093 87.1345L62.8856 76.3491C63.3719 74.3914 65.248 73.0757 67.2546 73.2882L82.5883 74.9118C84.5916 75.1239 86.1539 76.8037 86.2194 78.8198L86.5776 89.9265L86.5744 89.9261ZM60.7221 86.777L86.1511 89.4695L85.8095 78.8329C85.7524 77.0202 84.3481 75.5099 82.5451 75.319L67.2115 73.6954C65.4085 73.5045 63.7224 74.6876 63.2837 76.4477L60.7221 86.777Z" fill="#5D398E"/>
<path d="M83.3121 74.4241L66.6451 72.6593C66.1662 72.6086 65.737 72.9557 65.6863 73.4345L65.6859 73.4378C65.6352 73.9167 65.9823 74.3459 66.4611 74.3966L83.1281 76.1614C83.6069 76.2121 84.0362 75.865 84.0869 75.3862L84.0873 75.3829C84.138 74.9041 83.7909 74.4748 83.3121 74.4241Z" fill="#5D398E"/>
<g clip-path="url(#clip0_1553_848)">
<g clip-path="url(#clip1_1553_848)">
<path d="M210.951 10.382C231.934 7.99497 251.033 23.019 253.442 44.1926C255.829 65.1755 240.614 84.2963 219.631 86.6833C198.457 89.092 179.527 73.8555 177.14 52.8726C174.732 31.699 189.777 12.7906 210.951 10.382Z" fill="#C8B4D7"/>
<path d="M239.432 70.5187L197.467 75.2927L188.823 45.1673L241.089 39.2216L239.432 70.5187Z" fill="#5D388D"/>
<path d="M242.672 44.6448L187.544 50.9161L185.766 43.776L242.801 37.2877L242.672 44.6448Z" fill="#5D388D"/>
<path d="M226.055 54.8436C226.033 54.6529 225.799 54.2931 225.418 54.3365L219.695 54.9875C219.504 55.0092 219.314 55.0309 219.292 54.8401C219.079 54.671 219.079 54.671 219.058 54.4803L218.385 48.5669C218.363 48.3762 218.151 48.2071 217.96 48.2288L212.619 48.8364C212.428 48.8581 212.259 49.0706 212.281 49.2613L212.932 54.9839C212.954 55.1747 212.975 55.3654 212.785 55.3871C212.615 55.5996 212.615 55.5996 212.425 55.6213L210.136 55.8817L209.754 55.9251L209.373 55.9685L206.511 56.294C206.321 56.3157 206.152 56.5281 206.173 56.7189L206.759 61.8692C206.781 62.06 206.993 62.229 207.184 62.2073L212.907 61.5563C213.097 61.5346 213.288 61.5129 213.31 61.7037C213.522 61.8728 213.522 61.8728 213.544 62.0635L213.891 65.1156L214 66.0693L214.043 66.4508L214.282 68.5491C214.304 68.7399 214.516 68.9089 214.707 68.8872L219.857 68.3013C220.048 68.2796 220.408 68.0455 220.364 67.664L219.713 61.9414C219.67 61.5599 219.839 61.3474 220.22 61.304L225.943 60.653C226.134 60.6313 226.494 60.3972 226.45 60.0157L226.055 54.8436Z" fill="#C8B4D7"/>
<path d="M236.867 46.2714L193.757 51.1755L194.218 33.1534C194.231 29.8672 196.641 27.2743 199.884 26.9054L225.445 23.9977C228.688 23.6288 231.618 25.614 232.369 28.8134L236.867 46.2714Z" stroke="#5D388D" stroke-width="0.960353" stroke-miterlimit="10"/>
<path d="M227.908 25.2633L197.769 28.6919C197.579 28.7136 197.557 28.5228 197.535 28.332L197.275 26.043C197.253 25.8523 197.444 25.8306 197.444 25.8306L227.392 22.4237C227.583 22.402 227.605 22.5927 227.605 22.5927L227.865 24.8818C228.078 25.0508 227.908 25.2633 227.908 25.2633Z" fill="#5D388D"/>
</g>
</g>
<defs>
<clipPath id="clip0_1553_848">
<rect x="166.396" y="10.8297" width="88.6311" height="85.9829" rx="25.7949" transform="rotate(-6.49477 166.396 10.8297)" fill="white"/>
</clipPath>
<clipPath id="clip1_1553_848">
<rect width="76.7934" height="76.7934" fill="white" transform="translate(172.8 14.7219) rotate(-6.49)"/>
</clipPath>
</defs>
</svg>
