<svg width="340" height="166" viewBox="0 0 340 166" fill="none" xmlns="http://www.w3.org/2000/svg">
<path d="M3 59.3637C19.6898 43.5523 41.8997 31.8889 63.8889 25.3637C86.7143 18.5903 110.784 14.7842 134.611 15.4748C146.341 15.8148 169.109 16.7793 172.111 31.4748C178.679 63.6211 164.414 91.4057 142 113.197C133.513 121.448 122.483 129.783 110.111 129.919C98.3469 130.049 83.9862 125.151 76.4444 115.586C72.1472 110.136 78.9921 101.536 82.1111 97.4192C87.8697 89.8179 94.3181 84.49 103.556 81.8081C129.184 74.3675 156.452 81.3053 179.667 92.3081C199.642 101.776 218.351 112.948 237.222 124.364C249.109 131.555 260.297 142.014 273.556 146.53C295.114 153.875 320.788 149.532 335 135.321L402 59.3637" stroke="white" stroke-opacity="0.06" stroke-width="30" stroke-linecap="round"/>
</svg>
