<svg width="240" height="245" viewBox="0 0 240 245" fill="none" xmlns="http://www.w3.org/2000/svg">
<path d="M149.717 51.0548L97.1036 45.7344C93.0146 45.3203 88.936 46.5894 85.7932 49.2291L66.8954 65.1875C63.7576 67.84 61.8256 71.6509 61.5467 75.7448L57.9149 128.508C57.6433 132.437 58.9096 136.324 61.4497 139.329L127.514 217.635C132.919 224.048 142.492 224.849 148.892 219.449L224.027 156.066C230.44 150.661 231.241 141.088 225.841 134.688L159.79 56.3762C157.25 53.3709 153.64 51.4615 149.722 51.0675L149.717 51.0548ZM97.0403 81.7437C93.4263 84.7948 87.9855 84.3319 84.9344 80.7179C81.8833 77.1039 82.3462 71.6631 85.9602 68.612C89.5742 65.5608 95.015 66.0237 98.0661 69.6377C101.117 73.2518 100.654 78.6925 97.0403 81.7437Z" fill="#7A5DB6"/>
<path d="M137.012 72.5579L90.178 48.0009C86.5384 46.0918 82.2807 45.7484 78.3802 47.0257L54.8944 54.7856C50.9939 56.0767 47.7801 58.8922 45.9946 62.5868L22.9484 110.19C21.2316 113.733 20.9569 117.813 22.193 121.548L54.2901 218.842C56.9134 226.808 65.4974 231.121 73.4495 228.498L166.802 197.705C174.768 195.082 179.08 186.498 176.457 178.546L144.374 81.2517C143.138 77.516 140.501 74.3983 137.012 72.5716V72.5579ZM76.6909 81.3891C72.1997 82.8724 67.324 80.4139 65.8407 75.9228C64.3574 71.4317 66.8159 66.556 71.307 65.0727C75.7981 63.5894 80.6738 66.0478 82.1571 70.5389C83.6404 75.0301 81.182 79.9058 76.6909 81.3891Z" fill="#5D398E"/>
<path d="M73.9995 -27.2368C61.6277 0.747461 59.3125 20.1336 73.9995 69.7632" stroke="white" stroke-width="2" stroke-linecap="round"/>
</svg>
